<?xml version="1.0" encoding="utf-8"?>
<!-- Generator: Adobe Illustrator 27.5.0, SVG Export Plug-In . SVG Version: 6.00 Build 0)  -->
<svg version="1.1" xmlns="http://www.w3.org/2000/svg" xmlns:xlink="http://www.w3.org/1999/xlink" x="0px" y="0px"
	 viewBox="0 0 500 500" style="enable-background:new 0 0 500 500;" xml:space="preserve">
<g id="Background_Simple">
	<g>
		<path style="fill:#92E3A9;" d="M414.718,156.974c-11.822-30.662-35.437-51.136-63.758-67.379
			c-61.545-35.298-104.989-39.824-146.623-7.241c-41.634,32.583-77.837,95.033-104.084,108.61
			c-26.247,13.576-47.064,30.773-45.254,82.362c1.81,51.59,38.918,42.539,43.444,84.172c4.525,41.634,33.488,75.122,81.457,84.172
			c47.969,9.051,63.356-25.342,105.894-32.583c42.539-7.241,48.874,16.292,104.084,9.051c55.21-7.241,72.406-100.464,61.545-152.056
			c-5.568-26.447-14.215-53.066-24.969-77.808C422.061,178.169,418.735,167.393,414.718,156.974z"/>
		<path style="opacity:0.7;fill:#FFFFFF;" d="M414.718,156.974c-11.822-30.662-35.437-51.136-63.758-67.379
			c-61.545-35.298-104.989-39.824-146.623-7.241c-41.634,32.583-77.837,95.033-104.084,108.61
			c-26.247,13.576-47.064,30.773-45.254,82.362c1.81,51.59,38.918,42.539,43.444,84.172c4.525,41.634,33.488,75.122,81.457,84.172
			c47.969,9.051,63.356-25.342,105.894-32.583c42.539-7.241,48.874,16.292,104.084,9.051c55.21-7.241,72.406-100.464,61.545-152.056
			c-5.568-26.447-14.215-53.066-24.969-77.808C422.061,178.169,418.735,167.393,414.718,156.974z"/>
	</g>
</g>
<g id="Scribble">
	<g>
		<g>
			<path style="fill:none;stroke:#263238;stroke-linecap:round;stroke-linejoin:round;stroke-miterlimit:10;" d="M192.047,241.252
				c0,0-18.253,5.444-28.209-3.266c-9.956-8.711,16.04-18.51,24.89-15.244c8.85,3.266,2.765,14.155-10.509,9.255
				c-13.275-4.9-21.571-13.066,0.553-15.788c22.124-2.722,9.403,7.077,1.659-5.444c-7.744-12.521,13.828-29.398,24.89-26.132
				c11.062,3.266-8.297,14.699-14.934,8.166c-6.637-6.533-34.846-20.688,11.062-22.865c45.908-2.178,32.08,11.433,22.677,11.433
				c-9.403,0-32.08-22.865-17.699-25.043c14.381-2.178,33.187,10.888,32.633,18.51s-24.337-11.433-12.168-23.954
				c12.168-12.521,27.102,0,29.315,14.155c2.212,14.155-14.381,16.877-9.403,1.633c4.978-15.244,12.721-26.676,19.912-12.521
				c7.19,14.155,8.297,32.665,4.425,30.487c-3.872-2.178-8.85-43.553,10.509-28.31c19.359,15.244,17.7,27.221,13.828,31.032
				c-3.872,3.811-24.89-41.92,3.872-21.777c28.762,20.143-1.106,35.387,5.531,47.908c6.637,12.522,26.549,2.722,21.571-22.321
				s-17.146-17.421-24.337-3.266c-7.19,14.155,16.04,51.175,24.337,35.931c2.008-3.689,3.044-7.985,3.359-12.176
				c0.986-13.126-5.099-25.23-10.549-14.501c-7.19,14.155,4.978,25.587,18.806,21.232c13.828-4.355,6.044-19.4-1.106-13.066
				c-7.15,6.335-8.85,9.255-2.766,17.966s10.509,33.754-7.743,26.676c-18.253-7.077,1.659-24.499,19.359-19.055
				c17.7,5.444,11.615,13.61,6.637,21.777c-4.978,8.166-18.806,9.255-14.934,16.877c3.872,7.622,13.275,18.51,18.253,2.722
				c4.978-15.788-12.721-20.688-25.996-14.155"/>
			<path style="fill:none;stroke:#263238;stroke-linecap:round;stroke-linejoin:round;stroke-miterlimit:10;" d="M194.813,249.418
				c0,0-23.784-6.533-27.656-21.777c-3.872-15.244,10.509-10.344,9.956-0.544c-0.553,9.799-3.872,24.499-13.828,21.777
				c-9.956-2.722-6.637-43.009,8.297-47.364c14.934-4.355,33.187,9.799,24.337,14.155c-8.85,4.355-16.593-13.066-7.19-26.676
				c9.403-13.61,27.102-7.077,26.549-0.544c-0.553,6.533-23.784-18.51-23.231-26.132s8.85-21.232,16.593-11.977
				c7.744,9.255,26.549,42.464,15.487,31.031c-11.062-11.433-13.275-20.688-2.765-26.676c10.509-5.989,17.699-7.077,17.699,6.533
				c0,13.61-3.817,25.561-1.632,3.526c2.185-22.036,18.778-32.924,24.863-15.503c6.084,17.421,7.19,35.931,2.212,21.777
				c-4.978-14.155,27.655-22.321,24.89-16.877c-2.766,5.444-19.912,10.344-14.381,14.699s30.421-5.988,40.377,2.722
				s-7.744,7.077-13.275,16.332s29.868-4.9,32.08,4.9c2.212,9.799-27.655,12.521-29.315,20.688
				c-1.659,8.166,60.289,24.499,39.271,29.398c-21.018,4.9-29.315,0.544-29.868,2.178"/>
			<path style="fill:none;stroke:#263238;stroke-linecap:round;stroke-linejoin:round;stroke-miterlimit:10;" d="M189.281,235.263
				c0,0-22.125,14.699-19.912,19.055c2.212,4.355,25.996-7.077,22.124,0.544c-3.872,7.622-19.359,12.521-12.168,14.699
				c7.19,2.178,18.253-1.089,21.018-5.989"/>
			<path style="fill:none;stroke:#263238;stroke-linecap:round;stroke-linejoin:round;stroke-miterlimit:10;" d="M204.768,273.917
				c0,0-13.828-5.444-21.571-15.788c-7.743-10.344,2.766-34.298,10.509-36.476"/>
		</g>
		<g>
			<path style="fill:none;stroke:#263238;stroke-linecap:round;stroke-linejoin:round;stroke-miterlimit:10;" d="M329.085,241.74
				c0,0,20.927,6.342,32.342-3.805c11.415-10.147-18.391-21.562-28.537-17.757c-10.147,3.805-3.171,16.488,12.049,10.781
				c15.22-5.707,24.732-15.22-0.634-18.391c-25.366-3.171-10.781,8.244-1.902-6.342c8.878-14.586-15.854-34.245-28.537-30.44
				c-12.683,3.805,9.512,17.122,17.122,9.512c7.61-7.61,39.952-24.098-12.683-26.635c-52.635-2.537-36.781,13.317-26.001,13.317
				c10.781,0,36.781-26.635,20.293-29.171c-16.488-2.537-38.05,12.683-37.416,21.561c0.634,8.878,27.903-13.317,13.952-27.903
				c-13.952-14.586-31.074,0-33.61,16.488c-2.537,16.488,16.488,19.659,10.781,1.903c-5.707-17.757-14.586-31.074-22.83-14.586
				s-9.512,38.05-5.073,35.513c4.439-2.537,10.147-50.733-12.049-32.977c-22.196,17.757-20.293,31.708-15.854,36.147
				c4.439,4.439,28.537-48.83-4.439-25.367c-32.976,23.464,1.268,41.221-6.342,55.806c-7.61,14.586-30.44,3.171-24.732-26.001
				c5.708-29.171,19.659-20.293,27.903-3.805c8.244,16.488-18.391,59.611-27.903,41.855c-2.302-4.298-3.49-9.301-3.851-14.183
				c-1.131-15.289,5.846-29.389,12.095-16.891c8.244,16.488-5.708,29.806-21.562,24.732c-15.854-5.073-6.929-22.599,1.268-15.22
				c8.198,7.379,10.147,10.781,3.171,20.927c-6.976,10.146-12.049,39.318,8.878,31.074c20.927-8.244-1.902-28.537-22.196-22.196
				c-5.073,1.585-8.442,3.369-10.553,5.301"/>
			<path style="fill:none;stroke:#263238;stroke-linecap:round;stroke-linejoin:round;stroke-miterlimit:10;" d="M325.914,251.252
				c0,0,27.269-7.61,31.708-25.366c4.439-17.757-12.049-12.049-11.415-0.634c0.634,11.415,4.439,28.537,15.854,25.367
				c11.415-3.171,7.61-50.099-9.513-55.172c-17.122-5.073-38.05,11.415-27.903,16.488c10.147,5.073,19.025-15.22,8.244-31.074
				c-10.781-15.854-31.074-8.244-30.44-0.634c0.634,7.61,27.269-21.562,26.635-30.44c-0.634-8.878-10.147-24.732-19.025-13.952
				c-8.878,10.781-30.44,49.465-17.757,36.147c12.683-13.317,15.22-24.098,3.171-31.074c-12.049-6.976-20.293-8.244-20.293,7.61
				c0,15.854,4.377,29.775,1.871,4.107c-2.505-25.668-21.53-38.352-28.506-18.059c-6.976,20.293-8.244,41.855-2.537,25.367
				c5.707-16.488-31.708-26.001-28.537-19.659c3.171,6.342,22.83,12.049,16.488,17.122c-6.342,5.073-34.879-6.976-46.294,3.171
				c-11.415,10.147,8.878,8.244,15.22,19.025c6.342,10.781-34.245-5.707-36.781,5.707c-2.537,11.415,31.708,14.586,33.611,24.098
				c1.902,9.513-69.124,28.537-45.025,34.245c24.098,5.707,33.611,0.634,34.245,2.537"/>
			<path style="fill:none;stroke:#263238;stroke-linecap:round;stroke-linejoin:round;stroke-miterlimit:10;" d="M332.256,234.764
				c0,0,25.366,17.122,22.83,22.196c-2.537,5.073-29.806-8.244-25.367,0.634c4.439,8.878,22.196,14.586,13.952,17.122
				c-8.244,2.537-20.927-1.268-24.098-6.976"/>
			<path style="fill:none;stroke:#263238;stroke-linecap:round;stroke-linejoin:round;stroke-miterlimit:10;" d="M314.5,279.789
				c0,0,15.854-6.342,24.732-18.391c8.878-12.049-3.171-39.952-12.049-42.489"/>
		</g>
		<g>
			<g>
				<path style="fill:none;stroke:#263238;stroke-linecap:round;stroke-linejoin:round;stroke-miterlimit:10;" d="M258.797,53.884
					c0,0-13.26-2.743-15.546,8.688c-2.286,11.431,1.372,24.691,15.546,24.234c14.174-0.457,23.319,3.201,29.263-2.743
					c5.944-5.944,9.602-21.947,0-27.892c-9.602-5.944-21.49-2.743-24.234-2.743C261.083,53.427,258.797,53.884,258.797,53.884z"/>
				
					<line style="fill:none;stroke:#263238;stroke-linecap:round;stroke-linejoin:round;stroke-miterlimit:10;" x1="254.709" y1="67.973" x2="264.129" y2="70.744"/>
				
					<line style="fill:none;stroke:#263238;stroke-linecap:round;stroke-linejoin:round;stroke-miterlimit:10;" x1="258.957" y1="61.693" x2="266.161" y2="68.712"/>
				
					<line style="fill:none;stroke:#263238;stroke-linecap:round;stroke-linejoin:round;stroke-miterlimit:10;" x1="273.365" y1="71.668" x2="281.492" y2="71.298"/>
				
					<line style="fill:none;stroke:#263238;stroke-linecap:round;stroke-linejoin:round;stroke-miterlimit:10;" x1="271.887" y1="69.451" x2="280.384" y2="62.617"/>
				<path style="fill:none;stroke:#263238;stroke-linecap:round;stroke-linejoin:round;stroke-miterlimit:10;" d="M259.327,79.425
					c0,0,3.694-4.064,8.127-3.694c4.433,0.369,7.204,5.172,7.204,5.172"/>
				<path style="fill:none;stroke:#263238;stroke-linecap:round;stroke-linejoin:round;stroke-miterlimit:10;" d="M289.804,63.725
					c0,0-0.185,2.032-2.032,2.955c-1.847,0.924-1.847,0.924-1.847,0.924"/>
				<path style="fill:none;stroke:#263238;stroke-linecap:round;stroke-linejoin:round;stroke-miterlimit:10;" d="M286.295,69.821
					c0,0,1.108-1.108,2.401-0.369c1.293,0.739,0.924,2.032,0.924,2.032"/>
				<path style="fill:none;stroke:#263238;stroke-linecap:round;stroke-linejoin:round;stroke-miterlimit:10;" d="M292.206,70.559
					c0,0-0.37-1.293,0.185-2.032"/>
			</g>
			<g>
				<path style="fill:none;stroke:#263238;stroke-linecap:round;stroke-linejoin:round;stroke-miterlimit:10;" d="M330.669,88.9
					c0,0-4.499-9.899-12.148-10.799c-7.649-0.9-13.048,6.299-13.048,11.698c0,5.399,13.498,32.845,13.498,32.845v-8.999l3.599,0.45
					l1.8-8.549h4.949l-2.7-12.148l4.049,1.8V88.9z"/>
				<path style="fill:none;stroke:#263238;stroke-linecap:round;stroke-linejoin:round;stroke-miterlimit:10;" d="M335.169,89.35
					v8.999l-3.15,2.25l1.35,5.399l-5.849,4.499l-0.9,6.299l-3.6,1.35l-1.35,9.899c0,0,6.299-5.399,14.398-8.999
					c8.099-3.6,20.697-10.799,17.548-19.797C350.467,90.25,341.018,86.651,335.169,89.35z"/>
				<path style="fill:none;stroke:#263238;stroke-linecap:round;stroke-linejoin:round;stroke-miterlimit:10;" d="M318.375,129.354
					c0,0-1.213,1.82-0.303,1.971c0.91,0.152,2.881,0.607,3.033,0c0.152-0.607,0.303-1.365-0.152-1.971
					c-0.455-0.607-1.213-1.365-1.213-1.365L318.375,129.354z"/>
				<path style="fill:none;stroke:#263238;stroke-linecap:round;stroke-linejoin:round;stroke-miterlimit:10;" d="M316.097,124.461
					c0,0,0.278-1.339-0.285-1.214c-0.563,0.125-1.813,0.322-1.759,0.71c0.054,0.387,0.143,0.862,0.549,1.108
					c0.406,0.245,1.023,0.508,1.023,0.508L316.097,124.461z"/>
				<path style="fill:none;stroke:#263238;stroke-linecap:round;stroke-linejoin:round;stroke-miterlimit:10;" d="M315.505,129.858
					c0,0,0.278-1.339-0.285-1.214c-0.563,0.125-1.813,0.322-1.759,0.71c0.054,0.387,0.143,0.862,0.549,1.108
					c0.406,0.245,1.023,0.508,1.023,0.508L315.505,129.858z"/>
			</g>
			<g>
				<path style="fill:none;stroke:#263238;stroke-linecap:round;stroke-linejoin:round;stroke-miterlimit:10;" d="M188.39,121.294
					c0,0-4.269,3.202-21.879,9.605c-17.61,6.404-22.946,11.74-23.48,16.009c-0.534,4.269-1.067,7.471-2.668,12.807
					c-1.601,5.336-7.471,6.404-3.202,11.206c4.269,4.803,10.139,10.139,16.543,10.139c6.404,0,15.475,1.067,16.542-5.336
					c1.067-6.404-0.534-15.475,2.135-18.677c2.668-3.202,3.735-0.534,9.605-4.803c5.87-4.269,12.273-6.937,12.273-6.937l5.336-5.336
					l8.538,2.668l-3.735-9.605c0,0,1.067,0,2.668-3.735c1.601-3.735,2.668-6.404-1.067-9.072c-3.735-2.668-3.735-3.735-6.937-4.269
					C195.861,115.424,188.39,121.294,188.39,121.294z"/>
				<path style="fill:none;stroke:#263238;stroke-linecap:round;stroke-linejoin:round;stroke-miterlimit:10;" d="M188.39,129.298
					c-1.067,1.601-6.937,5.336-6.937,5.336s-4.803,4.803-7.471,6.404c-2.668,1.601-10.139,3.202-13.874,8.538
					c-3.735,5.336-6.937,14.408-6.937,14.408"/>
				<path style="fill:none;stroke:#263238;stroke-linecap:round;stroke-linejoin:round;stroke-miterlimit:10;" d="M159.574,168.253
					c0,0,3.202-9.072,4.803-11.74c1.601-2.668,9.605-6.937,9.605-6.937l5.87-5.336l11.74-10.139"/>
			</g>
			<g>
				<g>
					<path style="fill:none;stroke:#263238;stroke-linecap:round;stroke-linejoin:round;stroke-miterlimit:10;" d="M189.621,60.253
						c0,0,0.508,1.468-10.664,3.916c-11.171,2.447-24.882,0.979-26.913,5.873c-2.031,4.895,2.031,10.279-7.617,14.194
						c-9.648,3.916-16.249,5.384-17.265,9.3c-1.016,3.916,5.586,8.321,7.617,13.705c2.031,5.384,0,13.705,7.617,17.131
						c7.617,3.426,11.679-4.895,18.788-7.342c7.109-2.447,9.14-0.489,17.773-4.895c8.632-4.405,11.679-8.321,15.234-11.747
						c3.555-3.426,6.094-3.916,8.632-3.426c2.539,0.49,10.156-1.468,10.156-1.468l8.236,6.495c0.873,0.688,2.155-0.084,1.89-1.14
						c-0.636-2.53-1.126-5.708,0.03-6.823c2.031-1.958,5.586-2.937,6.601-5.384c1.016-2.447-2.539-6.363-5.59-14.695
						c-2.478-6.766-2.094-18.277-11.261-20.942C205.827,50.953,194.11,54.929,189.621,60.253z"/>
				</g>
				<path style="fill:none;stroke:#263238;stroke-linecap:round;stroke-linejoin:round;stroke-miterlimit:10;" d="M147.495,97.226
					c0,0,5.821-0.901,8.731-4.958c2.91-4.057,1.455-7.663,5.336-9.466s10.672-0.902,14.067-2.254
					c3.395-1.352,9.701-3.606,9.701-3.606l6.791-5.409l3.395-0.901"/>
				<path style="fill:none;stroke:#263238;stroke-linecap:round;stroke-linejoin:round;stroke-miterlimit:10;" d="M149.92,104.889
					c0,0,9.701-4.958,11.642-8.564c1.94-3.606,6.791-7.663,11.642-8.114c4.851-0.451,14.067-3.155,16.008-5.409
					c1.94-2.254,4.851-4.508,7.276-4.508"/>
				<path style="fill:none;stroke:#263238;stroke-linecap:round;stroke-linejoin:round;stroke-miterlimit:10;" d="M152.346,112.101
					c0,0,12.127-5.86,13.582-8.564s4.851-9.917,12.127-10.818c7.276-0.901,14.067-1.352,18.433-4.057
					c4.366-2.705,8.731-4.508,8.731-4.508"/>
			</g>
			<polygon style="fill:none;stroke:#263238;stroke-linecap:round;stroke-linejoin:round;stroke-miterlimit:10;" points="
				95.538,129.832 106.211,135.168 109.946,127.697 120.619,138.37 122.22,130.899 133.426,149.042 121.686,142.639 
				119.018,148.509 109.946,141.038 106.745,145.307 91.803,137.303 			"/>
			<polygon style="fill:none;stroke:#263238;stroke-linecap:round;stroke-linejoin:round;stroke-miterlimit:10;" points="
				239.618,25.774 235.35,35.913 230.547,33.245 229.48,43.917 223.61,42.85 228.946,56.724 233.215,49.787 238.018,50.321 
				241.219,40.716 245.488,42.317 251.892,30.577 			"/>
			<g>
				<path style="fill:none;stroke:#263238;stroke-linecap:round;stroke-linejoin:round;stroke-miterlimit:10;" d="M339.297,151.292
					c0,0,1.635-10.087,8.586-10.807c6.951-0.721,15.128,8.286,13.084,13.329c-2.044,5.044-7.768,9.366-7.768,9.366l-1.635,6.845
					h-6.951c0,0-0.409-7.925,2.044-9.366c2.453-1.441,8.177-3.242,6.951-8.646c-1.227-5.404-4.498-7.205-6.951-4.323
					c-2.453,2.882-1.635,6.845-5.315,7.205C337.661,155.255,339.297,151.292,339.297,151.292z"/>
				<path style="fill:none;stroke:#263238;stroke-linecap:round;stroke-linejoin:round;stroke-miterlimit:10;" d="M349.11,172.907
					c0,0-5.724-0.721-5.724,2.522s1.635,8.286,2.862,8.286c1.227,0,4.906,0.36,5.724-2.522c0.818-2.882,0.409-3.602,0.409-5.404
					C352.381,173.988,349.11,172.907,349.11,172.907z"/>
			</g>
			<g>
				<path style="fill:none;stroke:#263238;stroke-linecap:round;stroke-linejoin:round;stroke-miterlimit:10;" d="M95.75,81.815
					c0,0,1.635-10.087,8.586-10.807c6.951-0.721,15.128,8.286,13.084,13.329c-2.044,5.043-7.769,9.366-7.769,9.366l-1.635,6.845
					h-6.951c0,0-0.409-7.925,2.044-9.366c2.453-1.441,8.177-3.242,6.951-8.646c-1.227-5.404-4.498-7.205-6.951-4.323
					c-2.453,2.882-1.635,6.845-5.315,7.205C94.115,85.778,95.75,81.815,95.75,81.815z"/>
				<path style="fill:none;stroke:#263238;stroke-linecap:round;stroke-linejoin:round;stroke-miterlimit:10;" d="M105.563,103.43
					c0,0-5.724-0.72-5.724,2.522c0,3.242,1.636,8.286,2.862,8.286c1.227,0,4.906,0.36,5.724-2.522
					c0.818-2.882,0.409-3.602,0.409-5.404C108.834,104.511,105.563,103.43,105.563,103.43z"/>
			</g>
			<g>
				<path style="fill:none;stroke:#263238;stroke-linecap:round;stroke-linejoin:round;stroke-miterlimit:10;" d="M124.059,193.861
					c0,0,1.635-10.087,8.586-10.807c6.951-0.72,15.128,8.286,13.084,13.329c-2.044,5.043-7.768,9.366-7.768,9.366l-1.635,6.845
					h-6.951c0,0-0.409-7.925,2.044-9.366c2.453-1.441,8.177-3.242,6.951-8.646c-1.227-5.404-4.498-7.205-6.951-4.323
					c-2.453,2.882-1.635,6.845-5.315,7.205C122.423,197.824,124.059,193.861,124.059,193.861z"/>
				<path style="fill:none;stroke:#263238;stroke-linecap:round;stroke-linejoin:round;stroke-miterlimit:10;" d="M133.871,215.476
					c0,0-5.724-0.721-5.724,2.522s1.635,8.286,2.862,8.286c1.227,0,4.907,0.36,5.724-2.522c0.818-2.882,0.409-3.603,0.409-5.404
					C137.142,216.557,133.871,215.476,133.871,215.476z"/>
			</g>
			<g>
				<path style="fill:none;stroke:#263238;stroke-linecap:round;stroke-linejoin:round;stroke-miterlimit:10;" d="M309.003,37.991
					c0,0,1.037-6.398,5.446-6.854c4.409-0.457,9.595,5.255,8.298,8.454c-1.297,3.199-4.927,5.94-4.927,5.94l-1.037,4.341h-4.409
					c0,0-0.259-5.027,1.297-5.941c1.556-0.914,5.186-2.056,4.408-5.484c-0.778-3.427-2.853-4.57-4.408-2.742
					c-1.556,1.828-1.037,4.341-3.371,4.57C307.965,40.504,309.003,37.991,309.003,37.991z"/>
				<path style="fill:none;stroke:#263238;stroke-linecap:round;stroke-linejoin:round;stroke-miterlimit:10;" d="M315.226,51.7
					c0,0-3.631-0.457-3.631,1.599c0,2.056,1.037,5.255,1.815,5.255c0.778,0,3.112,0.229,3.631-1.599
					c0.519-1.828,0.259-2.285,0.259-3.427C317.301,52.385,315.226,51.7,315.226,51.7z"/>
			</g>
			<g>
				<path style="fill:none;stroke:#263238;stroke-linecap:round;stroke-linejoin:round;stroke-miterlimit:10;" d="M234.462,98.513
					c0,0,1.037-6.397,5.446-6.854c4.409-0.457,9.595,5.255,8.298,8.454c-1.297,3.199-4.927,5.941-4.927,5.941l-1.037,4.341h-4.409
					c0,0-0.259-5.027,1.297-5.941c1.556-0.914,5.187-2.056,4.409-5.484c-0.778-3.427-2.853-4.57-4.409-2.742
					c-1.556,1.828-1.037,4.341-3.371,4.57C233.425,101.026,234.462,98.513,234.462,98.513z"/>
				<path style="fill:none;stroke:#263238;stroke-linecap:round;stroke-linejoin:round;stroke-miterlimit:10;" d="M240.686,112.222
					c0,0-3.631-0.457-3.631,1.599c0,2.056,1.037,5.255,1.815,5.255s3.112,0.229,3.631-1.599c0.519-1.828,0.259-2.285,0.259-3.427
					C242.76,112.908,240.686,112.222,240.686,112.222z"/>
			</g>
			<g>
				<path style="fill:none;stroke:#263238;stroke-linecap:round;stroke-linejoin:round;stroke-miterlimit:10;" d="M356.413,60.632
					c0,0,1.037-6.398,5.446-6.854c4.409-0.457,9.595,5.255,8.298,8.454c-1.297,3.199-4.927,5.941-4.927,5.941l-1.037,4.341h-4.408
					c0,0-0.259-5.027,1.297-5.941c1.556-0.914,5.186-2.056,4.409-5.484c-0.778-3.427-2.853-4.57-4.409-2.742
					c-1.556,1.828-1.037,4.341-3.371,4.57S356.413,60.632,356.413,60.632z"/>
				<path style="fill:none;stroke:#263238;stroke-linecap:round;stroke-linejoin:round;stroke-miterlimit:10;" d="M362.637,74.341
					c0,0-3.631-0.457-3.631,1.599c0,2.056,1.037,5.255,1.815,5.255c0.778,0,3.112,0.229,3.631-1.599
					c0.519-1.828,0.259-2.285,0.259-3.427C364.712,75.027,362.637,74.341,362.637,74.341z"/>
			</g>
			<g>
				<g>
					<path style="fill:none;stroke:#263238;stroke-linecap:round;stroke-linejoin:round;" d="M348.385,80.389
						c25.148,20.738,16.285,53.148-12.713,57.981c-32.018,5.336-29.305-25.387-61.367-26.682
						c-32.063-1.294-17.61,9.072,0.534,14.408c18.143,5.336,12.273,17.076-16.009,4.803c-28.282-12.273-38.421-19.744-55.497-18.677
						c-17.076,1.067-70.973,21.879-69.906,36.82c1.067,14.942-6.404,28.816,2.134,36.287c8.538,7.471,34.686,22.412,41.09,1.067
						c4.76-15.866,17.185-27.604,25.223-33.023"/>
					<g>
						<polygon style="fill:#263238;" points="208.134,150.11 201.34,158.437 201.469,153.738 197.453,151.297 						"/>
					</g>
				</g>
			</g>
			<g>
				<g>
					<path style="fill:none;stroke:#263238;stroke-linecap:round;stroke-linejoin:round;" d="M187.35,50.42
						c5.747-2.47,10.802-4.46,14.381-5.436c17.61-4.803,26.682,12.807,34.152,28.816c7.471,16.009,26.148,31.484,43.224,22.412
						c17.076-9.072,24.547-41.623,60.3-21.879c1.127,0.622,2.21,1.264,3.252,1.922"/>
					<g>
						<polygon style="fill:#263238;" points="348.385,80.389 337.902,78.021 342.166,76.042 342.559,71.358 						"/>
					</g>
				</g>
			</g>
			<g>
				<g>
					<path style="fill:none;stroke:#263238;stroke-linecap:round;stroke-linejoin:round;" d="M193.193,42.317
						c0,0-53.897,17.61-58.166,27.215c-3.088,6.948,23.982-6.488,45.86-16.271"/>
					<g>
						<polygon style="fill:#263238;" points="187.35,50.42 179.937,58.202 180.427,53.527 176.609,50.785 						"/>
					</g>
				</g>
			</g>
			<g>
				<g>
					<path style="fill:none;stroke:#263238;stroke-linecap:round;stroke-linejoin:round;" d="M79.378,144.31
						c9.13,4.227,27.367,2.998,40.174,10.602c17.076,10.139-5.336,22.946-0.534,33.619c4.803,10.673,34.152,16.543,48.56,12.807
						c14.408-3.735,23.48-14.942,30.951-30.951c7.471-16.009,20.278-29.883,26.148-31.484c5.87-1.601,67.771,12.807,77.91,16.543
						c10.139,3.735,11.74,9.605,23.48,17.076c11.74,7.471,10.139-4.269,7.471-11.206c-2.668-6.937-14.942-6.404-25.614-16.542
						c-10.673-10.139-20.812-20.812-17.61-12.273c3.202,8.538,9.072,17.076-5.87,12.807c-14.942-4.269-38.756-15.315-41.425-15.315
						c0,0-18-9.409-24.137-5.727c-6.136,3.682,0.409,4.5,20.046,10.637c5.89,1.841,10.013,3.129,12.9,4.031"/>
					<g>
						<polygon style="fill:#263238;" points="258.565,141.038 247.856,141.95 251.322,138.774 250.281,134.191 						"/>
					</g>
				</g>
			</g>
			<g>
				<g>
					<path style="fill:none;stroke:#263238;stroke-linecap:round;stroke-linejoin:round;" d="M179.753,25.195
						c-32.4,9.674-50.255,23.415-46.861,22.991c4.269-0.534,27.215-7.471,47.493-14.942c20.278-7.471,38.421-2.668,19.211,1.067
						s-61.367,19.744-69.906,25.081s1.601,13.341,2.134,19.211c0.534,5.87-8.004,8.538-12.273,14.408
						c-4.269,5.87,5.87,28.816,0.534,30.951c-5.25,2.1-43.56,2.134-49.368,12.299"/>
					<g>
						<polygon style="fill:#263238;" points="73.701,142.681 67.134,134.173 71.681,135.366 74.97,132.008 						"/>
					</g>
				</g>
			</g>
			<g>
				<g>
					<path style="fill:none;stroke:#263238;stroke-linecap:round;stroke-linejoin:round;" d="M278.841,46.335
						c-6.565-1.06-13.82-3.432-20.546-6.687c-16.542-8.004,30.951-4.269,34.686-6.937c3.735-2.668-35.753-21.879-85.381-13.874
						c-7.495,1.209-14.527,2.734-21.051,4.451"/>
					<g>
						<polygon style="fill:#263238;" points="179.753,25.195 188.333,18.723 187.09,23.257 190.411,26.583 						"/>
					</g>
				</g>
			</g>
			<g>
				<g>
					<path style="fill:none;stroke:#263238;stroke-linecap:round;stroke-linejoin:round;" d="M350.08,48.72
						c0,0-1.601-10.673-20.278-18.143c-18.677-7.471-25.614,1.601-30.417,10.673c-2.117,3.999-7.138,5.717-13.509,5.702"/>
					<g>
						<polygon style="fill:#263238;" points="278.841,46.335 289.06,43.004 286.41,46.887 288.469,51.112 						"/>
					</g>
				</g>
			</g>
			<g>
				<g>
					<path style="fill:none;stroke:#263238;stroke-linecap:round;stroke-linejoin:round;" d="M386.819,125.284
						c-2.057,10.1-6.161,16.06-10.591,18.423c-8.005,4.269-12.273,8.004-8.538,12.273c3.735,4.269,9.605,0.534,10.139,8.005
						c0.534,7.471-3.202,21.879-19.211,28.282c-12.939,5.176-22.392,4.076-29.486-2.17"/>
					<g>
						<polygon style="fill:#263238;" points="324.466,184.796 334.178,189.399 329.584,190.398 328.176,194.883 						"/>
					</g>
				</g>
			</g>
			<g>
				<g>
					<path style="fill:none;stroke:#263238;stroke-linecap:round;stroke-linejoin:round;" d="M336.739,53.523
						c0,0,11.74,9.605,8.538,1.601c-3.202-8.005-9.605-13.874-15.475-7.471c-5.87,6.403,1.067,14.942,10.139,16.542
						c9.072,1.601,24.547,0,33.619,28.282c9.072,28.282-11.206,30.417-12.807,37.888c-1.601,7.471,19.211,3.735,20.278-14.408
						c1.067-18.143-11.206-34.152-10.672-42.157c0.534-8.004,12.273-12.273,16.542,18.677c1.405,10.187,1.596,18.756,0.935,25.82"/>
					<g>
						<polygon style="fill:#263238;" points="386.819,125.284 384.141,114.875 387.849,117.765 392.196,115.978 						"/>
					</g>
				</g>
			</g>
		</g>
	</g>
</g>
<g id="Arrows">
	<g>
		<g>
			<g>
				<path style="fill:none;stroke:#263238;stroke-width:2;stroke-linecap:round;stroke-linejoin:round;" d="M44.158,319.435
					c0,0,25.508-5.37,27.522-10.069c2.014-4.699-1.343-18.795,8.055-21.48c9.398-2.685,26.179,3.356,30.207,2.014
					c4.028-1.342,11.411-17.453,15.439-19.467c1.689-0.845,6.448-0.981,11.404-0.854"/>
				<g>
					<polygon style="fill:#263238;" points="150.888,270.433 130.601,277.538 135.731,269.659 131.43,261.3 					"/>
				</g>
			</g>
		</g>
		<g>
			<g>
				<path style="fill:none;stroke:#263238;stroke-width:2;stroke-linecap:round;stroke-linejoin:round;" d="M71.679,371.793
					c0,0,19.466-2.014,22.152-7.384c2.685-5.37-2.685-13.425,4.699-22.152c7.384-8.726,14.768,1.342,22.152-2.014
					c7.384-3.356,12.754-10.74,14.768-12.083c2.014-1.343,4.699,0.671,7.384-1.343c1.916-1.437,6.225-6.634,9.268-10.469"/>
				<g>
					<polygon style="fill:#263238;" points="162.971,307.352 153.195,326.496 151.468,317.253 142.587,314.173 					"/>
				</g>
			</g>
		</g>
		<g>
			<g>
				<path style="fill:none;stroke:#263238;stroke-width:2;stroke-linecap:round;stroke-linejoin:round;" d="M432.145,336.887
					c0,0-19.466-0.671-24.837-4.027c-5.37-3.356-7.384-12.083-12.083-14.096c-4.699-2.014-21.48-4.699-21.48-4.699
					s-4.028-0.671-10.069-6.713c-5.202-5.202-2.441-4.432-4.573-5.403"/>
				<g>
					<polygon style="fill:#263238;" points="345.553,297.954 367.033,297.144 359.809,303.161 361.455,312.416 					"/>
				</g>
			</g>
		</g>
		<g>
			<g>
				<path style="fill:none;stroke:#263238;stroke-width:2;stroke-linecap:round;stroke-linejoin:round;" d="M450.941,285.2
					c0,0-10.069,1.342-16.11,1.342c-6.041,0-22.152-4.028-22.152-4.028l-12.083-4.699c0,0-12.754,1.342-16.781,1.342
					c-2.363,0-6.806,0.231-10.074,0.422"/>
				<g>
					<polygon style="fill:#263238;" points="359.649,280.501 378.985,271.111 374.795,279.528 380.028,287.337 					"/>
				</g>
			</g>
		</g>
		<g>
			<g>
				<path style="fill:none;stroke:#263238;stroke-width:2;stroke-linecap:round;stroke-linejoin:round;" d="M391.199,409.383
					c0,0-9.398-14.096-14.768-17.453c-5.37-3.356-16.11-12.754-16.11-12.754l-2.685-16.11l-4.513-5.803"/>
				<g>
					<polygon style="fill:#263238;" points="346.224,344.942 363.252,358.062 353.849,358.065 349.193,366.231 					"/>
				</g>
			</g>
		</g>
		<g>
			<g>
				<path style="fill:none;stroke:#263238;stroke-width:2;stroke-linecap:round;stroke-linejoin:round;" d="M126.723,397.301
					c0,0,5.37-11.411,8.055-16.11c2.685-4.699,3.356-7.384,6.713-14.096c1.661-3.321,4.307-6.314,6.558-8.49"/>
				<g>
					<polygon style="fill:#263238;" points="156.929,347.627 150.527,368.147 147.265,359.329 137.99,357.793 					"/>
				</g>
			</g>
		</g>
	</g>
</g>
<g id="Character">
	<g>
		<path style="fill:#92E3A9;stroke:#263238;stroke-linecap:round;stroke-linejoin:round;stroke-miterlimit:10;" d="M180.227,453.867
			c0,0-1.825,8.129,0.166,9.788c1.991,1.659,14.93,7.133,54.91,9.124c39.98,1.991,73.987-8.294,76.476-10.949
			c2.488-2.654,0.332-14.764,0.332-14.764s-20.073,11.778-42.966,14.432c-22.893,2.654-56.403-0.498-69.342-4.147
			s-18.746-5.309-18.746-5.309L180.227,453.867z"/>
		<g>
			<path style="fill:#92E3A9;stroke:#263238;stroke-linecap:round;stroke-linejoin:round;stroke-miterlimit:10;" d="
				M235.409,285.603c0,0-31.999,0.621-34.484,2.796c-2.485,2.175-13.048,123.956-15.844,135.761
				c-2.796,11.805-10.252,26.717-7.456,30.756c2.796,4.039,47.843,12.427,74.249,12.427c26.407,0,53.435-10.563,58.716-16.465
				c5.281-5.903,2.485-13.669,1.553-17.397s-5.903-29.203-5.592-30.135c0.311-0.932,9.32-31.688,9.32-31.688
				s22.368-50.328,19.261-55.609c-3.107-5.281-34.484-22.368-34.484-22.368l-57.163-9.009L235.409,285.603z"/>
			<path style="fill:#263238;stroke:#263238;stroke-linecap:round;stroke-linejoin:round;stroke-miterlimit:10;" d="
				M185.081,424.161c0,0,9.27-1.841,16.993-1.445c7.724,0.396,13.27,1.98,13.27,1.98s-8.714-10.299-13.467-11.091
				c-4.753-0.792-14.854,2.773-14.854,2.773L185.081,424.161z"/>
			
				<ellipse style="fill:#263238;stroke:#263238;stroke-linecap:round;stroke-linejoin:round;stroke-miterlimit:10;" cx="261.558" cy="283.383" rx="27.705" ry="19.876"/>
			<g>
				<path style="fill:none;stroke:#263238;stroke-linecap:round;stroke-linejoin:round;stroke-miterlimit:10;" d="M253.561,353.353
					c1.517-1.081,2.975-1.979,4.326-2.62"/>
				<path style="fill:none;stroke:#263238;stroke-linecap:round;stroke-linejoin:round;stroke-miterlimit:10;" d="M229.437,377.477
					c0,0,10.907-13.37,20.825-21.573"/>
				<path style="fill:none;stroke:#263238;stroke-linecap:round;stroke-linejoin:round;stroke-miterlimit:10;" d="M242.24,354.432
					c0,0-9.104,11.665-11.38,15.932"/>
				<path style="fill:none;stroke:#263238;stroke-linecap:round;stroke-linejoin:round;stroke-miterlimit:10;" d="M244.852,320.014
					c0.57,0.758,1.125,1.428,1.655,1.984"/>
				<path style="fill:none;stroke:#263238;stroke-linecap:round;stroke-linejoin:round;stroke-miterlimit:10;" d="M232.282,296.962
					c0,0,6.018,13.439,11.316,21.286"/>
				<path style="fill:none;stroke:#263238;stroke-linecap:round;stroke-linejoin:round;stroke-miterlimit:10;" d="M229.152,295.824
					c0,0,5.406,17.355,7.682,20.769"/>
				<path style="fill:none;stroke:#263238;stroke-linecap:round;stroke-linejoin:round;stroke-miterlimit:10;" d="M220.488,350.053
					c0.274,1.683,0.558,3.118,0.848,4.2"/>
				<path style="fill:none;stroke:#263238;stroke-linecap:round;stroke-linejoin:round;stroke-miterlimit:10;" d="M217.114,314.346
					c0,0,1.291,21.232,3.046,33.542"/>
				<path style="fill:none;stroke:#263238;stroke-linecap:round;stroke-linejoin:round;stroke-miterlimit:10;" d="M199.464,452.999
					c4.861,3.583,13.988,9.534,23.984,12.104"/>
				<path style="fill:none;stroke:#263238;stroke-linecap:round;stroke-linejoin:round;stroke-miterlimit:10;" d="M195.788,450.112
					c0,0,0.797,0.693,2.223,1.792"/>
			</g>
		</g>
		<g>
			<g>
				<path style="fill:#FFFFFF;stroke:#263238;stroke-linecap:round;stroke-linejoin:round;stroke-miterlimit:10;" d="
					M177.52,402.757c0,0-2.442,6.869-3.358,8.853c-0.916,1.984-0.305,4.427,0.916,5.495c1.221,1.069,3.663,3.663,6.105,4.121
					c2.442,0.458,3.205-0.153,3.511-1.221c0.305-1.068,0.305-1.068,0.305-1.068s4.884,2.137,8.242,1.832s6.563-2.442,6.563-2.442
					l5.037,0.611l5.19-13.89c0,0-7.632-2.442-10.532-3.358c-2.9-0.916-15.111-4.121-18.469-3.358
					C177.673,399.094,177.52,402.757,177.52,402.757z"/>
				
					<line style="fill:none;stroke:#263238;stroke-linecap:round;stroke-linejoin:round;stroke-miterlimit:10;" x1="184.999" y1="418.937" x2="179.199" y2="417.563"/>
			</g>
			<g>
				<path style="fill:#263238;stroke:#263238;stroke-linecap:round;stroke-linejoin:round;stroke-miterlimit:10;" d="
					M208.952,405.359c0,0-5.975,7.682-6.259,11.38c-0.285,3.699,2.845,3.983,5.406,4.837c2.561,0.853,14.082-17.07,13.238-17.281
					C220.492,404.083,212.193,401.989,208.952,405.359z"/>
				<g>
					<g>
						<path style="fill:#92E3A9;stroke:#263238;stroke-linecap:round;stroke-linejoin:round;stroke-miterlimit:10;" d="
							M301.132,329.112c0,0-21.907,41.822-25.89,52.064c-3.983,10.242-4.837,13.372-4.837,13.372l-1.423,8.535
							c0,0-47.797-0.285-51.211,0.853c-3.414,1.138-15.648,12.803-9.673,17.639s25.036,9.104,45.236,14.51
							c20.2,5.406,34.994,7.113,38.408,1.138c3.414-5.975,33.572-63.16,39.262-82.506c5.69-19.346,18.208-32.718,11.096-43.814
							c-7.113-11.096-34.141-11.949-37.839-11.38"/>
						<path style="fill:none;stroke:#263238;stroke-linecap:round;stroke-linejoin:round;stroke-miterlimit:10;" d="
							M327.468,349.314c-6.794,5.54-18.461,14.477-26.786,17.892"/>
						<path style="fill:none;stroke:#263238;stroke-linecap:round;stroke-linejoin:round;stroke-miterlimit:10;" d="
							M333.371,344.324c0,0-1.327,1.14-3.499,2.924"/>
						<path style="fill:none;stroke:#263238;stroke-linecap:round;stroke-linejoin:round;stroke-miterlimit:10;" d="M312.272,363.64
							c0,0-8.915,4.458-15.156,6.835"/>
					</g>
					<path style="fill:none;stroke:#263238;stroke-linecap:round;stroke-linejoin:round;stroke-miterlimit:10;" d="M268.145,427.417
						c0.624,0.964,1.28,1.792,1.966,2.426"/>
					<path style="fill:none;stroke:#263238;stroke-linecap:round;stroke-linejoin:round;stroke-miterlimit:10;" d="M261.032,407.25
						c0,0,1.944,9.491,5.159,16.523"/>
					<path style="fill:none;stroke:#263238;stroke-linecap:round;stroke-linejoin:round;stroke-miterlimit:10;" d="M254.064,411.051
						c0,0,0.211,10.768,1.267,13.302"/>
				</g>
			</g>
		</g>
		<g>
			<polygon style="fill:#263238;stroke:#263238;stroke-linecap:round;stroke-linejoin:round;stroke-miterlimit:10;" points="
				272.666,408.648 300.911,420.311 304.191,415.755 			"/>
			<g>
				<path style="fill:#FFFFFF;stroke:#263238;stroke-linecap:round;stroke-linejoin:round;stroke-miterlimit:10;" d="
					M268.714,389.099c0,0,16.665-2.083,18.748-4.166c2.083-2.083,8.333-7.764,10.226-8.143c1.894-0.379,10.794,1.704,12.878,1.704
					c2.083,0,5.113-3.788,7.386-3.598c2.272,0.189,3.409,3.03,2.651,5.303c-0.758,2.273-5.113,4.734-6.06,4.924
					c-0.947,0.189-2.462,0.757-2.462,0.757s7.954,1.515,10.416,2.462c2.462,0.947,2.462,3.22,1.515,5.492
					c-0.947,2.272-1.894,3.598-3.03,4.356c-1.136,0.758-3.598,3.977-3.598,3.977s0.947,3.219-0.568,5.303
					c-1.515,2.083-2.651,3.219-3.409,3.788c-0.758,0.568,0.903,0.884-0.75,2.859c-1.156,1.381-1.307,1.934-6.825,2.822
					c-1.774,0.285-9.09-1.136-14.203-2.841c-5.113-1.704-14.014-3.788-14.014-3.788l-12.12-2.841L268.714,389.099z"/>
				<path style="fill:none;stroke:#263238;stroke-linecap:round;stroke-linejoin:round;stroke-miterlimit:10;" d="M318.705,393.414
					c0,0,0.183,4.207-0.915,5.671c-1.098,1.463-2.744,2.378-2.744,2.378s0.549,2.195-0.366,4.207
					c-0.915,2.012-0.915,2.012-0.915,2.012s-1.492,1.793-0.937,2.989"/>
			</g>
			<polygon style="fill:#263238;stroke:#263238;stroke-linecap:round;stroke-linejoin:round;stroke-miterlimit:10;" points="
				257.156,386.881 268.961,388.745 265.544,407.385 258.398,405.832 			"/>
			<path style="fill:#92E3A9;stroke:#263238;stroke-linecap:round;stroke-linejoin:round;stroke-miterlimit:10;" d="
				M215.837,288.089c0,0-15.533-7.456-25.475-3.728c-9.941,3.728-10.563,24.853-10.873,27.649
				c-0.311,2.796-11.184,73.317-12.427,84.812c-1.243,11.495,57.784,17.087,71.143,16.776c13.359-0.311,19.261-4.349,20.193-7.767
				c0.932-3.417,5.592-17.708,2.485-19.572c-3.107-1.864-58.716-13.669-58.716-13.669l-3.107-3.728c0,0,6.835-41.008,8.077-47.532"
				/>
			<path style="fill:none;stroke:#263238;stroke-linecap:round;stroke-linejoin:round;stroke-miterlimit:10;" d="M183.476,374.372
				c-0.76,0.294-1.474,0.63-2.123,1.014"/>
			<path style="fill:none;stroke:#263238;stroke-linecap:round;stroke-linejoin:round;stroke-miterlimit:10;" d="M202.168,372.59
				c0,0-8.243-0.733-15.164,0.756"/>
			<path style="fill:none;stroke:#263238;stroke-linecap:round;stroke-linejoin:round;stroke-miterlimit:10;" d="M179.489,366.688
				c0,0,10.252-1.243,16.465,1.553"/>
		</g>
		<g>
			<path style="fill:#FFFFFF;stroke:#263238;stroke-linecap:round;stroke-linejoin:round;stroke-miterlimit:10;" d="M241.812,291.88
				c0,0,12.767,7.162,22.42,4.982c9.653-2.18,8.719-24.911,8.719-24.911l-7.785-5.294L241.812,291.88z"/>
			<path style="fill:#263238;stroke:#263238;stroke-linecap:round;stroke-linejoin:round;stroke-miterlimit:10;" d="
				M264.968,274.265l-10.121,3.537l-13.035,14.078c0,0,3.385,1.896,7.984,3.44L264.968,274.265z"/>
			<path style="fill:#263238;stroke:#263238;stroke-linecap:round;stroke-linejoin:round;stroke-miterlimit:10;" d="
				M223.806,194.365c0,0-24.705,21.96-24.954,39.927c-0.25,17.967,11.229,37.182,11.229,37.182s-12.477,20.962-12.727,24.206
				c-0.25,3.244,7.486,10.481,8.235,10.481c0.749,0,8.235-6.239,8.235-6.239l-4.242,9.233l12.727,6.738
				c0,0,5.975-22.706,9.233-29.945c0,0-13.725-25.453-14.723-35.435c-0.998-9.982-0.499-19.215,2.246-23.956
				c2.745-4.741,15.971-11.479,16.719-11.978c0.749-0.499,17.717,13.475,20.462,25.204c2.745,11.729,12.033,32.481,12.033,32.481
				s-4.297,22.667-6.294,28.656c-1.996,5.989-8.734,12.727-8.734,12.727s9.982,3.743,13.974,4.492
				c3.993,0.749,4.991,0.749,4.991,0.749s5.989-9.982,6.488-10.73c0.499-0.749,0.499,9.982,0.499,9.982s10.481-0.749,21.461-6.738
				c10.98-5.989,17.468-13.475,17.468-13.475s6.738-2.995,9.982-12.976c3.244-9.982-3.743-20.213-11.978-29.945
				c-8.235-9.732-11.229-12.727-13.974-27.2c-2.745-14.474-7.736-29.696-21.211-38.929c-13.475-9.233-31.941-9.483-40.925-4.492
				C231.042,189.374,223.806,194.365,223.806,194.365z"/>
			<g>
				<path style="fill:#FFFFFF;stroke:#263238;stroke-linecap:round;stroke-linejoin:round;stroke-miterlimit:10;" d="
					M235.895,205.316c0,0-18.994,14.635-21.797,18.06c-2.802,3.425-0.623,10.898-1.245,20.551
					c-0.623,9.653,4.359,19.928,7.162,25.222c2.803,5.293,10.276,21.797,15.881,23.042c5.605,1.245,5.916-0.311,5.916-0.311
					s20.551-9.653,26.468-19.617c0,0-3.737-21.797-5.605-30.204c-1.868-8.407-2.803-10.587-2.803-10.587
					s-10.276-13.701-14.946-18.06C240.255,209.052,235.895,205.316,235.895,205.316z"/>
				<g>
					<path style="fill:none;stroke:#263238;stroke-linecap:round;stroke-linejoin:round;stroke-miterlimit:10;" d="M221.43,251.026
						c0,0,2.065-2.499,4.324-1.259"/>
					<path style="fill:#263238;" d="M228.191,252.225c0.353,1.579-0.166,3.04-1.158,3.262c-0.993,0.222-2.084-0.879-2.437-2.458
						c-0.353-1.579,0.166-3.04,1.158-3.262C226.747,249.545,227.838,250.646,228.191,252.225z"/>
				</g>
				<g>
					<path style="fill:#263238;" d="M248.681,252.022c0.353,1.58-0.166,3.04-1.159,3.262c-0.993,0.222-2.084-0.879-2.437-2.458
						c-0.353-1.58,0.166-3.04,1.158-3.262C247.237,249.342,248.328,250.442,248.681,252.022z"/>
					<path style="fill:none;stroke:#263238;stroke-linecap:round;stroke-linejoin:round;stroke-miterlimit:10;" d="M241.554,249.977
						c0,0,2.489-1.56,5.553,0"/>
				</g>
				<path style="fill:#263238;stroke:#263238;stroke-linecap:round;stroke-linejoin:round;stroke-miterlimit:10;" d="
					M235.895,205.316c0,0,7.462,20.402,23.976,26.156c0,0-16.663-10.394-19.305-27.717"/>
				<path style="fill:#263238;stroke:#263238;stroke-linecap:round;stroke-linejoin:round;stroke-miterlimit:10;" d="
					M236.108,240.107c0,0-1.337,1.326,1.261,2.414c2.598,1.089,11.243,2.995,13.063,1.702
					C252.253,242.931,240.891,239.321,236.108,240.107z"/>
				<path style="fill:#263238;stroke:#263238;stroke-linecap:round;stroke-linejoin:round;stroke-miterlimit:10;" d="
					M224.603,240.022c0,0-7.302,3.158-9.016,4.913c-1.714,1.756,8.003-0.363,9.717-2.119
					C227.018,241.061,224.603,240.022,224.603,240.022z"/>
				<path style="fill:none;stroke:#263238;stroke-linecap:round;stroke-linejoin:round;stroke-miterlimit:10;" d="M227.17,245.286
					c0,0,2.534,4.169,2.911,6.057c0.377,1.887,0.566,4.907,0.566,4.907"/>
				<path style="fill:none;stroke:#263238;stroke-linecap:round;stroke-linejoin:round;stroke-miterlimit:10;" d="M231.214,267.762
					c0,0-0.377,2.642,0.566,3.586c0.944,0.944,3.208,2.453,7.36,0.378"/>
				<path style="fill:none;stroke:#263238;stroke-linecap:round;stroke-linejoin:round;stroke-miterlimit:10;" d="M234.8,278.708
					c0,0,1.321,0.755,3.963,0"/>
				<path style="fill:none;stroke:#263238;stroke-linecap:round;stroke-linejoin:round;stroke-miterlimit:10;" d="M235.318,241.322
					c0,0-2.076-3.586,0-6.605"/>
			</g>
		</g>
	</g>
</g>
</svg>
