<svg xmlns="http://www.w3.org/2000/svg" xml:space="preserve" style="enable-background:new 0 0 500 500" viewBox="0 0 500 500"><path d="m419.141 230.155 7.991-12.882-3.945-2.444c-1.16-.719-1.789-2.031-1.673-3.391.064-.752.089-1.508.072-2.266-.03-1.361.681-2.628 1.881-3.271l4.089-2.193-7.167-13.364-4.089 2.193c-1.199.643-2.648.535-3.765-.243a21.19 21.19 0 0 0-1.927-1.194c-1.197-.655-1.942-1.905-1.899-3.269l.147-4.639-15.152-.471-.14 4.656c-.041 1.365-.878 2.553-2.113 3.136a22.125 22.125 0 0 0-1.967 1.054c-1.163.703-2.608.744-3.764.028l-3.974-2.462-7.991 12.882 3.952 2.453c1.16.72 1.788 2.033 1.669 3.393-.065.748-.09 1.502-.074 2.257.028 1.359-.682 2.625-1.881 3.267l-4.091 2.194 7.167 13.363 4.091-2.194c1.198-.643 2.645-.535 3.762.241.62.431 1.262.827 1.921 1.187 1.198.654 1.945 1.904 1.903 3.268l-.143 4.649 15.152.471.145-4.652c.042-1.361.876-2.544 2.107-3.125a21.93 21.93 0 0 0 1.974-1.058c1.169-.706 2.622-.747 3.783-.026l3.949 2.452zm-12.829-9.567c-6.043 3.241-13.563.971-16.804-5.072-3.241-6.043-.977-13.574 5.066-16.814 6.043-3.241 13.579-.966 16.82 5.077 3.242 6.043.961 13.568-5.082 16.809zM159.393 416.671l10.711-17.537.046.195-5.645-3.457a5.044 5.044 0 0 1-1.938-2.76c-.27-.948-.174-2.36-.141-3.349l.038-1.643c-.029-1.743.894-3.463 2.381-4.386l5.825-3.155-.113.373-9.758-18.092.439.133-5.841 3.137c-1.616.75-3.591.565-5.063-.427l-1.395-.862-1.398-.859c-1.552-.874-2.604-2.563-2.659-4.352l.182-6.629.375.399-20.54-.589.449-.423-.196 6.635c-.153 1.82-1.34 3.459-2.96 4.263l-1.463.743-1.424.815c-1.568.915-3.598 1.003-5.208.121l-5.657-3.473.687-.161-10.872 17.437-.146-.622 5.623 3.522c1.482 1.045 2.318 2.877 2.19 4.675-.019.816-.098 2.46-.116 3.277.012 1.796-.94 3.566-2.478 4.508l-5.848 3.132.159-.526 9.672 18.138-.46-.139 5.855-3.108a5.169 5.169 0 0 1 3.443-.277c.971.255 2.134 1.051 2.985 1.588l1.398.865c1.526.872 2.558 2.548 2.599 4.312l-.208 6.623-.267-.284 20.536.731-.192.175.262-6.608c.153-2.419 2.27-3.869 4.291-4.695 1.809-1.198 4.186-2.109 6.243-.896l5.597 3.512zm0 0-5.64-3.431c-2.071-1.168-4.3-.236-6.113.977-1.989.859-3.968 2.219-4.103 4.56l-.17 6.593-.005.183-.184-.005-20.541-.546-.275-.007.007-.277.177-6.587c-.044-1.561-.965-3.039-2.32-3.805l-1.416-.866-1.415-.872c-1.285-.867-3.015-1.029-4.422-.374l-5.802 3.117-.298.16-.161-.299-9.758-18.092-.184-.341.343-.185 5.787-3.134c1.295-.802 2.091-2.302 2.073-3.821l.049-1.665.054-1.662c.103-1.509-.608-3.048-1.849-3.913l-5.594-3.465-.383-.237.238-.385 10.791-17.487.262-.425.425.264 5.591 3.472c1.308.729 2.989.658 4.281-.091l1.449-.819 1.487-.746c1.349-.659 2.346-2.019 2.478-3.52l.224-6.577.015-.437.435.015 20.537.687.388.013-.013.386-.214 6.579c.038 1.535.943 2.996 2.277 3.755l1.413.877 1.411.881c1.273.869 2.988 1.037 4.392.394l5.815-3.089.287-.153.152.285 9.672 18.138.13.243-.242.13-5.81 3.11c-1.345.822-2.17 2.373-2.167 3.945-.043.825-.084 2.491-.128 3.316-.124 1.584.601 3.202 1.898 4.132l5.577 3.521.121.076-.075.119-10.954 17.385z" style="fill:#ebebeb"/><path d="M142.002 403.702c-13.259 7.135-28.649-5.336-24.469-19.828 2.505-9.027 12.609-14.44 21.512-11.526 14.4 4.541 16.233 24.259 2.957 31.354zm0 0c13.035-7.109 11.006-26.353-3.205-30.535-8.366-2.642-18.018 2.519-20.448 10.953-4.384 14.139 10.522 26.513 23.653 19.582zM78.674 350.646l9.198-5.307-1.627-2.815a2.525 2.525 0 0 1 .09-2.647c.289-.443.554-.902.795-1.376a2.523 2.523 0 0 1 2.244-1.397h3.251v-10.623h-3.251a2.523 2.523 0 0 1-2.244-1.397 14.617 14.617 0 0 0-.795-1.375 2.525 2.525 0 0 1-.09-2.647l1.627-2.815-9.198-5.307-1.628 2.828c-.478.829-1.387 1.286-2.343 1.237a15.606 15.606 0 0 0-1.563 0c-.951.049-1.857-.404-2.333-1.229l-1.638-2.835-9.198 5.307 1.628 2.823a2.523 2.523 0 0 1-.093 2.648c-.288.441-.553.898-.793 1.369a2.522 2.522 0 0 1-2.243 1.394h-3.252v10.623h3.252c.953 0 1.81.546 2.243 1.394.24.471.505.928.793 1.369.523.801.571 1.819.093 2.648l-1.628 2.823 9.198 5.307 1.629-2.824c.477-.826 1.384-1.28 2.336-1.232a15.785 15.785 0 0 0 1.57 0c.956-.049 1.866.407 2.344 1.236l1.626 2.82zm-4.753-10.154a8.693 8.693 0 0 1-8.695-8.695c0-4.804 3.891-8.704 8.695-8.704s8.703 3.9 8.703 8.704-3.899 8.695-8.703 8.695zM182.07 118.918l-5.307-9.198-2.815 1.626a2.52 2.52 0 0 1-2.647-.09 14.875 14.875 0 0 0-1.375-.795 2.521 2.521 0 0 1-1.396-2.244v-3.251h-10.623v3.251c0 .954-.547 1.812-1.397 2.244-.474.241-.933.506-1.375.795a2.525 2.525 0 0 1-2.647.09l-2.815-1.626-5.307 9.198 2.828 1.628c.829.477 1.285 1.387 1.237 2.343a15.606 15.606 0 0 0 0 1.563c.049.951-.405 1.857-1.229 2.333l-2.835 1.638 5.307 9.198 2.823-1.628a2.523 2.523 0 0 1 2.648.093c.441.288.898.553 1.369.793a2.523 2.523 0 0 1 1.394 2.243v3.252h10.623v-3.252c0-.953.546-1.81 1.394-2.243.471-.24.928-.505 1.369-.793a2.527 2.527 0 0 1 2.648-.093l2.823 1.628 5.307-9.198-2.824-1.629c-.826-.477-1.28-1.384-1.232-2.336a15.785 15.785 0 0 0 0-1.57c-.049-.956.407-1.866 1.236-2.344l2.818-1.626zm-10.154 4.753a8.693 8.693 0 0 1-8.695 8.695c-4.804 0-8.704-3.891-8.704-8.695s3.9-8.703 8.704-8.703 8.695 3.899 8.695 8.703zM450.63 311.539l-5.438-9.123.205.055-2.95 1.746c-.825.426-1.863.37-2.652-.116-.371-.202-1.105-.627-1.476-.829a2.779 2.779 0 0 1-1.491-2.251l-.032-3.432.292.292-10.623.08.371-.371.019 3.441c-.054 1.4-1.111 2.24-2.266 2.818-1.072.73-2.343 1.227-3.589.583l-2.989-1.709.6-.161-5.284 9.211-.171-.636 2.987 1.717c1.184.737 1.437 2.151 1.308 3.438.14 1.289-.118 2.711-1.302 3.45l-2.975 1.736.183-.682 5.285 9.211-.647-.174 2.991-1.707a2.963 2.963 0 0 1 1.972-.226c.82.201 1.636.836 2.376 1.227.892.471 1.515 1.412 1.573 2.425l-.002 3.444-.44-.44 10.623.044-.396.396.032-3.439a2.861 2.861 0 0 1 .775-1.754c.583-.593 1.535-.98 2.235-1.419.822-.51 1.904-.569 2.768-.127l2.966 1.733-.4.107 5.397-9.146.069.258-2.94-1.752c-1.083-.674-1.234-2.043-1.106-3.164-.101-1.11.081-2.458 1.156-3.09l2.986-1.664zm0 0-2.922 1.758c-1.023.671-1.12 1.875-1.01 2.996-.081 1.109.039 2.295 1.059 2.92l2.967 1.669.163.092-.094.166-5.217 9.25-.143.253-.257-.145-2.956-1.669a2.205 2.205 0 0 0-2.13.131c-1.056.673-2.579 1.17-2.626 2.646l.021 3.391.002.395-.399.002-10.623.044-.438.002c-.01-.167-.008-3.544-.015-3.827-.036-1.097-.994-1.667-1.862-2.115-.813-.529-1.8-1.056-2.751-.536-.112.057-3.306 1.916-3.34 1.931l-.238-.41-5.329-9.185-.251-.432c.194-.108 3.083-1.779 3.369-1.941.914-.546.951-1.683.877-2.63l.024-.865c.027-.694-.309-1.402-.89-1.782l-2.928-1.701-.404-.235.233-.401 5.33-9.185.221-.38.379.22 2.931 1.697c.97.526 1.957-.009 2.786-.541.375-.227 1.034-.525 1.325-.858.33-.347.536-.805.572-1.282l.031-3.388.003-.374.368.003 10.623.08.294.002-.002.29-.02 3.397c.038.769.514 1.488 1.192 1.855.366.224 1.115.655 1.48.88a2.325 2.325 0 0 0 2.246.152l2.97-1.661.133-.075.072.13 5.174 9.266z" style="fill:#ebebeb"/><path d="M440.476 316.292c.076 7.775-9.552 11.907-15.155 6.449-3.62-3.327-3.618-9.584.004-12.909 5.608-5.464 15.227-1.314 15.151 6.46zm0 0c.056-7.55-9.408-11.322-14.542-5.85-3.119 3.131-3.125 8.558-.007 11.692 5.128 5.472 14.608 1.709 14.549-5.842zM96.378 252.108l-13.824 10.505-.225-.197c-.045-.04-4.527-3.947-6.619-5.196-1.129-.676-2.832-.813-4.989-.985-4.918-.394-12.35-.99-20.237-9.196-4.558-4.735-7.143-12.449-6.585-19.651.377-4.851 2.376-11.76 9.63-17.326 7.271-5.525 14.482-5.572 19.252-4.638 7.09 1.388 13.838 5.944 17.19 11.609 5.79 9.805 4.372 17.125 3.434 21.969-.411 2.123-.736 3.799-.389 5.069.651 2.342 3.208 7.715 3.233 7.769l.129.268zm-13.792 9.557 12.87-9.781c-.537-1.14-2.56-5.494-3.15-7.62-.391-1.437-.052-3.187.376-5.404.972-5.018 2.302-11.89-3.345-21.455-3.25-5.492-9.804-9.912-16.698-11.261-4.623-.905-11.613-.858-18.666 4.503-7.027 5.357-8.977 12.097-9.341 16.797-.543 7.002 1.962 14.494 6.381 19.085 7.694 8.005 14.671 8.564 19.766 8.972 2.253.181 4.031.323 5.308 1.088 1.897 1.132 5.545 4.251 6.499 5.076z" style="fill:#ebebeb"/><path d="M75.591 236.751h1.098v27.126h-1.098z" style="fill:#ebebeb" transform="rotate(-47.802 76.127 250.308)"/><path d="M86.114 228.754h1.097v27.126h-1.097z" style="fill:#ebebeb" transform="rotate(-26.658 86.675 242.32)"/><path d="m78.738 242.807-.002.001c-1.252.952-3.182.657-5.013-.162-.07.666-.302 1.168-.683 1.459l-.001.001c-2.039 1.551-6.008-1.994-6.176-2.146l.368-.407c1.051.948 4.082 3.176 5.476 2.116l.001-.001c.29-.221.456-.669.485-1.275-1.601-.812-3.063-1.982-3.841-3.006-.901-1.185-.965-2.209-.178-2.808l.002-.001c.502-.381 1.067-.456 1.636-.218 1.461.613 2.635 3.122 2.885 5.096.027.214.043.419.048.614 1.751.817 3.579 1.123 4.66.302l.001-.001c.979-.745 1.162-2.289.879-3.953-1.438-.276-2.937-1.331-3.945-2.657-1.149-1.512-1.288-2.889-.362-3.594l.001-.001c.755-.574 1.75-.163 2.731 1.128.832 1.094 1.656 2.88 2.03 4.652.595.05 1.171-.078 1.675-.462 1.191-.907.058-4.609-.479-5.959l.51-.203c.214.537 2.037 5.278.302 6.599l-.001.001c-.562.427-1.219.595-1.908.563.277 1.762.059 3.438-1.101 4.322zm-3.428-10.203c-.786.598-.24 1.895.466 2.825.768 1.01 2.084 2.081 3.394 2.419-.354-1.551-1.073-3.136-1.897-4.221-.364-.48-1.284-1.539-1.963-1.023.001-.001.001-.001 0 0zm-5.804 4.412c-.664.505-.213 1.387.282 2.039.748.985 2.017 1.999 3.392 2.732a5.09 5.09 0 0 0-.028-.262c-.227-1.792-1.331-4.147-2.553-4.659-.388-.163-.745-.115-1.091.148l-.002.002zM100.007 253.525l-17.053 12.96-2.891-3.805 17.054-12.959 2.89 3.804zm-16.912 11.928 15.882-12.07-2.001-2.632-15.882 12.07 2.001 2.632z" style="fill:#ebebeb"/><path d="m102.849 257.264-17.054 12.959-2.89-3.804 17.053-12.96 2.891 3.805zm-16.913 11.928 15.882-12.07-2.001-2.633-15.881 12.07 2 2.633z" style="fill:#ebebeb"/><path d="m105.69 261.002-17.053 12.96-2.891-3.805 17.054-12.959 2.89 3.804zm-16.912 11.929 15.882-12.07-2.001-2.632-15.882 12.07 2.001 2.632zM450.658 249.505l-8.526-12.259.192-.17c.152-.134 3.759-3.269 7.612-2.803 1.874.228 3.488 1.281 4.776 3.132 1.289 1.853 1.729 3.746 1.309 5.626-.858 3.837-4.961 6.241-5.135 6.342l-.228.132zm-7.756-12.16 7.921 11.39c.862-.556 3.947-2.737 4.637-5.832.384-1.715-.027-3.454-1.219-5.168-1.189-1.71-2.664-2.682-4.371-2.89-3.109-.378-6.174 1.867-6.968 2.5z" style="fill:#ebebeb"/><path d="m395.858 288.91-.336-.467 55.134-39.613-7.899-11.359-55.127 39.607-.336-.467 55.601-39.948 8.556 12.304-.23.165z" style="fill:#ebebeb"/><path d="m449.772 251.664-9.937-14.288 2.667-1.917 9.937 14.288-2.667 1.917zm-9.141-14.151 9.279 13.342 1.733-1.246-9.279-13.343-1.733 1.247z" style="fill:#ebebeb"/><path d="m447.339 253.411-9.937-14.289 2.668-1.917 9.937 14.288-2.668 1.918zm-9.141-14.151 9.279 13.343 1.734-1.246-9.279-13.343-1.734 1.246zM382.223 289.456l5.075-12.672.23.064c.16.018 1.331.125 2.104.195l.338.03-.546 2.091 2.137.2-.546 2.089 2.137.2-.545 2.085 2.117.174-.529 2.114 1.788.147.33.033-.659 2.645-13.431.605zm5.433-12.016-4.566 11.405 2.732-.114 9.379-.433.394-1.579-1.783-.146-.338-.028.529-2.114-2.124-.175.547-2.093-2.137-.2.546-2.089-2.137-.2.545-2.088c-.898-.081-1.353-.123-1.587-.146z" style="fill:#ebebeb"/><path d="m382.52 289.138 2.055-5.09 3.382 4.862-5.437.228zm2.19-3.889-1.323 3.276 3.5-.147-2.177-3.129zM393.129 277.658c3.626-2.998 7.352-5.859 11.092-8.698 3.738-2.843 7.557-5.572 11.332-8.364 3.848-2.69 7.657-5.434 11.541-8.073 3.885-2.638 7.784-5.256 11.785-7.734-3.625 3-7.351 5.86-11.09 8.701-3.741 2.839-7.557 5.573-11.334 8.362-3.85 2.687-7.656 5.435-11.543 8.071-3.885 2.637-7.784 5.255-11.783 7.735zM396.9 282.925c3.626-2.998 7.352-5.859 11.092-8.699 3.738-2.843 7.557-5.572 11.332-8.364 3.848-2.69 7.656-5.434 11.541-8.073 3.885-2.638 7.784-5.256 11.785-7.734-3.625 3-7.351 5.86-11.091 8.701-3.74 2.839-7.556 5.574-11.334 8.362-3.85 2.686-7.656 5.435-11.543 8.071-3.884 2.638-7.784 5.255-11.782 7.736zM106.599 73.009h286.802v23.314H106.599z" style="fill:#ebebeb"/><path d="M113.346 78.405h166.869v12.522H113.346z" style="fill:#ffc727"/><path d="M131.365 90.927h-8.545l-9.474-12.522h8.545zM149.384 90.927h-8.545l-9.474-12.522h8.545zM167.403 90.927h-8.545l-9.474-12.522h8.545zM185.422 90.927h-8.545l-9.474-12.522h8.545zM203.44 90.927h-8.545l-9.473-12.522h8.545zM221.459 90.927h-8.545l-9.474-12.522h8.546zM239.478 90.927h-8.545l-9.474-12.522h8.545zM257.497 90.927h-8.545l-9.474-12.522h8.545zM275.516 90.927h-8.545l-9.474-12.522h8.545zM280.223 78.405v6.219l-4.711-6.219z" style="opacity:.2;fill:#fff"/><path d="M218.016 65.193h-1.2v2.116a.542.542 0 0 1-1.083 0v-5.755c0-.303.244-.536.537-.536H218.015c1.161 0 2.098.936 2.098 2.097a2.09 2.09 0 0 1-2.097 2.078zm-1.2-1.084h1.2c.566 0 1.005-.448 1.014-.994a1.013 1.013 0 0 0-1.014-1.014h-1.2v2.008zM225.94 67.036a.54.54 0 0 1-.341.683.849.849 0 0 1-.214.029h-.01a.714.714 0 0 1-.38-.107.969.969 0 0 1-.312-.341c-.137-.283-.205-.634-.205-1.171a.827.827 0 0 0-.117-.419.895.895 0 0 0-.293-.283 1.827 1.827 0 0 0-.546-.234h-1.151v2.116a.544.544 0 0 1-.546.537.536.536 0 0 1-.537-.537v-5.755c0-.303.234-.536.537-.536h1.746c1.161 0 2.087.936 2.087 2.097 0 .644-.293 1.209-.761 1.6.127.097.244.215.341.361.195.283.322.644.322 1.053-.009.293.019.478.039.576a.525.525 0 0 1 .341.331zm-1.366-3.921c0-.566-.449-1.014-1.005-1.014h-1.2v2.009h1.2a1.002 1.002 0 0 0 1.005-.995zM232.742 61.866a3.584 3.584 0 0 1 0 4.935 3.196 3.196 0 0 1-2.331 1.044c-.937 0-1.795-.41-2.39-1.044a3.551 3.551 0 0 1-.965-2.468c0-.965.361-1.824.965-2.467a3.256 3.256 0 0 1 2.39-1.044 3.168 3.168 0 0 1 2.331 1.044zm-.127 2.468c0-.663-.264-1.278-.663-1.707a2.103 2.103 0 0 0-3.121 0 2.48 2.48 0 0 0-.663 1.707c0 .663.254 1.278.663 1.697.41.439.956.702 1.58.702.585 0 1.131-.264 1.541-.702a2.487 2.487 0 0 0 .663-1.697zM235.058 64.334c.01-1.931 1.629-3.502 3.58-3.511.859 0 1.638.283 2.253.761a.577.577 0 0 1 .098.781c-.195.243-.557.283-.781.107-.429-.351-.965-.537-1.571-.537-.673 0-1.297.273-1.756.702a2.405 2.405 0 0 0-.712 1.697c0 .663.273 1.268.712 1.697a2.582 2.582 0 0 0 1.756.702 2.45 2.45 0 0 0 1.571-.537c.224-.166.585-.127.781.107a.576.576 0 0 1-.098.78 3.648 3.648 0 0 1-2.253.761c-1.952.001-3.571-1.569-3.58-3.51zM242.883 67.309v-5.755c0-.303.234-.536.537-.536h3.189c.283 0 .537.234.537.536a.55.55 0 0 1-.537.546h-2.644v1.785h2.273c.293 0 .537.253.537.536a.544.544 0 0 1-.537.547h-2.273v1.795h2.644a.55.55 0 0 1 .537.546.548.548 0 0 1-.537.537h-3.16c-.019 0-.019-.01-.019-.01l-.01.01a.536.536 0 0 1-.537-.537zM248.457 66.148a.51.51 0 0 1 .712-.068c.43.351 1.17.761 1.863.751.488 0 .926-.146 1.219-.361.292-.215.419-.458.419-.702a.551.551 0 0 0-.088-.312.91.91 0 0 0-.293-.293c-.282-.185-.76-.351-1.336-.458h-.019c-.459-.088-.888-.205-1.258-.38-.371-.176-.693-.419-.907-.761a1.491 1.491 0 0 1-.225-.8c0-.585.332-1.093.781-1.424.458-.332 1.053-.516 1.688-.516.936 0 1.629.458 2.126.78a.502.502 0 0 1 .136.693.492.492 0 0 1-.693.146c-.497-.332-.975-.624-1.57-.624-.439 0-.829.137-1.093.332-.263.195-.371.41-.371.615 0 .117.02.195.069.273a.942.942 0 0 0 .263.254c.254.176.693.332 1.22.429h.019c.497.097.956.224 1.347.409.399.195.751.449.975.81.147.235.234.527.234.829 0 .624-.352 1.161-.84 1.512-.477.351-1.111.556-1.804.556-1.053-.01-1.941-.536-2.497-.975a.524.524 0 0 1-.077-.715zM254.868 66.148a.51.51 0 0 1 .712-.068c.43.351 1.17.761 1.863.751.488 0 .926-.146 1.219-.361.293-.215.419-.458.419-.702a.551.551 0 0 0-.088-.312.91.91 0 0 0-.293-.293c-.282-.185-.76-.351-1.336-.458h-.019c-.458-.088-.888-.205-1.258-.38-.371-.176-.693-.419-.907-.761a1.491 1.491 0 0 1-.225-.8c0-.585.332-1.093.781-1.424.459-.332 1.053-.516 1.688-.516.936 0 1.629.458 2.126.78a.502.502 0 0 1 .136.693.492.492 0 0 1-.693.146c-.497-.332-.975-.624-1.57-.624-.439 0-.829.137-1.093.332-.263.195-.371.41-.371.615 0 .117.02.195.069.273a.942.942 0 0 0 .263.254c.254.176.693.332 1.22.429h.019c.497.097.956.224 1.347.409.399.195.751.449.975.81.146.235.234.527.234.829 0 .624-.352 1.161-.84 1.512-.477.351-1.111.556-1.804.556-1.053-.01-1.941-.536-2.497-.975a.524.524 0 0 1-.077-.715zM261.661 61.554c0-.303.234-.536.537-.536.293 0 .546.234.546.536v5.755a.543.543 0 0 1-.546.537.53.53 0 0 1-.537-.537v-5.755zM265.642 67.309a.54.54 0 0 1-.527.537.535.535 0 0 1-.536-.537v-5.677a.525.525 0 0 1 .214-.448.538.538 0 0 1 .742.117l3.15 4.36v-4.019a.53.53 0 0 1 1.064 0v5.667a.542.542 0 0 1-.537.537.53.53 0 0 1-.4-.195c-.019-.02-.039-.039-.049-.059l-3.121-4.331v4.048zM271.304 64.344c0-1.961 1.619-3.521 3.6-3.521.829 0 1.619.283 2.224.761a.561.561 0 0 1 .108.79.568.568 0 0 1-.79.088 2.533 2.533 0 0 0-1.541-.527c-.702 0-1.317.264-1.757.712a2.33 2.33 0 0 0-.731 1.697c0 .644.273 1.238.731 1.677.439.449 1.054.712 1.757.712.487 0 .945-.146 1.336-.371v-1.336h-1.395a.563.563 0 0 1-.556-.556c0-.312.253-.546.556-.546h1.941a.55.55 0 0 1 .565.546v2.155c0 .069-.019.108-.029.166-.01.02-.01.03-.02.049v.01a.462.462 0 0 1-.185.234 3.6 3.6 0 0 1-2.214.761c-1.981 0-3.6-1.551-3.6-3.501zM280.058 66.46c.399 0 .731.332.731.732a.728.728 0 0 1-1.454 0c0-.4.323-.732.723-.732zM282.302 66.46c.399 0 .731.332.731.732 0 .4-.332.721-.731.721a.72.72 0 0 1-.722-.721c0-.4.322-.732.722-.732zM284.547 66.46c.399 0 .731.332.731.732 0 .4-.332.721-.731.721a.72.72 0 0 1-.722-.721.728.728 0 0 1 .722-.732z" style="fill:#c7c7c7"/><path d="m36.711 453.513 53.322-.243 53.322-.088L250 453.014l106.645.167 53.322.087 53.322.245-53.322.245-53.322.088-106.645.166-106.645-.167-53.322-.089z" style="fill:#263238"/><path d="M330.527 453.51h-83.3c-.15-.64-.3-1.28-.44-1.92-14.77-65.67 1.59-80.08 29.11-58.78 6.92 5.36 14.55 12.98 22.57 22.61 1.96 2.35 3.91 4.69 5.84 7 9.02 10.8 17.79 21.18 26.22 31.09z" style="fill:#f7a9a0"/><path d="M351.357 453.51h-117.75c-.39-3.11-.75-6.15-1.07-9.12-.51-4.59-.94-9.01-1.29-13.21-.91-11-1.19-20.42-.82-28.32.2-4.46.62-8.44 1.25-11.94.15-.88.32-1.72.51-2.54.06-.27.13-.54.19-.81.2-.79.4-1.56.62-2.29.07-.24.15-.48.22-.73.16-.47.32-.94.48-1.39 1.23-3.39 2.8-6.05 4.72-8 .38-.39.78-.75 1.19-1.08.14-.11.29-.22.43-.33.27-.21.56-.41.85-.59.88-.55 1.82-.99 2.81-1.32 1.69-.57 3.55-.81 5.57-.73.24.01.48.03.73.04 6.67.47 15.11 4.23 25.4 11.05 4.69 3.12 9.78 6.87 15.26 11.24 18.93 15.09 40.7 37.7 60.7 60.07z" style="fill:#ffc727"/><path d="M231.86 389.94c.06-.33.13-.66.21-.99.41.1.83.19 1.25.26 2.97.52 7.43-.28 8.07-3.88.55-3.18-2.43-6.19-4.9-7.79.19-.29.39-.56.6-.83 3.71 2.5 7.63 7.52 3.96 11.44-2.55 2.72-5.85 2.59-9.19 1.79zm18.79 30.34c-5.5.16-10.13 4.55-12.29 9.35-2.84 6.34-2.21 13.56-2.42 20.33-.03 1.18-.09 2.36-.19 3.55h1.03c.42-6.36-.23-12.85 1.14-19.1 1.31-6 5.63-12.62 12.37-13.07 6.17-.41 10.51 5.27 11.46 10.84 1.25 7.41-2.7 14.6-5.79 21.03-.05.1-.1.2-.14.3h1.12c.91-1.88 1.85-3.73 2.68-5.59 2.59-5.8 4.67-12.53 2.39-18.78-1.76-4.81-5.94-9.01-11.36-8.86zm26.07 4.4c-2.96-4.99-7.18-9.27-12.23-12.15-5.14-2.95-10.94-4.1-16.78-4.62-5.79-.52-11.65-.44-17.41-1.18-.01.34-.01.69-.01 1.04 2.67.34 5.37.49 8.02.63 6.15.31 12.41.42 18.4 2.04 5.97 1.63 11.27 5 15.37 9.63 8.02 9.04 10.32 21.94 7.2 33.44h1.09c2.56-9.61 1.4-20.32-3.65-28.83zm-5.93-40.82c-2.19 2-4.86 3.75-7.92 3.83-3.11.09-5.81-1.58-7.76-3.92-3.01-3.61-3.94-8.14-4.98-12.61-.04 0-.09-.01-.13-.01-.25-.01-.49-.03-.73-.04h-.21c1.34 5.63 2.6 11.7 7.42 15.44 4.38 3.38 9.67 2.39 13.77-.87 1.54-1.22 2.89-2.64 4.17-4.12-.29-.2-.58-.38-.87-.56-.87 1-1.78 1.96-2.76 2.86zm34.96 22.58c-3.44 2.31-6.53 5.27-10.54 6.51-3.06.95-6.7.85-8.99-1.67-1.94-2.14-2.24-5.29-1.76-8.02.71-4.02 3.15-7.16 5.73-10.19-.25-.2-.5-.4-.74-.59-3.82 4.61-7.45 9.27-5.93 15.71.55 2.32 1.97 4.37 4.12 5.45 2.55 1.29 5.58 1.08 8.23.19 4.02-1.37 7.13-4.42 10.65-6.68l-.77-.71zm15.47 37.47c-4.39 3.65-9.54 6.92-15.47 6.65-2.5-.11-5.13-.96-6.66-3.06-1.97-2.73-1.47-6.45.11-9.23 2.76-4.88 8.45-7.35 13.32-9.55 3.52-1.59 7.14-3.42 10.01-6.04-.25-.26-.5-.52-.76-.77-.73.68-1.49 1.3-2.25 1.84-4.66 3.35-10.3 4.9-15.12 7.99-4.27 2.74-8.2 7.14-7.58 12.59.57 5.04 5.23 7.37 9.87 7.29 5.58-.1 10.38-3.03 14.61-6.44 4.09-3.3 7.91-7.5 11.95-11.4-.23-.24-.46-.49-.69-.73-3.82 3.69-7.45 7.63-11.34 10.86zm27.46 6.61c-4.82.65-9.72 1.1-14.17 2.61-.35.12-.71.25-1.05.38h3.34c2.74-.73 5.59-1.13 8.32-1.49 1.47-.19 2.93-.37 4.39-.58-.28-.3-.55-.61-.83-.92z" style="opacity:.5;fill:#fff"/><path d="M338.607 453.51h-104.99c-.39-3.11-.75-6.15-1.08-9.12-.5-4.6-.93-9.01-1.28-13.22-.91-11-1.19-20.42-.83-28.31.21-4.47.63-8.44 1.25-11.94.16-.88.33-1.72.51-2.54.06-.27.13-.54.19-.81.2-.79.4-1.56.62-2.29.07-.24.15-.48.22-.73.16-.47.32-.94.48-1.39 1.23-3.39 2.8-6.05 4.72-8 .38-.39.78-.75 1.19-1.08.14-.11.29-.22.43-.33.28-.21.56-.4.85-.59.88-.55 1.82-.99 2.81-1.32 1.69-.56 3.54-.8 5.57-.73.24.01.48.03.73.04 3.44.25 7.35 1.38 11.73 3.35l76.88 79.01z" style="opacity:.1"/><path d="M324.067 453.51h-200.34c18.74-31.52 41.09-59.31 67.66-79.26 16.87-12.68 56.94-16.85 84.01 7.95.2.18.39.37.59.55 2.45 2.3 14.13 18.21 28.32 39.67 6.29 9.51 13.07 20.11 19.76 31.09z" style="fill:#ffc727"/><path d="M169.18 448.25c3.26 1.24 6.19 3.14 8.97 5.26h-1.79c-4.99-3.62-12.06-7.64-17.86-4.16a9.023 9.023 0 0 0-3.69 4.16h-1.05c.16-.42.36-.83.59-1.24 3.06-5.49 9.4-6.09 14.83-4.02zm-27.38-22.28c-.3.41-.6.82-.9 1.24.8 4.49 2.33 8.88 3.25 13.32.88 4.2 1.08 8.86-.31 12.98h1.05c.55-1.76.86-3.61.96-5.41.38-6.55-2.12-12.77-3.51-19.07a32.7 32.7 0 0 1-.54-3.06zm36.32-40.81c-.44.39-.89.79-1.33 1.19-.83 3.61-.75 7.43-.06 11.19 1.33 7.19 4.59 13.83 6.12 20.96 1.33 6.19 1.17 13.4-2.96 18.56-3.41 4.26-10 6.14-14.82 3.08-6.03-3.83-3.93-12.18-1.16-17.35 2.84-5.31 7.33-10.79 6.96-17.17-.23-3.97-2.71-6.53-6.01-7.56-.25.27-.5.54-.76.81.67.16 1.32.38 1.93.69 3.19 1.6 4.19 5.08 3.69 8.45-1 6.58-5.98 11.59-8.28 17.66-1.85 4.89-2.19 11.27 2.34 14.82 3.83 3.01 9.61 2.71 13.62.21 4.77-2.98 6.9-8.81 7.21-14.19.81-14.09-10.96-27.25-6.49-41.35zm11.01 56.97c2.37-2.2 4.8-4.38 7.6-6.02 3.14-1.82 6.4-2.48 10-2.31 3.17.15 6.36.71 9.52.21 5.3-.84 9.26-5.61 8.71-11.05-.51-5-5.24-8.87-10.2-8.74-2.75.07-5.3 1.42-7.68 2.65-2.39 1.23-5.14 2.86-7.94 2.37-6.16-1.07-5.12-9.11-3.92-13.47 1.94-7.04 4.38-13.93 4.43-21.33.03-4.25-1.04-10.03-5.15-12.27-.36.21-.7.42-1.04.64 2.12.91 3.48 3.14 4.23 5.25 1.1 3.12 1.05 6.48.75 9.73-.36 3.8-1.25 7.54-2.29 11.21-.88 3.12-2.05 6.21-2.58 9.43-.71 4.24-.44 9.88 4.35 11.56 5.22 1.83 10.14-3.24 14.9-4.44 6-1.53 12.16 3.75 11 9.97-.56 3.03-2.57 5.72-5.45 6.86-3.14 1.24-6.63.74-9.9.49-3.31-.25-6.51-.22-9.62 1.05-2.73 1.1-5.14 2.84-7.38 4.73-3.38 2.85-10.05 7.92-5.95 12.8.77.92 1.78 1.6 2.9 2.06 1.02.43 2.14.67 3.22.72 1.33.07 2.63-.22 3.85-.72 1.2-.48 2.34-1.17 3.38-1.93 2.53-1.83 4.63-4.18 7.16-6 2.6-1.87 6.07-3.52 9.33-2.53 4.5 1.36 5.64 6.1 5.06 10.46h1.11c.48-4.36-.85-9.42-5.17-11.2-5.86-2.42-11.33 2.65-15.36 6.2-2.28 2.01-4.96 4.27-8.1 4.65-2.48.29-5.47-.66-6.91-2.8-2.13-3.16.94-6.2 3.14-8.23zm61.52-21.85c-5.5.16-10.13 4.55-12.29 9.35-2.84 6.34-2.21 13.56-2.42 20.33-.03 1.18-.09 2.36-.19 3.55h1.03c.42-6.36-.23-12.85 1.14-19.1 1.31-6 5.63-12.62 12.37-13.07 6.17-.41 10.51 5.27 11.46 10.84 1.25 7.41-2.7 14.6-5.79 21.03-.05.1-.1.2-.14.3h1.12c.91-1.88 1.85-3.73 2.68-5.59 2.59-5.8 4.67-12.53 2.39-18.78-1.76-4.81-5.94-9.01-11.36-8.86zm13.84-7.75c-5.14-2.95-10.94-4.1-16.78-4.62-6.15-.55-12.37-.43-18.48-1.33-5.61-.83-12.17-2.7-15.95-7.23-2.41-2.89-1.74-6.66.86-9.18 2.6-2.51 6.46-2.87 9.88-2.34 5.3.82 12.41 5.25 17.03.32 4.12-4.4-1.33-10.18-5.3-12.23-4.78-2.47-10.41-2.68-15.67-2.8-2.89-.06-5.95.15-8.8-.35-1.71-.3-3.3-1.11-3.87-2.86-.32-1-.3-2.08-.1-3.11-.37.1-.75.21-1.11.32-.11.85-.1 1.71.08 2.56.57 2.68 2.9 3.89 5.43 4.2 5.72.7 11.51-.02 17.22.96 2.6.45 5.18 1.21 7.43 2.62 2.5 1.58 5.59 4.63 5.03 7.87-.64 3.6-5.1 4.4-8.07 3.88-3.27-.57-6.29-2.03-9.59-2.47-5.46-.71-12.15 1.5-12.98 7.74-.77 5.78 5.91 9.46 10.46 11.18 5.43 2.06 11.35 2.44 17.1 2.74 6.15.31 12.41.42 18.4 2.04 5.97 1.63 11.27 5 15.37 9.63 8.02 9.04 10.32 21.94 7.2 33.44h1.09c2.56-9.61 1.4-20.32-3.65-28.83-2.96-4.99-7.18-9.27-12.23-12.15zm6.3-28.67c-2.19 2-4.86 3.75-7.92 3.83-3.11.09-5.81-1.58-7.76-3.92-3.87-4.65-4.3-10.8-5.96-16.43-.41-.12-.81-.24-1.21-.35.34 1.02.62 2.06.88 3.12 1.44 5.9 2.55 12.48 7.66 16.44 4.38 3.38 9.67 2.39 13.77-.87 1.59-1.26 2.97-2.73 4.29-4.25l-.77-.68c-.94 1.08-1.91 2.14-2.98 3.11zm26.59 28.22c-.7.35-1.42.64-2.17.87-3.06.95-6.7.85-8.99-1.67-1.94-2.14-2.24-5.29-1.76-8.02.4-2.26 1.35-4.24 2.56-6.08-.19-.28-.39-.55-.59-.82-2.42 3.45-4.01 7.17-2.91 11.83.55 2.32 1.97 4.37 4.12 5.45 2.55 1.29 5.58 1.08 8.23.19.73-.25 1.43-.55 2.1-.89-.2-.29-.39-.58-.59-.86zm21.77 33.46c-3.92 2.94-8.38 5.25-13.4 5.02-2.5-.11-5.13-.96-6.66-3.06-1.97-2.73-1.47-6.45.11-9.23 2.18-3.86 6.19-6.21 10.18-8.11-.18-.28-.36-.56-.54-.83-1.52.72-3.02 1.5-4.44 2.41-4.27 2.74-8.2 7.14-7.58 12.59.57 5.04 5.23 7.37 9.87 7.29 4.89-.09 9.18-2.35 13.01-5.2-.18-.29-.36-.59-.55-.88z" style="opacity:.5;fill:#fff"/><path d="M259.712 307.377c31.98 38.893 98.595 37.488 137.196 10.217.938-.654-22.536-21.611-38.835-63.096-8.51-21.661-9.526-45.528-12.88-68.51-1.5-10.329-2.969-20.652-4.717-30.939-1.625-9.817-3.164-20.705-7.777-29.782-13.108-25.793-55.109-20.015-59.725-13.335-31.816 46.035-49.669 151.175-13.262 195.445z" style="fill:#263238"/><path d="M266.361 276.958c7.885 23.694 24.833 43.251 47.981 53.168 24.387 10.447 54.726 8.833 78.487-2.737.423-.206.814.408.387.634-24.539 12.963-52.103 16.58-78.417 6.165-24.332-9.631-44.207-30.995-50.146-56.718-.257-1.112 1.343-1.609 1.708-.512z" style="fill:#263238"/><path d="M248.902 269.857c7.795 23.672 21.423 42.758 43.136 55.664 21.541 12.804 53.761 23.31 78.75 16.387.677-.187.986.84.313 1.044-26.401 7.993-58.936-1.415-81.869-15.277-20.342-12.296-38.928-33.19-42.221-57.51-.151-1.117 1.561-1.309 1.891-.308zM334.294 147.04c4.478 29.215 9.28 57.358 20.385 84.963 11.091 27.57 26.515 54.231 45.4 77.235.375.457-.245 1.138-.652.678-19.79-22.348-35.73-46.911-47.218-74.557-11.347-27.306-20.171-58.435-19.772-88.26.016-1.225 1.68-1.215 1.857-.059z" style="fill:#263238"/><path d="M206.673 373.671c1.486 6.696 32.867 50.4 63.403 49.314 9.945-.371 10.345-54.741 10.345-54.741l.949-4.006 13.213-56.1L228.999 265l-9.484-5.719s-2.603 15.587-5.649 35.027c-.147.9-.293 1.802-.436 2.768-.201 1.095-.405 2.128-.544 3.157-.494 2.898-.983 5.86-1.41 8.82-.334 2.252-.671 4.439-.935 6.816-.327 2.38-.595 4.692-.922 7.072-2.716 23.512-3.536 47.887-2.946 50.73z" style="fill:#f7a9a0"/><path d="M213.865 294.309c15.604 44.943 51.155 63.596 67.504 69.929l13.213-56.1L228.999 265l-9.484-5.719c-.001.001-2.603 15.587-5.65 35.028z" style="fill:#263238"/><path d="M360.618 213.025c12.721 100.346-45.944 119.297-67.586 122.016-19.645 2.469-86.852 8.378-109.874-90.117-23.022-98.496 19.613-136.132 64.245-144.155 44.634-8.024 100.493 11.907 113.215 112.256z" style="fill:#f7a9a0"/><path d="M129.121 196.408c.106 18.802-3.131 36.71-10.302 53.993-5.875 14.197-13.379 28.283-13.289 44.102.177 28.263 27.105 46.961 51.597 58.805 16.381 7.922 52.515 9.328 80.084.217 1.349-.449-69.108-127.457 36.602-254.877.457-.551-66.671-15.845-109.271 15.604-27.751 20.486-35.606 50.302-35.421 82.156z" style="fill:#263238"/><path d="M127.143 182.384c2.932-22.099 11.456-41.143 26.3-57.769.135-.151.401.078.27.236-14.414 17.347-22.404 38.354-25.027 60.609-2.225 18.877-2.352 38.147-10.746 55.623-4.785 9.962-10.65 18.93-12.394 30.058-1.645 10.49-.419 21.251 3.092 31.234 7.627 21.686 25.078 36.003 45.203 45.652.625.3.334 1.321-.35 1.055-36.919-14.321-62.529-56.751-44.385-94.941 5.727-12.054 11.67-22.685 14.01-36.049 2.068-11.811 2.452-23.834 4.027-35.708z" style="fill:#263238"/><path d="M152.106 130.436c.147-.175.448.017.301.201-15.618 19.566-23.082 43.165-22.885 68.063.093 11.739.989 23.484-.944 35.135-1.755 10.581-5.66 20.405-10.514 29.918-11.078 21.713-24.199 47.265-2.499 67.362 18.967 17.565 47.108 25.278 72.213 27.446.728.063.675 1.171-.059 1.136-24.843-1.16-51.993-9.455-71.252-25.738-16.026-13.549-17.281-32.267-9.668-50.901 5.409-13.237 13.674-25.091 17.791-38.888 4.348-14.57 3.583-29.052 3.395-44.026-.325-26.003 7.266-49.721 24.121-69.708z" style="fill:#263238"/><path d="M126.51 190.912c2.292-22.944 7.661-47.109 26.302-62.275.241-.196.551.157.314.365-22.123 19.432-23.93 50.346-26.333 77.735-1.189 13.556-2.703 27.33-7.482 40.193-4.788 12.887-14.133 23.866-17 37.462-6.012 28.508 13.789 53.803 37.723 65.156 26.219 12.438 54.144 9.861 82.275 10.607.68.018.797 1.181.087 1.245-39.461 3.564-92.815.264-114.972-38.609-9.22-16.174-10.306-35.053-1.983-52.062 6.408-13.097 13.422-24.694 16.392-39.22 2.737-13.387 3.324-27.046 4.677-40.597z" style="fill:#263238"/><path d="M193.955 260.518c18.343.957 16.513-56.99 16.513-56.99s66.312.779 84-64.296c0 0 31.89 39.577 58.747 37.825 9.37-.611-6.923-70.944-61.058-73.995 0 0-62.332-23.901-104.363 26.81-42.029 50.71-19.065 129.33 6.161 130.646z" style="fill:#263238"/><path d="M204.071 200.856c20.307 4.295 41.697 5.279 59.573-7.128 20.45-14.194 27.079-38.954 33.181-61.671.108-.4.725-.333.653.097-3.988 23.849-12.474 50.147-33.668 64.224-17.282 11.478-40.831 12.073-60.06 5.586-.618-.211-.318-1.243.321-1.108z" style="fill:#263238"/><path d="M294.946 126.525c4.141 12.925 8.639 24.191 18.069 34.344 9.175 9.88 20.358 16.088 32.907 20.666.251.091.132.505-.131.453-24.951-5.005-49.377-29.324-52.169-55.137-.081-.756 1.08-1.087 1.324-.326z" style="fill:#263238"/><path d="M343.553 187.871c-2.415.12-4.665-.173-7.065-.301-2.711-.146-4.885.015-7.148-1.684-1.215-.911-1.5-3.124-.725-4.387 1.804-2.942 5.166-3.589 8.436-3.545 3.548.046 6.27.99 8.988 3.261 2.633 2.202.701 6.499-2.486 6.656zM276.648 215.157c2.399-.314 4.559-1.003 6.899-1.557 2.642-.627 4.807-.855 6.733-2.929 1.033-1.114.918-3.344-.069-4.447-2.299-2.574-5.725-2.611-8.932-1.986-3.484.677-5.996 2.091-8.263 4.81-2.198 2.636.468 6.521 3.632 6.109zM292.034 228.842c-.095-.255-.485.412-.432.693 1.331 6.846 1.702 14.913-4.156 18.205-.181.102-.105.444.12.375 7.425-2.297 6.826-13 4.468-19.273z" style="fill:#263238"/><path d="M284.728 222.645c-11.208.949-8.487 23.292 1.895 22.414 10.215-.864 7.496-23.208-1.895-22.414z" style="fill:#263238"/><path d="M280.483 224.361c-1.797 1.501-3.437 3.966-5.762 4.485-2.689.601-5.029-1.489-7.081-3.522-.213-.212-.382.007-.35.303.456 4.29 2.638 8.481 7.306 8.56 4.256.074 6.802-4.084 7.345-8.519.101-.82-.734-1.913-1.458-1.307zM331.74 222.361c.031-.27.57.283.584.571.34 6.966 1.904 14.889 8.376 16.689.201.055.209.406-.027.392-7.761-.459-9.729-10.997-8.933-17.652z" style="fill:#263238"/><path d="M337.36 214.603c11.11-1.75 13.794 20.596 3.502 22.217-10.131 1.597-12.814-20.75-3.502-22.217z" style="fill:#263238"/><path d="M342.197 215.512c1.907.974 3.913 2.915 6.038 2.801 2.465-.133 3.983-2.766 5.266-5.272.135-.259.332-.093.376.2.631 4.258-.248 8.876-4.254 10.19-3.652 1.197-6.84-2.139-8.369-6.271-.285-.764.174-2.038.943-1.648zM291.522 283.763c1.585 1.714 3.138 4.042 5.654 4.382 2.414.323 5.308-.628 7.573-1.378.224-.076.436.171.283.371-1.94 2.584-5.827 4.066-9.026 3.341-3.125-.709-4.548-3.513-5.169-6.432-.088-.411.454-.533.685-.284zM320.49 258.352s1.513 10.403 1.551 15.315c.001.461-1.186.687-2.853.796-.08.027-.124.057-.192.007-8.663 1.415-17.419-1.515-22.74-8.559-.341-.476.277-.987.726-.684 6.509 4.707 13.674 5.882 21.367 5.956.336-1.363-3.188-17.73-2.41-17.794 2.685-.249 7.987 1.538 11.173 2.446-2.525-21.762-8.518-42.939-10.706-64.644-.066-.777 1.048-1.016 1.281-.327 7.851 21.753 11.305 46.73 14.491 69.136.422 2.788-9.715-.826-11.688-1.648z" style="fill:#263238"/><path d="M278.053 267.755c-13.819.104-26.524-9.134-30.194-23.102-4.336-16.521 5.569-33.488 22.084-37.827 16.521-4.342 33.484 5.564 37.827 22.081l-.001.002c4.337 16.513-5.567 33.483-22.083 37.825a30.978 30.978 0 0 1-7.633 1.021zm-.445-57.808a26.718 26.718 0 0 0-6.611.883c-14.308 3.759-22.888 18.459-19.135 32.77 3.766 14.304 18.471 22.902 32.769 19.13 14.31-3.761 22.889-18.461 19.135-32.77-3.182-12.098-14.184-20.105-26.158-20.013zM348.532 258.552c-11.85.09-22.693-11.964-24.704-27.998-1.016-8.092.336-16.014 3.804-22.301 3.579-6.505 8.989-10.518 15.227-11.299 6.26-.796 12.471 1.774 17.548 7.195 4.909 5.242 8.167 12.583 9.178 20.671 2.119 16.944-6.417 32.016-19.026 33.598-.679.085-1.351.13-2.027.134zm-3.587-57.59c-.523.005-1.045.038-1.569.104-4.885.611-9.19 3.873-12.121 9.185-3.042 5.529-4.223 12.556-3.322 19.786 1.843 14.679 11.724 25.581 22.109 24.271 10.348-1.296 17.27-14.294 15.437-28.971-.906-7.23-3.782-13.748-8.098-18.358-3.702-3.954-8.063-6.049-12.436-6.017z" style="fill:#455a64"/><path d="m307.183 232.595-3.035-2.819c4.171-4.496 14.291-11.11 22.8-4.017l-2.65 3.179c-7.614-6.365-16.729 3.25-17.115 3.657zM177.454 258.011l-3.887-1.429c.671-1.813 6.775-17.781 15.763-20.419 8.406-2.442 57.915-4.542 60.282-4.612l.123 4.138c-15.974.48-52.75 2.542-59.237 4.45-5.934 1.74-11.425 13.491-13.044 17.872z" style="fill:#455a64"/><path d="M216.204 250.975s-23.306-30.676-37.311-22.242c-14.002 8.432 4.394 53.508 21.448 59.098 17.053 5.59 22.537-10.094 22.537-10.094l-6.674-26.762z" style="fill:#f7a9a0"/><path d="M184.488 241.522c-.271-.014-.308.368-.071.453 11.973 4.308 18.608 14.988 23.401 26.146-3.678-4.221-8.544-6.422-14.22-2.021-.298.231.015.7.344.618 4.787-1.226 8.302-.525 11.715 3.211 2.417 2.646 4.133 6.045 5.912 9.14.592 1.032 2.473.393 2.023-.805-.033-.088-.073-.179-.107-.268-.296-15.038-12.806-35.6-28.997-36.474z" style="fill:#263238"/><path d="M151.71 203.461c11.09 12.296 31.151 14.202 47.695 6.618 10.85-4.974 17.837-18.407 28.871-29.371 18.168-18.053 55.832-18.126 49.751-50.34-5.406-28.639-50.937-37.62-93.409-19.321-37.521 16.166-57.826 64.787-32.908 92.414z" style="fill:#fff"/><circle cx="87.593" cy="148.169" r="44.369" style="fill:#fff" transform="rotate(-13.032 87.577 148.146)"/><path d="M131.962 148.169c.215 17.602-11.044 34.475-27.331 41.133-29.35 12.322-61.853-9.307-61.906-41.133.049-31.827 32.558-53.46 61.907-41.135 16.285 6.66 27.547 23.532 27.33 41.135zm0 0c.139-17.54-11.117-34.406-27.451-40.843-28.852-11.85-60.884 9.648-60.788 40.843-.101 31.195 31.938 52.698 60.789 40.844 16.333-6.439 27.59-23.303 27.45-40.844z" style="fill:#263238"/><path d="M107.742 132.117c.756.208 1.451-.473 1.297-1.217a.816.816 0 0 0-.027-.175c-.223-.759-1.213-.965-1.75-.407-.557.581-.31 1.582.48 1.799zM53.484 134.384c-.687-.377-1.521.124-1.543.884a.795.795 0 0 0-.015.176c.042.791.957 1.219 1.609.8.676-.435.668-1.466-.051-1.86zM71.871 163.158c-.687-.377-1.521.124-1.543.884a.854.854 0 0 0-.015.176c.042.79.957 1.219 1.609.8.676-.435.667-1.466-.051-1.86zM104.277 133.91c.127-.252.107-.528-.06-.734-.257-.453-1.116-.515-1.33.148-.28.863.972 1.415 1.39.586zM109.969 134.714c.647-.154.409-1.159-.239-1.005-.646.154-.408 1.159.239 1.005zM57.91 132.015c-.664 0-.666 1.033 0 1.033.665 0 .666-1.033 0-1.033zM76.76 169.317c-.665 0-.666 1.033 0 1.033.664 0 .665-1.033 0-1.033zM124.778 157.103c-.664 0-.666 1.033 0 1.033.665 0 .666-1.033 0-1.033zM51.675 145.319l-.248.745-.515 1.573-.126.379c-1.725 7.955 64.391 23.638 66.757 11.84l.621-1.826a.657.657 0 0 0 .044-.111l.097-.293-.018-.013-1.685-1.202c-5.646-8.053-33.787-16.482-49.836-17.822l-6.044-2.162-.02-.007-.024.073-.024.073c-.188.544-.813 2.405-.767 2.531.316 1.051 4.761 3.133 6.678 4.745.588.498.935.946.864 1.314-.41 2.036-9.851-.087-14.352 1.049l-1.318-.837-.084-.049zm30.808 1.312c-.316 1.129-2.822 1.42-5.588.649-2.773-.773-4.759-2.312-4.441-3.448.316-1.129 2.815-1.422 5.581-.652 2.773.774 4.759 2.313 4.448 3.451z" style="fill:#ffc727"/><path d="m51.511 145.811-.084.253c-.007.02-.009.049-.015.069-1.814 8.177 62.696 23.334 66.753 11.898a.657.657 0 0 0 .044-.111c.033-.1.06-.202.079-.306l.011-.033c2.122-10.306-40.263-22.483-56.163-21.534-.805.043-1.25.183-1.412.381a.163.163 0 0 0-.044.066.146.146 0 0 0-.024.073c-.309 1.309 7.854 4.677 7.507 6.388-.104.49-.695.759-1.596.889-3.73.549-12.786-1.173-14.806 1.527a1.672 1.672 0 0 0-.25.44zm25.384 1.469c-2.773-.773-4.759-2.312-4.441-3.448.316-1.129 2.815-1.422 5.581-.652 2.773.773 4.76 2.312 4.448 3.45-.316 1.13-2.822 1.421-5.588.65z" style="fill:#ffc727"/><path d="m51.511 145.811-.084.253c-.007.02-.009.049-.015.069-1.814 8.177 62.696 23.334 66.753 11.898a.657.657 0 0 0 .044-.111c.033-.1.06-.202.079-.306l.011-.033c2.122-10.306-40.263-22.483-56.163-21.534-.805.043-1.25.183-1.412.381a.163.163 0 0 0-.044.066.146.146 0 0 0-.024.073c-.309 1.309 7.854 4.677 7.507 6.388-.104.49-.695.759-1.596.889-3.73.549-12.786-1.173-14.806 1.527a1.672 1.672 0 0 0-.25.44zm28.278 1.898c-.865.001-1.859-.144-2.895-.429-2.773-.773-4.759-2.312-4.441-3.448.097-.359.425-.635.906-.815 1.033-.396 2.787-.36 4.675.163 2.773.773 4.76 2.312 4.448 3.45-.198.711-1.253 1.085-2.693 1.079z" style="opacity:.2"/><path d="M73.359 143.017c.858-.003 1.852.142 2.888.427 2.773.773 4.76 2.312 4.448 3.45-.097.359-.425.635-.906.815 1.439.005 2.494-.369 2.693-1.078.311-1.138-1.675-2.677-4.448-3.45-1.887-.524-3.642-.56-4.675-.164z" style="fill:#ffc727"/><path d="M72.824 148.94c.879.378 1.698.934 2.161 1.739.552.962.243 2.049-.83 2.44-2.181.795-7.125-.548-7.026-3.49.091-2.669 3.538-1.79 5.695-.689z" style="fill:#455a64"/><path d="M83.792 155.249a4.345 4.345 0 0 1-.249-.175 3.543 3.543 0 0 1-.76-.611 2.013 2.013 0 0 1-.461-.845c-.074-.215-.093-.429-.023-.628.101-.519.505-.966 1.24-1.163.941-.253 1.927.066 2.881.128 1.396.091 2.536-.5 3.92-.067 1.526.477 3.16 1.71 3.162 3.188.005 3.932-7.797 1.398-9.71.173z" style="fill:#ffc727"/><path d="M91.785 144.229c-1.948 1.529.578 3.652 2.058 4.153 1.358.454 5.728 1.705 6.038-.672.197-1.427-1.199-2.228-2.626-2.6-1.724-1.057-4.133-1.934-5.47-.881z" style="fill:#263238"/><path d="M111.151 153.397c1.33 2.507-1.626 4.292-3.774 4.221-1.587-.056-3.404-.527-4.929-.979-1.021-.309-2.034-.966-2.031-2.156.024-2.321 2.408-2.693 4.508-2.555 2.382-.484 5.167-.534 6.226 1.469z" style="fill:#ebebeb"/><path d="M97.289 149.598s4.769-4.303 9.51-8.976c4.741-4.673 16.95-12.616 17.463-12.408.513.208-10.086 10.618-15.279 14.633-5.193 4.016-10.707 7.744-10.707 7.744l-.987-.993z" style="fill:#455a64"/><path d="m97.276 149.294 3.551-3.511 1.701 2.099-4.048 2.794z" style="fill:#ebebeb"/><path d="M97.276 149.294c-1.324.223-2.804.457-3.865 2.319-1.281 2.248-2.955 2.564-2.955 2.564s5.776 1.322 8.024-3.501l-1.204-1.382z" style="fill:#263238"/><path d="M90.22 154.25c.197-.307 1.758-.61 2.54-1.773.737-1.096 3.913 1.238 2.153 1.754-1.999.586-5.056.584-4.693.019z" style="fill:#ffc727"/><path d="M123.826 114.863h1" style="fill:none;stroke:#ffc727;stroke-width:.75;stroke-miterlimit:10"/><path d="M126.901 114.863h44.617" style="fill:none;stroke:#ffc727;stroke-width:.75;stroke-miterlimit:10;stroke-dasharray:2.0752,2.0752"/><path d="M172.555 114.863h1v1" style="fill:none;stroke:#ffc727;stroke-width:.75;stroke-miterlimit:10"/><path d="M173.555 117.948v3.128" style="fill:none;stroke:#ffc727;stroke-width:.75;stroke-miterlimit:10;stroke-dasharray:2.0855,2.0855"/><path d="M173.555 122.119v1" style="fill:none;stroke:#ffc727;stroke-width:.75;stroke-miterlimit:10"/><circle cx="123.897" cy="114.863" r="1.41" style="fill:#ffc727"/><circle cx="173.555" cy="123.049" r="1.41" style="fill:#ffc727"/><circle cx="131.192" cy="271.307" r="44.369" style="fill:#fff" transform="rotate(-67.816 131.196 271.304)"/><path d="M175.561 271.307c.215 17.602-11.044 34.475-27.331 41.133-29.35 12.322-61.853-9.307-61.906-41.133.049-31.827 32.558-53.46 61.907-41.135 16.285 6.661 27.546 23.532 27.33 41.135zm0 0c.138-17.539-11.117-34.405-27.451-40.843-28.852-11.85-60.884 9.648-60.788 40.843-.101 31.195 31.938 52.698 60.789 40.844 16.332-6.439 27.59-23.303 27.45-40.844z" style="fill:#263238"/><path d="M104.445 267.635c-.687-.377-1.521.124-1.543.884-.009.058-.018.116-.015.176.042.79.957 1.219 1.608.8.677-.435.668-1.465-.05-1.86zM153.545 287.773c-.687-.377-1.521.124-1.543.884a.854.854 0 0 0-.015.176c.042.791.957 1.22 1.608.8.678-.435.669-1.465-.05-1.86zM147.927 242.679c-.618.482-.486 1.447.204 1.766a.83.83 0 0 0 .156.083c.743.273 1.498-.399 1.37-1.163-.133-.792-1.084-1.191-1.73-.686zM108.231 266.693c-.182.216-.227.489-.111.728.146.5.966.759 1.328.164.472-.776-.618-1.602-1.217-.892zM102.879 264.594c-.665 0-.666 1.033 0 1.033.665 0 .666-1.033 0-1.033zM109.563 298.774c-.664 0-.666 1.033 0 1.033.665 0 .666-1.033 0-1.033zM144.601 238.755c-.262.611.687 1.019.949.407.262-.61-.686-1.019-.949-.407zM156.927 278.989c-.664 0-.666 1.033 0 1.033.665 0 .666-1.033 0-1.033zM142.013 250.498a8.1 8.1 0 0 1-9.337 6.639 8.1 8.1 0 0 1-6.639-9.337 8.1 8.1 0 0 1 9.337-6.639 8.1 8.1 0 0 1 6.639 9.337z" style="fill:#ffc727"/><path d="M124.091 255.899h17.169v2.475h-17.169z" style="fill:#ffc727" transform="rotate(9.585 132.682 257.149)"/><path d="M124.091 255.899h17.169v2.475h-17.169z" style="opacity:.1" transform="rotate(9.585 132.682 257.149)"/><path d="M109.61 289.506h34.782v2.475H109.61z" style="fill:#ffc727" transform="rotate(9.585 127.007 290.756)"/><path d="M109.61 289.506h34.782v2.475H109.61z" style="opacity:.1" transform="rotate(9.585 127.007 290.756)"/><path d="M108.454 296.35h34.782v2.475h-34.782z" style="fill:#ffc727" transform="rotate(9.585 125.85 297.6)"/><path d="M108.454 296.35h34.782v2.475h-34.782z" style="opacity:.1" transform="rotate(9.585 125.85 297.6)"/><path d="M110.327 291.933h32.192v4.466h-32.192z" style="fill:#ffc727" transform="rotate(9.585 126.43 294.18)"/><path d="M125.259 258.34h14.009v2.475h-14.009z" style="fill:#ffc727" transform="rotate(9.585 132.274 259.601)"/><path d="m141.235 291.892-28.059-4.738s7.479-5.318 10.113-12.755c2.206-6.275 4.137-14.382 4.137-14.382l9.26 1.564s-.838 8.292-.804 14.944c.035 7.888 5.353 15.367 5.353 15.367z" style="fill:#ffc727"/><path d="m134.629 223.11.028-1" style="fill:none;stroke:#ffc727;stroke-width:.75;stroke-miterlimit:10"/><path d="m134.711 220.184.828-29.866" style="fill:none;stroke:#ffc727;stroke-width:.75;stroke-miterlimit:10;stroke-dasharray:1.9276,1.9276"/><path d="m135.566 189.354.027-.999h1" style="fill:none;stroke:#ffc727;stroke-width:.75;stroke-miterlimit:10"/><path d="M138.601 188.355h11.044" style="fill:none;stroke:#ffc727;stroke-width:.75;stroke-miterlimit:10;stroke-dasharray:2.0079,2.0079"/><path d="M150.649 188.355h1" style="fill:none;stroke:#ffc727;stroke-width:.75;stroke-miterlimit:10"/><path d="M136.041 223.079a1.41 1.41 0 1 1-2.817-.077 1.41 1.41 0 0 1 2.817.077zM151.578 189.765a1.41 1.41 0 1 0 0-2.82 1.41 1.41 0 0 0 0 2.82z" style="fill:#ffc727"/><circle cx="391.984" cy="117.378" r="44.369" style="fill:#fff" transform="rotate(-45.001 391.984 117.383)"/><path d="M436.353 117.378c.215 17.602-11.044 34.475-27.331 41.133-29.35 12.322-61.853-9.307-61.906-41.133.049-31.827 32.558-53.46 61.907-41.135 16.285 6.66 27.546 23.532 27.33 41.135zm0 0c.139-17.539-11.116-34.405-27.451-40.843-28.852-11.85-60.884 9.649-60.788 40.843-.101 31.195 31.938 52.698 60.789 40.845 16.332-6.44 27.59-23.305 27.45-40.845z" style="fill:#263238"/><path d="M385.864 149.048c.107.776 1.008 1.146 1.63.71a.785.785 0 0 0 .15-.094c.609-.505.407-1.496-.318-1.768-.753-.283-1.575.34-1.462 1.152zM410.717 95.106c-.5.603-.166 1.517.576 1.682.055.02.111.039.17.048.784.109 1.378-.709 1.09-1.428-.299-.746-1.313-.932-1.836-.302zM365.056 104.951c-.687-.377-1.521.124-1.543.884a.795.795 0 0 0-.015.176c.042.791.957 1.22 1.609.8.676-.435.667-1.466-.051-1.86zM382.848 146.573c.282.017.527-.11.651-.345.314-.415.032-1.228-.661-1.163-.905.084-.917 1.451.01 1.508zM384.359 152.119c.397.533 1.226-.082.829-.617-.397-.532-1.226.083-.829.617zM417.766 122.677c-.126.653.888.849 1.014.195.126-.652-.888-.849-1.014-.195zM367.35 100.346c-.665 0-.666 1.033 0 1.033.664 0 .665-1.033 0-1.033zM416.692 99.088c-.126.652.888.849 1.014.195.126-.652-.888-.849-1.014-.195zM411.581 126.781c-8.929 11.816-19.596 17.003-19.596 17.003s-10.658-5.187-19.587-17.003c-6.898-9.128-6.557-23.419 3.311-26.511 10.913-3.418 16.277 13.005 16.277 13.005s5.441-16.531 16.285-13.005c9.833 3.198 10.208 17.383 3.31 26.511z" style="fill:#ffc727"/><path d="M342.366 119.661h-1" style="fill:none;stroke:#ffc727;stroke-width:.75;stroke-miterlimit:10"/><path d="M339.36 119.661H215.952" style="fill:none;stroke:#ffc727;stroke-width:.75;stroke-miterlimit:10;stroke-dasharray:2.0066,2.0066"/><path d="M214.949 119.661h-1v1" style="fill:none;stroke:#ffc727;stroke-width:.75;stroke-miterlimit:10"/><path d="M213.949 122.725v15.485" style="fill:none;stroke:#ffc727;stroke-width:.75;stroke-miterlimit:10;stroke-dasharray:2.0647,2.0647"/><path d="M213.949 139.243v1" style="fill:none;stroke:#ffc727;stroke-width:.75;stroke-miterlimit:10"/><path d="M342.296 118.251a1.41 1.41 0 1 1 0 2.82 1.41 1.41 0 0 1 0-2.82zM212.539 140.172a1.41 1.41 0 1 0 2.82 0 1.41 1.41 0 0 0-2.82 0zM201.122 184.034v-3.695l-4.399-.441a19.873 19.873 0 0 0-1.55-5.758l3.564-2.563-1.848-3.207-4.017 1.824a19.958 19.958 0 0 0-4.232-4.208l1.812-4.005-3.207-1.848-2.575 3.576a19.841 19.841 0 0 0-5.758-1.526l-.441-4.375h-3.695l-.441 4.387a20.243 20.243 0 0 0-5.758 1.562l-2.563-3.564-3.207 1.848 1.812 4.017a20.162 20.162 0 0 0-4.196 4.232l-4.005-1.812-1.86 3.207 3.588 2.563a19.644 19.644 0 0 0-1.526 5.77l-4.375.441v3.695l4.387.441a20.243 20.243 0 0 0 1.562 5.758l-3.576 2.563 1.86 3.207 4.017-1.812a20.393 20.393 0 0 0 4.22 4.196l-1.8 4.005 3.207 1.86 2.563-3.588c1.8.787 3.743 1.311 5.77 1.526l.441 4.375h3.695l.441-4.387a20.243 20.243 0 0 0 5.758-1.562l2.563 3.564 3.207-1.848-1.824-4.017a19.935 19.935 0 0 0 4.208-4.232l4.005 1.812 1.848-3.207-3.576-2.563a20.308 20.308 0 0 0 1.526-5.77l4.375-.441zm-24.437 6.699c-4.685 0-8.488-3.803-8.488-8.488s3.803-8.488 8.488-8.488 8.488 3.803 8.488 8.488-3.803 8.488-8.488 8.488z" style="fill:#ffc727"/><g style="opacity:.6"><path d="m230.427 165.842.12-4.71-3.6-.38c-.35-1.77-1.03-3.42-1.99-4.88l2.37-2.63-3.25-3.42-2.8 2.27a13.493 13.493 0 0 0-4.88-2.14l-.17-3.43-4.72-.13-.35 3.43c-1.86.3-3.6.99-5.14 1.96l-2.4-2.16-3.42 3.24 2.04 2.51c-1.11 1.52-1.9 3.28-2.31 5.19l-3.03.16-.12 4.71 3.05.32c.34 1.96 1.09 3.78 2.16 5.37l-1.99 2.2 3.24 3.42 2.41-1.95c1.56 1.08 3.35 1.83 5.3 2.19l.15 3.06 4.72.13.34-3.24c1.86-.38 3.6-1.13 5.11-2.18l2.43 2.19 3.43-3.24-2.19-2.7c.98-1.48 1.68-3.17 2.02-4.98l3.47-.18zm-16.77 2.2c-2.62 0-4.75-2.13-4.75-4.76s2.13-4.75 4.75-4.75a4.75 4.75 0 0 1 4.76 4.75c0 2.63-2.13 4.76-4.76 4.76z" style="fill:#ffc727"/></g><g style="opacity:.6"><path d="m190.165 147.684 1.471-4.476-3.338-1.4a13.71 13.71 0 0 0-.501-5.246l3.027-1.837-2.128-4.211-3.335 1.368a13.486 13.486 0 0 0-4.057-3.454l.824-3.334-4.483-1.483-1.323 3.184a13.783 13.783 0 0 0-5.487.397l-1.677-2.759-4.208 2.118 1.231 2.991a13.614 13.614 0 0 0-3.706 4.305l-2.948-.719-1.471 4.476 2.829 1.184a13.839 13.839 0 0 0 .523 5.764l-2.539 1.534 2.118 4.208 2.869-1.174a13.612 13.612 0 0 0 4.445 3.623l-.737 2.974 4.483 1.483 1.258-3.005a13.797 13.797 0 0 0 5.521-.617l1.697 2.797 4.218-2.115-1.32-3.216a13.55 13.55 0 0 0 3.368-4.188l3.376.828zm-16.693-2.721a4.757 4.757 0 0 1-3.179-5.926 4.748 4.748 0 0 1 5.916-3.182 4.75 4.75 0 0 1 3.191 5.919 4.757 4.757 0 0 1-5.928 3.189z" style="fill:#ffc727"/></g></svg>