<?xml version="1.0" encoding="utf-8"?>
<!-- Generator: Adobe Illustrator 27.5.0, SVG Export Plug-In . SVG Version: 6.00 Build 0)  -->
<svg version="1.1" id="Слой_2" xmlns="http://www.w3.org/2000/svg" xmlns:xlink="http://www.w3.org/1999/xlink" x="0px" y="0px"
	 viewBox="0 0 3600 2000" style="enable-background:new 0 0 3600 2000;" xml:space="preserve">
<rect style="fill:#FBFBFB;" width="3600" height="2000"/>
<g>
	<path style="fill:#EBF2F9;" d="M3261.154,1553.297c-45.716,103.877-134.678,149.721-219.738,168.533H542.846
		c-235.861-88.114-361.369-728.905-11.611-884.789c191.659-85.425,323.682-100.253,360.944-234.871
		c156.706-566.149,718.584-213.07,926.539-272.498c739.563-211.389,628.6,824.353,1089.428,730.461
		C3119.629,1017.055,3395.38,1248.303,3261.154,1553.297z"/>
	<g>
		<g>
			<path style="fill:#82B378;" d="M2010.388,1242.231c0,0-82.156,61.094-98.175,57.388c-16.02-3.705,60.042-65.948,60.042-65.948
				c-28.622-13.761-117.596-5.133-117.596-5.133s-29.637,95.57-44.251,88.036c-14.614-7.535,30.56-83.285,30.56-83.285
				c-31.88-1.922-70.978,21.748-70.978,21.748c-53.527,42.271,3.517,108.822,3.517,108.822s-10.985,32.898-44.787,62.857
				c0,0-48.276,35.702-51.63,99.495l8.762,0.784c0,0,13.892-59.421,39.136-87.52c0.982-1.017,2.398-2.469,4.15-4.235
				c0-0.001,0-0.001,0.001-0.001c4.126-3.819,7.014-6.688,8.952-8.815c12.562-12.069,29.919-27.438,38.281-28.93
				c0,0-0.42-1.536-0.358-4.206c0.115,1.348,0.233,2.733,0.358,4.206c2.864,33.637,68.118,63.011,108.262,69.052
				c40.145,6.04,27.734-10.461,13.902-34.928s-57.605-35.417-67.592-46.685s10.661-11.295,34.849-0.247
				c24.187,11.047,27.499,40.503,66.3,59.085c38.802,18.581,97.184-45.805,97.184-45.805c-30.923-1.57-75.082-35.152-73.483-45.428
				c1.598-10.275,74.958,17.729,87.499,19.071c12.541,1.344,41.074-14.255,45.489-64.771
				C2093.197,1256.324,2010.388,1242.231,2010.388,1242.231z"/>
			<g>
				<path style="fill:#A8D29F;" d="M1574.062,1280.166c0,0,90.742-50.816,48.396-119.78c0,0-33.877-42.347-70.174-53.235
					c0,0,19.358,102.841,0,105.261c-19.358,2.42-13.309-116.15-13.309-116.15s-95.582-45.976-133.089-42.346
					c0,0,59.285,100.421,39.927,98.001s-85.903-104.051-85.903-104.051s-98.001-18.148-113.73,39.927
					c-15.729,58.075,9.679,87.112,24.198,90.742c14.519,3.63,107.681,2.42,105.261,14.519c-2.42,12.1-65.334,31.457-100.422,20.568
					c0,0,38.717,95.582,89.533,90.742c50.815-4.84,66.544-36.297,98.001-38.717c31.458-2.42,54.445,6.05,38.717,14.52
					c-15.729,8.469-68.964,2.774-94.372,24.375s-45.976,34.909,1.21,44.589c47.186,9.679,131.879,3.63,148.817-32.667
					S1574.062,1280.166,1574.062,1280.166z"/>
				<path style="fill:#82B378;" d="M1598.26,1368.488c-25.408-47.187-24.198-88.322-24.198-88.322
					c-29.038-91.953-283.116-174.226-283.116-174.226c323.042,130.669,266.177,210.522,266.177,210.522
					c8.706,5.078,21.759,29.293,30.818,47.872c1.29,3.161,3.333,7.536,6.368,13.476v0.001c1.23,2.686,2.214,4.883,2.893,6.416
					c16.633,41.618,7.822,113.483,7.822,113.483l10.081,2.708C1637.443,1427.989,1598.26,1368.488,1598.26,1368.488z"/>
			</g>
			<g>
				<path style="fill:#A8D29F;" d="M1718.425,1210.084c0,0-119.615-66.984-63.795-157.893c0,0,44.657-55.82,92.502-70.174
					c0,0-25.518,135.563,0,138.754c25.518,3.189,17.544-153.108,17.544-153.108s125.994-60.605,175.436-55.82
					c0,0-78.148,132.374-52.631,129.184c25.519-3.189,113.235-137.158,113.235-137.158s129.185-23.923,149.918,52.63
					c20.733,76.554-12.759,114.831-31.897,119.616c-19.138,4.784-141.943,3.189-138.753,19.138
					c3.189,15.949,86.122,41.467,132.374,27.113c0,0-51.036,125.994-118.021,119.615c-66.984-6.38-87.718-47.847-129.185-51.036
					s-71.769,7.975-51.036,19.139c20.733,11.164,90.908,3.658,124.4,32.132c33.492,28.473,60.604,46.017-1.595,58.775
					c-62.2,12.759-173.841,4.785-196.169-43.062C1718.425,1210.084,1718.425,1210.084,1718.425,1210.084z"/>
				<path style="fill:#82B378;" d="M2091.625,980.423c0,0-334.923,108.451-373.2,229.661c0,0,1.595,54.226-31.897,116.426
					c0,0-51.651,78.434-22.205,173.909l13.288-3.569c0,0-11.615-94.73,10.31-149.591c0.896-2.021,2.193-4.92,3.815-8.461
					c4-7.829,6.693-13.597,8.393-17.763c11.942-24.491,29.148-56.411,40.624-63.105
					C1740.753,1257.93,1665.795,1152.668,2091.625,980.423z"/>
			</g>
		</g>
		<path style="fill:#F1A34F;" d="M1519.024,1198.803c0,0,197.966-56.549,247.693-2.75c43.56,47.128,161.689,233.684,167.908,344.102
			c6.043,107.288-107.522,177.832-224.345,177.832h-207.484L1519.024,1198.803z"/>
		<path style="fill:#D16E24;" d="M1382.008,1253.784c0,0,279.895-127.15,332.911-44.093
			c28.15,44.102,105.614,220.045,111.333,330.463c5.557,107.288-98.879,177.832-206.311,177.832h-190.805L1382.008,1253.784z"/>
		<path style="fill:#E78B37;" d="M830.135,862.628c0,0,348.152-9.425,481.049-9.131c68.371,0.152,66.675,51.904,99.524,111.867
			c65.79,120.094,175.029,326.666,166.339,358.943c-12.373,45.954-478.421,77.768-511.416,67.163S830.135,862.628,830.135,862.628z"
			/>
		<path style="opacity:0.4;fill:#C44F00;" d="M1102.739,955.704c0,0,4.712-68.334-11.782-62.443
			c-16.495,5.891-121.353,101.324-104.858,326.357l48.306,41.236l368.77-61.266L1102.739,955.704z"/>
		<path style="fill:#F1A34F;" d="M1571.526,1232.659l-124.204,61.359c0,0-106.437-391.332-113.506-421.176
			c-3.146-13.301-12.854-18.108-22.633-19.346c17.213-1.567,29.737-1.685,29.737-1.685c33.884,0,63.999,21.584,74.874,53.666
			c23.717,69.972,67.392,199.007,111.632,330.433c11.57-4.631,25.343-9.944,40.542-15.411L1571.526,1232.659z"/>
		<path style="fill:#DF812F;" d="M1322.927,1253.855c0,0,401.394-35.545,450.881,11.849
			c22.975,22.003,35.876,121.645,43.105,222.091c9.017,125.291-92.525,232.504-217.427,230.71l-435.141,0.197L1322.927,1253.855z"/>
		<g>
			<path style="fill:#B5453C;" d="M1172.687,769.558c-11.495-2.577-23.419,0.4-31.48,3.393c1.448-2.828,5.363-4.893,5.363-4.893
				c-5.322,0.798-15.144,9.317-15.144,9.317c-79.151-5.662-58.44,102.012-49.553,125.784c8.874,23.772,17.569,51.602-11.148,84.125
				c-56.504,63.992,24.977,120.7,24.977,120.7c0.646,0.155,48.942,44.402,48.942,44.402c-7.766-19.03,51.013-149.924,88.69-195.255
				c6.314-20.392,1.281-51.474,0.869-53.915c5.244,24.261,5.249,38.767,3.914,47.343
				C1266.805,901.646,1203.154,776.382,1172.687,769.558z"/>
			<path style="fill:#FFB27D;" d="M1476.222,957.472c1.178-1.768,11.193-32.4,21.796-31.811c10.604,0.589,27.098,2.357,31.222,1.178
				c4.124-1.178,17.955-11.618,20.324-9.131c5.891,6.186-7.364,25.331-16.789,28.276c-9.426,2.945-24.742-1.473-28.276,2.062
				c-3.535,3.535-2.945,16.2-2.945,16.2L1476.222,957.472z"/>
			<g>
				<path style="fill:#FFB27D;" d="M1756.597,1635.482c-1.153,12.499,16.248,15.538,36.402,16.542
					c20.153,1.004,14.063,5.131,41.682,10.134c27.619,5.002,38.688-2.556,40.687-6.288c1.78-3.31-11.061-8.488-24.745-14.341
					c-1.722-0.73-3.446-1.484-5.171-2.238c-15.401-6.771-24.043-20.584-36.051-33.391c-11.374-12.13-22.173-50.969-22.173-50.969
					l-37.533-8.015c0,0,10.539,34.955,14.197,49.878c2.152,8.777-1.023,18.591-3.842,26.061
					C1758.531,1626.919,1756.998,1631.078,1756.597,1635.482z"/>
				<path style="fill:#C65447;" d="M1792.999,1652.024c20.153,1.004,14.063,5.131,41.682,10.134
					c27.619,5.002,38.688-2.556,40.687-6.288c1.78-3.31-11.061-8.488-24.745-14.341l-0.213,0.233c0,0-19.421,6.594-41.835,0.499
					c-18.271-4.961-35.937-15.879-48.524-19.406c-1.519,4.063-3.052,8.223-3.453,12.627
					C1755.444,1647.981,1772.845,1651.021,1792.999,1652.024z"/>
			</g>
			<path style="fill:#AA413E;" d="M1382.851,1190.416c0,0,249.402-18.771,296.354,10.862
				c46.953,29.633,122.256,374.792,122.256,374.792s-4.648,3.726-15.028,4.85c-9.653,1.045-30.915-4.632-30.915-4.632
				s-108.221-154.436-115.844-193.343c-7.623-38.906-5.762-73.622-23.12-74.553c-17.358-0.93-233.737,26.306-266.467-31.354
				s-5.672-114.738-5.672-114.738L1382.851,1190.416z"/>
			<path style="fill:#699DEE;" d="M1501.117,994.49c-16.954,42.933-57.908,112.905-68.488,115.556
				c-8.919,2.227-52.523-7.729-87.951-19.817c-20.736-7.08-38.656-14.892-45.183-21.419
				c-17.672-17.673-75.845-121.499-75.845-121.499s54.638-6.922,80.558,8.394c25.92,15.316,88.363,86.008,97.789,83.651
				c9.426-2.356,54.196-81.295,71.869-88.364c0,0,27.098-5.891,34.167,12.96C1509.812,968.688,1506.819,980.057,1501.117,994.49z"/>
			<g>
				<path style="fill:#FFB27D;" d="M1661.165,1675.54c-1.153,12.499,16.248,15.538,36.401,16.542s14.063,5.132,41.682,10.134
					c27.619,5.003,38.687-2.555,40.687-6.288c1.78-3.31-11.061-8.488-24.745-14.34c-1.722-0.73-3.446-1.484-5.171-2.238
					c-15.401-6.771-24.043-20.585-36.051-33.391c-11.374-12.131-22.173-50.969-22.173-50.969l-37.533-8.016
					c0,0,10.539,34.956,14.197,49.879c2.152,8.777-1.023,18.591-3.842,26.06C1663.099,1666.977,1661.565,1671.137,1661.165,1675.54z
					"/>
				<path style="fill:#C65447;" d="M1697.566,1692.082c20.154,1.004,14.063,5.132,41.682,10.134
					c27.619,5.003,38.687-2.555,40.687-6.288c1.78-3.31-11.061-8.488-24.745-14.34l-0.213,0.232c0,0-19.42,6.595-41.835,0.5
					c-18.271-4.961-35.937-15.88-48.523-19.407c-1.519,4.063-3.052,8.224-3.453,12.627
					C1660.012,1688.039,1677.413,1691.078,1697.566,1692.082z"/>
			</g>
			<path style="fill:#4A75CB;" d="M1501.117,994.49c-16.954,42.933-57.908,112.905-68.488,115.556
				c-8.919,2.227-52.523-7.729-87.951-19.817c-14.668-12.512-23.669-23.327-25.142-25.53c1.166,0.436,83.757,31.752,100.133,24.729
				C1434.514,1083.065,1476.528,1011.373,1501.117,994.49z"/>
			<path style="fill:#FFB27D;" d="M1231.013,959.523c0.268,0.034-19.076,18.992-37.813,19.543
				c-17.621,0.532-34.689-17.313-34.479-17.429c6.471-3.472,5.566-13.544-7.002-54.177l3.302-0.337l55.527-5.622
				c0,0,3.841,16.842,8.546,32.377C1223.038,946.922,1227.604,959.042,1231.013,959.523z"/>
			<path style="fill:#E2915A;" d="M1210.547,901.5c0,0,3.841,16.842,8.546,32.377c-29.552,8.122-53.203-13.878-64.073-26.755
				L1210.547,901.5z"/>
			<path style="fill:#C65447;" d="M1334.003,1205.871c0,0,221.554,10.486,267.317,41.925
				c45.764,31.438,107.575,379.267,107.575,379.267s-4.789,3.541-15.205,4.26c-9.687,0.669-30.711-5.83-30.711-5.83
				s-102.128-158.531-108.23-197.705c-6.103-39.174-2.893-73.791-20.201-75.396c-17.309-1.605-234.584,17.188-265.044-41.703
				C1239.043,1251.798,1334.003,1205.871,1334.003,1205.871z"/>
			<path style="fill:#B5453C;" d="M1147.872,903.073c0,0-22.764-19.573-32.784-39.193c-7.154-14.007-16.376-71.211,41.208-80.152
				c0,0,16.505-3.314,34.673,2.259c14.449,4.432,37.069,16.619,32.37,70.428l-0.079,17.717L1147.872,903.073z"/>
			<path style="fill:#699DEE;" d="M1335.232,1224.718c-1.944,0.013-4.678-0.117-7.882-0.364c-12.948-0.99-33.59-3.759-40.812-5.915
				c-60.959-18.214-119.526-40.683-144.469-119.608c-3.016-9.544-5.537-19.912-7.517-31.198l9.508-36.241l18.544-76.499
				c0,0,22.81,12.194,44.005,7.493c10.851-2.416,17.037-15.069,17.037-15.069s114.731,44.912,153.611,137.989
				c38.88,93.076,52.229,78.938,64.011,98.967C1453.05,1204.301,1400.821,1224.329,1335.232,1224.718z"/>
			<path style="fill:#FFB27D;" d="M1224.821,913.211c0,0-68.975,22.314-82.209-20.855c-13.235-43.168-31.051-69.361,12.429-85.433
				c43.479-16.072,57.126-2.235,65.048,11.099C1228.011,831.357,1242.422,906.295,1224.821,913.211z"/>
			<path style="fill:#B5453C;" d="M1186.292,796.224c0,0-3.51,56.458-30.353,72.844c-26.842,16.386-41.861,12.44-41.861,12.44
				s16.923-24.573,12.099-56.973C1126.177,824.535,1164.61,776.484,1186.292,796.224z"/>
			<path style="fill:#B5453C;" d="M1182.843,801.774c0,0,17.629,6.982,24.443,16.923c6.814,9.941,15.281,32.103,21.644,29.319
				c0,0,3.785-38.802-18.235-53.373C1187.347,779.191,1182.843,801.774,1182.843,801.774z"/>
			<path style="fill:#4A75CB;" d="M1327.35,1224.354c-12.948-0.99-33.59-3.759-40.812-5.915
				c-60.959-18.214-119.526-40.683-144.469-119.608c-0.094-0.578-0.2-1.155-0.306-1.744l8.459-6.656
				c17.295-13.608,40.624-16.719,60.9-8.165C1259.275,1102.6,1325.418,1139.465,1327.35,1224.354z"/>
			<path style="fill:#699DEE;" d="M1162.605,954.894c0,0-71.255,10.706-83.037,55.421c-11.782,44.716-22.253,190.803-11.649,202.342
				c10.604,11.54,42.282-1.844,49.351-7.614c7.069-5.77,43.593-154.34,43.593-154.34S1178.728,983.552,1162.605,954.894z"/>
			<path style="fill:#FFB27D;" d="M1271.089,1160.212c0,0,40.987-7.933,45.614-5.949c4.628,1.983,30.41,25.12,27.765,29.748
				c-2.644,4.628-13.221,7.933-25.121,3.967c-11.899-3.967-37.682-5.95-42.309-11.899
				C1272.411,1170.128,1271.089,1160.212,1271.089,1160.212z"/>
			<path style="fill:#699DEE;" d="M1282.107,1154.482c0,0-159.98-2.644-198.323,22.477c0,0-22.477,23.138-15.866,35.698
				s27.104,10.577,36.359,9.916c9.255-0.661,171.219-37.681,171.219-37.681S1294.006,1171.01,1282.107,1154.482z"/>
		</g>
		<path style="fill:#F1A34F;" d="M1145.938,1198.803c0,0,182.053-56.549,227.781-2.75
			c40.059,47.128,148.692,233.684,154.411,344.102c5.557,107.288-98.879,177.832-206.311,177.832h-190.806L1145.938,1198.803z"/>
		<path style="fill:#F1A34F;" d="M1419.738,1540.154c-5.719-110.418-83.183-286.361-111.333-330.463
			c-41.067-64.339-218.271-2.543-296.059,28.578c-44.238-131.43-87.917-260.459-111.63-330.431
			c-10.875-32.09-40.988-53.672-74.87-53.672c0,0-126.498-18.686-146.074,149.843c-62.662,539.462-12.313,713.42,212.465,714.763
			c28.19,0.168,83.289-0.333,130.378-0.863l0.008,0.077h190.806C1320.859,1717.986,1425.295,1647.442,1419.738,1540.154z"/>
		<path style="fill:#D16E24;" d="M1419.743,1539.799c-5.726-110.742-83.18-287.193-111.338-331.421
			c-34.957-54.934-168.563-18.197-255.512,13.198c-15.199,5.483-28.972,10.813-40.541,15.456
			c-44.241-131.81-87.916-261.221-111.633-331.397c-10.874-32.175-40.989-53.823-74.873-53.823c0,0-12.524,0.118-29.737,1.69
			c-0.012,0-0.012,0-0.023,0c-27.734,2.529-67.604,8.839-86.714,24.518c-12.96,10.635-21.867,57.297-29.596,124.07
			c-18.273,157.734-26.933,284.321-24.471,384.534c1.26,51.4,5.455,95.854,12.783,134.031c5.125,26.74,11.782,50.396,20.064,71.181
			c35.875,90.169,101.983,126.492,204.084,127.106c11.864,0.071,28.5,0.023,47.304-0.095c25.861-0.165,55.81-0.473,83.073-0.779
			l0.012,0.083h190.807C1320.858,1718.152,1425.304,1647.396,1419.743,1539.799z"/>
		<path style="fill:#F1A34F;" d="M1010.25,1229.66c-28.71,11.279-60.53,23.77-86.28,33.88c-25.17-92.61-99.37-365.95-105.23-390.7
			c-3.14-13.3-12.85-18.11-22.63-19.34c17.21-1.57,29.74-1.69,29.74-1.69c33.88,0,63.99,21.59,74.87,53.67
			C924.06,974.34,966.73,1100.41,1010.25,1229.66z"/>
		<path style="opacity:0.4;fill:#C44F00;" d="M1068.854,1317.535c-13.455-40.317-97.282-27.723-97.282-27.723
			s-56.918,70.573-73.483,72.246c-16.554,1.685,34.155-68.04,34.155-68.04c-32.081-2.521-113.848,29.396-113.848,29.396
			s5.184,82.332-11.381,80.658c-16.553-1.685,0-73.094,0-73.094c-31.045,7.563-60.028,36.971-60.028,36.971
			c-36.217,47.882,41.401,83.168,41.401,83.168s1.037,28.56-20.701,61.324c0,0-27.322,33.685-18.556,77.242h-24.047
			c4.607-31.352-14.68-55.127-14.68-55.127c-16.483-24.86-15.693-46.527-15.693-46.527s58.874-26.768,31.398-63.091
			c0,0-21.985-22.315-45.537-28.041c0,0,12.56,54.161,0,55.445c-12.56,1.272-8.636-61.183-8.636-61.183s-6.728-2.628-16.636-6.092
			c1.261,51.251,5.455,95.574,12.783,133.641c7.281-2.922,12.866-6.738,15.634-11.558c0.471-0.837,0.931-1.626,1.367-2.392
			c-0.66,1.579-1.367,2.392-1.367,2.392c5.644,2.675,14.115,15.435,19.994,25.213c0.837,1.674,2.168,3.971,4.124,7.081
			c0.801,1.426,1.449,2.592,1.885,3.405c6.787,13.772,7.045,33.825,6.303,46.833h-87.303v3.781h5.078
			c1.862,50.202,40.647,92.853,95.056,110.69h-78.467c-10.368,0-18.769,6.821-18.769,15.233h308.294c0-1.049-0.13-2.073-0.377-3.063
			c-1.744-6.938-9.308-12.17-18.379-12.17h-78.467c54.408-17.838,93.182-60.488,95.055-110.69h3.535v-3.781H779.222
			c3.746-6.669,8.318-13.196,13.679-17.956c0.625-0.519,1.449-1.202,2.451-2.026c2.651-1.991,4.5-3.487,5.761-4.606
			c8.153-6.362,19.44-14.48,24.871-15.258c0,0-0.271-0.813-0.224-2.227c0.071,0.719,0.153,1.449,0.224,2.227
			c1.862,17.708,44.206,33.189,70.255,36.37c26.05,3.182,18.003-5.514,9.025-18.402c-8.978-12.89-37.384-18.651-43.864-24.589
			c-6.48-5.938,6.917-5.95,22.621-0.13c15.693,5.82,17.838,21.337,43.016,31.115c25.178,9.791,63.068-24.117,63.068-24.117
			c-20.065-0.836-48.718-18.521-47.681-23.929c1.037-5.419,48.635,9.332,56.776,10.038c8.141,0.707,26.65-7.505,29.513-34.12
			c2.875-26.603-50.862-34.025-50.862-34.025s-12.395,7.481-26.391,15.01c-2.757-2.91-7.246-6.126-12.489-9.72
			c4.618-3.322,8.777-6.174,11.357-7.93c5.172,1.144,10.816,2.016,17.107,2.51c43.463,3.357,76.582-63.009,76.582-63.009
			c-30.008,7.563-83.828-5.879-85.901-14.28c-2.074-8.399,77.618-7.563,90.036-10.085
			C1060.583,1378.023,1082.309,1357.864,1068.854,1317.535z M802.868,1476.307c-0.106-0.129-0.99-1.189-1.803-3.146
			C801.643,1474.174,802.244,1475.199,802.868,1476.307z M795.069,1565.224c0,0-14.256,8.577-24.2,24.46h-10.286
			c-1.273-16.684-1.767-46.456,8.012-66.309c0.577-1.072,1.414-2.592,2.474-4.465c1.296-2.063,2.38-3.854,3.287-5.408
			c0.895-1.543,1.602-2.852,2.156-3.947c7.752-12.9,18.922-29.713,26.368-33.236c1.838,3.205,4.642,6.08,8.177,8.637
			c-14.138,21.384,13.078,47.162,13.078,47.162S817.006,1549.448,795.069,1565.224z M909.388,1459.447
			c-22.256-4.984-49.095-4.053-58.909-8.33c-13.455-5.891,6.209-11.77,33.119-10.085c18.108,1.131,30.126,11.381,49.283,18.992
			C925.422,1459.494,917.187,1459.364,909.388,1459.447z"/>
		<g>
			<g>
				<path style="fill:#82B378;" d="M775.533,1488.677c0,0-37.017-43.187-2.282-70.617c0,0,25.372-15.36,46.059-14.112
					c0,0-29.314,49.155-19.831,54.045c9.483,4.889,28.715-57.129,28.715-57.129s57.737-5.599,76.311,3.331
					c0,0-49.358,40.392-38.963,42.796c10.396,2.404,63.708-37.24,63.708-37.24s53.737,9.145,50.872,41.926
					c-2.865,32.781-21.381,42.903-29.52,42.031c-8.138-0.871-55.743-19.044-56.78-12.376c-1.037,6.668,27.619,28.46,47.685,29.479
					c0,0-37.885,41.781-63.064,29.724c-25.179-12.059-27.328-31.173-43.023-38.342c-15.696-7.169-29.094-7.151-22.614,0.16
					c6.48,7.312,34.886,14.418,43.862,30.295c8.976,15.877,17.029,26.585-9.021,22.665c-26.051-3.92-68.396-22.981-70.254-44.809
					S775.533,1488.677,775.533,1488.677z"/>
				<path style="fill:#82B378;" d="M953.719,1452.561c0,0-145.953-5.625-178.186,36.116c0,0-7.128,21.349-29.063,40.789
					c0,0-31.328,23.169-33.503,64.565l5.686,0.509c0,0,9.015-38.557,25.394-56.792c0.638-0.659,1.563-1.607,2.706-2.76
					c2.657-2.459,4.509-4.302,5.766-5.678c8.154-7.838,19.44-17.838,24.875-18.807
					C777.392,1510.504,763.239,1458.791,953.719,1452.561z"/>
			</g>
			<g>
				<path style="fill:#A8D29F;" d="M646.109,1434.366c0,0,58.885-32.976,31.405-77.729c0,0-21.983-27.479-45.537-34.546
					c0,0,12.562,66.736,0,68.307c-12.563,1.57-8.637-75.372-8.637-75.372s-62.025-29.835-86.364-27.479
					c0,0,38.471,65.165,25.909,63.596c-12.562-1.571-55.744-67.521-55.744-67.521s-63.596-11.777-73.802,25.909
					c-10.207,37.687,6.281,56.529,15.703,58.885c9.421,2.355,69.876,1.57,68.307,9.421c-1.57,7.852-42.398,20.414-65.166,13.348
					c0,0,25.124,62.025,58.1,58.885c32.976-3.141,43.182-23.554,63.596-25.124c20.413-1.57,35.331,3.926,25.124,9.422
					c-10.207,5.495-44.753,1.801-61.24,15.817c-16.488,14.018-29.835,22.653,0.785,28.935s85.579,2.355,96.571-21.198
					C646.109,1434.366,646.109,1434.366,646.109,1434.366z"/>
				<path style="fill:#82B378;" d="M661.812,1491.681c-16.488-30.62-15.703-57.315-15.703-57.315
					c-18.843-59.67-183.721-113.059-183.721-113.059c209.63,84.795,172.728,136.613,172.728,136.613
					c5.649,3.295,14.12,19.009,19.998,31.065c0.837,2.051,2.163,4.891,4.132,8.745l0,0.001c0.798,1.741,1.436,3.167,1.877,4.162
					c10.794,27.007,5.076,73.643,5.076,73.643l6.542,1.757C687.238,1530.292,661.812,1491.681,661.812,1491.681z"/>
			</g>
			<g>
				<path style="fill:#A8D29F;" d="M739.79,1388.889c0,0-77.621-43.469-41.398-102.46c0,0,28.979-36.224,60.027-45.538
					c0,0-16.56,87.971,0,90.041c16.559,2.069,11.384-99.355,11.384-99.355s81.761-39.328,113.844-36.223
					c0,0-50.712,85.9-34.153,83.83c16.559-2.069,73.482-89.005,73.482-89.005s83.831-15.524,97.285,34.153
					c13.454,49.677-8.28,74.516-20.699,77.621c-12.419,3.104-92.11,2.069-90.041,12.419s55.887,26.908,85.901,17.594
					c0,0-33.119,81.761-76.586,77.621c-43.468-4.14-56.922-31.048-83.831-33.118s-46.573,5.175-33.118,12.42
					c13.454,7.244,58.992,2.373,80.726,20.851c21.734,18.477,39.328,29.861-1.035,38.141c-40.363,8.28-112.809,3.105-127.299-27.943
					C739.79,1388.889,739.79,1388.889,739.79,1388.889z"/>
				<path style="fill:#82B378;" d="M981.967,1239.855c0,0-217.339,70.377-242.178,149.033c0,0,1.035,35.188-20.699,75.551
					c0,0-33.517,50.897-14.409,112.854l8.623-2.315c0,0-7.537-61.474,6.69-97.073c0.582-1.313,1.423-3.193,2.476-5.49
					c2.596-5.081,4.343-8.824,5.447-11.527c7.749-15.893,18.915-36.606,26.361-40.95
					C754.279,1419.937,705.636,1351.63,981.967,1239.855z"/>
			</g>
			<path style="fill:#699DEE;" d="M585.127,1559.602c0,83.974,68.074,152.048,152.047,152.048
				c83.973,0,152.047-68.074,152.047-152.048H585.127z"/>
			<path style="fill:#A1C7FF;" d="M774.589,1710.485c-6.185,0.773-12.49,1.164-18.891,1.164c-83.972,0-152.04-68.077-152.04-152.048
				h37.773C641.431,1637.18,699.529,1701.184,774.589,1710.485z"/>
			<path style="fill:#4A75CB;" d="M872.563,1700.628H601.786c-10.36,0-18.759,8.398-18.759,18.759h308.294
				C891.321,1709.026,882.923,1700.628,872.563,1700.628z"/>
			<rect x="580.127" y="1559.602" style="fill:#4A75CB;" width="312.552" height="4.664"/>
		</g>
	</g>
	<g>
		<path style="fill:#F1A34F;" d="M2570.649,1265.759v146.014c0,25.653-7.247,46.405-16.207,46.405h-285.931
			c-8.961,0-16.208-20.752-16.208-46.405v-146.014c0-25.653,25.271-49.412,99.389-48.589l202.75,2.183
			C2563.402,1219.353,2570.649,1240.105,2570.649,1265.759z"/>
		<path style="fill:#E78B37;" d="M2608.532,1265.759v146.014c0,25.653-7.247,46.405-16.208,46.405h-285.93
			c-8.961,0-16.208-20.752-16.208-46.405v-146.014c0-25.653,26.918-50.236,68.095-49.412l234.043,3.006
			C2601.285,1219.353,2608.532,1240.105,2608.532,1265.759z"/>
		<path style="fill:#F1A34F;" d="M2538.029,1090.638c3.895-8.608-1.947-368.024,85.686-363.72
			c87.634,4.304,251.217,8.608,251.217,8.608s74.001,6.457,29.21,182.936c-44.79,176.479-35.053,456.264-35.053,456.264h-323.27
			L2538.029,1090.638z"/>
		<path style="fill:#E78B37;" d="M2841.795,918.491c-5.403,21.082-9.883,43.614-13.836,66.936
			c-15.812,94.476-20.688,202.128-21.873,280.265c-0.923,64.565,0.658,108.971,0.658,108.971h-323.22l-7.774-284.088
			c3.821-8.564-1.977-368.021,85.647-363.672c44.8,2.239,109.497,4.349,161.94,6.061c6.588,0.132,13.044,0.395,19.236,0.527
			c40.584,1.188,70.1,1.977,70.1,1.977S2886.594,741.925,2841.795,918.491z"/>
		<path style="fill:#D16E24;" d="M2638.772,1639.461v-189.584c0-8.038-6.721-14.758-14.758-14.758h-0.132
			c-2.636,0-5.14,0.791-7.247,2.107c-4.48,2.504-7.511,7.247-7.511,12.65v189.844c-0.571,0.093-1.143,0.188-1.713,0.294
			c-42.428,6.589-76.951,37.684-88.546,78.4h211.746C2718.687,1676.674,2682.797,1645.082,2638.772,1639.461z"/>
		<path style="opacity:0.4;fill:#C44F00;" d="M2827.695,979.76c-7.905-121.224-71.284-224.923-85.121-246.269l-138.88-13.736
			c0,0-107.06,70.824-80.706,343.414c13.589,140.563,71.551,48.5,124.511-73.655l-10.863,264.714c0,0,129.262,8.828,169.45,11.464
			c1.186-78.138,6.062-185.789,21.873-280.265C2827.959,983.582,2827.827,981.607,2827.695,979.76z"/>
		<path style="fill:#F1A34F;" d="M2616.636,1437.227c-4.48,2.504-7.511,7.247-7.511,12.65v232.303c0,5.533,3.03,10.277,7.511,12.648
			c4.349-2.503,7.379-7.248,7.379-12.648v-232.303C2624.015,1444.474,2620.984,1439.73,2616.636,1437.227z"/>
		<path style="fill:#F1A34F;" d="M2607.412,1640.015c-42.428,6.589-76.951,37.684-88.546,78.4h177.093
			C2684.363,1677.698,2649.972,1646.604,2607.412,1640.015z"/>
		<path style="fill:#F1A34F;" d="M2873.711,1390.977l-7.31,41.959c0,8.96,0.062,25.242-8.899,25.242h-503.343
			c-8.961,0-16.208-7.248-16.208-16.207v-50.994c0-8.959,7.247-16.207,16.208-16.207h503.343
			C2866.463,1374.77,2873.711,1382.018,2873.711,1390.977z"/>
		<g>
			<path style="fill:#EF9A60;" d="M2268.248,1687.872c0.922,4.481,1.845,9.093,1.581,13.836c-0.659,2.635-2.372,4.613-4.876,6.192
				l-2.371,4.481c-2.504,1.186-8.565,2.107-16.339,2.898l-0.132-3.689c-1.055,0-2.109,0-3.162,0.132v-0.132
				c-9.224,0.132-20.688,0.923-34.654,6.456c-0.132,0-0.264,0.132-0.396,0.132c-2.503,0.132-5.007,0.264-7.246,0.396h-33.996
				c-16.339-2.371-22.795-8.959-23.981-12.253c0-0.923,12.255-6.983,22.4-9.883c0.132,0,0.396-0.132,0.79-0.132
				c1.449-0.527,4.217-1.582,4.876-1.715c1.845-0.657,3.953-1.186,5.798-1.711c16.998-5.009,28.461-16.339,41.9-28.857
				c15.418-14.362,36.368-78.401,33.602-79.586l34.654,4.479c0,0-27.803,55.606-25.563,72.867c0.922,7.643,3.688,14.1,5.533,20.688
				c0.133,0.264,0.133,0.66,0.265,0.924c0.395,0.922,0.658,1.843,0.921,2.766
				C2267.984,1686.818,2268.116,1687.346,2268.248,1687.872z"/>
			<path style="fill:#233862;" d="M2704.346,1206.979l-149.041-6.092c0,0-226.678,14.636-245.904,47.584l-85.483,399.823
				c0,0,4.735,6.383,20.79,9.133c8.491,1.455,26.975-2.75,26.975-2.75s110.697-141.552,124.929-230.426
				c11.894-74.271,16.597-82.031,57.313-80.489c40.719,1.541,165.661,11.381,225.029-0.117
				C2738.322,1332.146,2704.346,1206.979,2704.346,1206.979z"/>
			<g>
				<path style="fill:#365DA4;" d="M2270.487,1698.019c0,1.319-0.132,2.636-0.658,3.689c-0.659,2.635-2.372,4.613-4.876,6.192
					c-0.264,0.264-0.526,0.396-0.79,0.527c0,0,0,0-0.132,0c-0.132,0.133-0.264,0.133-0.395,0.265
					c-4.349,2.635-10.146,2.635-17.525,2.898h-3.162c-9.224,0.132-20.688,0.923-34.654,6.456c-0.132,0-0.264,0.132-0.396,0.132
					c-0.395,0.132-0.658,0.264-1.054,0.396h-57.582c-7.905-3.162-9.486-8.169-10.277-10.014c-0.658-1.449,1.186-3.031,4.744-4.744
					c0.264-0.132,0.658-0.264,0.922-0.527c5.008-2.24,12.519-4.611,20.556-7.246c0.132,0.132,0.396,0.132,0.658,0.264
					c5.403,1.844,24.246,7.773,46.382,3.559c18.448-3.559,36.763-12.256,50.861-16.471c1.187-0.264,2.372-0.66,3.558-0.924
					c0.265-0.132,0.527-0.132,0.791-0.264c0.264,0.527,0.395,1.188,0.527,1.713
					C2269.302,1688.399,2270.487,1693.145,2270.487,1698.019z"/>
				<polygon style="fill:#365DA4;" points="2265.744,1706.453 2264.953,1707.9 2262.582,1712.382 2259.288,1718.574 
					2243.08,1718.574 2243.08,1715.28 2242.949,1711.723 2242.949,1710.142 2264.821,1706.584 				"/>
			</g>
			<path style="fill:#FFB27D;" d="M2318.758,1687.872c0.923,4.481,1.845,9.093,1.581,13.836c-0.658,2.635-2.372,4.613-4.875,6.192
				l-2.372,4.481c-2.503,1.186-8.564,2.107-16.339,2.898l-0.132-3.689c-1.054,0-2.108,0-3.162,0.132v-0.132
				c-9.224,0.132-20.688,0.923-34.654,6.456c-0.132,0-0.264,0.132-0.396,0.132c-2.504,0.132-5.007,0.264-7.247,0.396h-33.996
				c-16.339-2.371-22.795-8.959-23.98-12.253c0-0.923,12.254-6.983,22.399-9.883c0.132,0,0.396-0.132,0.791-0.132
				c1.449-0.527,4.217-1.582,4.875-1.715c1.845-0.657,3.954-1.186,5.798-1.711c16.998-5.009,28.462-16.339,41.901-28.857
				c15.417-14.362,36.367-78.401,33.601-79.586l34.654,4.479c0,0-27.803,55.606-25.563,72.867c0.922,7.643,3.689,14.1,5.534,20.688
				c0.132,0.264,0.132,0.66,0.264,0.924c0.395,0.922,0.659,1.843,0.922,2.766
				C2318.494,1686.818,2318.626,1687.346,2318.758,1687.872z"/>
			<path style="fill:#466AA5;" d="M2613.93,837.177l-11.602,46.04l-60.911,240.677c-2.323,3.628-21.72,11.297-43.178,18.497
				c-25.546,8.539-54.082,16.594-59.479,16.119c-9.882-0.8-15.345-21.442-12.532-27.26c1.823-3.842,34.393-21.122,59.863-36.614
				c14.216-8.641,26.202-16.709,29.518-21.513c5.982-8.908,20.87-90.857,32.996-150.829c6.188-30.766,11.71-55.768,14.909-62.323
				c8.112-17.106,39.697-21.73,48.25-22.613C2613.129,837.18,2613.93,837.177,2613.93,837.177z"/>
			<path style="fill:#2B478B;" d="M2743.77,1207.116l-149.04-6.093c0,0-226.679,14.637-245.905,47.585l-78.995,407.716
				c0,0,13.787,4.707,22.441,5.353c13.794,1.029,23.265-3.5,23.265-3.5s106.268-144.915,120.5-233.788
				c11.893-74.271,16.596-82.031,57.313-80.489c40.718,1.541,165.661,11.381,225.029-0.117S2743.77,1207.116,2743.77,1207.116z"/>
			<g>
				<path style="fill:#466AA5;" d="M2320.998,1698.019c0,1.319-0.133,2.636-0.659,3.689c-0.658,2.635-2.372,4.613-4.875,6.192
					c-0.264,0.264-0.527,0.396-0.791,0.527c0,0,0,0-0.132,0c-0.132,0.133-0.264,0.133-0.395,0.265
					c-4.349,2.635-10.146,2.635-17.525,2.898h-3.162c-9.224,0.132-20.688,0.923-34.654,6.456c-0.132,0-0.264,0.132-0.396,0.132
					c-0.396,0.132-0.659,0.264-1.055,0.396h-57.581c-7.906-3.162-9.487-8.169-10.277-10.014c-0.659-1.449,1.186-3.031,4.743-4.744
					c0.264-0.132,0.659-0.264,0.923-0.527c5.007-2.24,12.518-4.611,20.555-7.246c0.133,0.132,0.396,0.132,0.659,0.264
					c5.402,1.844,24.245,7.773,46.382,3.559c18.447-3.559,36.762-12.256,50.861-16.471c1.186-0.264,2.371-0.66,3.558-0.924
					c0.264-0.132,0.526-0.132,0.79-0.264c0.265,0.527,0.396,1.188,0.527,1.713
					C2319.813,1688.399,2320.998,1693.145,2320.998,1698.019z"/>
				<polygon style="fill:#466AA5;" points="2316.254,1706.453 2315.464,1707.9 2313.092,1712.382 2309.798,1718.574 
					2293.59,1718.574 2293.59,1715.28 2293.459,1711.723 2293.459,1710.142 2315.332,1706.584 				"/>
			</g>
			<path style="fill:#163560;" d="M2688.484,772.467c71.478-5.431,85.457-152.13,0.418-134.265c0,0-11.918-7.789-17.811-7.867
				c0,0,4.554,1.661,6.543,4.514c-9.189-2.053-23.438-5.384-34.657,0.981C2527.982,701.063,2660.779,774.572,2688.484,772.467z"/>
			<path style="fill:#FFB27D;" d="M2607.827,850.575c-0.286,0.077,23.51,17.78,43.921,15.603
				c19.196-2.032,35.072-23.921,34.827-24.016c-7.534-2.809-8.044-13.871-0.427-59.817l-3.631,0.123l-61.078,2.125
				c0,0-1.674,18.842-4.478,36.393C2614.613,835.722,2611.455,849.549,2607.827,850.575z"/>
			<path style="fill:#2B478B;" d="M2602.328,883.217l-60.911,240.677c-2.323,3.628-21.72,11.297-43.178,18.497
				c-1.817-4.433-3.529-9.518-5.157-15.119c-3.256-11.208-5.622-22.138-6.99-32.636c14.216-8.641,26.202-16.709,29.518-21.513
				c5.982-8.908,20.87-90.857,32.996-150.829c27.306-26.809,53.068-39.985,53.068-39.985L2602.328,883.217z"/>
			<path style="fill:#EF9A60;" d="M2621.439,784.592c0,0-1.674,18.842-4.478,36.393c33.267,4.436,55.668-22.936,65.556-38.517
				L2621.439,784.592z"/>
			<path style="fill:#163560;" d="M2689.674,777.016c0,0,21.799-24.607,29.766-47.378c5.688-16.257,7.221-79.688-56.58-80.86
				c0,0-18.398-1.152-37.285,7.586c-15.02,6.949-37.758,23.521-24.69,81.206l2.709,19.211L2689.674,777.016z"/>
			<path style="fill:#FFB27D;" d="M2607.687,799.412c0,0,78.141,13.995,86.107-34.802c7.966-48.796,23.416-79.853-26.138-90.852
				c-49.555-10.998-62.312,6.035-68.932,21.675C2592.104,711.074,2587.565,794.514,2607.687,799.412z"/>
			<path style="fill:#163560;" d="M2632.165,666.777c0,0,12.17,60.736,43.72,74.539c31.549,13.803,47.26,7.297,47.26,7.297
				s-22.001-24.155-21.563-60.022C2701.581,688.591,2652.766,642.149,2632.165,666.777z"/>
			<path style="fill:#163560;" d="M2636.729,672.288c0,0-18.093,10.185-24.014,21.981c-5.921,11.795-11.825,37.095-19.142,35.016
				c0,0-9.853-41.538,11.88-60.609C2628.498,648.453,2636.729,672.288,2636.729,672.288z"/>
			<path style="fill:#466AA5;" d="M2749.921,1281.17c-6.212,11.143-19.704,12.025-36.665,7.14
				c-8.178-2.26-17.053-5.97-26.365-10.282c-0.847-0.538-1.846-0.966-2.714-1.374c-27.462-13.396-58.096-33.578-82.035-48.94
				c-50.183-32.164-53.504-14.146-68.378-31.909c0,0,15.287-16.076-4.325-203.868c-5.566-53.762,84.491-154.759,84.491-154.759
				s0.604,33.335,72.612,4.964c2.553-0.922,22.236,41.515,39.425,92.757c2.81,8.197,5.468,16.503,7.974,24.919
				c11.981,39.719,20.874,81.206,18.467,110.05c-0.576,6.848-1.719,13.069-3.624,18.232c-0.214,0.5-0.428,1-0.643,1.498
				C2723.427,1148.996,2767.671,1249.076,2749.921,1281.17z"/>
			<g>
				<polygon style="fill:#B64C41;" points="2502.176,1046.518 2369.458,1037.029 2426.291,1191.77 2550.571,1204.66 				"/>
				<polygon style="fill:#D6716B;" points="2500.997,1048.193 2368.279,1038.705 2425.113,1193.444 2549.393,1206.336 				"/>
				<path style="fill:#B2CBFD;" d="M2489.051,1045.585c0,0,3.192-20.051-8.11-20.461c-11.302-0.411-17.911,19.182-17.911,19.182
					L2489.051,1045.585z"/>
				<path style="fill:#D2E9FF;" d="M2467.811,1063.735c3.156,14.266,21.412,37.607,20.314,49.412l-84.824-1.099
					c0,0,0.549-5.49-17.568-44.471c-7.449-16.027,1.368-44.99,9.01-45.647l86.175,3.162
					C2480.917,1025.093,2461.662,1035.936,2467.811,1063.735z"/>
				<polygon style="fill:#B64C41;" points="2369.458,1037.029 2368.279,1038.705 2371.206,1038.891 2370.947,1037.856 				"/>
				<polygon style="fill:#B64C41;" points="2549.393,1206.336 2550.571,1204.66 2548.332,1202.926 				"/>
			</g>
			<path style="fill:#2B478B;" d="M2749.921,1281.17c-6.212,11.143-19.704,12.025-36.665,7.14
				c-8.178-2.26-17.053-5.97-26.365-10.282c-32.979-21.364-68.287-55.521-88.112-110.261
				c-44.54-122.953,126.739-211.986,126.739-211.986l8.423,4.036c11.981,39.719,20.874,81.206,18.467,110.05
				c-0.576,6.848-1.719,13.069-3.624,18.232c-0.214,0.5-0.428,1-0.643,1.498C2723.427,1148.996,2767.671,1249.076,2749.921,1281.17z
				"/>
			<g>
				<g>
					
						<rect x="2572.62" y="1071.486" transform="matrix(0.8154 0.579 -0.579 0.8154 1121.7223 -1285.2969)" style="fill:#D16E24;" width="6.588" height="88.942"/>
				</g>
				<polygon style="fill:#F1A34F;" points="2547.485,1150.313 2547.073,1156.769 2552.857,1154.127 				"/>
			</g>
			<path style="fill:#FFB27D;" d="M2616.163,1119.055c0,0-23.229-9.649-35.014-6.938c-11.786,2.712-35.755,10.592-34.703,17.066
				c1.052,6.474,26.726,13.997,38.776,9.647s18.979,4.758,33.222,2.444C2632.687,1138.962,2616.163,1119.055,2616.163,1119.055z"/>
			<path style="fill:#466AA5;" d="M2686.578,842.162c0,0,73.145,12.42,82.256,31.696c9.11,19.275,3.055,221.303-2.627,242.629
				c-5.683,21.326-123.833,31.372-159.221,30.084c0,0-5.566-23.984,1.053-37.372c6.62-13.388,94.063-27.855,101.24-37.815
				c7.176-9.96-14.353-132.753-11.57-156.775C2700.49,890.587,2686.578,842.162,2686.578,842.162z"/>
			<path style="fill:#FFB27D;" d="M2399.956,1126.773c0,0,24.156-2.341,20.884,7.557c-3.273,9.898-12.392,14.678-12.392,14.678
				S2389.773,1135.551,2399.956,1126.773z"/>
		</g>
		<path style="fill:#F1A34F;" d="M2835.828,1265.759v146.014c0,25.653-7.247,46.405-16.208,46.405h-285.931
			c-8.961,0-16.207-20.752-16.207-46.405v-146.014c0-25.653,22.8-51.06,101.035-46.406h201.103
			C2828.581,1219.353,2835.828,1240.105,2835.828,1265.759z"/>
		<path style="fill:#DF812F;" d="M2873.711,1265.759v146.014c0,25.653-7.248,46.405-16.209,46.405h-285.93
			c-8.961,0-16.208-20.752-16.208-46.405v-146.014c0-25.653,24.447-48.589,82.095-46.406l204.236-1.359
			C2873.813,1217.993,2873.711,1240.105,2873.711,1265.759z"/>
	</g>
	<g>
		<path style="fill:#4A75CB;" d="M3174.483,1330.333h-371.756c-8.842,0-16.076,7.233-16.076,16.075v5.763
			c0,8.842,7.234,16.076,16.076,16.076h171.454l9.618,294.304c-47.414,1.494-86.585,24.99-96.899,56.156h203.409
			c-10.233-30.92-48.87-54.277-95.777-56.105l8.524-294.354h171.427c8.842,0,16.075-7.234,16.075-16.076v-5.763
			C3190.559,1337.566,3183.325,1330.333,3174.483,1330.333z"/>
		<g>
			<path style="fill:#699DEE;" d="M2965.241,1299.409c-2.367-1.462-6.974-0.892-10.312-0.191v-4.833c0-1.068-0.075-2.12-0.205-3.154
				h-50.068c-0.131,1.034-0.205,2.086-0.205,3.154v9.826c0,13.882,11.357,25.239,25.239,25.239c7.517,0,14.29-3.335,18.924-8.593
				l-0.003,0.005c0,0,11.913-2.933,15.652-7.372C2968.002,1309.05,2969.215,1301.863,2965.241,1299.409z M2962.598,1308.494
				c-1.264,3.267-6.944,5.025-9.746,5.707c1.121-2.578,1.819-5.376,2.016-8.307c1.729-2.367,4.459-3.752,6.46-3.389
				C2963.116,1302.83,2964.198,1304.359,2962.598,1308.494z"/>
			<path style="fill:#AFCDFB;" d="M2908.551,1294.383v9.829c0,13.877,11.355,25.243,25.232,25.243c1.148,0,2.285-0.082,3.393-0.246
				c-12.289-1.66-21.841-12.268-21.841-24.997v-9.829c0-1.065,0.071-2.121,0.205-3.156h-6.785
				C2908.622,1292.262,2908.551,1293.317,2908.551,1294.383z"/>
			<rect x="2919.371" y="1327.25" style="fill:#699DEE;" width="20.603" height="3.085"/>
		</g>
		<g>
			<path style="fill:#699DEE;" d="M3097.831,1299.409c-2.368-1.462-6.975-0.892-10.313-0.191v-4.833c0-1.068-0.075-2.12-0.206-3.154
				h-50.066c-0.131,1.034-0.206,2.086-0.206,3.154v9.826c0,13.882,11.357,25.239,25.239,25.239c7.518,0,14.289-3.335,18.924-8.593
				l-0.002,0.005c0,0,11.912-2.933,15.65-7.372C3100.591,1309.05,3101.804,1301.863,3097.831,1299.409z M3095.188,1308.494
				c-1.265,3.267-6.945,5.025-9.747,5.707c1.121-2.578,1.819-5.376,2.016-8.307c1.729-2.367,4.459-3.752,6.46-3.389
				C3095.705,1302.83,3096.787,1304.359,3095.188,1308.494z"/>
			<path style="fill:#AFCDFB;" d="M3041.14,1294.383v9.829c0,13.877,11.355,25.243,25.232,25.243c1.148,0,2.286-0.082,3.393-0.246
				c-12.289-1.66-21.841-12.268-21.841-24.997v-9.829c0-1.065,0.072-2.121,0.205-3.156h-6.785
				C3041.211,1292.262,3041.14,1293.317,3041.14,1294.383z"/>
			<rect x="3051.96" y="1327.25" style="fill:#699DEE;" width="20.603" height="3.085"/>
		</g>
	</g>
	<path style="fill:#283250;" d="M3241.89,1725.228H277.201c-1.632,0-2.968-1.335-2.968-2.968v-0.722
		c0-1.632,1.336-2.968,2.968-2.968H3241.89c1.632,0,2.968,1.336,2.968,2.968v0.722
		C3244.857,1723.893,3243.521,1725.228,3241.89,1725.228z"/>
</g>
</svg>
