<?xml version="1.0" encoding="utf-8"?>
<!-- Generator: Adobe Illustrator 27.5.0, SVG Export Plug-In . SVG Version: 6.00 Build 0)  -->
<svg version="1.1" xmlns="http://www.w3.org/2000/svg" xmlns:xlink="http://www.w3.org/1999/xlink" x="0px" y="0px"
	 viewBox="0 0 500 500" style="enable-background:new 0 0 500 500;" xml:space="preserve">
<g id="Background_Simple">
	<g>
		<path style="fill:#92E3A9;" d="M433.623,106.244c-1.536-2.558-3.134-5.069-4.803-7.523c-22.227-32.659-59.23-55.019-95.192-65.145
			c-15.754-4.443-31.929-6.767-48.077-7.361c-105.91-3.848-144.818,83.477-178.942,105.992
			c-34.123,22.516-86.487,60.973-79.917,141.761c4.986,61.425,39.929,120.158,103.748,146.885
			c7.029,2.953,14.415,5.516,22.148,7.642c14.385,3.957,29.976,6.442,46.775,7.189c48.25,2.15,87.428-9.481,125.75-38.77
			c8.908-6.808,17.768-14.487,29.328-15.329c8.403-0.612,16.369,2.407,7.586,10.527c-10.323,9.545,1.588,28.317,27.793,15.275
			c43.766-21.783,61.77-68.78,70.252-116.568C470.484,232.162,465.438,159.214,433.623,106.244z"/>
		<path style="opacity:0.7;fill:#FFFFFF;" d="M433.623,106.244c-1.536-2.558-3.134-5.069-4.803-7.523
			c-22.227-32.659-59.23-55.019-95.192-65.145c-15.754-4.443-31.929-6.767-48.077-7.361
			c-105.91-3.848-144.818,83.477-178.942,105.992c-34.123,22.516-86.487,60.973-79.917,141.761
			c4.986,61.425,39.929,120.158,103.748,146.885c7.029,2.953,14.415,5.516,22.148,7.642c14.385,3.957,29.976,6.442,46.775,7.189
			c48.25,2.15,87.428-9.481,125.75-38.77c8.908-6.808,17.768-14.487,29.328-15.329c8.403-0.612,16.369,2.407,7.586,10.527
			c-10.323,9.545,1.588,28.317,27.793,15.275c43.766-21.783,61.77-68.78,70.252-116.568
			C470.484,232.162,465.438,159.214,433.623,106.244z"/>
	</g>
</g>
<g id="Floor">
	<ellipse style="opacity:0.31;" cx="251.309" cy="454.648" rx="197.954" ry="24.226"/>
</g>
<g id="Character">
	<g>
		<g>
			<g>
				<g>
					<path style="fill:#FFFFFF;stroke:#263238;stroke-linecap:round;stroke-linejoin:round;stroke-miterlimit:10;" d="
						M190.606,432.381c0,0,12.551,14.833,13.407,17.115c0.856,2.282-3.138,8.843-4.849,10.269
						c-1.712,1.426-8.272,6.561-11.695,9.413s-5.42,5.705-0.57,6.846c4.849,1.141,17.115,1.426,22.249-0.57
						c5.135-1.997,7.131-5.135,8.558-10.269c1.426-5.134,3.993-9.698,5.134-12.266c1.141-2.567,5.99-3.993,3.708-10.554
						c-2.282-6.561-9.699-9.128-10.84-10.269c-1.141-1.141-4.564-5.99-5.134-7.416C210.003,423.253,190.606,432.381,190.606,432.381
						z"/>
					<path style="fill:#FFFFFF;stroke:#263238;stroke-linecap:round;stroke-linejoin:round;stroke-miterlimit:10;" d="
						M221.387,435.704c-0.091,2.049-0.314,4.443-0.83,6.375c-1.141,4.279-9.128,19.967-11.98,19.967s-9.413-2.282-9.413-2.282
						c-1.712,1.426-8.272,6.561-11.695,9.413c-3.423,2.853-5.42,5.705-0.57,6.846c4.849,1.141,17.115,1.426,22.249-0.57
						c5.134-1.997,7.131-5.135,8.557-10.269c1.426-5.134,3.993-9.698,5.134-12.266c1.141-2.567,5.99-3.994,3.708-10.554
						C225.521,439.412,223.454,437.273,221.387,435.704z"/>
				</g>
				<g>
					<path style="fill:#FFFFFF;stroke:#263238;stroke-linecap:round;stroke-linejoin:round;stroke-miterlimit:10;" d="
						M347.055,408.003c-0.856-3.423-3.423-6.846-5.99-5.42c-2.567,1.426-21.962,19.619-21.962,19.619l15.402,8.621
						c0,0-0.285,4.564-0.571,5.99c-0.151,0.757,0.063,1.394-0.239,3.444c-0.382,0.033-1.163,1.499-1.237,1.59
						c-0.707,0.883-3.357,3.18-3.18,6.361c0.177,3.18,5.654,3.357,9.364,3.357c3.71,0,9.894-2.12,10.778-3.534
						c0.192-0.308,0.323-0.718,0.415-1.169c0.194-0.364,0.327-0.761,0.359-1.206C350.478,441.662,347.911,411.426,347.055,408.003z"
						/>
					<path style="fill:#FFFFFF;stroke:#263238;stroke-linecap:round;stroke-linejoin:round;stroke-miterlimit:10;" d="
						M341.065,402.583c-0.753,0.418-2.958,2.284-5.693,4.705c1.663-0.175,5.516-0.315,7.156,1.872
						c2.12,2.827,2.12,12.368,2.12,19.435c0,7.067,0.353,10.954-1.767,11.838c-2.12,0.883-9.188-0.177-9.188-0.177
						c-0.382,0.033-1.163,1.499-1.237,1.59c-0.707,0.883-3.357,3.18-3.18,6.361c0.177,3.18,5.654,3.357,9.364,3.357
						c3.71,0,9.894-2.12,10.778-3.534c0.192-0.308,0.323-0.718,0.415-1.169c0.194-0.364,0.327-0.761,0.359-1.206
						c0.285-3.993-2.282-34.23-3.138-37.653C346.199,404.58,343.632,401.157,341.065,402.583z"/>
					
						<line style="fill:none;stroke:#263238;stroke-linecap:round;stroke-linejoin:round;stroke-miterlimit:10;" x1="334.504" y1="430.823" x2="339.924" y2="420.269"/>
				</g>
				<path style="fill:#263238;stroke:#263238;stroke-linecap:round;stroke-linejoin:round;stroke-miterlimit:10;" d="
					M223.372,324.764l-7.177,14.861c0,0-28.061-8.81-46.006-8.81s-31.976,0.652-34.26,11.42
					c-2.284,10.767,8.157,26.429,15.009,37.849c6.852,11.42,34.26,47.964,34.26,47.964s11.746-5.873,15.988-8.81
					c4.242-2.937,4.242-2.937,4.242-2.937l-13.051-30.344c0,0,17.293,11.094,34.912,9.136s24.471-4.568,24.471-4.568
					s12.073,71.13,15.009,75.046c2.937,3.915,8.483,7.178,13.051,6.199c4.568-0.979,9.255-3.135,9.255-3.135
					s17.699-0.828,31.181-18.44c5.322-6.952,10.919-16.247,10.919-16.247l-12.073-11.746l-24.998,12.235
					c0,0,13.24-38.283,14.103-44.237c3.412-23.538,1.305-33.281-3.263-49.922c-4.568-16.641-13.936-29.327-13.936-29.327
					l-64.046,7.792L223.372,324.764z"/>
				
					<line style="fill:none;stroke:#828282;stroke-linecap:round;stroke-linejoin:round;stroke-miterlimit:10;" x1="192.702" y1="383.021" x2="180.63" y2="349.74"/>
				<path style="fill:#FFFFFF;stroke:#263238;stroke-linecap:round;stroke-linejoin:round;stroke-miterlimit:10;" d="
					M202.817,409.777c0,0-4.242,6.199-11.42,8.81c-7.178,2.61-12.725,2.61-12.725,2.61s-0.979,1.958,0.326,3.915
					c1.305,1.958,5.547,7.178,7.831,8.483c2.284,1.305,10.441,0.326,15.662-1.958c5.221-2.284,9.789-7.831,9.789-9.789
					s-6.526-12.725-6.526-12.725S204.775,406.84,202.817,409.777z"/>
				
					<line style="fill:none;stroke:#828282;stroke-linecap:round;stroke-linejoin:round;stroke-miterlimit:10;" x1="293.434" y1="437.79" x2="284.739" y2="464.614"/>
				<path style="fill:none;stroke:#828282;stroke-linecap:round;stroke-linejoin:round;stroke-miterlimit:10;" d="M250.794,387.311
					c0,0-2.567-13.977-8.272-23.105c-5.705-9.128-8.843-11.98-8.843-11.98"/>
				<path style="fill:#FFFFFF;stroke:#263238;stroke-linecap:round;stroke-linejoin:round;stroke-miterlimit:10;" d="
					M310.533,426.055c0,0,9.388,4.694,11.735,8.047c2.347,3.353,4.023,8.717,4.023,8.717s0,1.676,3.018-2.682
					c3.017-4.359,6.706-5.029,7.711-9.053c1.006-4.023-4.694-8.717-9.053-11.735c-4.359-3.017-5.7-2.682-7.376-1.341
					C318.915,419.349,311.539,423.373,310.533,426.055z"/>
			</g>
			<g>
				<path style="fill:#92E3A9;stroke:#263238;stroke-linecap:round;stroke-linejoin:round;stroke-miterlimit:10;" d="
					M291.243,230.209c-2.578-1.316-5.239-2.465-7.987-3.401c-9.832-3.348-20.977-3.822-31.305-3.497c0,0-64.299,5.715-64.302,5.716
					c-7.734,0.702-15.929,3.979-23.778,5.303c-8.136,1.372-18.41-0.83-26.476,0.788l-22.987-23.976c0,0-5.14,7.753-10.854,7.44
					c3.905,6.607,5.968,11.494,9.944,18.059c2.764,4.565,5.535,9.127,8.397,13.632c2.919,4.595,3.84,6.46,9.545,7.581
					c10.792,2.121,18.262,5.45,29.258,5.675c11.72,0.24,23.354-1.709,35.05-2.112c0,0,8.097,9.526,8.097,11.908
					c0,2.382-2.917,19.655-1.429,24.768c1.803,6.194,4.158,9.081,7.968,10.509c3.811,1.429,9.656,2.351,9.656,2.351l3.334,13.813
					c0,0,19.052,8.097,41.439,4.763s26.197-18.576,26.197-18.576s-12.414-4.936-8.615-44.407c1,0.05,22.056,7.113,23.02,7.065
					c7.601-0.38,5.485-4.025,5.485-4.025s1.893-23.928,1.9-23.944c0.438-0.94-11.714-9.438-13.135-10.406
					C296.959,233.393,294.154,231.695,291.243,230.209z"/>
				<path style="fill:none;stroke:#263238;stroke-linecap:round;stroke-linejoin:round;stroke-miterlimit:10;" d="M137.394,235.116
					c0,0-5.847,1.491-5.182,11.467"/>
				<path style="fill:none;stroke:#263238;stroke-linecap:round;stroke-linejoin:round;stroke-miterlimit:10;" d="M128.17,242.421
					c0,0,0.951,6.018,3.55,8.944"/>
				<path style="fill:#263238;" d="M273.269,299.969c-3.083,9.248-11.714,10.481-17.571,9.556
					c-5.857-0.925-12.947-4.007-19.113-3.699c-6.165,0.308-10.789,3.083-10.789,3.083s10.783-1.23,15.93,1.344
					c5.148,2.574,16.324,6.477,23.254,3.903C271.91,311.582,273.269,299.969,273.269,299.969z"/>
				<polygon style="fill:#263238;stroke:#263238;stroke-linecap:round;stroke-linejoin:round;stroke-miterlimit:10;" points="
					195.746,261.415 189.149,255.748 190.733,261.49 				"/>
			</g>
			<path style="fill:none;stroke:#263238;stroke-linecap:round;stroke-linejoin:round;stroke-miterlimit:10;" d="M270.231,255.143
				c0,0,4.736,9.735,10.788,11.314"/>
			<path style="fill:none;stroke:#263238;stroke-linecap:round;stroke-linejoin:round;stroke-miterlimit:10;" d="M269.471,263.124
				c0,0,4.152,5.029,8.361,6.081"/>
		</g>
		<g>
			<g>
				<path style="fill:#FFFFFF;stroke:#263238;stroke-linecap:round;stroke-linejoin:round;stroke-miterlimit:10;" d="
					M103.553,218.58l-6.454-12.86c0,0-13.223-8.094-18.766-10.82c-5.543-2.726-3.218-1.054-5.746-2.068
					c-3.194-1.281-8.497-10.951-8.141-12.621c0.195-0.913,0.218-1.454,5.732,4.777c1.806,2.04,10.182,4.318,10.182,4.318
					s-7.618-6.218-9.669-9.223c-2.05-3.004-3.697-6.393-1.282-5.851c0.656,0.147,3.301,2.707,6.567,6.089
					c1.493,1.546,5.499,3.446,5.499,3.446s-7.823-10.997-7.558-12.342c0.265-1.344,3.12,0.852,5.706,3.317
					c2.587,2.465,7.979,8.901,8.624,9.114c0.646,0.213,9.363,4.167,9.363,4.167s-2.754-4.669-3.03-7.624
					c-0.277-2.955,1.333-4.035,2.677-3.77c1.344,0.265,0.55,4.836,2.653,7.141c2.102,2.305,4.208,5.686,4.215,8.373
					c0.007,2.687,0.07,4.318,0.07,4.318l10.214,14.679C114.407,211.14,110.867,220.281,103.553,218.58z"/>
				<path style="fill:#FFFFFF;stroke:#263238;stroke-linecap:round;stroke-linejoin:round;stroke-miterlimit:10;" d="
					M94.475,201.844c0,0-14.898-3.669-16.891-5.222c-1.993-1.553-4.86-8.587-6.262-10.303c-1.402-1.716-1.405-2.791,0.37-2.205
					c1.775,0.586,4.362,3.052,5.764,4.768c1.402,1.716,4.689,4.771,4.689,4.771s6.949-1.774,10.714-0.709"/>
			</g>
		</g>
	</g>
	<g>
		<path style="fill:#92E3A9;stroke:#263238;stroke-linecap:round;stroke-linejoin:round;stroke-miterlimit:10;" d="M298.502,269.956
			c1.226,2.059,3.413,3.491,6.911,3.654c9.328,0.437,16.939-5.817,20.695-10.199c2.275-2.655,19.659-26.193,27.908-37.964
			l-10.422-8.596c-6.793,5.053-14.22,9.573-20.272,14.114c-8.775,6.583-19.959,18.128-23.756,24.843"/>
		<g>
			<g>
				<path style="fill:#FFFFFF;stroke:#263238;stroke-linecap:round;stroke-linejoin:round;stroke-miterlimit:10;" d="
					M353.024,227.151l8.331-10.791c0,0,15.344-2.216,21.514-2.532s3.372,0.302,6.096,0.368c3.44,0.084,12.13-6.706,12.462-8.381
					c0.182-0.916,0.374-1.421-7.153,2.125c-2.465,1.161-11.06-0.053-11.06-0.053s9.455-2.705,12.525-4.656s5.921-4.414,3.488-4.87
					c-0.66-0.124-4.102,1.184-8.437,3.001c-1.983,0.831-6.413,0.995-6.413,0.995s11.529-7.015,11.817-8.355
					c0.287-1.34-3.203-0.449-6.552,0.794c-3.35,1.244-10.845,5.027-11.522,4.969c-0.677-0.059-10.248,0.132-10.248,0.132
					s4.373-3.202,5.794-5.808c1.421-2.606,0.368-4.233-0.972-4.52c-1.34-0.287-2.415,4.226-5.257,5.514
					c-2.842,1.288-6.111,3.563-7.178,6.029c-1.068,2.466-1.768,3.939-1.768,3.939l-14.898,11.799
					C343.594,216.851,345.632,225.826,353.024,227.151z"/>
				<path style="fill:#FFFFFF;stroke:#263238;stroke-linecap:round;stroke-linejoin:round;stroke-miterlimit:10;" d="
					M365.295,213.835c0,0,15.136,2.512,17.58,1.871c2.444-0.64,7.856-5.97,9.822-6.993c1.966-1.023,2.393-2.01,0.53-2.172
					c-1.863-0.162-5.213,1.082-7.178,2.105c-1.966,1.023-6.192,2.532-6.192,2.532s-5.684-4.373-9.564-4.881"/>
			</g>
		</g>
	</g>
	<g>
		<g>
			<g>
				<path style="fill:#263238;stroke:#263238;stroke-linecap:round;stroke-linejoin:round;stroke-miterlimit:10;" d="
					M241.315,223.492c-38.328,0-69.711-3.666-93.69-8.116c-55.754-10.347-84.07-26.651-85.249-27.34l4.036-6.907
					c0.28,0.163,28.615,16.416,83.169,26.474c50.382,9.289,134.061,15.041,246.597-10.305l1.758,7.805
					C337.262,218.767,284.817,223.492,241.315,223.492z"/>
			</g>
			<path style="fill:#A1A1A1;stroke:#263238;stroke-linecap:round;stroke-linejoin:round;stroke-miterlimit:10;" d="
				M410.078,178.449c-106.852,24.065-186.303,18.604-234.14,9.785c-51.799-9.55-78.702-24.982-78.968-25.136l-30.556,18.032
				c0.28,0.163,28.615,16.416,83.169,26.474c50.382,9.289,134.061,15.041,246.597-10.305l6.601-9.484
				c2.972-0.633,5.952-1.275,8.967-1.954L410.078,178.449z"/>
			<polygon style="fill:#CCCCCC;stroke:#263238;stroke-linecap:round;stroke-linejoin:round;stroke-miterlimit:10;" points="
				396.178,197.297 410.078,178.449 411.747,185.859 397.936,205.102 			"/>
		</g>
		<g>
			<g>
				<path style="fill:#FFFFFF;stroke:#263238;stroke-linecap:round;stroke-linejoin:round;stroke-miterlimit:10;" d="
					M120.372,103.68l3.104,4.795c0.738-0.57,1.511-1.095,2.31-1.587l-3.34-4.556c0.398-0.538,0.921-1.543,0.604-2.002
					c-0.484-0.703-1.894-0.571-3.15,0.294c-1.255,0.865-1.88,2.136-1.395,2.839C118.792,103.878,119.805,103.797,120.372,103.68z"/>
				<path style="fill:#FFFFFF;stroke:#263238;stroke-linecap:round;stroke-linejoin:round;stroke-miterlimit:10;" d="
					M107.136,115.48l7.96,4.07c0.405-1.005,0.853-1.988,1.375-2.929l-8.1-3.565c0.083-0.732,0.029-1.976-0.526-2.239
					c-0.848-0.403-2.119,0.498-2.838,2.012c-0.72,1.514-0.616,3.068,0.232,3.471C105.74,116.538,106.66,115.904,107.136,115.48z"/>
				<path style="fill:#FFFFFF;stroke:#263238;stroke-linecap:round;stroke-linejoin:round;stroke-miterlimit:10;" d="
					M107.707,133.204l5.724-0.292c-0.062-0.464-0.144-0.92-0.182-1.392c-0.038-0.472-0.029-0.935-0.041-1.403l-5.63,0.616
					c-0.268-0.614-0.876-1.569-1.432-1.525c-0.851,0.068-1.442,1.355-1.321,2.874c0.122,1.52,0.91,2.696,1.761,2.628
					C107.089,134.671,107.525,133.754,107.707,133.204z"/>
				<path style="fill:#FFFFFF;stroke:#263238;stroke-linecap:round;stroke-linejoin:round;stroke-miterlimit:10;" d="
					M135.436,94.323l0.456,8.938c0.534-0.075,1.062-0.167,1.607-0.211c0.545-0.043,1.081-0.037,1.62-0.048l-0.965-8.822
					c0.675-0.294,1.726-0.964,1.677-1.575c-0.075-0.936-1.49-1.586-3.162-1.452c-1.671,0.134-2.965,1.001-2.89,1.937
					C133.822,93.643,134.831,94.123,135.436,94.323z"/>
				<path style="fill:#FFFFFF;stroke:#263238;stroke-linecap:round;stroke-linejoin:round;stroke-miterlimit:10;" d="
					M149.671,104.976c0.867,0.358,1.714,0.754,2.533,1.199l2.274-5.166c0.665,0.076,1.796,0.026,2.036-0.478
					c0.367-0.771-0.452-1.926-1.829-2.581c-1.377-0.654-2.79-0.56-3.156,0.211c-0.216,0.455,0.36,1.292,0.745,1.725L149.671,104.976
					z"/>
				<path style="fill:#FFFFFF;stroke:#263238;stroke-linecap:round;stroke-linejoin:round;stroke-miterlimit:10;" d="
					M160.417,113.103c0.665,0.847,1.263,1.746,1.823,2.673l7.15-5.242c0.592,0.438,1.697,1.013,2.202,0.665
					c0.773-0.533,0.628-2.083-0.323-3.464c-0.951-1.381-2.349-2.068-3.122-1.535c-0.457,0.314-0.368,1.428-0.24,2.052
					L160.417,113.103z"/>
				<path style="fill:#FFFFFF;stroke:#263238;stroke-linecap:round;stroke-linejoin:round;stroke-miterlimit:10;" d="
					M172.631,124.109c-0.503,0.04-0.939,0.958-1.121,1.507l-5.724,0.292c0.062,0.464,0.145,0.92,0.183,1.392
					c0.037,0.471,0.028,0.935,0.041,1.402l5.63-0.616c0.267,0.614,0.876,1.569,1.432,1.524c0.85-0.068,1.442-1.355,1.32-2.875
					C174.27,125.217,173.482,124.04,172.631,124.109z"/>
				<path style="fill:#FFFFFF;stroke:#263238;stroke-linecap:round;stroke-linejoin:round;stroke-miterlimit:10;" d="
					M172.081,143.339l-7.96-4.07c-0.405,1.005-0.853,1.988-1.375,2.929l8.1,3.565c-0.083,0.731-0.028,1.976,0.526,2.24
					c0.848,0.403,2.119-0.498,2.838-2.012c0.72-1.514,0.616-3.068-0.232-3.471C173.477,142.282,172.557,142.916,172.081,143.339z"/>
				<path style="fill:#FFFFFF;stroke:#263238;stroke-linecap:round;stroke-linejoin:round;stroke-miterlimit:10;" d="
					M158.844,155.14l-3.104-4.795c-0.738,0.57-1.511,1.096-2.31,1.587l3.34,4.556c-0.398,0.538-0.921,1.543-0.604,2.003
					c0.484,0.703,1.895,0.571,3.15-0.294c1.255-0.865,1.88-2.136,1.396-2.839C160.425,154.943,159.412,155.023,158.844,155.14z"/>
				<path style="fill:#FFFFFF;stroke:#263238;stroke-linecap:round;stroke-linejoin:round;stroke-miterlimit:10;" d="M118.8,145.717
					c-0.665-0.847-1.263-1.746-1.823-2.674l-7.15,5.242c-0.592-0.438-1.697-1.013-2.202-0.665c-0.773,0.533-0.628,2.084,0.323,3.464
					c0.951,1.38,2.349,2.067,3.122,1.535c0.457-0.315,0.368-1.428,0.239-2.053L118.8,145.717z"/>
				<path style="fill:#FFFFFF;stroke:#263238;stroke-linecap:round;stroke-linejoin:round;stroke-miterlimit:10;" d="
					M143.781,164.497l-0.456-8.938c-0.534,0.076-1.062,0.167-1.607,0.211c-0.544,0.044-1.081,0.037-1.62,0.048l0.965,8.822
					c-0.675,0.294-1.726,0.963-1.677,1.575c0.075,0.936,1.491,1.586,3.162,1.452c1.671-0.134,2.965-1.001,2.89-1.937
					C145.395,165.177,144.386,164.697,143.781,164.497z"/>
				<path style="fill:#FFFFFF;stroke:#263238;stroke-linecap:round;stroke-linejoin:round;stroke-miterlimit:10;" d="
					M129.546,153.844c-0.867-0.358-1.714-0.754-2.533-1.199l-2.274,5.166c-0.665-0.076-1.797-0.026-2.036,0.478
					c-0.367,0.771,0.453,1.926,1.829,2.581c1.377,0.654,2.79,0.56,3.156-0.211c0.216-0.455-0.36-1.292-0.745-1.725L129.546,153.844z
					"/>
			</g>
			<path style="fill:#FFFFFF;stroke:#263238;stroke-linecap:round;stroke-linejoin:round;stroke-miterlimit:10;" d="M165.968,127.3
				c-1.166-14.558-13.912-25.415-28.47-24.25c-14.558,1.165-25.415,13.912-24.249,28.47c1.165,14.558,13.911,25.414,28.469,24.249
				C156.276,154.604,167.133,141.858,165.968,127.3z"/>
			<path style="fill:#FFFFFF;stroke:#263238;stroke-linecap:round;stroke-linejoin:round;stroke-miterlimit:10;" d="
				M140.048,109.121c0.114,1.427-1.008,2.681-2.507,2.801c-1.499,0.12-2.806-0.94-2.92-2.367c-0.114-1.427,1.008-2.681,2.507-2.801
				C138.627,106.634,139.934,107.694,140.048,109.121z"/>
			<path style="fill:#FFFFFF;stroke:#263238;stroke-linecap:round;stroke-linejoin:round;stroke-miterlimit:10;" d="
				M125.328,131.333c0.114,1.427-1.008,2.682-2.507,2.802c-1.499,0.12-2.806-0.94-2.92-2.367c-0.114-1.428,1.008-2.682,2.507-2.802
				C123.906,128.847,125.214,129.906,125.328,131.333z"/>
			<path style="fill:#FFFFFF;stroke:#263238;stroke-linecap:round;stroke-linejoin:round;stroke-miterlimit:10;" d="
				M136.936,123.642c0.114,1.427-1.008,2.681-2.507,2.801c-1.499,0.12-2.806-0.94-2.92-2.367c-0.114-1.427,1.008-2.682,2.506-2.801
				C135.514,121.155,136.822,122.215,136.936,123.642z"/>
			<path style="fill:#FFFFFF;stroke:#263238;stroke-linecap:round;stroke-linejoin:round;stroke-miterlimit:10;" d="
				M132.404,146.632c0.114,1.427-1.008,2.682-2.507,2.801c-1.498,0.12-2.806-0.94-2.92-2.367c-0.114-1.428,1.008-2.682,2.507-2.802
				C130.983,144.145,132.29,145.204,132.404,146.632z"/>
			<path style="fill:#FFFFFF;stroke:#263238;stroke-linecap:round;stroke-linejoin:round;stroke-miterlimit:10;" d="
				M161.126,133.409c0.114,1.427-1.008,2.682-2.507,2.801c-1.498,0.12-2.806-0.94-2.92-2.367c-0.114-1.428,1.008-2.682,2.507-2.802
				C159.703,130.922,161.011,131.982,161.126,133.409z"/>
			<path style="fill:#FFFFFF;stroke:#263238;stroke-linecap:round;stroke-linejoin:round;stroke-miterlimit:10;" d="M141.99,138.495
				c0.114,1.427-1.008,2.682-2.507,2.802c-1.499,0.12-2.806-0.94-2.921-2.367c-0.114-1.427,1.008-2.682,2.507-2.801
				C140.568,136.008,141.876,137.068,141.99,138.495z"/>
			<path style="fill:#FFFFFF;stroke:#263238;stroke-linecap:round;stroke-linejoin:round;stroke-miterlimit:10;" d="
				M149.949,127.455c0.114,1.427-1.008,2.682-2.507,2.801c-1.498,0.12-2.806-0.94-2.92-2.367c-0.114-1.427,1.008-2.681,2.506-2.801
				C148.528,124.968,149.835,126.028,149.949,127.455z"/>
			<path style="fill:#FFFFFF;stroke:#263238;stroke-linecap:round;stroke-linejoin:round;stroke-miterlimit:10;" d="
				M155.542,114.891c0.114,1.427-1.008,2.681-2.507,2.801c-1.499,0.12-2.806-0.94-2.921-2.367c-0.114-1.427,1.008-2.681,2.507-2.802
				C154.12,112.404,155.428,113.463,155.542,114.891z"/>
			<path style="fill:#FFFFFF;stroke:#263238;stroke-linecap:round;stroke-linejoin:round;stroke-miterlimit:10;" d="
				M151.761,146.383c0.114,1.427-1.008,2.681-2.507,2.802c-1.499,0.12-2.806-0.94-2.92-2.367c-0.114-1.427,1.008-2.682,2.507-2.801
				C150.339,143.896,151.646,144.956,151.761,146.383z"/>
			<path style="fill:#FFFFFF;stroke:#263238;stroke-linecap:round;stroke-linejoin:round;stroke-miterlimit:10;" d="
				M126.867,114.825c0.114,1.427-1.008,2.681-2.507,2.801c-1.499,0.12-2.806-0.94-2.92-2.367c-0.114-1.427,1.008-2.682,2.506-2.801
				C125.446,112.338,126.753,113.398,126.867,114.825z"/>
		</g>
		<g>
			
				<ellipse transform="matrix(0.6571 -0.7538 0.7538 0.6571 -17.1757 200.4431)" style="fill:#263238;" cx="211.738" cy="119.101" rx="57.98" ry="57.981"/>
			<path style="fill:#FFFFFF;stroke:#263238;stroke-linecap:round;stroke-linejoin:round;stroke-miterlimit:10;" d="
				M258.697,115.342c-2.076-25.935-24.783-45.276-50.718-43.2c-25.935,2.076-45.276,24.783-43.2,50.718
				c2.076,25.935,24.783,45.276,50.718,43.2C241.431,163.984,260.772,141.277,258.697,115.342z"/>
			<g>
				<path style="fill:#263238;" d="M208.673,115.373l-21.05-14.133l-1.546,2.303l21.051,14.135
					C207.409,116.769,207.949,115.969,208.673,115.373z"/>
				<path style="fill:#263238;" d="M208.249,122.413l-19.443,34.04l2.409,1.375l19.443-34.04
					C209.724,123.572,208.895,123.091,208.249,122.413z"/>
			</g>
			<path style="fill:none;stroke:#263238;stroke-linecap:round;stroke-linejoin:round;stroke-miterlimit:10;" d="M216.554,118.716
				c-0.213-2.66-2.542-4.644-5.202-4.431c-2.66,0.213-4.644,2.542-4.431,5.202c0.213,2.66,2.542,4.644,5.202,4.431
				C214.783,123.704,216.767,121.375,216.554,118.716z"/>
		</g>
		<g>
			<g>
				<path style="fill:#FFFFFF;stroke:#263238;stroke-linecap:round;stroke-linejoin:round;stroke-miterlimit:10;" d="M78.25,172.014
					c0,0,7.073,15.537,21.347,21.348s34.105,5.18,38.273,22.106l24.759-51.536c0,0-5.684-10.99-15.663-12
					c-9.979-1.011-18.316-0.379-26.147-8.842c-7.831-8.463-14.147-16.295-14.147-16.295L78.25,172.014z"/>
				
					<line style="fill:none;stroke:#263238;stroke-linecap:round;stroke-linejoin:round;stroke-miterlimit:10;" x1="118.023" y1="190.954" x2="135.118" y2="158.114"/>
				
					<line style="fill:none;stroke:#263238;stroke-linecap:round;stroke-linejoin:round;stroke-miterlimit:10;" x1="123.601" y1="194.643" x2="143.036" y2="159.464"/>
				
					<line style="fill:none;stroke:#263238;stroke-linecap:round;stroke-linejoin:round;stroke-miterlimit:10;" x1="130.979" y1="197.523" x2="149.514" y2="160.993"/>
				<g>
					<path style="fill:#263238;" d="M100.967,170.77c1.073,0.925,2.028,1.772,2.344,3.182c1.551-0.304,2.816,0.525,4.175,1.304
						c0.065,0.037,0.295,0.173,0.358,0.214c0.996,0.65,2.265,1.412,2.832,2.416c0.567,1.004,0.318,1.497-0.112,2.407
						c-0.43,0.91-1.147,1.804-1.611,2.724c-4.978-3.546-9.87-7.078-14.717-10.817c0.538-0.758,1.015-1.708,1.612-2.389
						c0.596-0.681,0.908-1.072,1.905-0.952c0.998,0.12,1.953,0.918,2.799,1.566C100.631,170.485,100.89,170.704,100.967,170.77z
						 M101.327,175.258c0.105-0.271,0.296-0.32,0.385-0.636c0.09-0.316,0.25-0.429-0.081-0.85c-0.331-0.422-0.899-0.928-1.445-1.357
						c-0.158-0.124-0.592-0.493-0.86-0.71c-0.268-0.217-0.825-0.654-1.174-0.734c-0.35-0.081-0.491,0.071-0.676,0.259
						c-0.185,0.188-0.238,0.353-0.399,0.536C98.51,172.912,99.9,174.096,101.327,175.258z M108.311,179.885
						c0.119-0.274,0.28-0.342,0.396-0.657c0.117-0.315,0.247-0.535-0.078-0.93c-0.325-0.394-1.036-0.872-1.491-1.138
						c-0.455-0.266-0.724-0.436-1.166-0.708c-0.443-0.272-1.153-0.701-1.615-0.852c-0.462-0.152-0.608-0.005-0.858,0.232
						c-0.25,0.236-0.271,0.473-0.481,0.709C104.744,177.718,106.502,178.854,108.311,179.885z"/>
					<path style="fill:#263238;" d="M112.972,176.821c-5.323-3.149-9.924-6.51-14.702-10.488c0.355-0.52,0.7-1.048,1.039-1.579
						c4.821,4.124,9.199,7.416,14.693,10.525C113.668,175.799,113.319,176.309,112.972,176.821z"/>
					<path style="fill:#263238;" d="M115.077,173.593c-5.779-3.066-9.781-6.17-14.692-10.575c0.356-0.587,0.702-1.18,1.048-1.773
						c4.351,3.803,7.474,7.031,12.708,9.492c0.473-0.805,0.938-1.613,1.392-2.429c0.671,0.358,1.336,0.73,2.006,1.092
						C116.743,170.813,115.921,172.21,115.077,173.593z"/>
					<path style="fill:#263238;" d="M118.165,168.278c-5.495-3.049-9.913-6.53-14.748-10.577c0.364-0.67,0.723-1.342,1.084-2.014
						c4.195,3.347,8.153,6.684,12.789,9.371c0.471-0.89,0.941-1.78,1.408-2.672c0.657,0.409,1.311,0.824,1.968,1.232
						C119.842,165.177,119.008,166.73,118.165,168.278z"/>
					<path style="fill:#263238;" d="M116.805,160.027c-0.273-0.163-0.941-0.629-1.26-0.846c0.316-0.683,0.679-1.336,1.037-1.994
						c0.487,0.342,0.957,0.643,1.46,0.985c0.504,0.342,1.292,0.792,1.825,0.924c0.533,0.132,0.702,0.001,0.926-0.363
						c0.224-0.363,0.234-0.562-0.07-0.948c-0.304-0.386-0.771-0.723-1.267-1.027c-0.495-0.304-1.152-0.646-1.772-0.779
						c-0.62-0.133-1.309-0.154-1.932-0.099c-0.623,0.055-1.056,0.146-1.718,0.184c-0.662,0.038-1.467,0.037-2.185-0.15
						c-0.717-0.186-1.545-0.633-2.116-1.098c-0.929-0.755-1.884-1.608-2.315-2.667c-0.431-1.059-0.271-1.852,0.226-2.736
						c0.497-0.885,1.052-1.425,2.168-1.283c1.117,0.141,2.325,0.896,3.262,1.649c0.162,0.13,0.843,0.448,0.814,0.665
						c-0.073,0.544-0.691,1.186-0.898,1.746c-0.382-0.291-0.636-0.49-1.035-0.805c-0.399-0.314-1.088-0.837-1.556-0.987
						c-0.468-0.15-0.623-0.043-0.839,0.284c-0.215,0.326-0.204,0.572-0.013,0.946c0.191,0.375,0.555,0.712,0.921,0.986
						c0.366,0.273,0.748,0.532,1.224,0.633c0.476,0.101,0.966,0.076,1.479,0.063c0.513-0.013,1.343-0.06,1.817-0.066
						c0.95-0.013,1.826,0.075,2.678,0.29c0.852,0.214,1.762,0.707,2.401,1.142c1.103,0.75,2.157,1.566,2.762,2.622
						c0.606,1.056,0.433,1.735-0.077,2.682c-0.51,0.947-1.107,1.531-2.331,1.474C119.198,161.397,117.972,160.724,116.805,160.027z"
						/>
				</g>
			</g>
		</g>
		<g>
			<g>
				<path style="fill:#FFFFFF;stroke:#263238;stroke-linecap:round;stroke-linejoin:round;stroke-miterlimit:10;" d="
					M109.912,143.816c0,0-1.379,17.015,8.264,29.037c9.643,12.021,27.277,21.118,22.683,37.934l46.704-32.98
					c0,0,0.381-12.367-7.846-18.105c-8.227-5.738-15.817-9.242-18.542-20.447c-2.725-11.204-4.432-21.119-4.432-21.119
					L109.912,143.816z"/>
				
					<line style="fill:none;stroke:#263238;stroke-linecap:round;stroke-linejoin:round;stroke-miterlimit:10;" x1="135.445" y1="179.714" x2="166.358" y2="159.34"/>
				
					<line style="fill:none;stroke:#263238;stroke-linecap:round;stroke-linejoin:round;stroke-miterlimit:10;" x1="138.524" y1="185.651" x2="172.619" y2="164.372"/>
				
					<line style="fill:none;stroke:#263238;stroke-linecap:round;stroke-linejoin:round;stroke-miterlimit:10;" x1="143.569" y1="191.756" x2="177.535" y2="168.86"/>
				<g>
					<path style="fill:#263238;" d="M130.364,153.782c0.487,1.33,0.91,2.535,0.5,3.92c1.503,0.489,2.205,1.829,3.013,3.171
						c0.039,0.064,0.174,0.294,0.209,0.361c0.554,1.052,1.291,2.336,1.298,3.489c0.007,1.153-0.451,1.462-1.269,2.048
						c-0.818,0.586-1.88,1.018-2.733,1.596c-2.624-5.52-5.18-10.986-7.595-16.611c0.839-0.401,1.718-0.999,2.57-1.303
						c0.852-0.304,1.315-0.495,2.128,0.095c0.813,0.59,1.259,1.752,1.684,2.73C130.209,153.37,130.329,153.687,130.364,153.782z
						 M128.495,157.878c0.224-0.186,0.414-0.136,0.646-0.368c0.232-0.232,0.427-0.253,0.343-0.783
						c-0.084-0.529-0.334-1.248-0.602-1.889c-0.078-0.186-0.277-0.718-0.406-1.039c-0.129-0.321-0.402-0.972-0.669-1.213
						c-0.266-0.241-0.464-0.177-0.717-0.102c-0.253,0.075-0.379,0.193-0.61,0.274C127.175,154.458,127.813,156.169,128.495,157.878z
						 M132.346,165.318c0.237-0.181,0.411-0.162,0.666-0.381c0.255-0.219,0.476-0.347,0.384-0.85
						c-0.092-0.503-0.481-1.266-0.749-1.72c-0.268-0.454-0.42-0.733-0.675-1.186c-0.255-0.453-0.666-1.173-0.996-1.53
						c-0.33-0.357-0.529-0.3-0.862-0.215c-0.333,0.085-0.467,0.281-0.765,0.386C130.284,161.69,131.267,163.537,132.346,165.318z"/>
					<path style="fill:#263238;" d="M137.909,164.91c-3.118-5.341-5.503-10.516-7.742-16.316c0.564-0.282,1.121-0.575,1.676-0.874
						c2.206,5.948,4.429,10.955,7.716,16.343C139.014,164.355,138.461,164.631,137.909,164.91z"/>
					<path style="fill:#263238;" d="M141.318,163.113c-3.557-5.491-5.544-10.149-7.691-16.387c0.597-0.339,1.187-0.69,1.778-1.04
						c1.951,5.44,3.109,9.779,6.484,14.476c0.804-0.473,1.605-0.953,2.398-1.445c0.412,0.64,0.813,1.288,1.221,1.93
						C144.126,161.495,142.729,162.316,141.318,163.113z"/>
					<path style="fill:#263238;" d="M146.602,159.972c-3.317-5.337-5.484-10.528-7.739-16.416c0.644-0.408,1.285-0.821,1.927-1.232
						c2.036,4.965,3.871,9.806,6.614,14.41c0.844-0.548,1.688-1.098,2.53-1.649c0.375,0.677,0.745,1.357,1.12,2.034
						C149.576,158.079,148.091,159.029,146.602,159.972z"/>
					<path style="fill:#263238;" d="M149.428,152.101c-0.159-0.275-0.516-1.007-0.689-1.352c0.609-0.443,1.243-0.837,1.876-1.238
						c0.26,0.536,0.523,1.027,0.797,1.571c0.273,0.544,0.743,1.32,1.145,1.695c0.402,0.375,0.613,0.342,0.986,0.134
						c0.373-0.208,0.478-0.377,0.4-0.862c-0.078-0.485-0.322-1.007-0.607-1.513c-0.285-0.507-0.693-1.125-1.169-1.543
						c-0.477-0.418-1.069-0.771-1.64-1.026c-0.571-0.255-0.993-0.386-1.591-0.675c-0.598-0.289-1.3-0.682-1.836-1.194
						c-0.536-0.512-1.042-1.305-1.315-1.988c-0.444-1.112-0.864-2.322-0.725-3.457c0.139-1.135,0.664-1.749,1.529-2.281
						c0.864-0.531,1.612-0.733,2.519-0.066c0.907,0.667,1.595,1.914,2.048,3.028c0.078,0.192,0.519,0.802,0.388,0.977
						c-0.329,0.44-1.18,0.7-1.634,1.089c-0.192-0.44-0.318-0.738-0.513-1.207s-0.544-1.26-0.88-1.62
						c-0.336-0.359-0.524-0.34-0.871-0.16c-0.347,0.181-0.456,0.4-0.472,0.82c-0.016,0.42,0.138,0.892,0.325,1.31
						c0.187,0.417,0.394,0.829,0.761,1.149c0.367,0.32,0.807,0.536,1.262,0.774c0.454,0.238,1.202,0.601,1.619,0.826
						c0.837,0.451,1.559,0.954,2.199,1.556c0.64,0.601,1.195,1.475,1.542,2.166c0.598,1.192,1.122,2.418,1.138,3.635
						c0.015,1.218-0.466,1.727-1.372,2.306c-0.906,0.579-1.712,0.799-2.754,0.154C150.852,154.463,150.109,153.278,149.428,152.101z
						"/>
				</g>
			</g>
		</g>
		<g>
			<g>
				<path style="fill:#FFFFFF;stroke:#263238;stroke-linecap:round;stroke-linejoin:round;stroke-miterlimit:10;" d="
					M142.538,166.859c0,0,7.139,15.507,21.438,21.257c14.298,5.75,34.127,5.034,38.367,21.943l24.539-51.641
					c0,0-5.731-10.965-15.714-11.934c-9.983-0.968-18.317-0.301-26.184-8.731c-7.868-8.43-14.216-16.235-14.216-16.235
					L142.538,166.859z"/>
				
					<line style="fill:none;stroke:#263238;stroke-linecap:round;stroke-linejoin:round;stroke-miterlimit:10;" x1="182.39" y1="185.63" x2="199.346" y2="152.717"/>
				
					<line style="fill:none;stroke:#263238;stroke-linecap:round;stroke-linejoin:round;stroke-miterlimit:10;" x1="187.984" y1="189.295" x2="207.27" y2="154.033"/>
				
					<line style="fill:none;stroke:#263238;stroke-linecap:round;stroke-linejoin:round;stroke-miterlimit:10;" x1="195.374" y1="192.143" x2="213.754" y2="155.536"/>
				<g>
					<path style="fill:#263238;" d="M165.249,165.519c1.076,0.921,2.036,1.763,2.357,3.172c1.549-0.31,2.818,0.513,4.18,1.286
						c0.065,0.037,0.296,0.171,0.359,0.212c0.999,0.646,2.271,1.403,2.842,2.404c0.571,1.002,0.324,1.495-0.102,2.407
						c-0.426,0.912-1.14,1.809-1.599,2.73c-4.993-3.525-9.9-7.036-14.764-10.754c0.535-0.76,1.008-1.713,1.602-2.396
						c0.594-0.683,0.903-1.076,1.901-0.961c0.998,0.116,1.957,0.91,2.806,1.554C164.911,165.235,165.172,165.453,165.249,165.519z
						 M165.628,170.005c0.104-0.271,0.294-0.322,0.382-0.638c0.088-0.316,0.248-0.43-0.085-0.85c-0.333-0.42-0.903-0.924-1.45-1.351
						c-0.159-0.124-0.594-0.49-0.863-0.707c-0.269-0.216-0.827-0.65-1.178-0.729c-0.35-0.079-0.491,0.073-0.675,0.262
						c-0.184,0.189-0.236,0.354-0.397,0.538C162.801,167.671,164.196,168.849,165.628,170.005z M172.632,174.602
						c0.118-0.274,0.278-0.343,0.394-0.658c0.115-0.315,0.245-0.536-0.082-0.929c-0.327-0.393-1.04-0.868-1.496-1.132
						c-0.456-0.264-0.725-0.433-1.17-0.703c-0.444-0.27-1.156-0.696-1.618-0.846c-0.463-0.15-0.608-0.002-0.857,0.235
						c-0.249,0.237-0.269,0.474-0.478,0.711C169.056,172.451,170.818,173.579,172.632,174.602z"/>
					<path style="fill:#263238;" d="M177.28,171.519c-5.336-3.126-9.951-6.468-14.746-10.426c0.353-0.522,0.696-1.051,1.033-1.584
						c4.839,4.103,9.23,7.377,14.738,10.462C177.971,170.494,177.624,171.005,177.28,171.519z"/>
					<path style="fill:#263238;" d="M179.371,168.282c-5.792-3.042-9.807-6.128-14.737-10.512c0.354-0.588,0.697-1.183,1.04-1.778
						c4.367,3.785,7.504,6.999,12.748,9.438c0.469-0.807,0.931-1.617,1.382-2.435c0.673,0.355,1.339,0.724,2.01,1.084
						C181.025,165.495,180.209,166.895,179.371,168.282z"/>
					<path style="fill:#263238;" d="M182.436,162.953c-5.508-3.025-9.941-6.487-14.793-10.514c0.361-0.671,0.718-1.345,1.075-2.018
						c4.209,3.33,8.181,6.649,12.829,9.317c0.467-0.892,0.933-1.784,1.397-2.678c0.659,0.406,1.315,0.818,1.974,1.224
						C184.1,159.845,183.272,161.402,182.436,162.953z"/>
					<path style="fill:#263238;" d="M181.041,154.708c-0.273-0.162-0.943-0.624-1.263-0.841c0.313-0.685,0.673-1.339,1.029-1.999
						c0.489,0.34,0.959,0.639,1.464,0.979c0.505,0.34,1.295,0.786,1.829,0.916c0.534,0.13,0.702-0.002,0.925-0.367
						c0.223-0.364,0.232-0.563-0.074-0.948c-0.305-0.384-0.774-0.719-1.271-1.022c-0.497-0.302-1.155-0.641-1.775-0.771
						c-0.62-0.13-1.309-0.148-1.933-0.09c-0.623,0.058-1.055,0.15-1.717,0.192c-0.662,0.041-1.467,0.043-2.185-0.141
						c-0.718-0.183-1.548-0.626-2.121-1.089c-0.932-0.751-1.891-1.6-2.327-2.657c-0.436-1.057-0.279-1.851,0.214-2.737
						c0.493-0.887,1.046-1.429,2.163-1.293c1.117,0.137,2.329,0.886,3.269,1.635c0.162,0.129,0.845,0.444,0.817,0.661
						c-0.071,0.545-0.686,1.189-0.89,1.75c-0.383-0.29-0.639-0.488-1.039-0.801c-0.4-0.313-1.092-0.832-1.56-0.98
						c-0.469-0.148-0.623-0.04-0.837,0.287c-0.214,0.327-0.201,0.572-0.009,0.946c0.193,0.374,0.558,0.71,0.925,0.982
						c0.367,0.272,0.75,0.529,1.226,0.628c0.476,0.099,0.966,0.072,1.479,0.057c0.513-0.015,1.342-0.066,1.816-0.074
						c0.95-0.017,1.827,0.068,2.679,0.278c0.852,0.211,1.765,0.7,2.406,1.132c1.106,0.746,2.163,1.557,2.774,2.611
						c0.61,1.054,0.44,1.733-0.065,2.682c-0.506,0.949-1.101,1.535-2.325,1.484C183.44,156.068,182.211,155.4,181.041,154.708z"/>
				</g>
			</g>
		</g>
		<g>
			<g>
				<path style="fill:#FFFFFF;stroke:#263238;stroke-linecap:round;stroke-linejoin:round;stroke-miterlimit:10;" d="
					M273.939,82.937l4.774,7.374c1.135-0.876,2.323-1.684,3.552-2.44l-5.136-7.006c0.612-0.828,1.416-2.373,0.929-3.079
					c-0.745-1.081-2.913-0.878-4.843,0.451c-1.93,1.331-2.891,3.285-2.146,4.366C271.509,83.241,273.066,83.117,273.939,82.937z"/>
				<path style="fill:#FFFFFF;stroke:#263238;stroke-linecap:round;stroke-linejoin:round;stroke-miterlimit:10;" d="
					M253.584,101.084l12.241,6.259c0.623-1.545,1.312-3.057,2.114-4.505l-12.456-5.482c0.128-1.125,0.044-3.039-0.808-3.444
					c-1.304-0.62-3.258,0.765-4.365,3.093c-1.107,2.328-0.947,4.718,0.357,5.338C251.437,102.71,252.852,101.735,253.584,101.084z"
					/>
				<path style="fill:#FFFFFF;stroke:#263238;stroke-linecap:round;stroke-linejoin:round;stroke-miterlimit:10;" d="
					M254.463,128.339l8.802-0.449c-0.094-0.713-0.222-1.415-0.28-2.14c-0.058-0.725-0.044-1.438-0.063-2.157l-8.658,0.947
					c-0.411-0.945-1.347-2.413-2.202-2.345c-1.309,0.105-2.218,2.084-2.031,4.42c0.187,2.337,1.399,4.146,2.708,4.041
					C253.511,130.595,254.182,129.185,254.463,128.339z"/>
				<path style="fill:#FFFFFF;stroke:#263238;stroke-linecap:round;stroke-linejoin:round;stroke-miterlimit:10;" d="
					M297.103,68.549l0.701,13.745c0.821-0.116,1.633-0.257,2.471-0.324c0.837-0.067,1.661-0.057,2.49-0.073l-1.484-13.566
					c1.038-0.452,2.654-1.482,2.578-2.422c-0.115-1.439-2.292-2.439-4.862-2.233c-2.569,0.205-4.559,1.539-4.444,2.978
					C294.622,67.502,296.173,68.24,297.103,68.549z"/>
				<path style="fill:#FFFFFF;stroke:#263238;stroke-linecap:round;stroke-linejoin:round;stroke-miterlimit:10;" d="M318.994,84.93
					c1.333,0.55,2.635,1.159,3.895,1.844l3.497-7.945c1.023,0.117,2.763,0.04,3.131-0.735c0.564-1.185-0.696-2.962-2.813-3.969
					c-2.117-1.006-4.29-0.861-4.854,0.324c-0.333,0.7,0.554,1.987,1.145,2.652L318.994,84.93z"/>
				<path style="fill:#FFFFFF;stroke:#263238;stroke-linecap:round;stroke-linejoin:round;stroke-miterlimit:10;" d="
					M335.519,97.428c1.022,1.302,1.943,2.685,2.804,4.111l10.996-8.061c0.911,0.673,2.61,1.557,3.387,1.022
					c1.189-0.819,0.966-3.204-0.497-5.327c-1.463-2.123-3.613-3.18-4.801-2.36c-0.702,0.484-0.566,2.197-0.368,3.156L335.519,97.428
					z"/>
				<path style="fill:#FFFFFF;stroke:#263238;stroke-linecap:round;stroke-linejoin:round;stroke-miterlimit:10;" d="
					M354.302,114.352c-0.773,0.062-1.444,1.473-1.724,2.318l-8.803,0.449c0.095,0.713,0.223,1.415,0.281,2.141
					c0.058,0.725,0.043,1.438,0.063,2.157l8.658-0.947c0.411,0.944,1.347,2.413,2.202,2.344c1.308-0.104,2.217-2.084,2.03-4.42
					C356.823,116.057,355.61,114.248,354.302,114.352z"/>
				<path style="fill:#FFFFFF;stroke:#263238;stroke-linecap:round;stroke-linejoin:round;stroke-miterlimit:10;" d="
					M353.456,143.926l-12.241-6.259c-0.623,1.546-1.312,3.057-2.114,4.505l12.455,5.482c-0.128,1.125-0.043,3.039,0.809,3.444
					c1.304,0.62,3.258-0.766,4.365-3.094c1.107-2.328,0.947-4.718-0.357-5.338C355.603,142.3,354.188,143.275,353.456,143.926z"/>
				<path style="fill:#FFFFFF;stroke:#263238;stroke-linecap:round;stroke-linejoin:round;stroke-miterlimit:10;" d="
					M333.101,162.072l-4.774-7.374c-1.135,0.877-2.324,1.685-3.552,2.44l5.136,7.006c-0.612,0.828-1.416,2.373-0.929,3.079
					c0.745,1.081,2.914,0.878,4.843-0.451c1.93-1.331,2.891-3.285,2.146-4.366C335.531,161.769,333.974,161.893,333.101,162.072z"/>
				<path style="fill:#FFFFFF;stroke:#263238;stroke-linecap:round;stroke-linejoin:round;stroke-miterlimit:10;" d="
					M271.521,147.582c-1.022-1.302-1.943-2.685-2.804-4.111l-10.995,8.061c-0.911-0.673-2.61-1.558-3.387-1.022
					c-1.189,0.82-0.966,3.204,0.497,5.328c1.463,2.122,3.613,3.179,4.801,2.36c0.702-0.484,0.565-2.197,0.368-3.156L271.521,147.582
					z"/>
				<path style="fill:#FFFFFF;stroke:#263238;stroke-linecap:round;stroke-linejoin:round;stroke-miterlimit:10;" d="
					M309.937,176.461l-0.701-13.745c-0.821,0.116-1.634,0.257-2.471,0.324c-0.837,0.067-1.662,0.057-2.491,0.073l1.484,13.567
					c-1.039,0.452-2.654,1.482-2.579,2.422c0.115,1.439,2.292,2.439,4.862,2.233c2.57-0.206,4.56-1.54,4.445-2.978
					C312.419,177.508,310.867,176.77,309.937,176.461z"/>
				<path style="fill:#FFFFFF;stroke:#263238;stroke-linecap:round;stroke-linejoin:round;stroke-miterlimit:10;" d="
					M288.047,160.079c-1.333-0.55-2.635-1.159-3.895-1.844l-3.497,7.945c-1.023-0.117-2.763-0.04-3.131,0.735
					c-0.564,1.186,0.696,2.962,2.813,3.969c2.117,1.006,4.29,0.861,4.853-0.324c0.333-0.7-0.553-1.987-1.145-2.652L288.047,160.079z
					"/>
			</g>
			<path style="fill:#FFFFFF;stroke:#263238;stroke-linecap:round;stroke-linejoin:round;stroke-miterlimit:10;" d="M344.056,119.26
				c-1.792-22.387-21.393-39.083-43.78-37.291c-22.387,1.792-39.083,21.393-37.291,43.781c1.792,22.387,21.393,39.083,43.78,37.291
				C329.152,161.248,345.848,141.647,344.056,119.26z"/>
			<path style="fill:#FFFFFF;stroke:#263238;stroke-linecap:round;stroke-linejoin:round;stroke-miterlimit:10;" d="M304.197,91.305
				c0.176,2.195-1.55,4.123-3.855,4.308c-2.305,0.185-4.315-1.445-4.49-3.64c-0.176-2.195,1.55-4.123,3.854-4.308
				C302.011,87.481,304.021,89.11,304.197,91.305z"/>
			<path style="fill:#FFFFFF;stroke:#263238;stroke-linecap:round;stroke-linejoin:round;stroke-miterlimit:10;" d="M281.56,125.463
				c0.176,2.195-1.55,4.123-3.855,4.308c-2.305,0.184-4.315-1.446-4.491-3.64c-0.176-2.195,1.55-4.123,3.855-4.308
				C279.373,121.639,281.384,123.268,281.56,125.463z"/>
			<path style="fill:#FFFFFF;stroke:#263238;stroke-linecap:round;stroke-linejoin:round;stroke-miterlimit:10;" d="
				M299.411,113.635c0.176,2.195-1.55,4.123-3.855,4.308c-2.304,0.184-4.315-1.445-4.49-3.64c-0.176-2.195,1.55-4.124,3.854-4.308
				C297.224,109.81,299.235,111.44,299.411,113.635z"/>
			<path style="fill:#FFFFFF;stroke:#263238;stroke-linecap:round;stroke-linejoin:round;stroke-miterlimit:10;" d="
				M292.442,148.989c0.176,2.195-1.55,4.124-3.854,4.308c-2.304,0.185-4.315-1.445-4.491-3.64c-0.176-2.195,1.55-4.124,3.855-4.308
				C290.256,145.164,292.266,146.794,292.442,148.989z"/>
			<path style="fill:#FFFFFF;stroke:#263238;stroke-linecap:round;stroke-linejoin:round;stroke-miterlimit:10;" d="
				M336.609,128.655c0.176,2.195-1.55,4.123-3.855,4.307c-2.304,0.185-4.315-1.445-4.491-3.639c-0.176-2.195,1.55-4.124,3.855-4.308
				C334.422,124.831,336.433,126.46,336.609,128.655z"/>
			<path style="fill:#FFFFFF;stroke:#263238;stroke-linecap:round;stroke-linejoin:round;stroke-miterlimit:10;" d="
				M307.183,136.476c0.176,2.195-1.55,4.124-3.855,4.308c-2.305,0.184-4.315-1.445-4.491-3.64c-0.176-2.195,1.55-4.124,3.854-4.308
				C304.996,132.651,307.007,134.281,307.183,136.476z"/>
			<path style="fill:#FFFFFF;stroke:#263238;stroke-linecap:round;stroke-linejoin:round;stroke-miterlimit:10;" d="
				M319.422,119.498c0.176,2.195-1.55,4.123-3.855,4.308c-2.304,0.184-4.315-1.445-4.491-3.64c-0.175-2.195,1.55-4.124,3.854-4.308
				C317.236,115.674,319.246,117.303,319.422,119.498z"/>
			<path style="fill:#FFFFFF;stroke:#263238;stroke-linecap:round;stroke-linejoin:round;stroke-miterlimit:10;" d="
				M328.023,100.177c0.176,2.195-1.55,4.123-3.855,4.308c-2.305,0.185-4.315-1.445-4.491-3.64c-0.176-2.195,1.55-4.124,3.855-4.308
				C325.836,96.353,327.847,97.982,328.023,100.177z"/>
			<path style="fill:#FFFFFF;stroke:#263238;stroke-linecap:round;stroke-linejoin:round;stroke-miterlimit:10;" d="
				M322.208,148.606c0.176,2.195-1.55,4.124-3.854,4.308c-2.305,0.184-4.315-1.445-4.491-3.64c-0.176-2.195,1.55-4.123,3.855-4.308
				C320.021,144.781,322.032,146.411,322.208,148.606z"/>
			<path style="fill:#FFFFFF;stroke:#263238;stroke-linecap:round;stroke-linejoin:round;stroke-miterlimit:10;" d="
				M283.927,100.077c0.176,2.194-1.55,4.123-3.854,4.308c-2.305,0.184-4.315-1.445-4.491-3.64c-0.176-2.195,1.55-4.124,3.854-4.308
				C281.741,96.252,283.751,97.881,283.927,100.077z"/>
		</g>
		<g>
			<g>
				<path style="fill:#FFFFFF;stroke:#263238;stroke-linecap:round;stroke-linejoin:round;stroke-miterlimit:10;" d="
					M266.653,203.618l75.336-8.597c3.721-0.425,6.393-3.785,5.969-7.506l-4.736-41.503c-0.425-3.721-3.785-6.393-7.506-5.969
					l-75.336,8.597c-3.721,0.425-6.393,3.785-5.969,7.506l4.736,41.503C259.571,201.371,262.932,204.043,266.653,203.618z"/>
				
					<rect x="257.021" y="167.119" transform="matrix(0.9936 -0.1134 0.1134 0.9936 -18.0634 35.3448)" style="fill:#263238;" width="89.387" height="18.729"/>
				<path style="fill:#FFFFFF;stroke:#263238;stroke-linecap:round;stroke-linejoin:round;stroke-miterlimit:10;" d="
					M280.379,155.372c0.16,1.402,1.426,2.408,2.827,2.248c1.401-0.16,2.408-1.426,2.248-2.827c-0.16-1.402-1.426-2.408-2.827-2.248
					C281.226,152.705,280.22,153.97,280.379,155.372z"/>
				<path style="fill:#FFFFFF;stroke:#263238;stroke-linecap:round;stroke-linejoin:round;stroke-miterlimit:10;" d="
					M270.513,156.498c0.16,1.401,1.426,2.408,2.827,2.248c1.401-0.16,2.408-1.426,2.248-2.827c-0.16-1.401-1.426-2.408-2.827-2.248
					C271.359,153.831,270.353,155.096,270.513,156.498z"/>
				<path style="fill:#FFFFFF;stroke:#263238;stroke-linecap:round;stroke-linejoin:round;stroke-miterlimit:10;" d="
					M260.646,157.624c0.16,1.401,1.426,2.408,2.827,2.248c1.402-0.16,2.408-1.425,2.248-2.827c-0.16-1.401-1.426-2.408-2.827-2.248
					C261.492,154.956,260.486,156.222,260.646,157.624z"/>
			</g>
			<g>
				<path style="fill:#FFFFFF;stroke:#263238;stroke-linecap:round;stroke-linejoin:round;stroke-miterlimit:10;" d="
					M319.978,135.329l43.546,59.139c2.611,3.546,7.601,4.303,11.147,1.693l31.719-23.355c3.546-2.611,4.304-7.602,1.693-11.147
					l-43.546-59.139c-2.611-3.546-7.602-4.304-11.147-1.693l-31.719,23.355C318.125,126.793,317.367,131.784,319.978,135.329z"/>
				
					<rect x="350.896" y="106.577" transform="matrix(0.8053 -0.5929 0.5929 0.8053 -19.5339 243.067)" style="fill:#263238;" width="18.729" height="89.387"/>
				<path style="fill:none;stroke:#263238;stroke-linecap:round;stroke-linejoin:round;stroke-miterlimit:10;" d="M367.949,122.258
					c-1.136,0.836-1.379,2.435-0.542,3.571c0.836,1.136,2.435,1.379,3.571,0.542c1.136-0.837,1.379-2.435,0.542-3.571
					C370.683,121.664,369.085,121.421,367.949,122.258z"/>
				<path style="fill:none;stroke:#263238;stroke-linecap:round;stroke-linejoin:round;stroke-miterlimit:10;" d="M362.06,114.261
					c-1.136,0.836-1.378,2.435-0.542,3.571c0.836,1.136,2.435,1.379,3.571,0.542c1.136-0.836,1.378-2.435,0.542-3.571
					C364.795,113.667,363.196,113.424,362.06,114.261z"/>
				<path style="fill:none;stroke:#263238;stroke-linecap:round;stroke-linejoin:round;stroke-miterlimit:10;" d="M356.172,106.264
					c-1.136,0.836-1.378,2.435-0.542,3.571c0.837,1.136,2.435,1.379,3.571,0.542c1.136-0.836,1.379-2.435,0.543-3.571
					C358.907,105.67,357.308,105.428,356.172,106.264z"/>
			</g>
		</g>
		<g>
			<polyline style="fill:#263238;" points="280.942,149.111 285.013,204.977 272.027,203.207 			"/>
			<path style="fill:#FFFFFF;stroke:#263238;stroke-linecap:round;stroke-linejoin:round;stroke-miterlimit:10;" d="
				M198.579,148.078l82.363,1.033c0,0-2.119,48.735-13.892,62.12l-82.235-9.472C184.815,201.759,199.985,185.694,198.579,148.078z"
				/>
			<g>
				<path style="fill:none;stroke:#263238;stroke-linecap:round;stroke-linejoin:round;stroke-miterlimit:10;" d="M205.743,162.356
					l66.841,2.676c0,0-2.344,25.875-8.389,35.591l-67.99-7C196.205,193.623,206.126,177.175,205.743,162.356z"/>
				<path style="fill:none;stroke:#263238;stroke-linecap:round;stroke-linejoin:round;stroke-miterlimit:10;" d="M212.188,162.642
					c0,0-2.663,21.887-9.506,31.666"/>
				<path style="fill:none;stroke:#263238;stroke-linecap:round;stroke-linejoin:round;stroke-miterlimit:10;" d="M221.089,163.535
					c0,0-2.663,21.887-9.506,31.666"/>
				<path style="fill:none;stroke:#263238;stroke-linecap:round;stroke-linejoin:round;stroke-miterlimit:10;" d="M229.129,163.694
					c0,0-2.663,21.887-9.506,31.666"/>
				<path style="fill:none;stroke:#263238;stroke-linecap:round;stroke-linejoin:round;stroke-miterlimit:10;" d="M236.372,163.917
					c0,0-2.663,21.887-9.506,31.666"/>
				<path style="fill:none;stroke:#263238;stroke-linecap:round;stroke-linejoin:round;stroke-miterlimit:10;" d="M244.045,164.507
					c0,0-2.663,21.887-9.506,31.666"/>
				<path style="fill:none;stroke:#263238;stroke-linecap:round;stroke-linejoin:round;stroke-miterlimit:10;" d="M241.909,197.992
					c6.843-9.779,9.41-32.862,9.41-32.862"/>
				<path style="fill:none;stroke:#263238;stroke-linecap:round;stroke-linejoin:round;stroke-miterlimit:10;" d="M258.131,164.985
					c0,0-2.934,23.514-9.777,33.293"/>
				<path style="fill:none;stroke:#263238;stroke-linecap:round;stroke-linejoin:round;stroke-miterlimit:10;" d="M265.007,165.639
					c0,0-1.737,23.418-8.581,33.198"/>
				
					<line style="fill:none;stroke:#263238;stroke-linecap:round;stroke-linejoin:round;stroke-miterlimit:10;" x1="205.424" y1="168.402" x2="271.228" y2="173.168"/>
				
					<line style="fill:none;stroke:#263238;stroke-linecap:round;stroke-linejoin:round;stroke-miterlimit:10;" x1="203.941" y1="174.942" x2="270.208" y2="180.474"/>
				
					<line style="fill:none;stroke:#263238;stroke-linecap:round;stroke-linejoin:round;stroke-miterlimit:10;" x1="202.059" y1="181.514" x2="268.39" y2="187.844"/>
				
					<line style="fill:none;stroke:#263238;stroke-linecap:round;stroke-linejoin:round;stroke-miterlimit:10;" x1="199.746" y1="187.72" x2="266.109" y2="194.449"/>
			</g>
			<path style="fill:none;stroke:#263238;stroke-linecap:round;stroke-linejoin:round;stroke-miterlimit:10;" d="M211.988,152.624
				c-2.313,0.185-4.359-1.808-4.57-4.45c-0.212-2.643,1.492-4.936,3.804-5.121c2.313-0.185,4.359,1.808,4.571,4.451"/>
			<path style="fill:none;stroke:#263238;stroke-linecap:round;stroke-linejoin:round;stroke-miterlimit:10;" d="M221.655,153.054
				c-2.313,0.185-4.359-1.807-4.571-4.451c-0.212-2.643,1.492-4.936,3.804-5.121c2.313-0.185,4.359,1.807,4.571,4.45"/>
			<path style="fill:none;stroke:#263238;stroke-linecap:round;stroke-linejoin:round;stroke-miterlimit:10;" d="M231.322,153.485
				c-2.313,0.185-4.359-1.807-4.571-4.451c-0.212-2.643,1.492-4.936,3.804-5.121c2.313-0.185,4.359,1.807,4.571,4.451"/>
			<path style="fill:none;stroke:#263238;stroke-linecap:round;stroke-linejoin:round;stroke-miterlimit:10;" d="M240.99,153.915
				c-2.313,0.185-4.359-1.807-4.571-4.45c-0.211-2.643,1.492-4.936,3.805-5.121c2.313-0.185,4.359,1.807,4.571,4.451"/>
			<path style="fill:none;stroke:#263238;stroke-linecap:round;stroke-linejoin:round;stroke-miterlimit:10;" d="M250.657,154.345
				c-2.313,0.185-4.359-1.807-4.571-4.45c-0.212-2.643,1.492-4.936,3.804-5.121c2.313-0.185,4.359,1.807,4.571,4.45"/>
			<path style="fill:none;stroke:#263238;stroke-linecap:round;stroke-linejoin:round;stroke-miterlimit:10;" d="M260.324,154.775
				c-2.313,0.185-4.359-1.808-4.571-4.451c-0.212-2.643,1.492-4.936,3.804-5.121c2.313-0.185,4.359,1.807,4.571,4.451"/>
			<path style="fill:none;stroke:#263238;stroke-linecap:round;stroke-linejoin:round;stroke-miterlimit:10;" d="M269.991,155.206
				c-2.313,0.185-4.359-1.807-4.57-4.451c-0.212-2.643,1.492-4.936,3.805-5.121c2.313-0.185,4.359,1.807,4.571,4.451"/>
		</g>
		<g>
			<g>
				<path style="fill:#FFFFFF;stroke:#263238;stroke-linecap:round;stroke-linejoin:round;stroke-miterlimit:10;" d="
					M309.323,147.269l3.276,5.061c0.779-0.601,1.595-1.156,2.438-1.675l-3.525-4.808c0.42-0.568,0.972-1.629,0.638-2.113
					c-0.511-0.742-1.999-0.603-3.324,0.31c-1.325,0.913-1.984,2.254-1.473,2.996C307.655,147.478,308.724,147.393,309.323,147.269z"
					/>
				<path style="fill:#FFFFFF;stroke:#263238;stroke-linecap:round;stroke-linejoin:round;stroke-miterlimit:10;" d="
					M295.353,159.724l8.401,4.295c0.427-1.061,0.9-2.098,1.451-3.091l-8.549-3.763c0.088-0.772,0.03-2.086-0.555-2.364
					c-0.895-0.426-2.236,0.525-2.996,2.123c-0.76,1.598-0.65,3.238,0.245,3.663C293.879,160.84,294.85,160.17,295.353,159.724z"/>
				<path style="fill:#FFFFFF;stroke:#263238;stroke-linecap:round;stroke-linejoin:round;stroke-miterlimit:10;" d="
					M295.956,178.43l6.041-0.308c-0.065-0.49-0.153-0.971-0.193-1.469c-0.04-0.498-0.03-0.987-0.043-1.48l-5.942,0.65
					c-0.282-0.648-0.924-1.656-1.511-1.609c-0.898,0.072-1.522,1.43-1.394,3.034c0.128,1.604,0.961,2.845,1.859,2.773
					C295.303,179.978,295.763,179.01,295.956,178.43z"/>
				<path style="fill:#FFFFFF;stroke:#263238;stroke-linecap:round;stroke-linejoin:round;stroke-miterlimit:10;" d="
					M325.22,137.394l0.481,9.433c0.564-0.08,1.121-0.176,1.696-0.222c0.575-0.046,1.141-0.039,1.709-0.05l-1.019-9.311
					c0.713-0.31,1.821-1.017,1.77-1.662c-0.079-0.988-1.573-1.674-3.337-1.533c-1.763,0.141-3.129,1.056-3.05,2.044
					C323.517,136.676,324.582,137.182,325.22,137.394z"/>
				<path style="fill:#FFFFFF;stroke:#263238;stroke-linecap:round;stroke-linejoin:round;stroke-miterlimit:10;" d="
					M340.244,148.637c0.915,0.378,1.809,0.795,2.673,1.265l2.4-5.453c0.702,0.08,1.896,0.028,2.149-0.504
					c0.387-0.813-0.478-2.033-1.931-2.724c-1.453-0.691-2.944-0.591-3.331,0.222c-0.228,0.481,0.38,1.364,0.786,1.82
					L340.244,148.637z"/>
				<path style="fill:#FFFFFF;stroke:#263238;stroke-linecap:round;stroke-linejoin:round;stroke-miterlimit:10;" d="
					M351.586,157.214c0.702,0.893,1.333,1.842,1.924,2.821l7.546-5.532c0.625,0.462,1.791,1.069,2.324,0.702
					c0.816-0.562,0.663-2.199-0.341-3.656c-1.004-1.457-2.479-2.182-3.295-1.62c-0.482,0.332-0.388,1.507-0.253,2.166
					L351.586,157.214z"/>
				<path style="fill:#FFFFFF;stroke:#263238;stroke-linecap:round;stroke-linejoin:round;stroke-miterlimit:10;" d="
					M364.477,168.83c-0.53,0.042-0.991,1.011-1.183,1.591l-6.041,0.308c0.065,0.489,0.153,0.971,0.192,1.469
					c0.04,0.497,0.03,0.987,0.044,1.48l5.942-0.65c0.282,0.648,0.924,1.656,1.512,1.609c0.898-0.072,1.522-1.43,1.393-3.034
					C366.207,170,365.375,168.758,364.477,168.83z"/>
				<path style="fill:#FFFFFF;stroke:#263238;stroke-linecap:round;stroke-linejoin:round;stroke-miterlimit:10;" d="
					M363.896,189.126l-8.401-4.295c-0.427,1.061-0.9,2.098-1.451,3.092l8.548,3.763c-0.088,0.772-0.03,2.086,0.555,2.364
					c0.895,0.425,2.236-0.525,2.996-2.124c0.76-1.598,0.65-3.238-0.245-3.664C365.37,188.011,364.399,188.68,363.896,189.126z"/>
				<path style="fill:#FFFFFF;stroke:#263238;stroke-linecap:round;stroke-linejoin:round;stroke-miterlimit:10;" d="
					M349.927,201.581l-3.276-5.061c-0.779,0.602-1.595,1.157-2.438,1.675l3.525,4.808c-0.42,0.568-0.972,1.628-0.638,2.113
					c0.511,0.742,2,0.603,3.324-0.31c1.325-0.913,1.984-2.255,1.473-2.996C351.594,201.372,350.525,201.458,349.927,201.581z"/>
				<path style="fill:#FFFFFF;stroke:#263238;stroke-linecap:round;stroke-linejoin:round;stroke-miterlimit:10;" d="
					M307.663,191.636c-0.702-0.893-1.333-1.843-1.924-2.821l-7.546,5.532c-0.625-0.462-1.791-1.069-2.325-0.701
					c-0.816,0.562-0.663,2.199,0.341,3.656c1.004,1.457,2.479,2.182,3.295,1.62c0.482-0.332,0.388-1.508,0.252-2.166
					L307.663,191.636z"/>
				<path style="fill:#FFFFFF;stroke:#263238;stroke-linecap:round;stroke-linejoin:round;stroke-miterlimit:10;" d="
					M334.029,211.456l-0.481-9.433c-0.564,0.08-1.121,0.176-1.696,0.222c-0.575,0.046-1.141,0.039-1.709,0.05l1.019,9.311
					c-0.713,0.31-1.821,1.017-1.77,1.662c0.079,0.988,1.573,1.674,3.337,1.533c1.764-0.141,3.129-1.057,3.051-2.044
					C335.732,212.174,334.667,211.668,334.029,211.456z"/>
				<path style="fill:#FFFFFF;stroke:#263238;stroke-linecap:round;stroke-linejoin:round;stroke-miterlimit:10;" d="
					M319.005,200.213c-0.915-0.378-1.809-0.796-2.673-1.265l-2.4,5.453c-0.702-0.08-1.896-0.028-2.149,0.504
					c-0.387,0.814,0.478,2.033,1.931,2.724c1.453,0.691,2.944,0.591,3.331-0.223c0.228-0.481-0.38-1.363-0.786-1.82L319.005,200.213
					z"/>
			</g>
			
				<ellipse transform="matrix(0.9376 -0.3478 0.3478 0.9376 -40.0859 125.5304)" style="fill:#FFFFFF;stroke:#263238;stroke-linecap:round;stroke-linejoin:round;stroke-miterlimit:10;" cx="329.625" cy="174.425" rx="27.909" ry="27.909"/>
			<path style="fill:#FFFFFF;stroke:#263238;stroke-linecap:round;stroke-linejoin:round;stroke-miterlimit:10;" d="
				M330.089,153.012c0.121,1.506-1.064,2.83-2.646,2.956c-1.582,0.127-2.961-0.992-3.082-2.498c-0.121-1.506,1.064-2.83,2.645-2.957
				C328.589,150.387,329.969,151.506,330.089,153.012z"/>
			<path style="fill:#FFFFFF;stroke:#263238;stroke-linecap:round;stroke-linejoin:round;stroke-miterlimit:10;" d="
				M314.553,176.455c0.121,1.506-1.064,2.83-2.646,2.957c-1.582,0.126-2.962-0.992-3.082-2.498c-0.121-1.507,1.064-2.83,2.646-2.957
				C313.052,173.831,314.432,174.949,314.553,176.455z"/>
			<path style="fill:#FFFFFF;stroke:#263238;stroke-linecap:round;stroke-linejoin:round;stroke-miterlimit:10;" d="
				M326.804,168.338c0.121,1.506-1.064,2.83-2.646,2.957c-1.582,0.126-2.961-0.992-3.082-2.498c-0.121-1.507,1.064-2.83,2.645-2.957
				C325.303,165.713,326.684,166.831,326.804,168.338z"/>
			<path style="fill:#FFFFFF;stroke:#263238;stroke-linecap:round;stroke-linejoin:round;stroke-miterlimit:10;" d="
				M322.021,192.601c0.121,1.506-1.064,2.83-2.645,2.957c-1.582,0.127-2.962-0.992-3.082-2.498c-0.121-1.507,1.064-2.83,2.646-2.957
				C320.521,189.976,321.901,191.095,322.021,192.601z"/>
			<path style="fill:#FFFFFF;stroke:#263238;stroke-linecap:round;stroke-linejoin:round;stroke-miterlimit:10;" d="
				M352.334,178.646c0.12,1.506-1.064,2.83-2.646,2.956c-1.582,0.127-2.962-0.992-3.082-2.498c-0.121-1.507,1.064-2.83,2.646-2.957
				C350.833,176.021,352.213,177.14,352.334,178.646z"/>
			<path style="fill:#FFFFFF;stroke:#263238;stroke-linecap:round;stroke-linejoin:round;stroke-miterlimit:10;" d="
				M332.138,184.014c0.121,1.507-1.064,2.83-2.646,2.957c-1.582,0.126-2.962-0.992-3.082-2.498c-0.121-1.506,1.064-2.83,2.645-2.957
				C330.638,181.389,332.018,182.507,332.138,184.014z"/>
			<path style="fill:#FFFFFF;stroke:#263238;stroke-linecap:round;stroke-linejoin:round;stroke-miterlimit:10;" d="
				M340.538,172.362c0.121,1.506-1.064,2.83-2.645,2.957c-1.581,0.126-2.962-0.992-3.082-2.498c-0.12-1.507,1.064-2.83,2.645-2.957
				C339.038,169.737,340.418,170.855,340.538,172.362z"/>
			<path style="fill:#FFFFFF;stroke:#263238;stroke-linecap:round;stroke-linejoin:round;stroke-miterlimit:10;" d="
				M346.441,159.101c0.12,1.506-1.064,2.83-2.646,2.957c-1.582,0.126-2.962-0.992-3.082-2.498c-0.12-1.506,1.064-2.83,2.646-2.957
				C344.94,156.476,346.32,157.595,346.441,159.101z"/>
			<path style="fill:#FFFFFF;stroke:#263238;stroke-linecap:round;stroke-linejoin:round;stroke-miterlimit:10;" d="M342.45,192.338
				c0.12,1.507-1.064,2.83-2.645,2.957c-1.582,0.127-2.962-0.992-3.082-2.498c-0.12-1.506,1.064-2.83,2.646-2.957
				C340.949,189.714,342.329,190.832,342.45,192.338z"/>
			<path style="fill:#FFFFFF;stroke:#263238;stroke-linecap:round;stroke-linejoin:round;stroke-miterlimit:10;" d="
				M316.177,159.032c0.121,1.506-1.064,2.83-2.645,2.956c-1.582,0.127-2.961-0.992-3.082-2.498c-0.121-1.506,1.064-2.83,2.645-2.957
				C314.677,156.407,316.057,157.526,316.177,159.032z"/>
		</g>
	</g>
	<g>
		<path style="fill:#263238;stroke:#263238;stroke-linecap:round;stroke-linejoin:round;stroke-miterlimit:10;" d="M199.201,185.982
			c0,0-9.814-0.755-12.834,1.887c-3.02,2.642-12.457,18.874-13.967,27.178s9.437,14.344,11.324,16.232
			c1.887,1.887,4.907,13.589,3.02,15.854c-1.887,2.265-6.04,2.265-6.04,2.265s0.755,3.775,10.947,5.285
			c10.192,1.51,15.248-2.338,15.248-2.338s-17.135-35.033-4.679-46.357C214.677,194.664,206.373,184.472,199.201,185.982z"/>
		<path style="fill:#FFFFFF;stroke:#263238;stroke-linecap:round;stroke-linejoin:round;stroke-miterlimit:10;" d="M218.031,255.911
			c0,0,4.689,16.232,11.904,16.232c7.214,0,11.182-12.986,11.182-24.89c0-11.904-11.182-9.379-16.954-6.132
			C218.391,244.368,218.031,255.911,218.031,255.911z"/>
		<polygon style="fill:#263238;stroke:#263238;stroke-linecap:round;stroke-linejoin:round;stroke-miterlimit:10;" points="
			226.597,247.183 221.325,263.789 218.031,255.911 		"/>
		<g>
			<g>
				<path style="fill:#FFFFFF;stroke:#263238;stroke-linecap:round;stroke-linejoin:round;stroke-miterlimit:10;" d="
					M195.169,201.068c0,0-6.637,5.158-9.181,16.897c-2.545,11.739,7.04,31.82,8.275,33.757c1.235,1.937,10.245,8.896,11.816,9.513
					s5.513,0.933,7.983-0.274c2.47-1.207,18.529-20.799,18.703-22.074c0.174-1.274-13.154-26.689-14.03-27.324
					C217.86,210.929,199.289,207.115,195.169,201.068z"/>
				<path style="fill:none;stroke:#263238;stroke-width:2;stroke-linecap:round;stroke-linejoin:round;stroke-miterlimit:10;" d="
					M198.796,230.554c-3.304-2.365-6.804,0.784-6.804,0.784"/>
				<path style="fill:none;stroke:#263238;stroke-width:2;stroke-linecap:round;stroke-linejoin:round;stroke-miterlimit:10;" d="
					M208.999,228.521c0,0,2.88-3.134,6.434-0.994"/>
				<path style="fill:#263238;stroke:#263238;stroke-linecap:round;stroke-linejoin:round;stroke-miterlimit:10;" d="
					M199.819,226.91c0,0-3.634-2.252-5.547-3.437c-1.913-1.185-4.525,1.419-4.525,1.419s2.314-0.809,3.785,0.498
					C195.002,226.697,199.386,229.941,199.819,226.91z"/>
				<path style="fill:#263238;stroke:#263238;stroke-linecap:round;stroke-linejoin:round;stroke-miterlimit:10;" d="
					M205.917,225.33c0,0,2.578-3.411,3.935-5.206c1.357-1.795,4.732-0.308,4.732-0.308s-2.451,0.079-3.351,1.829
					C210.333,223.394,207.414,228.001,205.917,225.33z"/>
				<path style="fill:none;stroke:#263238;stroke-linecap:round;stroke-linejoin:round;stroke-miterlimit:10;" d="M201.909,240.147
					c0,0,3.079,2.115,4.844,1.16c1.765-0.955,2.84-3.279,2.84-3.279"/>
				<g>
					<path style="fill:none;stroke:#263238;stroke-linecap:round;stroke-linejoin:round;stroke-miterlimit:10;" d="M214.8,246.938
						c-1.048-1.569-2.927-2.36-4.807-2.207c-1.613,0.131-3.772,0.472-5.598,1.331c-3.412,1.606-4.12,3.742-3.802,4.586
						c0.318,0.844,1.434,3.504,4.427,1.767c2.355-1.368,3.782-1.906,6.722-0.924c2.941,0.982,3.906-1.149,3.639-3.138
						C215.314,247.857,215.094,247.378,214.8,246.938z"/>
					<path style="fill:none;stroke:#263238;stroke-linecap:round;stroke-linejoin:round;stroke-miterlimit:10;" d="M200.593,250.65
						c0,0,1.996-0.62,4.506-1.092"/>
					
						<line style="fill:none;stroke:#263238;stroke-linecap:round;stroke-linejoin:round;stroke-miterlimit:10;" x1="215.381" y1="248.354" x2="210.452" y2="248.631"/>
				</g>
			</g>
		</g>
		<path style="fill:#263238;stroke:#263238;stroke-linecap:round;stroke-linejoin:round;stroke-miterlimit:10;" d="M194.671,207.498
			c0,0,16.986,12.457,25.291,14.344c8.304,1.887,9.814,14.722,7.927,19.251c-1.887,4.53-6.04,4.53-6.04,4.53
			s-4.152,2.642,9.06,5.285s15.099-4.53,19.251-9.437c4.152-4.907,7.55-12.834,5.285-21.139
			c-2.265-8.305-20.236-26.712-24.766-31.997c-4.53-5.285-16.379-7.639-26.194-5.374c-9.814,2.265-10.569,5.285-13.589,13.212
			S194.671,207.498,194.671,207.498z"/>
	</g>
</g>
<g id="Lines">
	<g>
		<path style="fill:none;stroke:#263238;stroke-linecap:round;stroke-linejoin:round;stroke-miterlimit:10;" d="M81.826,123.786
			c-0.963,1.573-1.93,3.244-2.889,5.016"/>
		<path style="fill:none;stroke:#263238;stroke-linecap:round;stroke-linejoin:round;stroke-miterlimit:10;" d="M98.077,103.99
			c0,0-6.456,5.072-13.788,15.961"/>
		<path style="fill:none;stroke:#263238;stroke-linecap:round;stroke-linejoin:round;stroke-miterlimit:10;" d="M80.355,114.623
			c0,0-11.342,13.469-13.469,26.23"/>
		
			<line style="fill:none;stroke:#263238;stroke-linecap:round;stroke-linejoin:round;stroke-miterlimit:10;" x1="415.886" y1="152.927" x2="418.502" y2="156.449"/>
		
			<line style="fill:none;stroke:#263238;stroke-linecap:round;stroke-linejoin:round;stroke-miterlimit:10;" x1="400.071" y1="131.637" x2="412.684" y2="148.617"/>
		
			<line style="fill:none;stroke:#263238;stroke-linecap:round;stroke-linejoin:round;stroke-miterlimit:10;" x1="403.615" y1="123.839" x2="422.047" y2="148.651"/>
		<path style="fill:none;stroke:#263238;stroke-linecap:round;stroke-linejoin:round;stroke-miterlimit:10;" d="M347.688,250.452
			c-4.942,6.596-10.11,13.151-13.545,16.586"/>
		<path style="fill:none;stroke:#263238;stroke-linecap:round;stroke-linejoin:round;stroke-miterlimit:10;" d="M361.79,230.884
			c0,0-5.299,7.655-11.561,16.148"/>
		<path style="fill:none;stroke:#263238;stroke-linecap:round;stroke-linejoin:round;stroke-miterlimit:10;" d="M358.245,246.48
			c0,0-14.887,21.267-22.685,26.938"/>
		<path style="fill:none;stroke:#263238;stroke-linecap:round;stroke-linejoin:round;stroke-miterlimit:10;" d="M100.913,245.062
			c0,0,14.887,17.014,27.647,21.267"/>
		<path style="fill:none;stroke:#263238;stroke-linecap:round;stroke-linejoin:round;stroke-miterlimit:10;" d="M122.677,272.5
			c1.463,0.63,2.959,1.184,4.465,1.627"/>
		<path style="fill:none;stroke:#263238;stroke-linecap:round;stroke-linejoin:round;stroke-miterlimit:10;" d="M103.749,259.949
			c0,0,6.878,6.448,15.613,10.976"/>
	</g>
</g>
</svg>
