<?xml version="1.0" encoding="utf-8"?>
<!-- Generator: Adobe Illustrator 27.5.0, SVG Export Plug-In . SVG Version: 6.00 Build 0)  -->
<svg version="1.1" xmlns="http://www.w3.org/2000/svg" xmlns:xlink="http://www.w3.org/1999/xlink" x="0px" y="0px"
	 viewBox="0 0 500 500" style="enable-background:new 0 0 500 500;" xml:space="preserve">
<g id="Background_Simple">
	<g>
		<path style="fill:#263238;" d="M332.187,51.137c0,0-77.157-37.728-153.108-1.323C103.129,86.218,64.611,171.846,31.549,240.175
			c-33.062,68.329-14.365,144.059,43.416,184.453c57.781,40.393,97.279-4.312,178.48,2.947
			c81.201,7.259,103.003,21.918,170.515-17.716c67.513-39.634,80.018-150.727,27.111-240.326
			C398.165,79.934,332.187,51.137,332.187,51.137z"/>
	</g>
</g>
<g id="Labyrinth">
	<g>
		<line style="fill:none;stroke:#4F4F4F;stroke-width:3;stroke-miterlimit:10;" x1="211.228" y1="44" x2="211.228" y2="189.886"/>
		<polyline style="fill:none;stroke:#4F4F4F;stroke-width:3;stroke-miterlimit:10;" points="181.17,98.605 241.286,98.605 
			241.286,159.731 303.026,159.731 		"/>
		<polyline style="fill:none;stroke:#4F4F4F;stroke-width:3;stroke-miterlimit:10;" points="332.272,60.3 332.272,130.391 
			303.026,130.391 303.026,255.087 472,255.087 		"/>
		
			<line style="fill:none;stroke:#4F4F4F;stroke-width:3;stroke-miterlimit:10;" x1="303.026" y1="192.331" x2="452.503" y2="192.331"/>
		
			<line style="fill:none;stroke:#4F4F4F;stroke-width:3;stroke-miterlimit:10;" x1="336.334" y1="161.361" x2="440.317" y2="161.361"/>
		<polyline style="fill:none;stroke:#4F4F4F;stroke-width:3;stroke-miterlimit:10;" points="364.767,161.361 364.767,131.206 
			396.449,131.206 396.449,115.721 		"/>
		<line style="fill:none;stroke:#4F4F4F;stroke-width:3;stroke-miterlimit:10;" x1="332.272" y1="97.79" x2="363.142" y2="97.79"/>
		<polyline style="fill:none;stroke:#4F4F4F;stroke-width:3;stroke-miterlimit:10;" points="272.969,98.605 303.026,98.605 
			303.026,47.26 		"/>
		
			<line style="fill:none;stroke:#4F4F4F;stroke-width:3;stroke-miterlimit:10;" x1="272.156" y1="46.445" x2="272.156" y2="132.021"/>
		
			<line style="fill:none;stroke:#4F4F4F;stroke-width:3;stroke-miterlimit:10;" x1="243.723" y1="69.265" x2="272.969" y2="69.265"/>
		<line style="fill:none;stroke:#4F4F4F;stroke-width:3;stroke-miterlimit:10;" x1="150.3" y1="79.045" x2="150.3" y2="192.331"/>
		<polyline style="fill:none;stroke:#4F4F4F;stroke-width:3;stroke-miterlimit:10;" points="60.127,199.666 60.127,222.487 
			86.935,222.487 86.935,192.331 180.358,192.331 180.358,224.932 241.286,224.932 241.286,193.961 273.781,193.961 
			273.781,255.902 150.3,255.902 		"/>
		<polyline style="fill:none;stroke:#4F4F4F;stroke-width:3;stroke-miterlimit:10;" points="150.3,224.932 150.3,285.242 
			60.127,285.242 		"/>
		<polyline style="fill:none;stroke:#4F4F4F;stroke-width:3;stroke-miterlimit:10;" points="88.56,286.057 88.56,406.678 
			150.3,406.678 		"/>
		
			<line style="fill:none;stroke:#4F4F4F;stroke-width:3;stroke-miterlimit:10;" x1="87.747" y1="346.368" x2="56.877" y2="346.368"/>
		<line style="fill:none;stroke:#4F4F4F;stroke-width:3;stroke-miterlimit:10;" x1="24.382" y1="316.212" x2="57.69" y2="316.212"/>
		<polyline style="fill:none;stroke:#4F4F4F;stroke-width:3;stroke-miterlimit:10;" points="35.756,253.457 119.43,253.457 
			119.43,224.117 		"/>
		<polyline style="fill:none;stroke:#4F4F4F;stroke-width:3;stroke-miterlimit:10;" points="120.243,375.708 120.243,315.397 
			242.911,315.397 242.911,286.057 364.767,286.057 364.767,315.397 394.825,315.397 394.825,223.302 428.132,223.302 		"/>
		<polyline style="fill:none;stroke:#4F4F4F;stroke-width:3;stroke-miterlimit:10;" points="334.709,224.117 367.204,224.117 
			367.204,192.331 		"/>
		<polyline style="fill:none;stroke:#4F4F4F;stroke-width:3;stroke-miterlimit:10;" points="458.19,362.668 458.19,285.242 
			426.507,285.242 426.507,347.998 243.723,347.998 243.723,378.968 211.228,378.968 211.228,424.608 		"/>
		
			<line style="fill:none;stroke:#4F4F4F;stroke-width:3;stroke-miterlimit:10;" x1="210.416" y1="408.308" x2="179.546" y2="408.308"/>
		<polyline style="fill:none;stroke:#4F4F4F;stroke-width:3;stroke-miterlimit:10;" points="211.228,347.998 150.3,347.998 
			150.3,434.389 		"/>
		
			<line style="fill:none;stroke:#4F4F4F;stroke-width:3;stroke-miterlimit:10;" x1="181.17" y1="348.813" x2="181.17" y2="379.783"/>
		
			<line style="fill:none;stroke:#4F4F4F;stroke-width:3;stroke-miterlimit:10;" x1="181.983" y1="316.212" x2="181.983" y2="286.872"/>
		
			<line style="fill:none;stroke:#4F4F4F;stroke-width:3;stroke-miterlimit:10;" x1="211.228" y1="255.902" x2="211.228" y2="286.872"/>
		<polyline style="fill:none;stroke:#4F4F4F;stroke-width:3;stroke-miterlimit:10;" points="242.098,426.238 242.098,409.123 
			272.156,409.123 		"/>
		
			<line style="fill:none;stroke:#4F4F4F;stroke-width:3;stroke-miterlimit:10;" x1="273.781" y1="427.868" x2="273.781" y2="378.968"/>
		<polyline style="fill:none;stroke:#4F4F4F;stroke-width:3;stroke-miterlimit:10;" points="303.839,347.998 303.839,409.123 
			365.579,409.123 365.579,431.129 		"/>
		
			<line style="fill:none;stroke:#4F4F4F;stroke-width:3;stroke-miterlimit:10;" x1="335.521" y1="378.153" x2="449.254" y2="378.153"/>
		
			<line style="fill:none;stroke:#4F4F4F;stroke-width:3;stroke-miterlimit:10;" x1="396.449" y1="378.968" x2="396.449" y2="409.938"/>
		
			<line style="fill:none;stroke:#4F4F4F;stroke-width:3;stroke-miterlimit:10;" x1="333.897" y1="348.813" x2="333.897" y2="316.212"/>
		
			<line style="fill:none;stroke:#4F4F4F;stroke-width:3;stroke-miterlimit:10;" x1="303.839" y1="286.057" x2="303.839" y2="316.212"/>
		
			<line style="fill:none;stroke:#4F4F4F;stroke-width:3;stroke-miterlimit:10;" x1="272.969" y1="347.183" x2="272.969" y2="317.027"/>
		
			<line style="fill:none;stroke:#4F4F4F;stroke-width:3;stroke-miterlimit:10;" x1="211.228" y1="161.361" x2="181.17" y2="161.361"/>
		
			<line style="fill:none;stroke:#4F4F4F;stroke-width:3;stroke-miterlimit:10;" x1="179.546" y1="130.391" x2="151.925" y2="130.391"/>
		<polyline style="fill:none;stroke:#4F4F4F;stroke-width:3;stroke-miterlimit:10;" points="79.624,161.361 119.43,161.361 
			119.43,110.016 		"/>
		
			<line style="fill:none;stroke:#4F4F4F;stroke-width:3;stroke-miterlimit:10;" x1="56.065" y1="375.708" x2="56.065" y2="400.973"/>
	</g>
</g>
<g id="Light">
	<g>
		<path style="opacity:0.2;fill:#FFFFFF;" d="M355.236,64.558c-14.032-9.481-23.049-13.421-23.049-13.421
			s-77.157-37.728-153.108-1.323c-16.581,7.948-31.378,18.242-44.724,30.19L51.189,403.701c6.977,7.703,14.915,14.732,23.776,20.927
			c57.781,40.393,97.279-4.312,178.48,2.947c81.201,7.259,103.003,21.918,170.515-17.716c6.056-3.555,11.661-7.694,16.824-12.332
			L355.236,64.558z"/>
		<g>
			<line style="fill:none;stroke:#263238;stroke-miterlimit:10;" x1="125.821" y1="112.831" x2="130.868" y2="93.116"/>
			<line style="fill:none;stroke:#263238;stroke-miterlimit:10;" x1="61.235" y1="365.139" x2="123.384" y2="122.353"/>
			<line style="fill:none;stroke:#263238;stroke-miterlimit:10;" x1="56.064" y1="385.342" x2="57.829" y2="378.445"/>
			<line style="fill:none;stroke:#263238;stroke-miterlimit:10;" x1="394.853" y1="219.547" x2="433.58" y2="371.36"/>
			<line style="fill:none;stroke:#263238;stroke-miterlimit:10;" x1="363.67" y1="97.311" x2="392.38" y2="209.855"/>
		</g>
	</g>
</g>
<g id="Character">
	<g>
		<ellipse style="fill:#263238;stroke:#263238;stroke-miterlimit:10;" cx="238.327" cy="458.487" rx="112.167" ry="12.942"/>
		<g>
			<g>
				<path style="fill:#263238;stroke:#263238;stroke-miterlimit:10;" d="M244.146,456.475h5.842l12.029-84.544h49.146l4.105,84.845
					h4.839l4.045-175.958c0.038-1.671-1.314-3.042-2.984-3.026l-72.554,0.66l-34.135,93.718l38.506-0.232L244.146,456.475z"/>
				<polygon style="fill:#8C8C8C;stroke:#263238;stroke-miterlimit:10;" points="315.974,283.263 248.885,283.263 253.265,360.933 
					313.225,360.933 				"/>
			</g>
			<polygon style="fill:#CCCCCC;stroke:#263238;stroke-miterlimit:10;" points="150.275,285.901 149.143,203.816 256.136,203.816 
				264.062,341.379 155.936,341.379 			"/>
			<path style="fill:#263238;stroke:#263238;stroke-miterlimit:10;" d="M149.143,203.816c0,0,8.492,3.963,11.888,36.797
				c3.397,32.834,4.529,81.519,4.529,81.519l-15.742-16.039L149.143,203.816z"/>
			<path style="fill:#B8B8B8;stroke:#263238;stroke-miterlimit:10;" d="M306.017,367.986h-99.195c-1.841,0-3.333-1.492-3.333-3.333
				v-23.337c0-1.841,1.492-3.333,3.333-3.333h99.195c1.841,0,3.333,1.492,3.333,3.333v23.337
				C309.35,366.493,307.858,367.986,306.017,367.986z"/>
			<rect x="203.489" y="337.983" style="fill:#263238;stroke:#263238;stroke-miterlimit:10;" width="77.988" height="30.003"/>
			<g>
				<g>
					<path style="fill:#92E3A9;stroke:#263238;stroke-miterlimit:10;" d="M235.245,187.97c0,0-12.415,4.382-17.771,8.52
						c-5.356,4.138-7.303,17.771-3.895,30.429c3.408,12.659,1.461,16.797-1.461,25.804c-2.921,9.007-27.265,26.291-33.351,40.897
						c-6.086,14.606-2.191,30.186,7.06,39.68c9.251,9.494,31.647,10.224,38.463,10.224c6.816,0,14.119-0.487,14.119-0.487
						s21.422-0.974,37.733-5.356c16.31-4.382,27.265-18.745,23.126-28.725c-4.138-9.981-17.771-12.415-23.613-14.606
						c-5.842-2.191-12.902-7.06-15.093-8.764c-2.191-1.704-4.625-3.895-4.625-3.895s4.139-6.086,8.033-7.79
						c3.895-1.704,14.85,1.948,22.64-15.823c0,0,1.704-6.086,0.974-11.441c-0.73-5.356,0-9.251,0.243-18.258
						c0.243-9.007,8.033-16.067,6.816-26.778c-1.217-10.711-20.449-21.422-37.733-18.258
						C239.626,186.509,235.245,187.97,235.245,187.97z"/>
					<g>
						<path style="fill:none;stroke:#263238;stroke-miterlimit:10;" d="M197.646,292.482c0,0,21.674-10.726,47.393,2.365"/>
						<path style="fill:none;stroke:#263238;stroke-miterlimit:10;" d="M201.327,286.839c0,0,10.937-3.203,23.798,1.472"/>
					</g>
				</g>
				<g>
					<path style="fill:#FFFFFF;stroke:#263238;stroke-miterlimit:10;" d="M253.105,189.907c-0.579,9.459-2.44,42.426-0.767,50.234
						c1.959,9.142,18.284,12.407,25.467,7.183c7.183-5.224,9.724-28.7,11.101-43.098c0.495-5.18-1.908-10.856-5.362-16.005
						c-7.334-4.227-17.267-6.592-26.634-4.876c-0.54,0.099-1.068,0.196-1.584,0.292c-1.242,2.151-2.061,3.723-2.061,3.723
						S253.204,188.29,253.105,189.907z"/>
					<path style="fill:#FFFFFF;stroke:#263238;stroke-miterlimit:10;" d="M249.073,192.472l-4.032-6.823
						c-7.561,1.576-9.797,2.321-9.797,2.321s-12.415,4.382-17.771,8.52c-5.356,4.138-7.303,17.771-3.895,30.429
						c1.668,6.195,2.051,10.348,1.667,14.031c7.243,3.693,18.992,8.169,23.38,1.149
						C245.155,231.651,249.073,192.472,249.073,192.472z"/>
				</g>
				<path style="fill:#FFFFFF;stroke:#263238;stroke-miterlimit:10;" d="M222.099,193.812c0,0-12.659,3.408-15.093,20.449
					c-2.434,17.04,15.58,44.792,19.962,53.556c4.382,8.764,16.797,28.969,22.639,31.16c5.842,2.191,11.928-8.764,11.928-20.449
					s-15.337-34.325-19.475-43.819c-4.138-9.494-7.06-24.1-7.06-24.1"/>
				<path style="fill:#FFFFFF;stroke:#263238;stroke-miterlimit:10;" d="M312.657,214.018c0,0-2.434,27.021-4.625,42.845
					c-2.191,15.823-5.842,30.673-11.442,35.542c-5.599,4.869-18.501,0.73-19.475-9.737c-0.974-10.468,4.869-21.666,7.79-32.133
					c2.921-10.468,6.816-29.456,7.06-34.325C292.209,211.34,309.493,205.01,312.657,214.018z"/>
				<g>
					<path style="fill:#263238;stroke:#263238;stroke-miterlimit:10;" d="M242.572,149.52c0,0,0,3.016-9.597,9.323
						c-9.597,6.307-20.291,15.081-20.291,25.227c0,10.146,4.661,12.888,11.517,13.436c6.855,0.548,11.791-3.565,11.791-3.565
						s-2.194,5.484,5.484,12.339c7.678,6.855,13.984,6.307,17.275,4.936c3.29-1.371,30.985,10.146,41.679,9.049
						c10.694-1.097,17.549-3.016,16.726-14.807c0,0,9.871,4.387,17.275-4.387c7.404-8.775,2.468-18.372-4.661-26.049
						c-7.129-7.678-10.42-27.969-16.452-38.937c-6.033-10.968-26.652-22.347-46.669-14.67
						C246.63,129.092,246.41,144.858,242.572,149.52z"/>
					<g>
						<path style="fill:none;stroke:#8F8F8F;stroke-miterlimit:10;" d="M294.664,148.11c0,0,11.618,18.345,25.682,22.625"/>
						<path style="fill:none;stroke:#8F8F8F;stroke-miterlimit:10;" d="M321.335,184.217c8.532,6.006,14.126,10.129,10.019,14.647"
							/>
						<path style="fill:none;stroke:#8F8F8F;stroke-miterlimit:10;" d="M289.246,149.189c3.788,7.391,9.969,17.496,18.26,24.604
							c2.674,2.292,5.375,4.361,7.966,6.252"/>
						<path style="fill:none;stroke:#8F8F8F;stroke-miterlimit:10;" d="M284.88,139.55c0,0,0.503,1.359,1.486,3.594"/>
						<path style="fill:none;stroke:#8F8F8F;stroke-miterlimit:10;" d="M257.344,169.873c-2.982,0.709-5.379,0.863-6.095,0.863"/>
						<path style="fill:none;stroke:#8F8F8F;stroke-miterlimit:10;" d="M278.766,127.931c0,0-2.551,25.342-7.338,33.02
							c-2.234,3.584-5.704,5.872-9.152,7.326"/>
						<path style="fill:none;stroke:#8F8F8F;stroke-miterlimit:10;" d="M224.091,189.777c1.773,0.394,3.641,0.345,5.144-0.085"/>
						<path style="fill:none;stroke:#8F8F8F;stroke-miterlimit:10;" d="M271.052,140.43c-1.475,6.166-4.253,13.598-9.409,17.464
							c-9.784,7.338-30.574,4.892-38.524,14.676c-5.509,6.781-5.83,11.345-3.998,14.103"/>
						<path style="fill:none;stroke:#8F8F8F;stroke-miterlimit:10;" d="M272.651,130.377c0,0-0.123,2.034-0.605,5.045"/>
						<path style="fill:none;stroke:#8F8F8F;stroke-miterlimit:10;" d="M312.745,193.469c1.909,2.229,3.168,4.783,3.321,7.841"/>
						<path style="fill:none;stroke:#8F8F8F;stroke-miterlimit:10;" d="M280.6,154.225c0,0,3.029,15.806,9.784,23.237
							c4.323,4.755,13.382,8.183,19.504,13.241"/>
					</g>
					<path style="fill:#FFFFFF;stroke:#263238;stroke-miterlimit:10;" d="M274.379,166.795c0,0-0.548,7.952-4.387,9.597
						c-3.839,1.645-9.597-0.548-9.597-0.548S272.186,172.827,274.379,166.795z"/>
					<g>
						<g>
							<path style="fill:#FFFFFF;stroke:#263238;stroke-miterlimit:10;" d="M277.67,165.424c0,0,1.919,6.855-4.661,11.516
								c-6.581,4.661-12.888,0.548-12.888,0.548s-2.194,7.129-4.936,18.097c-2.742,10.968,4.387,20.565,7.952,25.775
								c3.565,5.21,10.156,7.12,12.898,5.749s5.748-4.378,13.7-10.685s12.339-18.097,12.613-18.92S278.218,180.505,277.67,165.424z"
								/>
						</g>
						<path style="fill:none;stroke:#263238;stroke-miterlimit:10;" d="M287.249,199.534c0,0-1.996,15.964-4.846,20.24
							c-1.22,1.83-5.673-1.008-5.673-1.008"/>
					</g>
				</g>
				<path style="fill:#8F8F8F;stroke:#263238;stroke-miterlimit:10;" d="M276.144,307.597c0,0-2.761,12.634-6.441,16.597
					c-3.68,3.963-10.171-3.195-10.171-3.195s-9.985,18.914-8.287,20.046s18.433,2.089,28.906-3.006s9.385-26.098,6.555-29.777
					C283.875,304.582,280.107,304.484,276.144,307.597z"/>
				<g>
					<path style="fill:#FFFFFF;stroke:#263238;stroke-miterlimit:10;" d="M245.073,301.596c0,0-11.331,5.804-16.03,30.677
						c-4.698,24.874-7.186,76.279-8.291,84.846c-1.105,8.567-3.04,30.401-3.04,33.994c0,3.593,1.935,4.146,5.804,5.251
						c3.869,1.105,9.673,1.658,17.411,3.593c7.738,1.935,21.557,0,26.255-1.658c4.698-1.658-0.276-8.568-7.186-12.713
						c-6.909-4.146-15.753-8.568-19.899-13.542c-4.146-4.975-3.04-13.542-2.764-17.135c0.276-3.593,18.793-61.907,22.663-72.41
						c3.869-10.502,10.226-23.215,7.462-33.441S251.429,296.898,245.073,301.596z"/>
					<g>
						<path style="fill:#FFFFFF;stroke:#263238;stroke-miterlimit:10;" d="M259.997,445.586
							c-6.909-4.146-15.753-8.568-19.899-13.542c-2.295-2.754-2.978-6.608-3.086-10.111c-9.759,2.194-14.303-1.729-16.274-4.706
							c-1.108,8.638-3.027,30.308-3.027,33.886c0,3.593,1.935,4.146,5.804,5.251c3.869,1.105,9.673,1.658,17.411,3.593
							c7.738,1.935,21.557,0,26.255-1.658C271.881,456.641,266.906,449.732,259.997,445.586z"/>
						<g>
							<path style="fill:#ADADAD;stroke:#263238;stroke-miterlimit:10;" d="M223.516,456.365c0.395,0.113,0.823,0.217,1.258,0.32
								c-0.003-2.993-0.624-8.256-4.298-13.033c-0.739-0.961-1.448-1.684-2.125-2.222c-0.381,4.634-0.638,8.374-0.638,9.684
								C217.712,454.706,219.646,455.259,223.516,456.365z"/>
							<path style="fill:#ADADAD;stroke:#263238;stroke-miterlimit:10;" d="M249.985,460.756c6.777-0.108,14.043-1.344,17.197-2.457
								c3.239-1.143,1.88-4.781-1.539-8.289c-2.201,0.839-5.04,1.956-8.687,3.591C252.121,455.768,250.507,458.739,249.985,460.756z
								"/>
						</g>
					</g>
				</g>
				<g>
					<path style="fill:#FFFFFF;stroke:#263238;stroke-miterlimit:10;" d="M282.659,299.662c0,0-9.949,3.316-7.186,23.215
						s31.506,67.988,35.099,80.148c3.593,12.16,7.738,36.757,7.738,44.496s2.764,14.924,11.055,14.371
						c8.291-0.553,14.924-3.04,12.713-16.306c-2.211-13.266-10.226-35.099-13.266-43.943c-3.04-8.844-7.462-29.295-12.16-54.722
						c-4.698-25.426-7.462-33.165-13.542-41.732C297.031,296.622,285.699,297.451,282.659,299.662z"/>
					<g>
						<path style="fill:#FFFFFF;stroke:#263238;stroke-miterlimit:10;" d="M328.813,401.643c-0.398-1.157-0.819-2.517-1.262-4.056
							c-1.052,2.125-2.865,4.127-5.924,5.438c-3.981,1.706-7.632,2.007-10.553,1.771c3.466,12.635,7.237,35.344,7.237,42.725
							c0,7.738,2.764,14.924,11.055,14.371c8.291-0.553,14.924-3.04,12.713-16.306C339.868,432.32,331.854,410.487,328.813,401.643z
							"/>
						<path style="fill:#ADADAD;stroke:#263238;stroke-miterlimit:10;" d="M342.436,451.984c-9.332-1.869-18.92,0.646-23.311,2.099
							c1.327,4.76,4.416,8.197,10.241,7.809C336.098,461.443,341.737,459.718,342.436,451.984z"/>
					</g>
				</g>
				<g>
					<path style="fill:#FFFFFF;stroke:#263238;stroke-miterlimit:10;" d="M241.343,273.921c0.194-0.836,0.417-1.697,0.671-2.586
						c2.742-9.597,8.784-33.522,10.155-38.184c1.371-4.661,1.919-12.613,1.919-12.613s-2.468-20.291-3.29-24.13
						c-0.823-3.839,0.823-7.129,2.468-9.049c1.645-1.919,4.113-10.694,5.758-9.323s1.645,5.484,0.823,7.678
						s-3.016,6.581-3.016,6.581v2.742l12.339-13.984c0,0,3.291-3.016,4.113,2.468c0,0,1.645-3.839,4.661-2.742
						c3.016,1.097,1.097,5.21,1.097,5.21s2.742-0.823,3.29,1.919c0.548,2.742-3.565,17.001-3.565,17.001s2.742-6.307,3.839-9.597
						c1.097-3.29,2.742-3.839,3.016-1.919s0.274,7.952-1.919,12.888c-2.194,4.936-7.952,12.065-9.871,14.807
						c-1.919,2.742-5.484,5.758-5.484,6.855c0,1.097-0.548,51.276-0.823,58.131c-0.274,6.855-0.823,9.049-7.129,12.339
						c-6.307,3.29-13.73,0.447-17.021-5.311c-0.743-1.3-1.359-2.633-1.837-4.029"/>
					<line style="fill:none;stroke:#263238;stroke-miterlimit:10;" x1="279.041" y1="185.989" x2="271.911" y2="204.36"/>
					<line style="fill:none;stroke:#263238;stroke-miterlimit:10;" x1="273.282" y1="183.521" x2="264.234" y2="201.618"/>
					<path style="fill:none;stroke:#263238;stroke-miterlimit:10;" d="M256.83,195.038c0,0-2.468,4.661-2.468,6.033"/>
				</g>
				<g>
					<path style="fill:#FFFFFF;stroke:#263238;stroke-miterlimit:10;" d="M286.992,221.087c0-5.484-0.823-22.485-0.823-23.581
						c0-1.097,0.548-3.565,1.919-3.565c1.371,0,2.194,2.742,2.194,3.565s0-5.758,0-7.678c0-1.919,2.194-2.742,3.29-1.371
						c1.097,1.371,1.097,1.371,1.097,1.371s-1.097-4.936,2.468-4.936c3.565,0,4.661,5.21,4.661,5.21s2.742,0,3.839,2.194
						s3.565,14.533,4.387,17.823c0.823,3.29-3.016,10.968-5.758,18.097c-2.742,7.129-4.387,21.936-3.016,33.179
						c1.371,11.242,2.742,18.372,0,24.13c-2.742,5.758-4.387,9.871-13.436,10.146c-9.049,0.274-10.694-5.21-12.613-13.71
						s6.855-25.227,10.146-35.646c3.29-10.42,4.113-16.452,3.29-18.646C287.815,225.474,286.992,221.087,286.992,221.087z"/>
					<path style="fill:none;stroke:#263238;stroke-miterlimit:10;" d="M290.283,197.505c0,0,2.742,9.871,2.468,16.178"/>
					<path style="fill:none;stroke:#263238;stroke-miterlimit:10;" d="M294.67,189.828c0,0,4.661,12.065,4.661,22.21"/>
					<path style="fill:none;stroke:#263238;stroke-miterlimit:10;" d="M301.799,190.102c0,0,3.565,13.71,4.661,20.291"/>
				</g>
			</g>
			<g>
				<path style="fill:#263238;stroke:#263238;stroke-miterlimit:10;" d="M141.122,456.414h5.844l12.02-84.483h49.146l4.088,84.483
					h4.865l4.037-175.596c0.038-1.671-1.314-3.042-2.985-3.026l-72.554,0.66l5.155,91.418L141.122,456.414z"/>
				<polygon style="fill:#8C8C8C;stroke:#263238;stroke-miterlimit:10;" points="212.943,283.263 145.854,283.263 150.234,360.933 
					210.194,360.933 				"/>
			</g>
		</g>
	</g>
</g>
</svg>
