<?xml version="1.0" encoding="utf-8"?>
<!-- Generator: Adobe Illustrator 27.5.0, SVG Export Plug-In . SVG Version: 6.00 Build 0)  -->
<svg version="1.1" xmlns="http://www.w3.org/2000/svg" xmlns:xlink="http://www.w3.org/1999/xlink" x="0px" y="0px"
	 viewBox="0 0 500 500" style="enable-background:new 0 0 500 500;" xml:space="preserve">
<g id="Background_Complete">
	<g>
		<path style="fill:#EBEBEB;" d="M112.047,346.3c-1.56,2.751-2.781,5.859-2.455,9.005c0.326,3.146,2.589,6.257,5.723,6.683
			c2.313,0.315,4.625-0.858,6.272-2.512c1.647-1.655,2.757-3.755,3.892-5.795c5.366-9.639,13.156-17.44,20.581-25.599
			C132.527,327.114,118.74,334.498,112.047,346.3z"/>
	</g>
	<g>
		<path style="fill:#EBEBEB;" d="M452.238,213.439c-8.703-4.291-19.402-0.235-26.808,6.035c-7.406,6.27-12.879,14.575-20.3,20.826
			c-13.232,11.146-32.489,14.638-48.792,8.849l-2.296,0.235c9.504,8.684,20.361,15.885,32.058,21.262
			c13.961,6.417,29.921,10.225,44.727,6.115c16.779-4.657,30.066-19.983,32.297-37.253
			C464.412,229.533,461.259,217.887,452.238,213.439z"/>
	</g>
	<g>
		<path style="fill:#EBEBEB;" d="M91.1,193.175c-15.962-5.566-29.448-17.878-36.441-33.269c-6.993-15.391-7.397-33.647-1.09-49.332
			c3.765-9.363,11.824-18.777,21.865-17.769c9.594,0.963,15.726,11.135,17.024,20.689c1.875,13.8-2.955,27.493-5.861,41.113
			c-2.906,13.62-3.448,29.236,5.417,39.976"/>
	</g>
	<g>
		<path style="fill:#EBEBEB;" d="M270.804,104.46c1.565-3.503,6.506-4.675,10.122-5.959c3.616-1.284,7.487-2.167,10.534-4.499
			c5.609-4.294,6.822-12.047,9.095-18.734c1.538-4.525,3.845-8.961,7.596-11.923c3.751-2.962,9.176-4.145,13.422-1.95
			c4.826,2.495,6.794,8.346,7.574,13.722c1.055,7.272,0.519,15.369-4.289,20.925c-6.162,7.119-16.932,7.619-26.301,6.687
			C289.187,101.796,279.149,100.099,270.804,104.46"/>
	</g>
	<g>
		<g>
			<path style="fill:#EBEBEB;" d="M408.017,307.567c-5.827-13.552-16.94-24.732-30.431-30.691
				c7.626,6.842,12.247,23.853,11.224,34.037c-1.024,10.195-12.139,19.105-20.985,24.277c-3.75,2.193-7.962,3.654-11.313,6.418
				c-8.696,7.173-8.365,22.014-0.497,30.088c7.867,8.074,21.112,9.395,31.392,4.769c10.28-4.627,17.689-14.278,21.649-24.833
				C414.344,337.534,413.964,321.399,408.017,307.567z"/>
		</g>
	</g>
</g>
<g id="Background_Simple" style="display:none;">
	<path style="display:inline;fill:#F5F5F5;" d="M455.9,147.991c-3.914,5.153-7.828,10.306-11.742,15.458
		c-0.65-11.361-3.896-22.551-9.394-32.378c-2.606,7.271-8.523,13.159-15.604,15.526c2.462-48.689-32.254-93.545-75.22-112.635
		c-42.967-19.09-92.125-16.503-137.677-5.78c-29.541,6.954-58.978,17.506-82.867,36.937c-23.889,19.431-41.664,48.908-41.993,80.525
		c-2.551-4.925-5.102-9.849-7.653-14.774c-4.095,8.328-5.974,17.83-5.372,27.171c-3.903-5.64-7.806-11.281-11.709-16.921
		c-5.365,35.223,4.278,70.876,14.444,104.926c9.239,30.946,19.215,62.198,36.785,88.922c17.57,26.724,43.958,48.76,74.695,53.303
		l86.877,18.86c51.326-21.365,98.99-54.199,133.679-99.107S458.8,205.606,455.9,147.991z"/>
</g>
<g id="Shade">
	<g>
		<g>
			<path style="fill:#455A64;" d="M101.534,203.823c-32.914-13.194-43.25,29.608-43.25,29.608
				c-6.871,22.662-7.934,47.672,1.715,67.228c5.949,12.057,22.136,24.234,35.573,23.786c7.927-0.264,15.006-4.852,21.318-9.655
				c6.312-4.802,12.578-10.11,20.216-12.248c7.638-2.138,17.186-0.003,20.791,7.062c0.838-7.575-4.312-15.382-11.605-17.594
				c-6.997-2.122-14.563-3.414-21.783-2.263c-11.993,1.912-23.809-2.102-22.232-17.075c0,0,0.943-10.684,4.217-18.849
				C109.767,245.659,123.543,212.646,101.534,203.823z"/>
		</g>
		<g>
			<g>
				<path style="fill:#263238;" d="M80.883,214.044c-4.074,1.51-6.873,5.849-8.764,9.761c-0.519,1.072-1.012,2.229-0.881,3.413
					c0.131,1.184,1.124,2.355,2.31,2.251c1.506-0.132,2.13-1.931,2.655-3.348c0.966-2.604,2.751-4.898,5.037-6.477
					c0.788-0.544,1.644-1.014,2.289-1.72c0.646-0.706,1.05-1.736,0.714-2.632c-0.404-1.075-1.741-1.55-2.872-1.352
					c-1.131,0.199-2.099,0.901-3.019,1.589"/>
			</g>
			<g>
				<path style="fill:#263238;" d="M95.127,215.735c-4.074,1.51-6.873,5.85-8.764,9.761c-0.519,1.072-1.013,2.229-0.881,3.413
					c0.131,1.184,1.124,2.355,2.31,2.251c1.506-0.132,2.13-1.931,2.655-3.348c0.966-2.604,2.751-4.898,5.037-6.477
					c0.788-0.544,1.644-1.014,2.289-1.72c0.646-0.706,1.05-1.736,0.714-2.632c-0.404-1.075-1.741-1.55-2.872-1.352
					c-1.131,0.199-2.099,0.901-3.019,1.589"/>
			</g>
			<g>
				<path style="fill:#263238;" d="M79.356,233.113c-2.608-0.365-5.205,1.138-6.82,3.219c-1.614,2.081-2.417,4.666-3.089,7.212
					c-0.223,0.846-0.361,1.923,0.346,2.439c0.564,0.412,1.366,0.207,1.977-0.131c1.997-1.105,3.108-3.311,4.848-4.788
					c0.321-0.272,0.673-0.524,1.078-0.638c0.405-0.113,0.875-0.066,1.194,0.208c0.318,0.274,0.432,0.71,0.53,1.118
					c0.205,0.859,0.409,1.718,0.614,2.577c0.246,1.031,0.585,2.186,1.528,2.669c0.966,0.495,2.2,0.025,2.92-0.788
					c0.674-0.761,1.013-1.775,1.103-2.788c0.09-1.012-0.052-2.031-0.245-3.029c-0.378-1.954-0.986-3.936-2.296-5.435
					s-3.464-2.4-5.346-1.754"/>
			</g>
		</g>
	</g>
	<g>
		<g>
			<path style="fill:#455A64;" d="M345.115,267.229c-8.062-10.268-20.378-16.658-33.171-19.26
				c-18.467-3.756-37.622-0.15-56.409-1.627c-35.74-2.81-69.067-25.686-85.194-57.597c-9.261-30.749,0.073-40.874,10.356-52.329
				c10.29-11.465,23.66-19.746,37.49-26.534c10.105-4.96,22.061-10.114,31.173-16.723c1.633-1.184,3.233-2.862,4.759-4.894
				c4.03-5.364,6.241-11.423,6.827-17.543c1.805-18.841-12.329-35.493-31.143-37.564l-0.821-0.09
				c-13.659-1.586-21.074,1.126-30.887,3.28c-32.742,7.187-61.901,29.288-77.669,58.869c-15.768,29.581-21.197,65.107-8.911,96.295
				c5.123,13.006,23.317,47.128,35.161,54.552l0,0c13.941,13.266,31.775,22.474,50.439,27.539
				c23.891,6.483,49.135,6.575,73.715,3.636c12.113-1.448,24.368-3.62,36.427-1.776c12.059,1.844,24.215,8.652,28.605,20.033
				c4.39,11.382-2.458,26.812-14.586,28.126c12.943,1.702,26.002-7.303,30.579-19.529
				C356.431,291.865,353.177,277.497,345.115,267.229z"/>
		</g>
		<g>
			<path style="fill:#455A64;" d="M313.282,145.466c-3.081-2.368-14.499-7.046-14.499-7.046s12.731-2.407,18.75,1.943
				c6.019,4.35,15.119,11.067,15.119,11.067s-6.289-10.965-13.086-13.865c-4.909-2.094-11.874-4.564-15.365-5.774
				c-1.21-0.42-2.54-0.187-3.529,0.627c-1.603,1.319-4.725,3.15-9.89,3.415c-8.197,0.42-24.337-8.032-35.575-5.159
				c-11.238,2.873-32.199,35.785-40.468,36.011c-8.269,0.227-26.392-44.664-26.392-44.664l-8.743,13.955
				c0.818,1.014,23.375,60.306,39.447,50.354c16.072-9.952,24.03-39.3,34.398-40.969c10.369-1.669,22.465,6.007,24.048,7.895
				c1.584,1.888,5.921,2.908,5.143,6.716c-0.778,3.807-3.17,20.967-3.17,20.967s10.626-22.869,8.592-25.627
				c-2.034-2.758-2.591-6.947-2.591-6.947s4.901,1.689,6.484,5.935c1.584,4.245,11.34,22.149,11.34,22.149
				s-2.423-20.639-6.224-24.937c-3.801-4.298-6.497-6.809-6.497-6.809l6.607-1.146l13.588,4.604l11.548,13.278
				C322.318,161.44,316.364,147.834,313.282,145.466z"/>
		</g>
		<g>
			<path style="fill:#263238;" d="M217.927,96.596c-0.301-1.573-2.04-2.464-3.636-2.604c-1.596-0.141-3.208,0.226-4.799,0.042
				c-3.128-0.361-5.719-2.875-6.853-5.813c-1.134-2.938-1.011-6.222-0.409-9.313c0.225-1.156,0.516-2.329,0.364-3.496
				c-0.152-1.168-0.87-2.354-2.01-2.651c-0.634-0.165-1.343,0.081-1.804,0.528l0,0c-0.763,0.623-0.763,0.623-0.849,0.803
				c-3.686,5.087-3.895,13.507-0.785,18.877c3.21,5.543,9.987,8.782,16.316,7.799c1.127-0.175,2.269-0.488,3.169-1.189
				C217.531,98.878,218.141,97.717,217.927,96.596z"/>
		</g>
		<g>
			<path style="fill:#263238;" d="M215.232,57.714c0,0-13.341,11.56-6.897,16.41c6.444,4.851,7.953,3.493,7.953,3.493
				L215.232,57.714z"/>
		</g>
		<g>
			<path style="fill:#263238;" d="M237.113,93.688c0,0-14.612,4.712-16.214-2.392c-1.142-5.065,1.805-7.143,1.805-7.143
				L237.113,93.688z"/>
		</g>
	</g>
	<g>
		<g>
			<path style="fill:#455A64;" d="M426.906,142.835c-1.995-15.237-5.812-30.64-14.55-43.281
				c-8.738-12.641-23.149-22.139-38.511-21.751c-15.362,0.388-30.483,12.688-31.062,28.045
				c-0.429,11.384,6.456,21.604,13.151,30.821c6.695,9.217,13.787,19.202,13.869,30.594c0.082,11.392-10.812,23.341-21.59,19.65
				c-5.999-2.054-9.735-7.962-15.008-11.484c-10.102-6.745-25.786-2.312-30.861,8.724c1.259-1.896,10.741-7.267,19.307-4.483
				c22.938,7.453,18.537,26.273,36.635,34.203c21.886,9.589,50.278,0.23,62.17-20.495
				C429.065,178.377,429.152,159.985,426.906,142.835z"/>
		</g>
		<g>
			<path style="fill:#263238;" d="M394.08,110.22c-7.341,0.89-11.112,5.265-12.504,11.669c-0.186,0.854-0.291,1.775,0.092,2.654
				c0.383,0.879,1.396,1.677,2.389,1.61c1.354-0.091,1.752-1.519,2.023-2.678c0.603-2.576,1.952-5.027,4.362-6.4
				c2.41-1.374,6.015-1.434,8.642,0.337c1.138,0.768,2.219,1.894,3.548,1.935c1.249,0.038,2.107-1.024,2.064-2.132
				c-0.043-1.108-0.781-2.201-1.657-3.108C400.756,111.745,397.326,110.257,394.08,110.22z"/>
		</g>
		<g>
			<g>
				<path style="fill:#263238;" d="M381.084,87.729c5.72,1.272,10.253,6.558,13.497,11.438c0.889,1.338,1.761,2.793,1.802,4.399
					c0.041,1.606-1.07,3.352-2.675,3.431c-2.036,0.1-3.199-2.19-4.161-3.987c-1.768-3.303-4.572-6.042-7.915-7.732
					c-1.152-0.582-2.382-1.054-3.374-1.879c-0.992-0.826-1.721-2.128-1.436-3.386c0.343-1.51,2.043-2.39,3.59-2.332
					c1.547,0.058,2.97,0.82,4.325,1.57"/>
			</g>
			<g>
				<path style="fill:#263238;" d="M365.073,93.3c5.72,1.272,10.253,6.558,13.497,11.438c0.889,1.338,1.761,2.793,1.802,4.399
					c0.041,1.606-1.07,3.352-2.675,3.431c-2.036,0.1-3.199-2.19-4.161-3.987c-1.768-3.303-4.572-6.042-7.915-7.732
					c-1.152-0.582-2.382-1.054-3.374-1.879c-0.992-0.826-1.721-2.128-1.436-3.386c0.343-1.51,2.043-2.39,3.59-2.332
					c1.548,0.058,2.97,0.82,4.325,1.57"/>
			</g>
		</g>
	</g>
</g>
<g id="Floor">
	<g>
		<g>
			<path style="fill:#263238;" d="M439.427,450.825c0,0.144-84.377,0.26-188.438,0.26c-104.097,0-188.456-0.117-188.456-0.26
				c0-0.144,84.359-0.26,188.456-0.26C355.049,450.565,439.427,450.681,439.427,450.825z"/>
		</g>
	</g>
</g>
<g id="Character">
	<g>
		<g>
			<path style="fill:#263238;" d="M301.825,278.608c-1.926-6.127-3.851-12.254-5.777-18.381c-1.514-4.818-2.916-10.47,0.009-14.588
				c1.135-1.598,2.866-2.838,3.453-4.708c0.767-2.443-0.672-4.956-1.39-7.414c-1.594-5.46,0.41-11.225,1.394-16.828
				c0.983-5.603,0.393-12.424-4.443-15.42c-2.348-1.454-5.331-1.722-7.52-3.407c-3.117-2.4-3.65-6.785-5.171-10.413
				c-1.877-4.477-5.615-8.139-10.129-9.923c-4.514-1.785-9.746-1.668-14.177,0.315l-3.973,2.988
				c-5.234,14.95-5.748,31.125-5.156,46.954c0.592,15.829,2.236,31.676,1.113,47.476c-0.427,6.01-1.093,12.637,2.467,17.497
				c3.23,4.409,9.002,6.004,14.372,7.021c5.364,1.016,10.839,1.747,16.277,1.26c5.438-0.487,10.879-2.272,15.036-5.811
				c2.5-2.128,4.541-4.992,4.965-8.247C303.545,284.153,302.68,281.328,301.825,278.608z"/>
		</g>
		<g>
			<g>
				<path style="fill:#FFBE9D;" d="M293.882,276.882l30.434-27.204c0,0-24.617,1.831-39.563,3.502l-1.612-13.892
					c0,0,31.201-7.161,41.175-9.718c9.974-2.557,19.613-2.658,29.076-2.991c9.463-0.333,11.077,5.037,11.588,7.338
					c0.512,2.302,1.225,13.77-7.851,24.604c-6.878,8.211-43.554,47.261-43.554,47.261L293.882,276.882z"/>
			</g>
			<g>
				<g>
					<path style="fill:#EB996E;" d="M348.601,242.988c0.025,0.026-0.234,0.302-0.725,0.78c-0.242,0.243-0.548,0.531-0.93,0.833
						c-0.378,0.306-0.795,0.677-1.305,1.02c-0.986,0.734-2.239,1.498-3.69,2.234c-1.462,0.71-3.129,1.377-4.939,1.882
						c-1.816,0.486-3.59,0.76-5.211,0.893c-1.623,0.104-3.092,0.084-4.313-0.046c-0.613-0.036-1.16-0.143-1.642-0.214
						c-0.483-0.066-0.892-0.158-1.225-0.244c-0.666-0.162-1.029-0.268-1.021-0.303c0.02-0.098,1.496,0.248,3.915,0.394
						c1.209,0.082,2.653,0.064,4.247-0.065c1.591-0.157,3.329-0.44,5.113-0.917c1.777-0.497,3.418-1.137,4.867-1.811
						c1.437-0.7,2.69-1.42,3.689-2.105C347.439,243.962,348.534,242.914,348.601,242.988z"/>
				</g>
			</g>
		</g>
		<g>
			<g>
				<path style="fill:#FFBE9D;" d="M133.605,223.328c0,0-4.33,3.363-6.218,10.26c-2.771,10.123,7.815,19.776,7.815,19.776
					s45.885,43.842,46.196,44.464c0.311,0.622,11.504-32.646,11.504-32.646l-27.672-19.588c0,0,15.032,0.434,23.63,0.622
					c9.298,0.204,22.037,2.212,22.037,2.212v-17.1C210.897,231.328,148.529,216.177,133.605,223.328z"/>
			</g>
			<g>
				<g>
					<path style="fill:#EB996E;" d="M139.098,244.686c-0.011-0.011,0.055-0.101,0.211-0.243c0.155-0.143,0.412-0.327,0.779-0.498
						c0.728-0.34,1.945-0.551,3.356-0.227c1.417,0.291,2.93,1.069,4.692,1.563c1.767,0.509,3.78,0.796,5.907,0.859
						c4.262,0.088,8.133-0.439,10.939-0.615c1.403-0.108,2.542-0.174,3.329-0.2c0.788-0.026,1.224-0.023,1.226,0.013
						c0.002,0.036-0.429,0.102-1.211,0.189c-0.889,0.098-1.996,0.22-3.31,0.364c-2.795,0.268-6.655,0.856-10.989,0.769
						c-2.162-0.064-4.225-0.372-6.027-0.92c-1.814-0.54-3.298-1.346-4.64-1.665c-1.335-0.353-2.48-0.209-3.195,0.056
						C139.443,244.403,139.13,244.727,139.098,244.686z"/>
				</g>
			</g>
		</g>
		<g>
			<g>
				<path style="fill:#FF725E;" d="M359.353,258.468l-35.037-8.79l-29.874,21.104c0,0-5.063-3.036-8.051-1.656
					c-2.989,1.38-8.721,5.52-8.721,5.52l-10-5.244l-37.537,2.76l-6.984,6.072c0,0-1.457-3.588-3.723-1.932
					c-2.266,1.656-4.159,1.38-4.159,1.38s-2.247-6.348-6.939-8.832c-4.692-2.484-14.845-6.296-16.561-5.891
					c-1.715,0.406-13.697-11.005-13.697-11.005l-7.479-5.572c0,0-38.087,4.234-38.639,6.983
					c-0.552,2.749,8.974,16.974,10.906,16.974l6.403,2.099c0,0,1.723,7.728,7.486,12.973c5.762,5.244,25.359,18.68,25.359,18.68
					s-8.934,55.843-13.161,66.055c-4.227,10.212-7.539,23.461-6.435,36.157c1.104,12.696,6.435,49.13,6.435,49.13l28.342-8.832
					l111.784-3.312l21.253,4.968c0,0-1.38-29.809-2.484-45.818c-1.104-16.009-2.484-49.406-7.176-69.279
					c-4.692-19.873-3.588-29.07-3.588-29.07s34.501-32.756,37.261-37.173C357.096,262.501,360.477,261.568,359.353,258.468z"/>
			</g>
			<g style="opacity:0.3;">
				<path d="M297.19,335.018c0,0,12.169,21.426,13.13,33.563c0.961,12.137-9.844,31.791-9.844,31.791l-10.915-15.798L297.19,335.018
					z"/>
			</g>
			<g style="opacity:0.3;">
				<g>
					<path d="M208.111,333.338c-10.92,10.06-17.236,24.039-23.091,37.684c-5.652,13.171-11.184,26.554-13.572,40.686
						c-2.381,14.094-1.535,28.724,2.454,42.45l44.99-16.601l-3.781-55.52L208.111,333.338z"/>
				</g>
			</g>
			<g>
				<polygon style="fill:#263238;" points="201.389,402.802 215.111,382.036 289.561,384.573 300.476,400.372 250.888,432.031 				
					"/>
			</g>
			<g>
				<path style="fill:#FFFFFF;" d="M234.275,281.274l-8.718,14.286c0,0,0.011,11.321-2.025,16.122
					c-2.037,4.801-15.687,21.998-15.687,21.998l7.266,48.356c0,0,32.721,26.171,74.45,2.537l7.629-49.555
					c0,0-7.503-10.363-13.131-15.533c-5.628-5.17-9.005-18.045-10.016-25.188l-3.659-11.281
					C270.384,283.017,244.153,292.619,234.275,281.274z"/>
			</g>
			<g>
				<g>
					<path style="fill:#F5F5F5;" d="M269.661,343.305c-1.174-0.841-3.564-0.746-5.005-0.874c-5.116-1.156-9.687-5.033-14.994-5.128
						c-2.908-0.052-5.697,1.05-8.395,2.134c-3.484,1.4-6.971,2.802-10.362,4.415c-0.912,0.434-1.84,0.9-2.523,1.644
						c-0.683,0.744-1.078,1.836-0.737,2.787c0.349,0.973,1.388,1.567,2.415,1.682c1.028,0.115,2.056-0.161,3.047-0.457
						c5.101-1.521,10.209-3.651,15.521-3.308c5.65,0.365,10.816,3.503,16.453,4.033c1.297,0.122,2.643,0.096,3.849-0.395
						c1.206-0.492,2.253-1.523,2.477-2.806C271.655,345.605,270.836,344.147,269.661,343.305z M264.659,342.431l2.289,0.313
						C266.17,342.713,265.409,342.6,264.659,342.431z"/>
				</g>
			</g>
			<g>
				<g>
					<path style="fill:#263238;" d="M244.602,337.866c0.02,0.03-0.258,0.241-0.78,0.597c-0.517,0.363-1.303,0.832-2.303,1.359
						c-1.996,1.056-4.926,2.234-8.32,2.912c-3.398,0.668-6.556,0.695-8.804,0.478c-1.125-0.105-2.03-0.24-2.647-0.379
						c-0.618-0.131-0.955-0.219-0.948-0.255c0.016-0.09,1.388,0.15,3.62,0.266c2.23,0.12,5.332,0.035,8.677-0.622
						c3.342-0.667,6.242-1.77,8.258-2.731C243.376,338.533,244.553,337.789,244.602,337.866z"/>
				</g>
			</g>
			<g>
				<g>
					<path style="fill:#263238;" d="M234.438,382.868c-0.06,0.112-2.17-1.236-3.878-3.746c-1.729-2.496-2.229-4.95-2.103-4.965
						c0.154-0.051,0.86,2.261,2.532,4.67C232.637,381.253,234.541,382.743,234.438,382.868z"/>
				</g>
			</g>
			<g>
				<g>
					<path style="fill:#263238;" d="M265.307,350.906c-0.014,0.033-0.47-0.116-1.283-0.414c-0.81-0.303-1.987-0.728-3.449-1.223
						c-2.921-0.973-7.037-2.214-11.721-2.544c-2.34-0.14-4.574,0.011-6.569,0.359c-0.495,0.102-0.979,0.201-1.451,0.297
						c-0.466,0.114-0.908,0.264-1.342,0.386c-0.877,0.222-1.639,0.584-2.359,0.851c-1.403,0.619-2.518,1.185-3.245,1.647
						c-0.743,0.439-1.165,0.668-1.186,0.639c-0.021-0.029,0.363-0.316,1.078-0.811c0.699-0.518,1.8-1.141,3.205-1.813
						c0.722-0.293,1.49-0.681,2.377-0.926c0.439-0.134,0.887-0.294,1.36-0.419c0.479-0.106,0.971-0.214,1.475-0.325
						c2.03-0.381,4.311-0.55,6.691-0.407c4.765,0.336,8.907,1.65,11.811,2.716c1.454,0.542,2.615,1.021,3.403,1.382
						C264.891,350.661,265.32,350.873,265.307,350.906z"/>
				</g>
			</g>
			<g>
				<g>
					<path style="fill:#263238;" d="M224.862,297.287c-0.038,0-0.072-0.572-0.138-1.605c-0.067-1.033-0.167-2.527-0.37-4.365
						c-0.119-0.911-0.184-1.946-0.448-2.961c-0.143-0.501-0.363-1-0.744-1.365c-0.375-0.37-0.901-0.582-1.467-0.608
						c-1.154-0.053-2.341,0.473-3.434,1.195c-1.111,0.68-2.354,1.568-3.923,1.553l-0.494-0.005l0.287-0.404
						c0.025-0.035,0.051-0.072,0.078-0.11c3.278-4.689,6.796-8.519,9.51-11.091c1.355-1.29,2.498-2.284,3.307-2.946
						c0.809-0.663,1.276-1.005,1.297-0.979c0.025,0.029-0.398,0.424-1.164,1.132c-0.766,0.707-1.867,1.739-3.183,3.057
						c-2.636,2.628-6.085,6.469-9.341,11.126c-0.027,0.037-0.053,0.075-0.077,0.109l-0.207-0.409
						c1.336,0.024,2.518-0.774,3.642-1.465c1.119-0.727,2.408-1.316,3.733-1.24c0.655,0.035,1.311,0.304,1.758,0.761
						c0.458,0.453,0.694,1.034,0.839,1.576c0.265,1.104,0.3,2.112,0.398,3.039c0.157,1.852,0.202,3.356,0.207,4.393
						C224.93,296.713,224.896,297.286,224.862,297.287z"/>
				</g>
			</g>
			<g>
				<g>
					<path style="fill:#263238;" d="M215.111,323.801c0.014,0.011-0.148,0.246-0.468,0.683c-0.354,0.471-0.827,1.102-1.422,1.894
						c-1.257,1.628-3.03,4.017-5.207,6.978c-4.301,5.955-10.108,14.307-15.582,24.093c-2.745,4.888-5.178,9.645-7.238,14.044
						c-2.029,4.413-3.782,8.423-5.116,11.848c-0.699,1.699-1.278,3.258-1.797,4.622c-0.528,1.361-0.962,2.542-1.307,3.51
						c-0.344,0.929-0.618,1.668-0.822,2.221c-0.193,0.506-0.303,0.769-0.32,0.763c-0.017-0.006,0.059-0.28,0.221-0.797
						c0.182-0.56,0.425-1.311,0.73-2.254c0.316-0.979,0.722-2.171,1.225-3.543c0.494-1.376,1.049-2.946,1.727-4.657
						c1.293-3.447,3.014-7.481,5.024-11.915c2.04-4.421,4.467-9.198,7.219-14.098c5.488-9.812,11.357-18.15,15.74-24.056
						c2.218-2.937,4.037-5.294,5.344-6.884c0.627-0.767,1.127-1.378,1.5-1.834C214.908,324.003,215.097,323.79,215.111,323.801z"/>
				</g>
			</g>
			<g>
				<g>
					<path style="fill:#263238;" d="M194.851,311.383c-0.035-0.01,0.096-0.552,0.361-1.525c0.127-0.489,0.3-1.081,0.532-1.759
						c0.226-0.68,0.47-1.46,0.801-2.299c0.614-1.698,1.472-3.671,2.502-5.825c1.058-2.14,2.314-4.447,3.762-6.791
						c2.917-4.679,6.021-8.602,8.406-11.304c1.191-1.354,2.188-2.419,2.905-3.128c0.713-0.713,1.118-1.095,1.144-1.07
						c0.026,0.025-0.33,0.454-0.996,1.208c-0.67,0.75-1.623,1.85-2.773,3.229c-2.305,2.754-5.345,6.689-8.244,11.34
						c-1.439,2.33-2.699,4.614-3.774,6.729c-1.047,2.128-1.935,4.073-2.589,5.745c-0.352,0.826-0.619,1.593-0.869,2.261
						c-0.257,0.666-0.458,1.247-0.614,1.725C195.082,310.87,194.886,311.393,194.851,311.383z"/>
				</g>
			</g>
			<g>
				<g>
					<path style="fill:#263238;" d="M197.145,275.343c0.027,0.023-0.265,0.433-0.817,1.152c-0.558,0.714-1.342,1.766-2.281,3.084
						c-1.883,2.632-4.301,6.405-6.501,10.825c-2.192,4.426-3.735,8.633-4.693,11.724c-0.482,1.545-0.845,2.806-1.077,3.681
						c-0.239,0.874-0.389,1.355-0.424,1.347c-0.035-0.008,0.047-0.503,0.227-1.395c0.172-0.893,0.483-2.173,0.921-3.739
						c0.872-3.133,2.372-7.393,4.58-11.851c2.215-4.452,4.702-8.222,6.67-10.811c0.982-1.296,1.814-2.318,2.421-2.995
						C196.772,275.685,197.117,275.319,197.145,275.343z"/>
				</g>
			</g>
			<g>
				<g>
					<path style="fill:#263238;" d="M184.63,257.689c0.017,0.007-0.03,0.145-0.135,0.404c-0.1,0.261-0.263,0.641-0.533,1.1
						c-0.519,0.924-1.441,2.193-2.893,3.436c-1.451,1.239-3.399,2.443-5.7,3.446c-2.299,1.017-4.923,1.857-7.698,2.645
						c-5.566,1.553-10.763,2.3-14.529,2.592c-1.884,0.157-3.414,0.191-4.469,0.21c-1.057,0-1.64-0.02-1.641-0.055
						c-0.001-0.036,0.581-0.085,1.633-0.147c1.051-0.081,2.572-0.171,4.443-0.374c3.741-0.385,8.893-1.184,14.423-2.727
						c2.758-0.783,5.372-1.605,7.646-2.583c2.281-0.965,4.207-2.113,5.656-3.288C183.757,259.962,184.52,257.604,184.63,257.689z"/>
				</g>
			</g>
			<g>
				<g>
					<path style="fill:#263238;" d="M277.669,274.645c0.034-0.013,0.236,0.436,0.575,1.259c0.33,0.826,0.792,2.028,1.309,3.533
						c1.044,3.005,2.321,7.217,3.448,11.941c0.457,1.914,0.857,3.763,1.194,5.463l0.159,0.801l-0.574-0.576
						c-1.227-1.232-2.398-2.341-3.633-3.045c-0.607-0.364-1.237-0.585-1.831-0.808c-0.589-0.214-1.14-0.38-1.647-0.437
						c-1.036-0.151-1.761,0.378-2.105,0.809c-0.357,0.438-0.482,0.733-0.522,0.712c-0.013-0.006,0.011-0.081,0.07-0.221
						c0.052-0.145,0.159-0.343,0.322-0.591c0.182-0.229,0.416-0.531,0.811-0.737c0.384-0.213,0.901-0.325,1.45-0.277
						c0.551,0.04,1.134,0.196,1.741,0.396c0.596,0.204,1.268,0.42,1.916,0.789c1.31,0.711,2.532,1.838,3.773,3.059l-0.415,0.225
						c-0.353-1.691-0.761-3.533-1.217-5.441c-1.123-4.708-2.339-8.92-3.291-11.947c-0.462-1.437-0.847-2.638-1.15-3.579
						C277.774,275.131,277.635,274.658,277.669,274.645z"/>
				</g>
			</g>
			<g>
				<g>
					<path style="fill:#263238;" d="M298.463,289.516c-0.077,0.009-0.255-1.032-0.575-2.704c-0.319-1.672-0.801-3.973-1.47-6.479
						c-0.672-2.507-1.403-4.74-1.962-6.348c-0.558-1.608-0.923-2.599-0.852-2.63c0.061-0.026,0.547,0.915,1.197,2.5
						c0.65,1.583,1.443,3.818,2.12,6.344c0.674,2.526,1.103,4.858,1.33,6.554C298.48,288.449,298.529,289.508,298.463,289.516z"/>
				</g>
			</g>
			<g>
				<g>
					<path style="fill:#263238;" d="M303.902,291.072c-0.087,0.009-0.24-1.237-0.684-3.203c-0.441-1.966-1.238-4.644-2.533-7.43
						c-1.303-2.784-2.841-5.116-4.063-6.718c-1.221-1.605-2.077-2.523-2.013-2.584c0.026-0.025,0.264,0.181,0.674,0.576
						c0.415,0.391,0.975,0.997,1.628,1.779c1.31,1.56,2.924,3.899,4.247,6.727c1.315,2.83,2.069,5.57,2.422,7.576
						c0.179,1.003,0.283,1.822,0.316,2.391C303.933,290.754,303.938,291.069,303.902,291.072z"/>
				</g>
			</g>
			<g>
				<g>
					<path style="fill:#263238;" d="M319.387,281.354c0.034,0.01-0.05,0.445-0.232,1.219c-0.173,0.776-0.415,1.9-0.64,3.303
						c-0.482,2.8-0.895,6.709-1.13,11.042c-0.222,4.335-0.247,8.268-0.205,11.114c0.025,1.34,0.046,2.468,0.062,3.371
						c0.019,0.796,0.013,1.238-0.023,1.241c-0.036,0.003-0.098-0.435-0.179-1.229c-0.077-0.794-0.167-1.946-0.228-3.372
						c-0.136-2.851-0.169-6.798,0.053-11.152c0.236-4.351,0.71-8.279,1.288-11.081c0.273-1.403,0.572-2.524,0.806-3.288
						C319.203,281.758,319.353,281.343,319.387,281.354z"/>
				</g>
			</g>
			<g>
				<g>
					<path style="fill:#263238;" d="M352.277,269.241c-0.006,0.035-0.583-0.031-1.622-0.182c-1.126-0.176-2.605-0.407-4.39-0.686
						c-3.703-0.602-8.811-1.468-14.448-2.456c-2.816-0.492-5.521-0.954-7.915-1.686c-2.396-0.712-4.456-1.713-5.996-2.82
						c-1.547-1.103-2.584-2.267-3.182-3.137c-0.305-0.432-0.508-0.79-0.633-1.038c-0.124-0.249-0.181-0.383-0.165-0.391
						c0.088-0.086,1.081,2.165,4.19,4.264c1.534,1.045,3.556,1.987,5.923,2.663c2.363,0.695,5.048,1.14,7.868,1.633
						c5.637,0.988,10.736,1.912,14.422,2.606c1.773,0.345,3.242,0.631,4.361,0.849C351.717,269.072,352.283,269.206,352.277,269.241
						z"/>
				</g>
			</g>
			<g>
				<g>
					<path style="fill:#263238;" d="M300.484,398.87c-0.008-0.005,0.035-0.097,0.127-0.274c0.107-0.201,0.245-0.456,0.417-0.777
						c0.382-0.673,0.904-1.689,1.581-2.993c1.321-2.624,3.106-6.495,4.834-11.454c0.835-2.487,1.655-5.249,2.225-8.275
						c0.528-2.997,0.984-6.387-0.028-9.656c-1.199-3.265-2.223-6.79-3.401-10.373c-1.163-3.59-2.786-7.153-4.472-10.791
						c-1.699-3.629-3.524-7.096-5.589-10.251c-1.033-1.576-2.113-3.082-3.268-4.478c-1.148-1.402-2.393-2.659-3.559-3.961
						c-2.348-2.571-4.579-5.015-6.67-7.303c-1.091-1.132-1.782-2.526-2.425-3.801c-0.635-1.296-1.187-2.564-1.677-3.788
						c-1.955-4.9-3.12-9.016-3.765-11.89c-0.328-1.436-0.525-2.565-0.636-3.332c-0.047-0.361-0.085-0.649-0.115-0.875
						c-0.023-0.197-0.03-0.299-0.022-0.3c0.009-0.001,0.034,0.098,0.074,0.292c0.043,0.223,0.097,0.508,0.166,0.865
						c0.144,0.76,0.372,1.878,0.73,3.303c0.703,2.85,1.919,6.939,3.908,11.798c0.498,1.214,1.057,2.47,1.696,3.749
						c0.655,1.272,1.32,2.599,2.394,3.7c2.096,2.273,4.334,4.7,6.689,7.253c1.16,1.285,2.43,2.561,3.595,3.975
						c1.172,1.408,2.266,2.927,3.311,4.514c2.089,3.179,3.928,6.667,5.633,10.309c1.688,3.642,3.318,7.23,4.484,10.851
						c1.18,3.61,2.184,7.107,3.371,10.377c1.047,3.449,0.545,6.863-0.001,9.893c-0.594,3.053-1.441,5.824-2.302,8.315
						c-1.78,4.966-3.622,8.825-5.001,11.427c-0.706,1.293-1.257,2.295-1.67,2.953c-0.19,0.31-0.343,0.557-0.462,0.751
						C300.55,398.791,300.492,398.874,300.484,398.87z"/>
				</g>
			</g>
			<g style="opacity:0.3;">
				<g>
					<path d="M288.108,302.956c-1.247-8.029-4.018-15.818-8.121-22.831c1.086,5.539,2.88,11.228,3.966,16.766
						c-2.203-2.825-8.495-6.297-9.91-2.594l0.548,2.954c4.125,1.383,7.845,3.952,10.599,7.32c0.479,0.586,1.077,1.26,1.827,1.163
						C288.123,305.59,288.28,304.058,288.108,302.956z"/>
				</g>
			</g>
			<g style="opacity:0.3;">
				<g>
					<path d="M294.512,271.301c-0.737,1.508-0.033,3.283,0.585,4.844c1.45,3.664,2.417,7.517,2.871,11.431
						c0.168,1.447,0.298,2.991,1.185,4.147c0.887,1.156,2.853,1.602,3.765,0.466c0.584-0.728,0.514-1.768,0.379-2.692
						c-0.975-6.693-3.783-13.109-8.04-18.366"/>
				</g>
			</g>
			<g style="opacity:0.3;">
				<g>
					<path d="M315.239,258.487c0.329,2.169,1.727,4.068,3.464,5.409c1.737,1.34,3.8,2.186,5.868,2.92
						c7.881,2.795,16.549,4.166,24.621,1.983c-5.883-0.972-11.766-1.943-17.648-2.915c-3.031-0.501-6.083-1.007-8.97-2.057
						c-2.887-1.05-5.633-2.688-7.533-5.102"/>
				</g>
			</g>
			<g style="opacity:0.3;">
				<g>
					<path style="fill:none;stroke:#000000;stroke-miterlimit:10;" d="M323.475,266.566"/>
				</g>
			</g>
			<g style="opacity:0.3;">
				<g>
					<path d="M214.724,277.626c-8.286,5.164-15.234,12.455-19.994,20.979c-0.916,1.641-1.754,3.329-2.422,5.086
						c-0.448,1.178-0.6,2.888,0.579,3.336c1.116,0.424,2.123-0.791,2.714-1.828c5.547-9.724,12.066-18.894,19.428-27.328"/>
				</g>
			</g>
			<g style="opacity:0.3;">
				<g>
					<path d="M224.792,303.566c-0.046-4.119-0.091-8.237-0.137-12.355c-0.021-1.868-0.356-3.537-1.891-4.6
						c-1.119-0.775-2.253-0.48-3.487,0.097c-1.234,0.577-2.444,1.393-3.436,1.83l-0.271,0.134c-1.312,1.773-2.287,3.794-2.856,5.925
						c1.441,0,2.715-0.861,4.029-1.451c1.314-0.59,3.025-0.858,4.063,0.142c0.693,0.668,0.862,1.698,0.995,2.652
						c0.627,4.531,1.254,9.061,1.881,13.592C224.801,307.808,224.815,305.619,224.792,303.566z"/>
				</g>
			</g>
			<g style="opacity:0.3;">
				<g>
					<path d="M148.305,271.625c7.726,2.865,16.552,2.63,24.115-0.641c4.35-1.881,8.497-5.023,9.971-9.527
						c-10.44,6.122-21.71,8.936-33.765,10.009"/>
				</g>
			</g>
			<g>
				<g>
					<path style="fill:#FFFFFF;" d="M158.751,270.313c-0.092,0.013-0.286-1.337-0.884-3.44c-0.592-2.102-1.674-4.941-3.4-7.792
						c-1.736-2.846-3.759-5.114-5.352-6.607c-1.592-1.499-2.701-2.293-2.647-2.368c0.021-0.029,0.313,0.146,0.827,0.49
						c0.519,0.336,1.23,0.882,2.067,1.606c1.677,1.441,3.783,3.713,5.549,6.609c1.757,2.901,2.804,5.816,3.311,7.968
						c0.257,1.076,0.414,1.959,0.474,2.574C158.766,269.967,158.787,270.308,158.751,270.313z"/>
				</g>
			</g>
			<g>
				<g>
					<path style="fill:#FFFFFF;" d="M175.33,263.966c-0.092,0.021-0.351-1.179-1.078-3c-0.72-1.82-2.001-4.234-3.936-6.511
						c-1.945-2.27-4.127-3.916-5.811-4.913c-1.684-1.005-2.828-1.449-2.793-1.537c0.013-0.034,0.307,0.053,0.831,0.24
						c0.528,0.177,1.265,0.508,2.144,0.977c1.759,0.931,4.034,2.571,6.025,4.895c1.981,2.331,3.242,4.835,3.885,6.719
						c0.325,0.942,0.535,1.722,0.627,2.271C175.326,263.654,175.365,263.958,175.33,263.966z"/>
				</g>
			</g>
			<g>
				<g>
					<path style="fill:#FFFFFF;" d="M186.805,288.469c-0.017,0.031-0.413-0.152-1.113-0.512c-0.702-0.356-1.7-0.906-2.917-1.613
						c-2.435-1.412-5.723-3.501-9.182-6.054c-3.457-2.557-6.421-5.086-8.486-6.998c-1.034-0.956-1.852-1.748-2.399-2.314
						c-0.549-0.564-0.841-0.887-0.816-0.913c0.025-0.026,0.364,0.248,0.955,0.766c0.673,0.587,1.511,1.319,2.505,2.187
						c2.122,1.837,5.109,4.309,8.551,6.854c3.443,2.541,6.684,4.669,9.063,6.157c1.122,0.695,2.067,1.281,2.826,1.752
						C186.46,288.194,186.822,288.437,186.805,288.469z"/>
				</g>
			</g>
			<g>
				<g>
					<path style="fill:#FFFFFF;" d="M198.529,274.167c-0.069,0.126-4.591-2.197-10.1-5.188c-5.511-2.992-9.921-5.52-9.853-5.646
						c0.068-0.126,4.59,2.196,10.101,5.189C194.186,271.513,198.597,274.04,198.529,274.167z"/>
				</g>
			</g>
			<g>
				<g>
					<path style="fill:#FFFFFF;" d="M203.331,292.471c-0.128,0.12-2.153-2.849-5.889-4.992c-3.708-2.195-7.289-2.492-7.247-2.663
						c0.004-0.058,0.894-0.067,2.3,0.212c1.403,0.275,3.311,0.898,5.21,2.001c1.895,1.108,3.378,2.461,4.308,3.546
						C202.948,291.66,203.379,292.439,203.331,292.471z"/>
				</g>
			</g>
			<g>
				<g>
					<path style="fill:#FFFFFF;" d="M211.487,282.339c-0.094,0.005-0.137-0.918-0.519-2.332c-0.375-1.412-1.183-3.297-2.571-5.043
						c-1.398-1.74-3.059-2.944-4.353-3.62c-1.295-0.684-2.186-0.93-2.16-1.021c0.008-0.048,0.944,0.071,2.323,0.691
						c1.375,0.61,3.145,1.817,4.597,3.625c1.444,1.814,2.23,3.806,2.522,5.282C211.626,281.402,211.536,282.341,211.487,282.339z"/>
				</g>
			</g>
			<g>
				<g>
					<path style="fill:#FFFFFF;" d="M192.401,318.648c-0.077,0.043-0.489-0.656-1.322-1.643c-0.828-0.987-2.134-2.223-3.827-3.218
						c-1.699-0.988-3.416-1.521-4.682-1.758c-1.268-0.242-2.08-0.259-2.08-0.347c-0.003-0.055,0.816-0.171,2.137-0.017
						c1.316,0.149,3.124,0.646,4.888,1.673c1.759,1.033,3.078,2.365,3.853,3.439C192.15,317.853,192.451,318.624,192.401,318.648z"
						/>
				</g>
			</g>
			<g>
				<g>
					<path style="fill:#FFFFFF;" d="M214.268,324.457c-0.009,0.066-1.174-0.021-3.039-0.301c-1.865-0.28-4.427-0.774-7.213-1.505
						c-2.786-0.734-5.26-1.564-7.022-2.237c-1.762-0.673-2.819-1.17-2.794-1.232c0.028-0.072,1.131,0.303,2.917,0.885
						c1.786,0.582,4.262,1.352,7.032,2.081c2.769,0.726,5.304,1.274,7.145,1.646C213.134,324.165,214.278,324.381,214.268,324.457z"
						/>
				</g>
			</g>
			<g>
				<g>
					<path style="fill:#FFFFFF;" d="M224.027,304.608c-0.001,0.036-0.34,0.054-0.956,0.055c-0.615,0.008-1.505-0.039-2.601-0.149
						c-2.189-0.216-5.202-0.791-8.368-1.944c-3.164-1.162-5.838-2.667-7.649-3.914c-0.908-0.622-1.618-1.161-2.083-1.564
						c-0.469-0.398-0.717-0.631-0.694-0.659c0.055-0.069,1.129,0.759,2.978,1.914c1.846,1.158,4.507,2.588,7.627,3.734
						c3.122,1.137,6.078,1.761,8.235,2.068C222.674,304.459,224.03,304.52,224.027,304.608z"/>
				</g>
			</g>
			<g>
				<g>
					<path style="fill:#FFFFFF;" d="M231.358,284.706c-0.073,0.048-0.455-0.494-1.217-1.212c-0.757-0.72-1.945-1.572-3.435-2.136
						c-1.493-0.556-2.949-0.696-3.993-0.652c-1.046,0.039-1.691,0.196-1.714,0.112c-0.018-0.052,0.6-0.341,1.686-0.479
						c1.079-0.142,2.63-0.055,4.204,0.532c1.571,0.594,2.796,1.548,3.515,2.366C231.13,284.054,231.406,284.679,231.358,284.706z"/>
				</g>
			</g>
			<g>
				<g>
					<path style="fill:#FFFFFF;" d="M195.134,349.591c-0.012,0.034-0.335-0.054-0.91-0.243c-0.577-0.183-1.395-0.501-2.385-0.939
						c-1.982-0.872-4.627-2.323-7.255-4.343c-2.624-2.028-4.701-4.217-6.049-5.911c-0.676-0.846-1.191-1.556-1.515-2.068
						c-0.329-0.508-0.497-0.798-0.467-0.818c0.071-0.05,0.853,1.032,2.264,2.649c1.408,1.618,3.496,3.735,6.085,5.736
						c2.593,1.993,5.171,3.474,7.095,4.423C193.919,349.029,195.164,349.509,195.134,349.591z"/>
				</g>
			</g>
			<g>
				<g>
					<path style="fill:#FFFFFF;" d="M180.468,377.267c-0.039,0.056-0.757-0.357-1.854-1.12c-1.097-0.762-2.566-1.885-4.099-3.23
						c-1.533-1.347-2.835-2.659-3.732-3.649c-0.898-0.99-1.4-1.648-1.349-1.694c0.114-0.104,2.378,2.284,5.425,4.952
						C177.896,375.202,180.556,377.14,180.468,377.267z"/>
				</g>
			</g>
			<g>
				<g>
					<path style="fill:#FFFFFF;" d="M171.378,410.237c-0.039,0.049-0.758-0.421-1.791-1.346c-1.033-0.922-2.35-2.329-3.581-4.05
						c-1.23-1.722-2.159-3.398-2.773-4.633c-0.612-1.238-0.922-2.034-0.861-2.064c0.157-0.082,1.645,2.993,4.057,6.394
						C168.832,407.955,171.483,410.116,171.378,410.237z"/>
				</g>
			</g>
			<g>
				<g>
					<path style="fill:#FFFFFF;" d="M316.947,310.392c0.019,0.031-0.402,0.312-1.181,0.795c-0.773,0.493-1.938,1.132-3.413,1.849
						c-1.471,0.726-3.281,1.473-5.333,2.183c-2.06,0.684-4.367,1.315-6.831,1.779c-2.469,0.444-4.85,0.676-7.019,0.771
						c-2.17,0.067-4.127,0.014-5.761-0.14c-1.633-0.145-2.95-0.327-3.847-0.512c-0.9-0.174-1.393-0.286-1.387-0.322
						c0.007-0.035,0.512,0.01,1.417,0.121c0.903,0.123,2.219,0.248,3.843,0.345c1.625,0.106,3.565,0.121,5.714,0.028
						c2.147-0.12,4.502-0.364,6.945-0.804c2.439-0.46,4.725-1.071,6.774-1.723c2.04-0.679,3.848-1.384,5.328-2.062
						c1.483-0.669,2.668-1.255,3.468-1.692C316.473,310.583,316.928,310.361,316.947,310.392z"/>
				</g>
			</g>
			<g>
				<g>
					<path style="fill:#FFFFFF;" d="M286.258,298.704c0.051,0.118-2.419,1.111-5.663,1.349c-3.243,0.259-5.835-0.346-5.803-0.471
						c0.022-0.158,2.596,0.206,5.763-0.049C283.723,299.303,286.212,298.551,286.258,298.704z"/>
				</g>
			</g>
			<g>
				<g>
					<path style="fill:#FFFFFF;" d="M297.384,286.559c-0.008,0.089-0.916,0.014-2.362,0.132c-1.444,0.113-3.427,0.492-5.455,1.366
						c-2.025,0.883-3.657,2.072-4.727,3.049c-1.074,0.975-1.64,1.688-1.71,1.633c-0.045-0.03,0.42-0.83,1.455-1.899
						c1.028-1.068,2.683-2.35,4.774-3.261c2.094-0.903,4.16-1.236,5.643-1.256C296.491,286.298,297.393,286.505,297.384,286.559z"/>
				</g>
			</g>
			<g>
				<g>
					<path style="fill:#FFFFFF;" d="M301.793,282.856c0.084,0.108-0.736,0.777-1.989,0.935c-1.252,0.168-2.216-0.268-2.163-0.394
						c0.042-0.146,0.972,0.033,2.095-0.123C300.862,283.137,301.715,282.726,301.793,282.856z"/>
				</g>
			</g>
			<g>
				<g>
					<path style="fill:#FFFFFF;" d="M321.575,263.302c0.026,0.025-0.196,0.303-0.621,0.786c-0.422,0.486-1.064,1.16-1.884,1.967
						c-1.638,1.615-4.04,3.716-6.911,5.746c-2.876,2.026-5.66,3.585-7.73,4.588c-1.035,0.503-1.885,0.882-2.484,1.117
						c-0.598,0.239-0.934,0.355-0.949,0.322c-0.033-0.075,1.249-0.683,3.265-1.766c2.016-1.081,4.746-2.677,7.598-4.686
						c2.847-2.014,5.265-4.052,6.959-5.589C320.512,264.251,321.515,263.246,321.575,263.302z"/>
				</g>
			</g>
			<g>
				<g>
					<path style="fill:#FFFFFF;" d="M340.57,268.136c0.033,0.015-0.142,0.454-0.486,1.239c-0.335,0.788-0.891,1.898-1.638,3.236
						c-1.488,2.677-3.883,6.21-7.101,9.62c-3.228,3.403-6.623,5.99-9.214,7.623c-1.294,0.82-2.372,1.436-3.14,1.814
						c-0.764,0.387-1.193,0.585-1.21,0.554s0.38-0.291,1.111-0.73c0.735-0.431,1.777-1.092,3.036-1.945
						c2.521-1.701,5.843-4.306,9.038-7.674c3.185-3.376,5.603-6.836,7.161-9.447c0.782-1.304,1.384-2.382,1.774-3.139
						C340.3,268.531,340.537,268.121,340.57,268.136z"/>
				</g>
			</g>
			<g>
				<g>
					<path style="fill:#FFFFFF;" d="M341.643,254.417c0.056,0.009,0,0.844-0.395,2.134c-0.39,1.286-1.184,3.005-2.46,4.631
						c-1.282,1.622-2.769,2.795-3.928,3.475c-1.161,0.686-1.96,0.936-1.982,0.883c-0.097-0.145,3.022-1.485,5.501-4.681
						C340.905,257.703,341.479,254.356,341.643,254.417z"/>
				</g>
			</g>
			<g>
				<g>
					<path style="fill:#FFFFFF;" d="M292.374,272.699c-0.014,0.087-0.843-0.027-2.176,0.002c-1.331,0.025-3.17,0.26-5.081,0.941
						c-1.909,0.689-3.478,1.678-4.521,2.505c-1.047,0.825-1.615,1.44-1.681,1.382c-0.044-0.034,0.43-0.743,1.444-1.664
						c1.008-0.921,2.605-2,4.582-2.713c1.978-0.706,3.897-0.889,5.26-0.819C291.57,272.399,292.386,272.645,292.374,272.699z"/>
				</g>
			</g>
			<g>
				<g>
					<path style="fill:#FFFFFF;" d="M279.811,282.987c-0.1,0.12-1.464-0.974-3.419-1.795c-1.947-0.841-3.681-1.066-3.663-1.222
						c-0.003-0.131,1.828-0.136,3.867,0.742C278.642,281.575,279.908,282.898,279.811,282.987z"/>
				</g>
			</g>
			<g>
				<g>
					<path style="fill:#FFFFFF;" d="M321.761,338.725c0.02,0.03-0.203,0.213-0.625,0.521c-0.418,0.313-1.057,0.72-1.871,1.179
						c-1.624,0.922-4.014,1.973-6.797,2.643c-2.787,0.662-5.393,0.806-7.259,0.718c-0.934-0.042-1.687-0.116-2.202-0.206
						c-0.516-0.083-0.797-0.146-0.793-0.182c0.01-0.086,1.155,0.03,3,0.019c1.844-0.007,4.395-0.206,7.132-0.856
						c2.734-0.658,5.099-1.635,6.747-2.462C320.745,339.275,321.713,338.653,321.761,338.725z"/>
				</g>
			</g>
			<g>
				<g>
					<path style="fill:#FFFFFF;" d="M324.578,363.407c0.04,0.042-0.521,0.689-1.624,1.518c-1.098,0.829-2.774,1.792-4.789,2.431
						c-2.018,0.632-3.944,0.805-5.318,0.754c-1.379-0.047-2.21-0.255-2.201-0.312c-0.001-0.175,3.42,0.334,7.363-0.939
						C321.967,365.641,324.479,363.263,324.578,363.407z"/>
				</g>
			</g>
			<g>
				<g>
					<path style="fill:#FFFFFF;" d="M327.323,398.572c0.007,0.035-0.327,0.132-0.942,0.277c-0.613,0.153-1.514,0.309-2.635,0.444
						c-2.24,0.275-5.392,0.343-8.808-0.2c-3.415-0.553-6.389-1.604-8.43-2.567c-1.022-0.479-1.829-0.91-2.363-1.247
						c-0.538-0.33-0.826-0.526-0.808-0.557c0.045-0.079,1.258,0.603,3.319,1.467c2.058,0.866,5,1.844,8.364,2.389
						c3.364,0.535,6.465,0.527,8.69,0.348C325.94,398.751,327.306,398.483,327.323,398.572z"/>
				</g>
			</g>
			<g>
				<g>
					<path style="fill:#FFFFFF;" d="M328.705,422.602c0.017,0.032-0.31,0.236-0.92,0.58c-0.605,0.352-1.516,0.798-2.668,1.288
						c-2.3,0.985-5.639,2.025-9.446,2.476c-3.81,0.44-7.299,0.2-9.764-0.228c-1.234-0.211-2.223-0.435-2.893-0.638
						c-0.672-0.194-1.038-0.318-1.029-0.352c0.023-0.09,1.517,0.299,3.975,0.626c2.455,0.331,5.893,0.509,9.65,0.075
						c3.754-0.445,7.058-1.412,9.37-2.301C327.298,423.244,328.662,422.52,328.705,422.602z"/>
				</g>
			</g>
		</g>
		<g>
			<g>
				<g>
					<g>
						<g>
							<path style="fill:#FF725E;" d="M265.569,184.012c-1.128-2.445-3.024-4.685-5.586-5.514c-2.562-0.829-5.791,0.156-6.905,2.607
								l6.044,6.813c0.622,0.984,1.453,1.873,2.515,2.35c1.062,0.477,2.378,0.482,3.335-0.181c0.911-0.63,1.375-1.771,1.4-2.879
								S266.033,185.018,265.569,184.012z"/>
						</g>
					</g>
				</g>
				<g>
					<g>
						<g>
							<path style="fill:#263238;" d="M282.381,214.893c-1.04-11.545-7.144-22.774-16.92-29.003
								c-9.776-6.229-23.152-6.855-32.938-0.64c-6.221,3.951-10.694,10.295-13.268,17.201c-2.573,6.906-1.456,12.629-1.397,19.998
								c0.031,3.819,0.516,14.084,3.813,16.013l51.432,9.225C279.69,238.148,283.421,226.438,282.381,214.893z"/>
						</g>
					</g>
				</g>
				<g>
					<g>
						<g>
							<path style="fill:#263238;" d="M280.567,206.04c-1.154-6.864-7.857-13.53-13.081-18.129
								c-5.962-5.249-6.801-5.012-14.743-5.213c-8.374-0.212-17.522-0.177-24.056,5.064c-3.62,2.904-5.971,7.091-7.858,11.331
								c-4.361,9.798-3.688,20.985-2.355,31.627c1.333,10.642,3.589,20.686,12.299,26.944l36.61-5.671
								c8.076-2.992,10.77-12.22,13.054-20.524C282.722,223.165,281.995,214.533,280.567,206.04z"/>
						</g>
					</g>
				</g>
				<g>
					<g>
						<g>
							<g>
								<g>
									<path style="fill:#FFBE9D;" d="M219.73,212.87c0.513-10.069,11.232-20.247,21.271-19.307l32.589,5.793l-0.042,5.415
										l-3.164,78.247c-25.74,9.833-36.109-1.743-36.109-1.743l1.802-16.495c0,0-12.88-1.979-15.745-18.718
										C218.907,237.736,219.161,224.056,219.73,212.87z"/>
								</g>
							</g>
						</g>
						<g>
							<g>
								<g>
									<g>
										<g>
											<g>
												<g>
													<g>
														<g>
															<g>
																<g>
																	<g>
																		<g>
																			<g>
																				<g>
																					<path style="fill:#263238;" d="M227.213,225.305c-0.027,1.136,0.914,2.095,2.1,2.145
																						c1.184,0.049,2.167-0.829,2.193-1.966c0.027-1.136-0.913-2.097-2.097-2.146
																						C228.223,223.288,227.239,224.169,227.213,225.305z"/>
																				</g>
																			</g>
																		</g>
																	</g>
																</g>
															</g>
														</g>
													</g>
												</g>
											</g>
										</g>
									</g>
								</g>
							</g>
						</g>
						<g>
							<g>
								<g>
									<g>
										<g>
											<g>
												<g>
													<g>
														<g>
															<g>
																<g>
																	<g>
																		<g>
																			<g>
																				<g>
																					<g>
																						<path style="fill:#263238;" d="M224.015,221.128c0.27,0.277,1.885-0.949,4.2-0.97
																							c2.311-0.054,4.024,1.115,4.272,0.829c0.122-0.127-0.156-0.63-0.902-1.16
																							c-0.735-0.527-1.982-1.034-3.424-1.01c-1.441,0.025-2.648,0.571-3.338,1.122
																							C224.117,220.493,223.882,221.004,224.015,221.128z"/>
																					</g>
																				</g>
																			</g>
																		</g>
																	</g>
																</g>
															</g>
														</g>
													</g>
												</g>
											</g>
										</g>
									</g>
								</g>
							</g>
						</g>
						<g>
							<g>
								<g>
									<g>
										<g>
											<g>
												<g>
													<g>
														<g>
															<g>
																<g>
																	<g>
																		<g>
																			<g>
																				<g>
																					<path style="fill:#263238;" d="M249.236,225.305c-0.027,1.136,0.914,2.095,2.1,2.145
																						c1.184,0.049,2.167-0.829,2.193-1.966c0.027-1.136-0.914-2.097-2.098-2.146
																						C250.246,223.288,249.262,224.169,249.236,225.305z"/>
																				</g>
																			</g>
																		</g>
																	</g>
																</g>
															</g>
														</g>
													</g>
												</g>
											</g>
										</g>
									</g>
								</g>
							</g>
						</g>
						<g>
							<g>
								<g>
									<g>
										<g>
											<g>
												<g>
													<g>
														<g>
															<g>
																<g>
																	<g>
																		<g>
																			<g>
																				<g>
																					<g>
																						<path style="fill:#263238;" d="M247.15,220.565c0.27,0.277,1.887-0.948,4.2-0.97
																							c2.312-0.055,4.025,1.115,4.273,0.829c0.121-0.127-0.154-0.63-0.903-1.159
																							c-0.734-0.528-1.982-1.034-3.424-1.01c-1.442,0.025-2.648,0.571-3.339,1.122
																							C247.254,219.931,247.018,220.441,247.15,220.565z"/>
																					</g>
																				</g>
																			</g>
																		</g>
																	</g>
																</g>
															</g>
														</g>
													</g>
												</g>
											</g>
										</g>
									</g>
								</g>
							</g>
						</g>
						<g>
							<g>
								<g>
									<g>
										<g>
											<g>
												<g>
													<g>
														<g>
															<g>
																<g>
																	<g>
																		<g>
																			<g>
																				<g>
																					<path style="fill:#263238;" d="M237.926,237.374c0.009-0.132-1.433-0.363-3.768-0.633
																						c-0.592-0.054-1.152-0.164-1.257-0.567c-0.144-0.425,0.095-1.065,0.374-1.757
																						c0.538-1.437,1.102-2.943,1.694-4.521c2.35-6.437,4.043-11.727,3.783-11.819
																						c-0.26-0.092-2.376,5.05-4.726,11.487c-0.565,1.587-1.106,3.1-1.62,4.548
																						c-0.216,0.674-0.591,1.441-0.279,2.323c0.165,0.439,0.603,0.755,0.983,0.852
																						c0.38,0.111,0.712,0.113,1.005,0.127C236.463,237.513,237.919,237.506,237.926,237.374z"/>
																				</g>
																			</g>
																		</g>
																	</g>
																</g>
															</g>
														</g>
													</g>
												</g>
											</g>
										</g>
									</g>
								</g>
							</g>
						</g>
						<g>
							<g>
								<g>
									<g>
										<g>
											<g>
												<g>
													<g>
														<g>
															<g>
																<g>
																	<g>
																		<g>
																			<g>
																				<path style="fill:#EB996E;" d="M236.085,264.823c0,0,11.864,0.55,22.961-6.303c0,0-5.523,11.811-22.899,10.485
																					L236.085,264.823z"/>
																			</g>
																		</g>
																	</g>
																</g>
															</g>
														</g>
													</g>
												</g>
											</g>
										</g>
									</g>
								</g>
							</g>
						</g>
						<g>
							<g>
								<g>
									<g>
										<g>
											<g>
												<g>
													<g>
														<g>
															<g>
																<g>
																	<g>
																		<g>
																			<g>
																				<path style="fill:#EB996E;" d="M238.972,242.941c0.819-1.111,2.27-1.733,3.72-1.594
																					c1.005,0.096,2.026,0.568,2.646,1.379c0.62,0.81,0.762,1.97,0.217,2.757c-0.614,0.886-1.917,1.104-3.025,0.804
																					c-1.109-0.301-2.068-1.017-2.98-1.73c-0.252-0.198-0.51-0.404-0.67-0.677c-0.159-0.273-0.196-0.632-0.007-0.862
																					"/>
																			</g>
																		</g>
																	</g>
																</g>
															</g>
														</g>
													</g>
												</g>
											</g>
										</g>
									</g>
								</g>
							</g>
						</g>
						<g>
							<g>
								<g>
									<g>
										<g>
											<g>
												<g>
													<g>
														<g>
															<g>
																<g>
																	<g>
																		<g>
																			<g>
																				<g>
																					<path style="fill:#263238;" d="M238.811,246.523c0.333,0.177,1.385-2.105,4.083-2.83
																						c2.697-0.732,5.014,0.641,5.178,0.33c0.097-0.128-0.339-0.692-1.354-1.191
																						c-0.992-0.497-2.612-0.848-4.263-0.405c-1.649,0.447-2.769,1.539-3.277,2.44
																						C238.653,245.782,238.649,246.465,238.811,246.523z"/>
																				</g>
																			</g>
																		</g>
																	</g>
																</g>
															</g>
														</g>
													</g>
												</g>
											</g>
										</g>
									</g>
								</g>
							</g>
						</g>
						<g>
							<g>
								<g>
									<g>
										<g>
											<g>
												<g>
													<g>
														<g>
															<g>
																<g>
																	<path style="fill:#263238;" d="M255.9,215.352c-0.038-0.669-2.337-1.047-4.844-2.141
																		c-2.529-1.044-4.398-2.435-4.905-1.998c-0.232,0.213-0.036,0.889,0.637,1.727c0.666,0.835,1.841,1.791,3.35,2.434
																		c1.51,0.639,3.014,0.82,4.077,0.719C255.286,215.996,255.908,215.666,255.9,215.352z"/>
																</g>
															</g>
														</g>
													</g>
												</g>
											</g>
										</g>
									</g>
								</g>
							</g>
						</g>
						<g>
							<g>
								<g>
									<g>
										<g>
											<g>
												<g>
													<g>
														<g>
															<g>
																<g>
																	<path style="fill:#263238;" d="M231.317,211.779c-0.669-0.263-2.167,1.058-4.24,2.077
																		c-2.043,1.079-4.001,1.521-4.17,2.212c-0.062,0.326,0.442,0.668,1.428,0.749c0.973,0.085,2.419-0.158,3.834-0.878
																		c1.414-0.722,2.449-1.745,2.942-2.577C231.615,212.521,231.623,211.917,231.317,211.779z"/>
																</g>
															</g>
														</g>
													</g>
												</g>
											</g>
										</g>
									</g>
								</g>
							</g>
						</g>
					</g>
				</g>
				<g>
					<g>
						<g>
							<g>
								<path style="fill:#263238;" d="M230.995,188.89c-6.177,4.184-10.449,11.074-12.521,18.623l1.018,6.204
									c1.446-3.003,1.627-6.221,4.589-9.302c1.99-2.07,5.667-4.017,9.576-5.012c11.174-2.844,14.939-6.901,19.874-14.201
									C246.295,183.389,237.172,184.706,230.995,188.89z"/>
							</g>
						</g>
					</g>
					<g>
						<g>
							<g>
								<path style="fill:#263238;" d="M279.238,205.279c-3.113-11.199-13.283-20.092-24.796-21.686l-0.91,1.609
									c-2.828,3.307-5.657,6.614-8.485,9.92c-0.706,0.825-1.441,1.712-1.6,2.786c-0.214,1.438,0.68,2.835,1.805,3.756
									c2.691,2.203,6.463,2.339,9.94,2.433c3.477,0.094,7.278,0.378,9.811,2.76c3.155,2.967,3.085,8.006,2.025,12.204
									c-1.06,4.199-1.476,10.966-1.041,15.275c0.389,3.862,5.492-5.519,8.849-3.571c0.936,0.544-1.587,15.695-0.609,15.229
									c0.958-0.456,0.869-5.913,1.186-6.926c1.721-5.488,3.448-11,4.365-16.678C280.694,216.713,280.779,210.821,279.238,205.279z
									"/>
							</g>
						</g>
					</g>
					<g>
						<g>
							<g>
								<g>
									<g>
										<g>
											<g>
												<g>
													<g>
														<g>
															<g>
																<g>
																	<g>
																		<g>
																			<g>
																				<g>
																					<g>
																						<path style="fill:#EB996E;" d="M272.395,240.8c0.048-0.03,0.172,0.138,0.466,0.298
																							c0.287,0.155,0.791,0.283,1.343,0.117c1.117-0.328,2.151-1.998,2.324-3.856
																							c0.089-0.938-0.048-1.846-0.332-2.608c-0.265-0.776-0.718-1.337-1.261-1.471
																							c-0.538-0.163-0.949,0.14-1.094,0.422c-0.158,0.279-0.106,0.49-0.162,0.504
																							c-0.03,0.024-0.21-0.188-0.099-0.609c0.056-0.202,0.194-0.438,0.449-0.62
																							c0.261-0.185,0.632-0.264,1.012-0.197c0.792,0.108,1.46,0.888,1.772,1.725
																							c0.355,0.844,0.532,1.866,0.432,2.919c-0.204,2.076-1.399,3.952-2.92,4.284
																							c-0.739,0.141-1.33-0.118-1.626-0.383C272.397,241.05,272.358,240.816,272.395,240.8z"/>
																					</g>
																				</g>
																			</g>
																		</g>
																	</g>
																</g>
															</g>
														</g>
													</g>
												</g>
											</g>
										</g>
									</g>
								</g>
							</g>
						</g>
					</g>
					<g>
						<g>
							<g>
								<g>
									<path style="fill:#455A64;" d="M272.33,191.725c0,0,1.663,1.808,3.677,5.21c1.029,1.686,2.052,3.811,3.026,6.232
										c0.961,2.429,1.75,5.203,2.302,8.166c1.12,5.947,0.66,11.496-0.166,15.342c-0.079,0.488-0.207,0.94-0.327,1.369
										c-0.117,0.427-0.228,0.831-0.332,1.211c-0.186,0.763-0.442,1.389-0.63,1.908c-0.186,0.493-0.334,0.888-0.447,1.188
										c-0.105,0.27-0.166,0.41-0.176,0.406c-0.01-0.004,0.03-0.152,0.117-0.428c0.099-0.305,0.229-0.705,0.391-1.205
										c0.17-0.523,0.408-1.152,0.576-1.916c0.096-0.38,0.199-0.784,0.307-1.211c0.112-0.428,0.232-0.88,0.303-1.366
										c0.766-3.836,1.185-9.337,0.074-15.241c-0.548-2.941-1.322-5.698-2.262-8.117c-0.954-2.411-1.949-4.534-2.948-6.226
										c-0.243-0.425-0.476-0.831-0.696-1.216c-0.24-0.37-0.467-0.72-0.681-1.048c-0.211-0.326-0.408-0.631-0.591-0.914
										c-0.184-0.279-0.375-0.519-0.534-0.743c-0.307-0.426-0.553-0.768-0.74-1.028
										C272.405,191.861,272.322,191.732,272.33,191.725z"/>
								</g>
							</g>
						</g>
					</g>
					<g>
						<g>
							<g>
								<g>
									<path style="fill:#455A64;" d="M273.325,194.865c0.01,0.002-0.008,0.11-0.055,0.318c-0.064,0.2-0.168,0.504-0.412,0.831
										c-0.461,0.677-1.471,1.367-2.829,1.827c-1.366,0.448-3.007,0.85-4.85,1.258c-1.844,0.392-3.895,0.735-6.07,0.886
										c-2.175,0.154-4.265,0.084-6.138-0.179c-1.873-0.265-3.529-0.707-4.867-1.208c-1.341-0.499-2.37-1.039-3.054-1.448
										c-0.346-0.2-0.601-0.376-0.773-0.496c-0.172-0.12-0.26-0.187-0.254-0.196c0.016-0.025,0.387,0.214,1.087,0.586
										c0.698,0.374,1.732,0.878,3.069,1.345c1.334,0.47,2.976,0.884,4.831,1.13c1.855,0.244,3.921,0.305,6.077,0.152
										c4.312-0.319,8.154-1.275,10.87-2.041c1.344-0.427,2.33-1.063,2.803-1.691
										C273.249,195.321,273.282,194.848,273.325,194.865z"/>
								</g>
							</g>
						</g>
					</g>
					<g>
						<g>
							<g>
								<g>
									<path style="fill:#455A64;" d="M271.465,191.303c0.008,0.007-0.051,0.079-0.17,0.209c-0.123,0.125-0.29,0.328-0.543,0.548
										c-0.485,0.463-1.253,1.07-2.292,1.675c-2.064,1.231-5.336,2.249-9.012,2.268c-3.675,0.017-6.933-0.729-9.245-1.296
										c-1.159-0.29-2.09-0.549-2.731-0.735c-0.641-0.186-0.993-0.3-0.987-0.321c0.006-0.021,0.368,0.053,1.018,0.202
										c0.701,0.162,1.629,0.377,2.751,0.637c2.32,0.511,5.563,1.215,9.191,1.198c3.625-0.02,6.846-0.986,8.906-2.147
										C270.436,192.396,271.415,191.241,271.465,191.303z"/>
								</g>
							</g>
						</g>
					</g>
					<g>
						<g>
							<g>
								<g>
									<path style="fill:#455A64;" d="M269.351,190.161c0.006,0.021-0.254,0.11-0.731,0.253c-0.475,0.148-1.174,0.324-2.046,0.508
										c-1.741,0.37-4.195,0.698-6.918,0.685c-2.724-0.019-5.174-0.376-6.911-0.765c-0.869-0.194-1.566-0.378-2.04-0.531
										c-0.475-0.149-0.734-0.241-0.728-0.262c0.006-0.021,0.277,0.031,0.76,0.143c0.482,0.116,1.183,0.267,2.053,0.431
										c1.738,0.332,4.169,0.65,6.868,0.669c2.699,0.012,5.133-0.278,6.875-0.589c0.871-0.154,1.574-0.297,2.058-0.408
										C269.074,190.189,269.345,190.14,269.351,190.161z"/>
								</g>
							</g>
						</g>
					</g>
					<g>
						<g>
							<g>
								<g>
									<path style="fill:#455A64;" d="M255.571,181.358c0.02,0.008-0.07,0.269-0.25,0.736c-0.175,0.469-0.471,1.131-0.872,1.931
										c-0.799,1.601-2.106,3.725-3.895,5.799c-1.795,2.07-3.709,3.67-5.178,4.691c-0.734,0.512-1.347,0.9-1.785,1.141
										c-0.436,0.246-0.681,0.372-0.692,0.354c-0.011-0.019,0.214-0.181,0.628-0.458c0.417-0.272,1.007-0.686,1.719-1.217
										c1.425-1.06,3.294-2.668,5.071-4.717c1.771-2.053,3.093-4.133,3.936-5.697c0.424-0.781,0.748-1.425,0.957-1.876
										C255.423,181.595,255.551,181.35,255.571,181.358z"/>
								</g>
							</g>
						</g>
					</g>
					<g>
						<g>
							<g>
								<g>
									<path style="fill:#455A64;" d="M218.881,203.53c-0.008-0.007,0.053-0.098,0.178-0.267c0.127-0.167,0.31-0.418,0.563-0.725
										c0.499-0.622,1.25-1.501,2.253-2.518c1.001-1.018,2.276-2.158,3.833-3.237c0.783-0.532,1.633-1.051,2.554-1.518
										c0.923-0.46,1.913-0.87,2.953-1.21c4.171-1.356,8.208-1.498,11.04-1.205c1.423,0.14,2.561,0.354,3.337,0.541
										c0.39,0.085,0.686,0.179,0.888,0.233c0.202,0.059,0.306,0.094,0.303,0.105c-0.006,0.025-0.437-0.07-1.217-0.219
										c-0.78-0.149-1.917-0.329-3.331-0.439c-2.816-0.234-6.803-0.057-10.924,1.283c-4.14,1.312-7.266,3.86-9.28,5.824
										c-1.016,0.99-1.789,1.843-2.316,2.439c-0.244,0.276-0.445,0.502-0.608,0.686
										C218.967,203.458,218.889,203.537,218.881,203.53z"/>
								</g>
							</g>
						</g>
					</g>
					<g>
						<g>
							<g>
								<g>
									<path style="fill:#455A64;" d="M226.633,192.436c-0.011-0.018,0.269-0.203,0.788-0.523
										c0.258-0.163,0.578-0.354,0.966-0.547c0.386-0.196,0.816-0.44,1.32-0.649c0.497-0.225,1.044-0.466,1.651-0.677
										c0.597-0.239,1.257-0.427,1.947-0.639c1.392-0.381,2.952-0.7,4.612-0.87c1.661-0.154,3.254-0.145,4.694-0.042
										c0.719,0.074,1.403,0.13,2.034,0.249c0.636,0.089,1.22,0.219,1.751,0.343c0.535,0.107,1.005,0.263,1.421,0.381
										c0.418,0.114,0.769,0.239,1.054,0.349c0.571,0.213,0.882,0.339,0.875,0.36c-0.008,0.02-0.333-0.067-0.913-0.243
										c-0.289-0.092-0.644-0.199-1.063-0.296c-0.418-0.101-0.888-0.24-1.422-0.332c-0.53-0.109-1.111-0.225-1.742-0.303
										c-0.627-0.106-1.305-0.152-2.017-0.218c-1.426-0.086-3-0.087-4.642,0.066c-1.64,0.169-3.184,0.476-4.566,0.837
										c-0.685,0.202-1.341,0.379-1.936,0.605c-0.605,0.198-1.152,0.425-1.65,0.635c-0.506,0.194-0.939,0.422-1.33,0.602
										c-0.393,0.177-0.72,0.351-0.985,0.497C226.946,192.305,226.644,192.454,226.633,192.436z"/>
								</g>
							</g>
						</g>
					</g>
				</g>
			</g>
			<g>
				<g>
					<path style="fill:#EB996E;" d="M231.466,228.288c0.053,0.031-0.106,0.447-0.613,0.939c-0.495,0.487-1.389,1.015-2.489,1.087
						c-1.101,0.069-2.055-0.341-2.608-0.761c-0.566-0.423-0.776-0.815-0.728-0.853c0.06-0.055,0.361,0.234,0.926,0.542
						c0.557,0.309,1.417,0.611,2.376,0.551c0.959-0.063,1.773-0.472,2.286-0.85C231.138,228.567,231.4,228.242,231.466,228.288z"/>
				</g>
			</g>
			<g>
				<g>
					<path style="fill:#EB996E;" d="M254.46,227.589c0.054,0.035-0.086,0.399-0.512,0.853c-0.418,0.451-1.159,0.966-2.105,1.171
						c-0.946,0.204-1.833,0.039-2.4-0.2c-0.576-0.238-0.854-0.512-0.818-0.566c0.056-0.141,1.401,0.629,3.109,0.257
						C253.441,228.739,254.351,227.484,254.46,227.589z"/>
				</g>
			</g>
			<g>
				<g>
					<path style="fill:#EB996E;" d="M236.672,209.484c0.048-0.043,0.303,0.127,0.52,0.558c0.215,0.42,0.353,1.129,0.094,1.847
						c-0.262,0.717-0.822,1.174-1.256,1.358c-0.443,0.192-0.747,0.159-0.757,0.096c-0.016-0.076,0.241-0.174,0.575-0.416
						c0.333-0.236,0.742-0.649,0.948-1.215c0.204-0.566,0.155-1.145,0.051-1.54C236.746,209.773,236.611,209.532,236.672,209.484z"
						/>
				</g>
			</g>
			<g>
				<g>
					<path style="fill:#EB996E;" d="M240.047,213.626c-0.039,0.048-0.314-0.082-0.6-0.469c-0.286-0.381-0.523-1.037-0.478-1.772
						c0.047-0.735,0.365-1.357,0.697-1.698c0.332-0.348,0.621-0.442,0.654-0.39c0.091,0.109-0.774,0.833-0.831,2.121
						C239.384,212.702,240.151,213.529,240.047,213.626z"/>
				</g>
			</g>
		</g>
		<g>
			<g>
				<path style="fill:#263238;" d="M209.18,404.621c0,0-31.491-13.799-40.696-14.099c-7.869-0.257-21.37,3.276-25.253,11.623
					c-3.883,8.348-2.687,19.691,0.031,23.962c2.718,4.271,31.066,17.898,44.656,23.14c13.589,5.242,56.492,16.889,56.492,16.889
					l60.181-3.883c0,0,17.734-15.274,20.452-18.38c2.718-3.106,20.875-20.141,22.816-22.858c1.941-2.718,7.212-19.604,1.388-26.205
					c-5.824-6.6-9.654-10.765-18.001-10.183c-8.348,0.582-14.082,1.592-24.607,9.285c-8.097,5.918-11.382,8.179-19.595,10.054
					c-8.214,1.875-24.344,6.659-37.427,5.591C236.534,408.488,209.18,404.621,209.18,404.621z"/>
			</g>
			<g>
				<g>
					<path style="fill:#455A64;" d="M179.638,402.803c0.004-0.008,0.095,0.028,0.27,0.107c0.199,0.093,0.452,0.211,0.768,0.359
						c0.703,0.342,1.684,0.82,2.931,1.427c2.566,1.282,6.221,3.108,10.725,5.357c4.517,2.284,9.893,5.008,15.822,8.117
						c5.916,3.136,12.415,6.581,19.237,10.197c9.577,5.088,18.515,9.838,26.018,13.824l0.187,0.099l-0.094,0.188
						c-3.548,7.103-6.501,13.013-8.584,17.185c-1.028,2.04-1.841,3.654-2.415,4.792c-0.27,0.527-0.483,0.944-0.643,1.257
						c-0.147,0.282-0.22,0.425-0.233,0.425c-0.01,0.001,0.043-0.159,0.172-0.454c0.146-0.32,0.34-0.746,0.586-1.286
						c0.548-1.15,1.326-2.782,2.308-4.845c2.044-4.191,4.941-10.129,8.422-17.266l0.093,0.287
						c-7.515-3.968-16.468-8.695-26.06-13.76c-6.817-3.624-13.34-7.043-19.214-10.23c-5.912-3.129-11.271-5.886-15.766-8.211
						c-4.472-2.31-8.103-4.185-10.651-5.501c-1.229-0.643-2.196-1.15-2.888-1.512c-0.307-0.166-0.553-0.299-0.746-0.404
						C179.718,402.863,179.634,402.811,179.638,402.803z"/>
				</g>
			</g>
			<g>
				<g>
					<path style="fill:#455A64;" d="M297.189,405.73c0.005,0.007-0.068,0.063-0.214,0.164c-0.172,0.115-0.388,0.26-0.656,0.439
						c-0.577,0.385-1.44,0.936-2.562,1.629c-2.248,1.374-5.523,3.345-9.758,5.43c-4.223,2.094-9.428,4.309-15.483,5.882
						c-3.025,0.781-6.263,1.381-9.65,1.706c-3.388,0.315-6.919,0.36-10.519,0.16c-7.208-0.437-13.972-1.837-19.973-3.533
						c-6.009-1.695-11.281-3.655-15.666-5.382c-4.384-1.734-7.887-3.241-10.305-4.288c-1.178-0.519-2.107-0.929-2.776-1.224
						c-0.293-0.135-0.529-0.244-0.717-0.331c-0.16-0.077-0.241-0.12-0.237-0.129c0.003-0.008,0.091,0.019,0.258,0.081
						c0.193,0.075,0.436,0.168,0.736,0.284c0.678,0.274,1.619,0.654,2.813,1.136c2.441,0.99,5.964,2.446,10.359,4.135
						c4.395,1.682,9.669,3.602,15.662,5.266c5.986,1.665,12.717,3.043,19.877,3.477c3.576,0.199,7.081,0.157,10.443-0.148
						c3.361-0.316,6.573-0.901,9.58-1.664c6.018-1.537,11.213-3.705,15.441-5.751c4.24-2.037,7.537-3.956,9.814-5.277
						c1.107-0.656,1.98-1.173,2.61-1.546c0.279-0.162,0.503-0.293,0.682-0.397C297.103,405.763,297.185,405.722,297.189,405.73z"/>
				</g>
			</g>
			<g>
				<g>
					<path style="fill:#455A64;" d="M254.429,437.556c-0.035,0.005-0.11-0.342-0.215-0.976c-0.113-0.633-0.217-1.558-0.302-2.704
						c-0.179-2.293-0.165-5.474,0.065-8.966c0.231-3.493,0.537-6.639,0.715-8.92c0.185-2.28,0.272-3.693,0.348-3.691
						c0.035,0.001,0.056,0.355,0.065,0.997c0.012,0.642-0.008,1.57-0.054,2.716c-0.087,2.292-0.336,5.449-0.566,8.93
						c-0.229,3.481-0.299,6.634-0.213,8.915C254.347,436.138,254.512,437.544,254.429,437.556z"/>
				</g>
			</g>
			<g>
				<g>
					<path style="fill:#455A64;" d="M284.058,406.629c0.021,0.077-1.219,0.453-3.184,1.157c-1.965,0.703-4.645,1.773-7.487,3.201
						c-2.841,1.434-5.296,2.95-7.031,4.111c-1.736,1.16-2.776,1.932-2.825,1.87c-0.022-0.027,0.214-0.251,0.66-0.633
						c0.444-0.385,1.112-0.91,1.959-1.531c1.692-1.243,4.141-2.823,7.008-4.27c2.868-1.442,5.595-2.469,7.602-3.088
						c1.003-0.311,1.823-0.535,2.397-0.663C283.729,406.651,284.049,406.595,284.058,406.629z"/>
				</g>
			</g>
			<g>
				<g>
					<path style="fill:#455A64;" d="M320.007,390.822c0.009,0.015-0.239,0.181-0.72,0.483c-0.52,0.32-1.224,0.752-2.111,1.297
						c-0.927,0.545-2.035,1.254-3.313,2.092c-1.287,0.823-2.745,1.771-4.323,2.87c-3.194,2.141-6.892,4.846-10.982,7.866
						c-4.068,3.053-8.504,6.458-13.147,10.052c-4.645,3.596-9.086,7.002-13.163,10.052c-4.099,3.021-7.809,5.717-11.019,7.849
						c-1.586,1.092-3.052,2.034-4.349,2.846c-1.287,0.827-2.406,1.523-3.344,2.053c-0.903,0.52-1.619,0.933-2.148,1.239
						c-0.494,0.278-0.757,0.417-0.766,0.402c-0.009-0.015,0.238-0.184,0.714-0.49c0.517-0.325,1.216-0.765,2.097-1.319
						c0.921-0.555,2.023-1.274,3.293-2.123c1.28-0.834,2.729-1.794,4.3-2.904c3.178-2.166,6.862-4.889,10.941-7.927
						c4.058-3.068,8.488-6.483,13.133-10.079c4.644-3.594,9.091-6.991,13.179-10.026c4.111-3.004,7.835-5.682,11.061-7.789
						c1.593-1.082,3.068-2.011,4.372-2.812c1.294-0.816,2.419-1.502,3.364-2.022c0.908-0.511,1.629-0.917,2.162-1.216
						C319.734,390.943,319.999,390.807,320.007,390.822z"/>
				</g>
			</g>
			<g>
				<g>
					<path style="fill:#455A64;" d="M345.013,412.425c0.008,0.003-0.01,0.078-0.053,0.223c-0.055,0.173-0.123,0.384-0.205,0.641
						c-0.185,0.562-0.449,1.395-0.903,2.425c-0.858,2.074-2.328,5.01-4.73,8.248c-1.198,1.617-2.62,3.313-4.307,4.976
						c-1.675,1.672-3.578,3.355-5.739,4.913c-4.292,3.158-9.564,5.863-15.378,7.83c-5.809,2.001-11.502,3.328-16.638,4.635
						c-5.145,1.292-9.795,2.398-13.724,3.219c-3.93,0.82-7.133,1.368-9.355,1.688c-1.111,0.159-1.975,0.273-2.563,0.335
						c-0.268,0.027-0.488,0.05-0.669,0.069c-0.151,0.013-0.229,0.015-0.23,0.006c-0.001-0.009,0.074-0.028,0.223-0.058
						c0.179-0.032,0.396-0.071,0.661-0.118c0.624-0.105,1.474-0.248,2.546-0.429c2.209-0.379,5.396-0.98,9.31-1.844
						c3.913-0.864,8.548-2.005,13.685-3.321c5.132-1.332,10.814-2.672,16.587-4.661c5.781-1.957,10.999-4.62,15.269-7.729
						c2.149-1.534,4.044-3.19,5.717-4.834c1.685-1.636,3.11-3.303,4.316-4.893c2.418-3.184,3.926-6.072,4.836-8.111
						c0.479-1.012,0.772-1.831,0.988-2.38c0.101-0.25,0.184-0.454,0.252-0.623C344.97,412.492,345.004,412.422,345.013,412.425z"/>
				</g>
			</g>
			<g>
				<g>
					<path style="fill:#455A64;" d="M347.859,412.134c0.059,0.017-0.078,0.78-0.496,1.96c-0.415,1.178-1.147,2.761-2.215,4.35
						c-1.072,1.587-2.265,2.86-3.201,3.687c-0.937,0.83-1.593,1.244-1.631,1.195c-0.108-0.122,2.324-2.038,4.41-5.166
						C346.842,415.054,347.705,412.08,347.859,412.134z"/>
				</g>
			</g>
			<g>
				<g>
					<path style="fill:#455A64;" d="M240.749,464.481c-0.034-0.007,0.011-0.374,0.124-1.031c0.109-0.658,0.302-1.603,0.569-2.766
						c0.534-2.323,1.416-5.506,2.683-8.922c1.271-3.416,2.682-6.403,3.794-8.511c0.557-1.055,1.027-1.897,1.374-2.466
						c0.344-0.571,0.549-0.879,0.579-0.862c0.068,0.038-0.606,1.346-1.632,3.489c-1.026,2.142-2.375,5.133-3.639,8.527
						c-1.258,3.395-2.19,6.541-2.811,8.833C241.169,463.065,240.825,464.497,240.749,464.481z"/>
				</g>
			</g>
			<g>
				<g>
					<path style="fill:#455A64;" d="M165.635,399.963c-0.02-0.053,0.685-0.391,1.911-0.669c1.222-0.28,2.979-0.442,4.889-0.185
						c1.91,0.264,3.56,0.891,4.662,1.489c1.107,0.597,1.695,1.111,1.662,1.157c-0.074,0.152-2.656-1.66-6.392-2.142
						C168.64,399.076,165.666,400.129,165.635,399.963z"/>
				</g>
			</g>
		</g>
		<g>
			<g>
				<path style="fill:#455A64;" d="M190.286,449.71c-2.368-0.007-5.334,1.829-6.843,3.654c-1.509,1.825-2.439,4.048-3.326,6.243
					c-0.695,1.719-1.381,3.655-0.69,5.376c0.654,1.627,2.413,2.587,4.151,2.819c1.738,0.232,3.493-0.129,5.222-0.42
					c18.065-3.044,36.728,1.404,54.842-1.328L190.286,449.71z"/>
			</g>
			<g>
				<g>
					<path style="fill:#FFFFFF;" d="M190.174,467.081c-0.034-0.03,0.264-0.34,0.645-0.995c0.375-0.648,0.835-1.679,0.885-3.02
						c0.06-1.322-0.392-2.957-1.559-4.277c-0.578-0.651-1.327-1.232-2.212-1.534c-0.874-0.312-1.91-0.283-2.688,0.299
						c-0.791,0.542-1.151,1.592-0.634,2.333c0.225,0.371,0.591,0.652,0.98,0.754c0.389,0.111,0.794,0,1.107-0.241
						c0.648-0.503,0.822-1.371,0.736-2.126c-0.082-0.769-0.304-1.491-0.533-2.122c-0.984-2.541-2.356-3.686-2.262-3.75
						c0.019-0.021,0.363,0.239,0.876,0.823c0.511,0.58,1.184,1.504,1.72,2.796c0.259,0.65,0.508,1.372,0.617,2.209
						c0.113,0.813-0.045,1.88-0.866,2.539c-0.393,0.321-0.979,0.492-1.516,0.342c-0.532-0.136-0.99-0.492-1.282-0.961
						c-0.3-0.456-0.421-1.097-0.24-1.647c0.163-0.556,0.538-1.027,0.998-1.361c0.932-0.698,2.185-0.717,3.149-0.357
						c0.99,0.348,1.79,0.988,2.403,1.697c1.235,1.437,1.676,3.2,1.565,4.603c-0.101,1.42-0.639,2.472-1.077,3.108
						C190.54,466.835,190.191,467.099,190.174,467.081z"/>
				</g>
			</g>
			<g>
				<g>
					<path style="fill:#FFFFFF;" d="M202.543,453.25c0.042-0.03,0.596,0.674,1.041,2.033c0.448,1.34,0.699,3.386,0.097,5.508
						c-0.605,2.122-1.896,3.73-2.983,4.633c-1.093,0.921-1.935,1.228-1.955,1.18c-0.044-0.075,0.723-0.492,1.714-1.446
						c0.988-0.939,2.163-2.499,2.735-4.506c0.57-2.007,0.392-3.951,0.046-5.27C202.898,454.049,202.465,453.29,202.543,453.25z"/>
				</g>
			</g>
			<g>
				<g>
					<path style="fill:#FFFFFF;" d="M212.597,456.381c0.026,0.038-0.258,0.221-0.648,0.663c-0.384,0.436-0.861,1.179-1.034,2.206
						c-0.168,0.992-0.018,2.372,0.972,3.285c0.467,0.446,1.184,0.701,1.785,0.414c0.597-0.271,1.021-1.02,0.918-1.713
						c-0.098-0.708-0.696-1.285-1.347-1.503c-0.655-0.231-1.382-0.077-1.938,0.265c-1.162,0.697-1.524,2.04-1.484,3.049
						c0.035,1.04,0.39,1.849,0.64,2.382c0.261,0.535,0.438,0.82,0.406,0.842c-0.025,0.018-0.257-0.228-0.579-0.747
						c-0.309-0.518-0.737-1.334-0.825-2.459c-0.039-0.557,0.017-1.186,0.257-1.814c0.233-0.626,0.689-1.243,1.34-1.651
						c0.638-0.409,1.514-0.619,2.343-0.339c0.8,0.264,1.55,0.953,1.691,1.902c0.125,0.945-0.399,1.862-1.213,2.239
						c-0.854,0.393-1.784,0.005-2.312-0.523c-1.135-1.099-1.23-2.633-1.006-3.694c0.235-1.102,0.797-1.861,1.245-2.277
						C212.262,456.486,212.586,456.36,212.597,456.381z"/>
				</g>
			</g>
			<g>
				<g>
					<path style="fill:#FFFFFF;" d="M222.92,467.081c-0.045-0.063,0.291-0.341,0.719-0.87c0.426-0.523,0.928-1.335,1.116-2.332
						c0.191-0.997,0.008-1.935-0.217-2.568c-0.224-0.639-0.457-1.009-0.394-1.055c0.047-0.039,0.393,0.262,0.725,0.915
						c0.33,0.641,0.601,1.68,0.385,2.802c-0.212,1.121-0.827,1.989-1.351,2.482C223.374,466.957,222.954,467.133,222.92,467.081z"/>
				</g>
			</g>
		</g>
		<g>
			<g>
				<path style="fill:#455A64;" d="M322.413,453.042c-2.861-3.931-8.376-4.75-13.231-4.487c-3.833,0.207-7.64,0.88-11.311,2
					c-1.921,0.586-3.912,1.302-5.886,0.936c-1.726-0.32-3.203-1.433-4.888-1.923c-3.065-0.892-6.284,0.363-9.43,0.906
					c-8.047,1.388-16.076-1.941-23.564-5.198l-8.928,17.357c8.555,3.788,16.12,5.5,25.108,7.691
					c7.974,1.944,16.315,1.271,24.517,1.563c4.689,0.167,9.401,0.652,14.059,0.081c4.657-0.571,9.374-2.343,12.41-5.921
					C324.306,462.469,325.175,456.836,322.413,453.042z"/>
			</g>
			<g>
				<g>
					<path style="fill:#FFFFFF;" d="M254.988,466.25c-0.016,0.007-0.073-0.093-0.168-0.292c-0.1-0.196-0.215-0.499-0.347-0.896
						c-0.247-0.795-0.506-2.003-0.43-3.51c0.077-1.496,0.5-3.306,1.584-5.005c0.54-0.837,1.268-1.678,2.295-2.177
						c1.005-0.474,2.338-0.618,3.406,0.15c0.475,0.409,0.854,1.013,0.705,1.725c-0.083,0.351-0.365,0.634-0.674,0.757
						c-0.314,0.127-0.629,0.126-0.915,0.097c-1.124-0.159-2.107-0.649-2.896-1.291c-1.592-1.295-2.278-3.201-2.187-4.72
						c0.067-1.536,0.66-2.678,1.167-3.339c0.255-0.336,0.487-0.566,0.653-0.711c0.17-0.141,0.264-0.207,0.276-0.194
						c0.034,0.035-0.322,0.335-0.767,1.019c-0.442,0.673-0.952,1.788-0.97,3.234c-0.039,1.429,0.632,3.163,2.122,4.348
						c0.731,0.584,1.663,1.026,2.654,1.16c0.483,0.068,0.956-0.091,1.047-0.484c0.1-0.389-0.167-0.906-0.536-1.205
						c-0.799-0.587-1.995-0.519-2.872-0.094c-0.907,0.431-1.595,1.194-2.116,1.983c-1.052,1.602-1.498,3.329-1.617,4.773
						C254.192,464.513,255.109,466.229,254.988,466.25z"/>
				</g>
			</g>
			<g>
				<g>
					<path style="fill:#FFFFFF;" d="M269.071,469.132c0-0.044,0.319-0.044,0.858-0.185c0.536-0.135,1.293-0.47,2.01-1.15
						c0.721-0.669,1.344-1.718,1.538-3.008c0.205-1.283,0.008-2.758-0.569-4.157c-0.58-1.406-1.429-2.614-2.255-3.661
						c-0.826-1.037-1.687-1.954-2.111-2.937c-0.441-0.977-0.398-1.899-0.197-2.452c0.202-0.565,0.481-0.775,0.494-0.756
						c0.039,0.026-0.176,0.275-0.304,0.811c-0.129,0.527-0.113,1.367,0.331,2.244c0.43,0.891,1.28,1.748,2.15,2.796
						c0.86,1.048,1.751,2.284,2.361,3.762c0.609,1.475,0.808,3.049,0.561,4.427c-0.233,1.385-0.954,2.519-1.758,3.196
						c-0.801,0.694-1.635,0.996-2.211,1.077C269.39,469.227,269.068,469.157,269.071,469.132z"/>
				</g>
			</g>
			<g>
				<g>
					<path style="fill:#FFFFFF;" d="M292.332,451.505c0.017-0.005,0.076,0.136,0.174,0.411c0.09,0.277,0.221,0.688,0.341,1.23
						c0.242,1.079,0.482,2.692,0.327,4.684c-0.082,0.99-0.236,2.087-0.657,3.204c-0.412,1.104-1.156,2.257-2.352,2.955
						c-1.177,0.683-2.694,0.949-4.138,0.54c-0.717-0.202-1.414-0.562-1.971-1.123c-0.557-0.545-0.943-1.372-0.841-2.216
						c0.054-0.841,0.718-1.641,1.54-1.805c0.798-0.209,1.657,0.037,2.248,0.528c1.199,0.998,1.59,2.55,1.499,3.886
						c-0.243,2.757-2.096,4.732-3.795,5.717c-1.733,1.026-3.32,1.413-4.387,1.678c-0.539,0.127-0.961,0.205-1.248,0.254
						c-0.287,0.047-0.44,0.063-0.444,0.046c-0.009-0.039,0.585-0.185,1.641-0.491c1.044-0.32,2.598-0.761,4.248-1.792
						c0.812-0.527,1.646-1.201,2.288-2.132c0.645-0.917,1.15-2.06,1.229-3.311c0.078-1.222-0.316-2.628-1.341-3.465
						c-0.501-0.41-1.181-0.591-1.814-0.428c-0.639,0.141-1.101,0.697-1.159,1.369c-0.08,0.672,0.217,1.329,0.696,1.807
						c0.476,0.484,1.103,0.815,1.746,0.998c1.298,0.377,2.692,0.144,3.766-0.466c1.085-0.619,1.786-1.659,2.195-2.703
						c0.416-1.052,0.589-2.115,0.692-3.083c0.197-1.944,0.017-3.535-0.163-4.613C292.467,452.103,292.291,451.517,292.332,451.505z"
						/>
				</g>
			</g>
			<g>
				<g>
					<path style="fill:#FFFFFF;" d="M300.63,471.584c-0.012,0.013-0.137-0.082-0.366-0.276c-0.227-0.196-0.542-0.508-0.913-0.944
						c-0.717-0.878-1.642-2.318-2.089-4.339c-0.456-1.995-0.298-4.616,1.039-7.026c0.658-1.198,1.585-2.333,2.763-3.251
						c1.165-0.891,2.625-1.696,4.297-1.616c1.664,0.049,3.209,1.535,3.004,3.221c-0.108,0.831-0.743,1.495-1.444,1.774
						c-0.705,0.294-1.481,0.323-2.176,0.108c-1.43-0.468-2.164-1.861-2.319-3.063c-0.162-1.236,0.121-2.409,0.647-3.317
						c1.102-1.801,2.639-2.638,3.614-3.178c0.504-0.265,0.907-0.444,1.183-0.56c0.276-0.114,0.426-0.164,0.433-0.148
						c0.018,0.037-0.548,0.31-1.519,0.88c-0.936,0.584-2.404,1.463-3.399,3.184c-0.467,0.848-0.709,1.949-0.542,3.078
						c0.158,1.102,0.846,2.304,2.041,2.677c0.585,0.176,1.26,0.144,1.845-0.107c0.587-0.244,1.062-0.76,1.143-1.399
						c0.172-1.297-1.117-2.62-2.544-2.642c-1.459-0.077-2.846,0.652-3.959,1.503c-1.124,0.868-2.018,1.944-2.658,3.084
						c-1.3,2.295-1.492,4.787-1.097,6.726c0.387,1.961,1.236,3.392,1.893,4.29C300.186,471.136,300.663,471.549,300.63,471.584z"/>
				</g>
			</g>
			<g>
				<g>
					<path style="fill:#FFFFFF;" d="M316.87,449.68c0.028-0.014,0.218,0.291,0.496,0.878c0.28,0.586,0.622,1.466,0.916,2.593
						c0.598,2.236,0.866,5.571-0.145,9.019c-1.012,3.449-3.041,6.11-4.752,7.669c-0.857,0.79-1.621,1.345-2.172,1.687
						c-0.551,0.343-0.876,0.497-0.892,0.47c-0.055-0.08,1.196-0.8,2.814-2.415c1.614-1.594,3.532-4.211,4.514-7.553
						c0.98-3.342,0.78-6.58,0.283-8.793C317.444,451,316.78,449.719,316.87,449.68z"/>
				</g>
			</g>
		</g>
		<g>
			<g>
				<path style="fill:#FFBE9D;" d="M210.897,231.328c0,0,2.58-2.694,2.795-3.876c0.746-4.116,2.027-6.205,4.112-7.46
					c0,0,2.73,4.627,3.012,12.519c0.201,5.635,0.305,9.892,0.305,9.892s2.83,6.702,1.489,10.128
					c-1.34,3.426-3.161,2.234-5.676,1.192c-2.515-1.043-3.409-5.064-3.409-5.064l-2.628-0.23V231.328z"/>
			</g>
			<g>
				<g>
					<path style="fill:#EB996E;" d="M217.804,219.992c0.016-0.009,0.091,0.093,0.221,0.298c0.133,0.203,0.319,0.51,0.519,0.926
						c0.415,0.824,0.91,2.073,1.322,3.671c0.418,1.596,0.746,3.535,0.994,5.693c0.111,1.083,0.227,2.214,0.347,3.386
						c0.135,1.171,0.17,2.422,0.161,3.667c-0.002,1.25-0.003,2.463,0.142,3.612c0.135,1.148,0.464,2.222,0.802,3.247
						c0.338,1.025,0.684,2.005,0.906,2.958c0.249,0.941,0.298,1.905,0.177,2.727c-0.225,1.659-0.793,2.922-1.353,3.673
						c-0.574,0.774-1.168,0.87-1.156,0.839c-0.021-0.043,0.498-0.189,0.991-0.956c0.484-0.748,0.983-1.997,1.153-3.597
						c0.245-1.609-0.466-3.447-1.171-5.491c-0.352-1.025-0.705-2.138-0.853-3.335c-0.157-1.192-0.158-2.428-0.157-3.677
						c0.009-1.255-0.02-2.446-0.148-3.62c-0.109-1.17-0.215-2.299-0.316-3.38c-0.22-2.149-0.508-4.072-0.875-5.658
						c-0.361-1.588-0.796-2.835-1.149-3.674C218.015,220.457,217.76,220.017,217.804,219.992z"/>
				</g>
			</g>
			<g>
				<g>
					<path style="fill:#EB996E;" d="M215.93,232.184c-0.026,0.142-1.38,0.011-3.024-0.292c-1.644-0.303-2.956-0.663-2.93-0.805
						c0.026-0.141,1.38-0.01,3.024,0.292C214.645,231.682,215.956,232.042,215.93,232.184z"/>
				</g>
			</g>
		</g>
		<g>
			<g>
				<path style="fill:#455A64;" d="M250.515,410.46c-0.003,0.018-0.176,0.01-0.505-0.021c-0.387-0.044-0.86-0.098-1.433-0.163
					c-1.243-0.151-3.037-0.393-5.252-0.71c-4.43-0.632-10.541-1.578-17.271-2.734c-6.732-1.158-12.808-2.308-17.195-3.192
					c-2.194-0.441-3.966-0.813-5.188-1.085c-0.561-0.13-1.025-0.237-1.404-0.325c-0.32-0.08-0.486-0.13-0.483-0.148
					c0.004-0.018,0.177-0.001,0.503,0.045c0.385,0.062,0.854,0.138,1.423,0.229c1.31,0.232,3.074,0.544,5.217,0.923
					c4.478,0.791,10.527,1.859,17.214,3.04c6.695,1.12,12.754,2.133,17.238,2.883c2.147,0.359,3.914,0.654,5.226,0.873
					c0.567,0.104,1.035,0.189,1.418,0.259C250.349,410.399,250.518,410.442,250.515,410.46z"/>
			</g>
		</g>
		<g>
			<path style="fill:#FFBE9D;" d="M277.872,218.253c0,0,2.797,6.993,2.775,9.744c-0.022,2.751-1.883,9.709-1.883,9.709
				L277.872,218.253z"/>
		</g>
		<g>
			<g>
				<path style="fill:#FFBE9D;" d="M283.14,239.287l-3.905-0.557c0,0-1.032-10.301-0.925-11.913
					c0.215-3.242-0.518-12.648-1.784-13.88c-2.655-2.582-2.063,13.88-2.063,13.88c0-4.32-0.251-9.8-0.875-10.931
					c-1.065-1.93-2.296,0.212-2.296,0.212s-2.176,16.767-2.332,20.376c-0.157,3.608-0.444,13.602,0.256,15.584
					c0.742,2.102-0.11,2.766,2.243,2.609c2.353-0.157,15.347-1.736,15.347-1.736l-2.881-13.825"/>
			</g>
			<g>
				<g>
					<path style="fill:#EB996E;" d="M271.293,216.098c0.036,0.003,0.009,0.594-0.07,1.661c-0.081,1.066-0.227,2.606-0.435,4.506
						c-0.41,3.801-1.138,9.03-1.858,14.809c-0.354,2.891-0.653,5.648-0.853,8.161c-0.157,2.505-0.473,4.807,0.038,6.606
						c0.194,0.941,0.792,1.508,1.446,1.878c0.641,0.364,1.263,0.561,1.775,0.675c1.033,0.229,1.628,0.128,1.631,0.179
						c0.002,0.014-0.142,0.058-0.426,0.082c-0.284,0.028-0.707,0.024-1.243-0.061c-0.534-0.087-1.185-0.259-1.879-0.62
						c-0.345-0.181-0.698-0.424-1.007-0.761c-0.325-0.339-0.512-0.81-0.65-1.268c-0.584-1.915-0.29-4.236-0.163-6.745
						c0.175-2.525,0.46-5.293,0.815-8.189c0.721-5.789,1.506-11.006,2.01-14.791c0.244-1.825,0.446-3.335,0.599-4.482
						C271.162,216.679,271.257,216.094,271.293,216.098z"/>
				</g>
			</g>
			<g>
				<g>
					<path style="fill:#EB996E;" d="M273.977,231.571c-0.115-0.097,0.309-0.739,0.429-1.637c0.141-0.894-0.083-1.63,0.055-1.691
						c0.116-0.078,0.62,0.699,0.461,1.766C274.77,231.077,274.065,231.679,273.977,231.571z"/>
				</g>
			</g>
			<g>
				<g>
					<path style="fill:#EB996E;" d="M274.294,218.978c0.137-0.022,0.503,1.669,0.532,3.792c0.036,2.124-0.278,3.825-0.415,3.807
						c-0.148-0.016-0.07-1.713-0.106-3.799C274.277,220.693,274.146,218.999,274.294,218.978z"/>
				</g>
			</g>
			<g>
				<g>
					<path style="fill:#EB996E;" d="M278.366,229.031c-0.133-0.003-0.285-2.349-0.448-5.257c-0.164-2.909-0.083-5.286,0.072-5.283
						c0.133,0.002,0.285,2.348,0.449,5.257C278.602,226.656,278.521,229.033,278.366,229.031z"/>
				</g>
			</g>
			<g>
				<g>
					<path style="fill:#EB996E;" d="M284.321,239.465c-0.004,0.144-1.974,0.212-4.4,0.152c-2.427-0.06-4.391-0.225-4.388-0.369
						c0.004-0.144,1.974-0.212,4.401-0.151C282.36,239.156,284.325,239.321,284.321,239.465z"/>
				</g>
			</g>
		</g>
	</g>
</g>
</svg>
