<?xml version="1.0" encoding="utf-8"?>
<!-- Generator: Adobe Illustrator 27.5.0, SVG Export Plug-In . SVG Version: 6.00 Build 0)  -->
<svg version="1.1" xmlns="http://www.w3.org/2000/svg" xmlns:xlink="http://www.w3.org/1999/xlink" x="0px" y="0px"
	 viewBox="0 0 500 500" style="enable-background:new 0 0 500 500;" xml:space="preserve">
<g id="Background_Simple">
	<g>
		<path style="fill:#92E3A9;" d="M341.571,56.087c0,0-77.633-35.211-155.676,4.818C107.852,100.935,66.792,189.45,31.662,260.176
			c-35.13,70.726-17.787,146.886,40.083,185.585c57.87,38.698,99.025-8.295,181.443-4.191
			c82.419,4.105,104.266,18.115,173.799-24.856c69.532-42.97,84.701-156.3,32.873-245.168
			C408.032,82.677,341.571,56.087,341.571,56.087z"/>
		<path style="opacity:0.7;fill:#FFFFFF;" d="M341.571,56.087c0,0-77.633-35.211-155.676,4.818
			C107.852,100.935,66.792,189.45,31.662,260.176c-35.13,70.726-17.787,146.886,40.083,185.585
			c57.87,38.698,99.025-8.295,181.443-4.191c82.419,4.105,104.266,18.115,173.799-24.856c69.532-42.97,84.701-156.3,32.873-245.168
			C408.032,82.677,341.571,56.087,341.571,56.087z"/>
	</g>
</g>
<g id="Ghost_4">
	<g>
		<path style="fill:#263238;" d="M295.817,336.156c0,0,4.406,21.806,27.193,25.079c22.787,3.274,54.891,8.688,53.204,27.132
			s-18.52,23.404-21.945,38.31c-3.425,14.906,11.091,29.423,28.49,32.243c17.399,2.82,32.998-3.6,47.678-26.513
			c14.68-22.913,5.188-58.442-12.072-80.65c-17.26-22.209-44.857-19.918-72.781-15.348
			C317.66,340.979,308.192,345.473,295.817,336.156z"/>
		<path style="opacity:0.5;fill:#FFFFFF;" d="M295.817,336.156c0,0,4.406,21.806,27.193,25.079
			c22.787,3.274,54.891,8.688,53.204,27.132s-18.52,23.404-21.945,38.31c-3.425,14.906,11.091,29.423,28.49,32.243
			c17.399,2.82,32.998-3.6,47.678-26.513c14.68-22.913,5.188-58.442-12.072-80.65c-17.26-22.209-44.857-19.918-72.781-15.348
			C317.66,340.979,308.192,345.473,295.817,336.156z"/>
		<polygon style="fill:#263238;stroke:#FFFFFF;stroke-linecap:round;stroke-linejoin:round;stroke-miterlimit:10;" points="
			362.45,446.694 364.452,444.336 367.527,446.399 370.133,444.597 372.477,448.476 378.888,446.922 379.859,449.963 
			385.171,447.739 386.457,453.044 393.256,451.162 392.847,454.304 399.64,453.359 395.969,457.526 392.171,456.34 
			389.786,458.089 386.939,455.034 384.28,456.615 382.036,454.116 378.827,455.362 375.867,452.803 374.031,454.886 
			371.238,452.053 369.081,452.81 366.897,449.594 365.129,450.023 364.426,448.087 		"/>
		<path style="fill:#263238;stroke:#FFFFFF;stroke-linecap:round;stroke-linejoin:round;stroke-miterlimit:10;" d="M394.093,442.066
			c0.207,0.855,2.354,1.068,4.796,0.476c2.442-0.592,4.253-1.765,4.046-2.619c-0.207-0.855-2.354-1.068-4.796-0.476
			C395.698,440.039,393.886,441.211,394.093,442.066z"/>
		<path style="fill:#263238;stroke:#FFFFFF;stroke-linecap:round;stroke-linejoin:round;stroke-miterlimit:10;" d="M364.823,431.286
			c-0.703,0.528-0.051,2.585,1.457,4.594c1.508,2.009,3.301,3.21,4.004,2.682c0.703-0.528,0.051-2.585-1.457-4.594
			C367.319,431.96,365.526,430.759,364.823,431.286z"/>
	</g>
</g>
<g id="Ghost_3">
	<g>
		<path style="fill:#263238;" d="M437.175,153.18c1.185-33.171-10.366-57.752-19.843-71.672
			c-9.477-13.92-23.397-21.62-31.393-30.801c-7.996-9.181-13.624-13.624-20.139-16.585c-6.516-2.962-14.216-3.85-14.216-3.85
			l2.665,5.035c0,0-5.035-3.258-7.996-3.258c-2.962,0-8.293,0-8.293,0l5.331,6.812l-12.735-0.889c0,0,5.331,7.108,7.996,9.181
			c2.665,2.073,5.331,3.85,5.331,3.85s-6.219,0.592-7.404,0.592c-1.185,0-3.85,0.296-3.85,0.296s9.181,4.146,15.401,8.885
			c6.219,4.739,7.7,7.108,7.7,7.108l-12.439,0.296c0,0,6.516,5.627,12.735,9.181c6.219,3.554,12.439,3.85,16.585,7.108
			c4.146,3.258,24.285,22.805,31.097,42.352c6.812,19.547,2.665,30.505,2.665,30.505s-5.035,11.55-18.362,11.55
			c-13.327,0-17.474-19.547-21.324-29.32l-2.369-10.07c0,0,4.739-1.185,4.739-6.812c0-5.627-2.665-13.624-5.923-15.104
			c-3.258-1.481-5.923-1.481-5.923-1.481s-2.631-6.307-7.753-11.779c0.68-1.173,1.737-3.527,1.533-6.583
			c-0.225-3.376-3.7-6.752-5.355-8.178c-0.203-0.175-0.495,0.035-0.413,0.289c0.339,1.041,0.549,2.778-0.748,4.631
			c-1.252,1.789-2.825,2.818-3.877,3.355c-8.45-3.886-19.632-3.927-26.332,6.122c-1.383,2.075-2.447,4.245-3.266,6.432
			c-0.67,0.835-1.81,2.072-2.953,2.453c-1.777,0.592-6.812-5.627-6.812-5.627s-2.073,3.258,0.296,9.477
			c1.506,3.954,4.685,4.314,7.184,3.825c-0.611,6.122,0.061,11.281,0.22,13.352c0.296,3.85,0.296,5.035,0.296,5.035
			s-2.962,2.962-1.481,8.293c1.481,5.331,5.923,10.662,7.404,11.551c1.481,0.888,2.962,1.185,2.962,1.185s6.812,5.923,10.662,17.77
			c3.85,11.847,2.665,20.732-4.442,23.101c-7.108,2.369-18.362-13.624-26.063-35.836c-7.7-22.212-1.777-45.609-0.889-55.679
			c0.889-10.07,3.554-21.028,0.889-16.585c-2.666,4.442-7.108,11.55-7.108,11.55s-0.592-26.063-0.296-29.32
			c0.296-3.258,0.296-5.627,0.296-5.627l-9.477,12.439l4.146-16.289c0,0-5.923,4.739-7.404,6.812
			c-1.481,2.073-4.146,4.739-4.146,4.739l0.296-10.07c0,0-7.108,9.774-7.997,12.735c-0.055,0.183-0.114,0.382-0.177,0.594
			l-0.711-8.295c0,0-4.443,2.073-4.443,18.066c0,7.795,0.422,13.886,0.855,18.098c-0.688,10.254-1.169,23.842-0.263,37.285
			c1.777,26.359,17.474,49.756,33.763,71.079c16.289,21.324,36.428,32.578,48.571,43.832c12.143,11.254,16.275,18.916,6.501,21.285
			c-9.773,2.369-5.02-10.031-18.94-17.139c-13.92-7.108-27.247,14.808-27.247,14.808s14.512-12.439,20.732-5.923
			c6.219,6.516-2.369,9.181-1.481,23.101c0.888,13.92,12.439,20.435,39.982,20.139c27.543-0.296,39.39-13.624,51.829-39.982
			s-1.777-48.275,3.554-62.491C424.439,189.905,435.99,186.351,437.175,153.18z"/>
		<path style="opacity:0.5;fill:#FFFFFF;" d="M437.175,153.18c1.185-33.171-10.366-57.752-19.843-71.672
			c-9.477-13.92-23.397-21.62-31.393-30.801c-7.996-9.181-13.624-13.624-20.139-16.585c-6.516-2.962-14.216-3.85-14.216-3.85
			l2.665,5.035c0,0-5.035-3.258-7.996-3.258c-2.962,0-8.293,0-8.293,0l5.331,6.812l-12.735-0.889c0,0,5.331,7.108,7.996,9.181
			c2.665,2.073,5.331,3.85,5.331,3.85s-6.219,0.592-7.404,0.592c-1.185,0-3.85,0.296-3.85,0.296s9.181,4.146,15.401,8.885
			c6.219,4.739,7.7,7.108,7.7,7.108l-12.439,0.296c0,0,6.516,5.627,12.735,9.181c6.219,3.554,12.439,3.85,16.585,7.108
			c4.146,3.258,24.285,22.805,31.097,42.352c6.812,19.547,2.665,30.505,2.665,30.505s-5.035,11.55-18.362,11.55
			c-13.327,0-17.474-19.547-21.324-29.32l-2.369-10.07c0,0,4.739-1.185,4.739-6.812c0-5.627-2.665-13.624-5.923-15.104
			c-3.258-1.481-5.923-1.481-5.923-1.481s-2.631-6.307-7.753-11.779c0.68-1.173,1.737-3.527,1.533-6.583
			c-0.225-3.376-3.7-6.752-5.355-8.178c-0.203-0.175-0.495,0.035-0.413,0.289c0.339,1.041,0.549,2.778-0.748,4.631
			c-1.252,1.789-2.825,2.818-3.877,3.355c-8.45-3.886-19.632-3.927-26.332,6.122c-1.383,2.075-2.447,4.245-3.266,6.432
			c-0.67,0.835-1.81,2.072-2.953,2.453c-1.777,0.592-6.812-5.627-6.812-5.627s-2.073,3.258,0.296,9.477
			c1.506,3.954,4.685,4.314,7.184,3.825c-0.611,6.122,0.061,11.281,0.22,13.352c0.296,3.85,0.296,5.035,0.296,5.035
			s-2.962,2.962-1.481,8.293c1.481,5.331,5.923,10.662,7.404,11.551c1.481,0.888,2.962,1.185,2.962,1.185s6.812,5.923,10.662,17.77
			c3.85,11.847,2.665,20.732-4.442,23.101c-7.108,2.369-18.362-13.624-26.063-35.836c-7.7-22.212-1.777-45.609-0.889-55.679
			c0.889-10.07,3.554-21.028,0.889-16.585c-2.666,4.442-7.108,11.55-7.108,11.55s-0.592-26.063-0.296-29.32
			c0.296-3.258,0.296-5.627,0.296-5.627l-9.477,12.439l4.146-16.289c0,0-5.923,4.739-7.404,6.812
			c-1.481,2.073-4.146,4.739-4.146,4.739l0.296-10.07c0,0-7.108,9.774-7.997,12.735c-0.055,0.183-0.114,0.382-0.177,0.594
			l-0.711-8.295c0,0-4.443,2.073-4.443,18.066c0,7.795,0.422,13.886,0.855,18.098c-0.688,10.254-1.169,23.842-0.263,37.285
			c1.777,26.359,17.474,49.756,33.763,71.079c16.289,21.324,36.428,32.578,48.571,43.832c12.143,11.254,16.275,18.916,6.501,21.285
			c-9.773,2.369-5.02-10.031-18.94-17.139c-13.92-7.108-27.247,14.808-27.247,14.808s14.512-12.439,20.732-5.923
			c6.219,6.516-2.369,9.181-1.481,23.101c0.888,13.92,12.439,20.435,39.982,20.139c27.543-0.296,39.39-13.624,51.829-39.982
			s-1.777-48.275,3.554-62.491C424.439,189.905,435.99,186.351,437.175,153.18z"/>
		<path style="fill:#263238;stroke:#FFFFFF;stroke-linecap:round;stroke-linejoin:round;stroke-miterlimit:10;" d="M351.287,115.864
			l-32.874,13.92c0,0,4.739,9.181,18.954,7.996C351.583,136.595,351.287,115.864,351.287,115.864z"/>
		<path style="fill:none;stroke:#FFFFFF;stroke-linecap:round;stroke-linejoin:round;stroke-miterlimit:10;" d="M317.524,122.972
			c0,0,18.066-10.662,31.097-10.662"/>
		<path style="fill:none;stroke:#FFFFFF;stroke-linecap:round;stroke-linejoin:round;stroke-miterlimit:10;" d="M321.078,114.975
			c0,0,7.108-6.219,18.658-6.812"/>
		<path style="fill:none;stroke:#FFFFFF;stroke-linecap:round;stroke-linejoin:round;stroke-miterlimit:10;" d="M324.336,108.46
			c0,0,4.146-2.962,8.589-2.962"/>
		<path style="fill:#FFFFFF;" d="M340.329,131.857c0,1.145-0.928,2.073-2.073,2.073c-1.145,0-2.073-0.928-2.073-2.073
			c0-1.145,0.928-2.073,2.073-2.073C339.401,129.783,340.329,130.712,340.329,131.857z"/>
		<g>
			<path style="fill:none;stroke:#FFFFFF;stroke-linecap:round;stroke-linejoin:round;stroke-miterlimit:10;" d="M363.133,161.177
				c0,0-4.146-12.735-11.847-15.401c-7.7-2.665-15.401,3.85-15.401,12.439c0,8.589,5.627,16.881,8.589,13.327
				c2.962-3.554,3.258-12.439,6.812-11.847c3.554,0.592,6.219,9.773,10.366,8.293S363.133,161.177,363.133,161.177z"/>
			<path style="fill:#263238;stroke:#FFFFFF;stroke-linecap:round;stroke-linejoin:round;stroke-miterlimit:10;" d="M358.424,157.15
				c-0.302-0.694-0.67-1.342-1.017-1.781c-2.111-2.67-5.429-6.401-9.082-6.63c-4.739-0.296-8.885,4.443-8.885,9.181
				c0,4.739,1.481,10.662,2.962,7.7c1.481-2.961,3.85-9.772,7.403-10.07c2.749-0.23,4.607,2.853,6.558,4.236
				C359.698,162.15,359.407,159.407,358.424,157.15z"/>
		</g>
	</g>
</g>
<g id="Ghost_2">
	<g>
		<g>
			<path style="fill:#263238;" d="M178.003,167.95c0,0-6.382,15.06-12.257,15.434c-5.875,0.374-3.958-10.612,0.411-25.838
				c4.369-15.226,18.384-45.399,15.578-64.332c-2.806-18.933-26.347-30.221-39.584-14.244
				c-13.237,15.977-19.043,50.566-25.538,68.89s-13.843,22.395-18.95,17.221c-5.107-5.174,5.883-53.519,9.378-65.699
				c3.496-12.181,5.786-17.291,8.401-20.661c2.615-3.369,9.05-17.179,9.05-17.179l-7.021,2.929c0,0,1.917-10.986,3.774-17.457
				c1.857-6.471,3.168-11.039,3.168-11.039s-8.878,9.4-9.586,10.433c-0.708,1.033,0.023-20.181,0.023-20.181l-10.241,12.717
				l-1.135-6.094l-5.998,12.286l-4.564-4.194c0,0-7.583,19.247-12.827,37.518c-5.243,18.271-14.926,64.931-12.887,89.412
				c2.039,24.481,10.783,35.642,18.509,34.563s13.167-2.813,13.167-2.813s-9.881,30.124-2.235,50.858
				c7.646,20.734,21.451,30.052,33.311,28.923c11.86-1.128,30.031-4.153,33.51-1.919c3.479,2.234-4.336-13.604-14.067-18.457
				s-9.651-26.665-6.047-39.227c3.605-12.561,4.479-15.606,4.479-15.606s12.114,13.776,33.887,1.073
				c21.773-12.703,31.876-46.471,34.716-56.368c2.84-9.897,16.799-38.438,19.526-45.072c2.728-6.633,6.66-20.336,6.66-20.336
				l-6.534,5.541c0,0,2.033-17.132,1.818-19.254c-0.215-2.122-0.755-5.984-0.755-5.984l-5.72,7.01l-1.393-18.116l-7.58,16.364
				l-2.922-12.786c0,0-9.867,18.592-10.96,22.398c-1.092,3.806-2.185,7.613-2.185,7.613l-5.048-9.688c0,0-2.731,9.516-3.231,18.436
				c-0.5,8.92-1.599,18.493-7.279,38.286S178.003,167.95,178.003,167.95z"/>
			<path style="opacity:0.5;fill:#FFFFFF;" d="M178.003,167.95c0,0-6.382,15.06-12.257,15.434
				c-5.875,0.374-3.958-10.612,0.411-25.838c4.369-15.226,18.384-45.399,15.578-64.332c-2.806-18.933-26.347-30.221-39.584-14.244
				c-13.237,15.977-19.043,50.566-25.538,68.89s-13.843,22.395-18.95,17.221c-5.107-5.174,5.883-53.519,9.378-65.699
				c3.496-12.181,5.786-17.291,8.401-20.661c2.615-3.369,9.05-17.179,9.05-17.179l-7.021,2.929c0,0,1.917-10.986,3.774-17.457
				c1.857-6.471,3.168-11.039,3.168-11.039s-8.878,9.4-9.586,10.433c-0.708,1.033,0.023-20.181,0.023-20.181l-10.241,12.717
				l-1.135-6.094l-5.998,12.286l-4.564-4.194c0,0-7.583,19.247-12.827,37.518c-5.243,18.271-14.926,64.931-12.887,89.412
				c2.039,24.481,10.783,35.642,18.509,34.563s13.167-2.813,13.167-2.813s-9.881,30.124-2.235,50.858
				c7.646,20.734,21.451,30.052,33.311,28.923c11.86-1.128,30.031-4.153,33.51-1.919c3.479,2.234-4.336-13.604-14.067-18.457
				s-9.651-26.665-6.047-39.227c3.605-12.561,4.479-15.606,4.479-15.606s12.114,13.776,33.887,1.073
				c21.773-12.703,31.876-46.471,34.716-56.368c2.84-9.897,16.799-38.438,19.526-45.072c2.728-6.633,6.66-20.336,6.66-20.336
				l-6.534,5.541c0,0,2.033-17.132,1.818-19.254c-0.215-2.122-0.755-5.984-0.755-5.984l-5.72,7.01l-1.393-18.116l-7.58,16.364
				l-2.922-12.786c0,0-9.867,18.592-10.96,22.398c-1.092,3.806-2.185,7.613-2.185,7.613l-5.048-9.688c0,0-2.731,9.516-3.231,18.436
				c-0.5,8.92-1.599,18.493-7.279,38.286S178.003,167.95,178.003,167.95z"/>
			<path style="fill:#263238;stroke:#FFFFFF;stroke-linecap:round;stroke-linejoin:round;stroke-miterlimit:10;" d="M161.447,92.13
				c-1.538,5.361-7.131,8.459-12.492,6.921c-5.361-1.538-8.459-7.131-6.921-12.492s7.131-8.459,12.492-6.921
				C159.887,81.176,162.985,86.769,161.447,92.13z"/>
			<path style="fill:#263238;stroke:#FFFFFF;stroke-linecap:round;stroke-linejoin:round;stroke-miterlimit:10;" d="M180.098,97.482
				c-0.995,3.469-4.614,5.474-8.083,4.478c-3.469-0.995-5.474-4.614-4.478-8.083c0.995-3.469,4.614-5.474,8.083-4.478
				S181.094,94.014,180.098,97.482z"/>
			<path style="fill:none;stroke:#FFFFFF;stroke-linecap:round;stroke-linejoin:round;stroke-miterlimit:10;" d="M136.187,179.433
				L136.187,179.433c-7.883-2.262-12.44-10.487-10.178-18.37l12.562-43.774c2.262-7.883,10.487-12.44,18.37-10.178l0,0
				c7.883,2.262,12.44,10.487,10.178,18.37l-12.562,43.774C152.295,177.139,144.07,181.695,136.187,179.433z"/>
			<path style="fill:#263238;stroke:#FFFFFF;stroke-linecap:round;stroke-linejoin:round;stroke-miterlimit:10;" d="
				M137.825,173.723L137.825,173.723c-4.94-1.418-7.796-6.572-6.378-11.512l12.344-43.013c1.418-4.94,6.572-7.796,11.512-6.378v0
				c4.94,1.418,7.796,6.572,6.378,11.512l-12.344,43.013C147.92,172.286,142.766,175.141,137.825,173.723z"/>
		</g>
		<polyline style="fill:none;stroke:#FFFFFF;stroke-linecap:round;stroke-linejoin:round;stroke-miterlimit:10;" points="
			153.656,73.907 165.255,81.545 174.81,84.287 		"/>
		<polyline style="fill:none;stroke:#FFFFFF;stroke-linecap:round;stroke-linejoin:round;stroke-miterlimit:10;" points="
			161.737,72.779 168.218,77.224 172.2,78.367 		"/>
	</g>
</g>
<g id="Ghost_1">
	<g>
		<path style="fill:#263238;" d="M173.348,329.698c0,0-19.031,13.604-46.863-3.212c-27.831-16.815-25.853-36.404-51.547-50.263
			c-25.695-13.859-39.145,9.289-33.311,37.429c5.834,28.141,32.542,53.062,65.891,52.93
			C140.867,366.449,171.595,335,173.348,329.698z"/>
		<path style="opacity:0.5;fill:#FFFFFF;" d="M173.348,329.698c0,0-19.031,13.604-46.863-3.212
			c-27.831-16.815-25.853-36.404-51.547-50.263c-25.695-13.859-39.145,9.289-33.311,37.429c5.834,28.141,32.542,53.062,65.891,52.93
			C140.867,366.449,171.595,335,173.348,329.698z"/>
		<path style="fill:#263238;stroke:#FFFFFF;stroke-linecap:round;stroke-linejoin:round;stroke-miterlimit:10;" d="M48.782,286.519
			c0,0-8.074,12.123-4.069,14.659C48.72,303.713,53.911,280.948,48.782,286.519z"/>
		<path style="fill:#263238;stroke:#FFFFFF;stroke-linecap:round;stroke-linejoin:round;stroke-miterlimit:10;" d="M74.959,285.053
			c0,0-18.15-8.683-16.212-2.247c1.938,6.437,18.675,11.02,20.019,8.263C80.11,288.314,74.959,285.053,74.959,285.053z"/>
		<path style="fill:#263238;stroke:#FFFFFF;stroke-linecap:round;stroke-linejoin:round;stroke-miterlimit:10;" d="M52.218,318.051
			c0,0,10.015,18.466,9.148,13.247c-0.868-5.218-8.583-18.572-10.051-18.943C49.847,311.984,52.218,318.051,52.218,318.051z"/>
		<path style="fill:#263238;stroke:#FFFFFF;stroke-linecap:round;stroke-linejoin:round;stroke-miterlimit:10;" d="M75.255,306.983
			c0,0,10.015,18.466,9.148,13.247c-0.868-5.218-8.583-18.572-10.051-18.943C72.884,300.916,75.255,306.983,75.255,306.983z"/>
		<path style="fill:#263238;stroke:#FFFFFF;stroke-linecap:round;stroke-linejoin:round;stroke-miterlimit:10;" d="M54.939,312.35
			c0,0,12.541,22.34,11.467,16.02c-1.074-6.32-10.737-22.474-12.584-22.918C51.976,305.007,54.939,312.35,54.939,312.35z"/>
		<path style="fill:#263238;stroke:#FFFFFF;stroke-linecap:round;stroke-linejoin:round;stroke-miterlimit:10;" d="M66.801,305.595
			c0,0,12.541,22.34,11.467,16.02c-1.074-6.32-10.737-22.474-12.584-22.919C63.837,298.252,66.801,305.595,66.801,305.595z"/>
		<path style="fill:#263238;stroke:#FFFFFF;stroke-linecap:round;stroke-linejoin:round;stroke-miterlimit:10;" d="M58.868,307.086
			c0,0,17.009,27.82,15.593,19.927c-1.416-7.893-14.532-28.004-17.063-28.543C54.867,297.931,58.868,307.086,58.868,307.086z"/>
	</g>
</g>
<g id="Character">
	<g>
		<path style="fill:#263238;stroke:#263238;stroke-linecap:round;stroke-linejoin:round;stroke-miterlimit:10;" d="M268.685,197.013
			c0,0-10.958-3.554-25.174,2.369c-14.216,5.923-21.62,18.658-21.62,18.658l7.404,0.888c0,0,0,5.627-7.108,14.512
			c-7.108,8.885-24.878,18.954-36.428,32.282c-11.55,13.327-9.181,24.878-9.181,24.878l16.585-4.146c0,0-4.739,5.923-2.665,14.808
			c2.073,8.885,7.996,15.104,19.547,18.658c11.55,3.554,36.428-2.665,36.428-2.665s7.404,10.662,22.212,15.401
			c14.808,4.739,21.916,2.073,26.655-2.073c4.739-4.146,6.812-8.293,6.812-8.293l6.516,3.85c0,0,9.181-7.7,6.812-21.62
			c-2.369-13.92-17.178-30.801-19.547-44.721c-2.369-13.92,2.962-36.428,0.296-44.128c-2.666-7.7-10.366-10.366-10.366-10.366
			l2.962-2.369l-8.589-2.073c0,0-1.481-5.331-4.739-8.293c-3.258-2.962-8.589-3.258-8.589-3.258l4.739,7.404L268.685,197.013z"/>
		<g>
			<path style="fill:#FFFFFF;stroke:#263238;stroke-linecap:round;stroke-linejoin:round;stroke-miterlimit:10;" d="
				M278.754,285.566c0,0,6.516,2.073,8.293,13.624c1.777,11.55,4.443,33.763,4.443,36.132c0,2.369,12.735,55.679,12.735,55.679
				s5.923-0.889,8.885-1.777c2.962-0.888,6.812,0.888,6.812,0.888s1.777-0.888,3.85,1.185c2.073,2.073,7.997,5.331,9.181,6.219
				c1.185,0.888-0.296,1.777-2.369,1.481c-2.073-0.296-4.443-0.889-5.331-1.481c-0.889-0.592-5.331,0.296-5.331,0.296
				s7.108,1.777,8.885,2.369c1.777,0.592,2.962,1.185,1.481,2.073c-1.481,0.889-6.219,0.592-7.996,0.296
				c-1.777-0.296-9.477,0.889-14.216,0c-4.739-0.888-11.254-7.404-11.254-7.404s-11.55-22.212-16.585-34.355
				c-3.776-9.107-8.589-21.62-9.181-23.101c-0.592-1.481-4.146-7.404-4.146-7.404s-0.888-19.251-2.665-24.285
				c-1.777-5.035-1.185-22.212-0.296-23.101C264.834,282.012,276.681,284.085,278.754,285.566z"/>
			<path style="fill:#92E3A9;stroke:#263238;stroke-linecap:round;stroke-linejoin:round;stroke-miterlimit:10;" d="
				M291.489,335.322c0-2.369-2.665-24.582-4.443-36.132c-1.777-11.55-8.293-13.624-8.293-13.624
				c-2.073-1.481-13.92-3.554-14.808-2.665c-0.888,0.888-1.481,18.066,0.296,23.101c1.777,5.035,2.665,24.285,2.665,24.285
				s3.554,5.923,4.146,7.404c0.592,1.481,5.405,13.994,9.181,23.101c1.311,3.163,3.066,7.01,4.943,10.969
				c3.25,0.088,7.793-1.117,13.013-6.284C294.9,351.415,291.489,336.548,291.489,335.322z"/>
			<path style="fill:#263238;stroke:#263238;stroke-linecap:round;stroke-linejoin:round;stroke-miterlimit:10;" d="M281.486,309.25
				c0,0,1.248,9.359,0.624,16.534c-0.624,7.175-5.615,15.91-5.615,15.91l-2.496,2.808l-2.945-9.179
				C271.054,335.322,280.071,327.898,281.486,309.25z"/>
		</g>
		<path style="fill:#263238;stroke:#263238;stroke-linecap:round;stroke-linejoin:round;stroke-miterlimit:10;" d="M182.501,329.694
			c0,0-12.439,6.22-18.362,13.031c-5.923,6.812-8.885,20.139-4.442,31.393c4.442,11.254,21.028,18.658,36.132,18.954
			c15.104,0.296,35.244-17.77,39.39-24.878c4.146-7.108,0.888-20.732-4.146-26.951C226.037,335.026,182.501,329.694,182.501,329.694
			z"/>
		<path style="fill:#92E3A9;stroke:#263238;stroke-linecap:round;stroke-linejoin:round;stroke-miterlimit:10;" d="M281.42,306.001
			c0,0,0.296,5.923-1.777,16.289c-2.073,10.366-8.589,13.031-8.589,13.031s-10.662,9.773-18.658,16.881
			c-7.996,7.108-17.177,12.735-17.177,12.735s-15.401-7.404-24.286-13.92c-8.885-6.516-34.059-18.066-34.059-18.066
			s15.697-9.773,23.693-13.92c7.997-4.146,12.439-8.885,12.439-8.885s1.777-16.585,2.073-23.989
			c0.296-7.404,11.847-12.143,16.881-11.55c5.035,0.592,10.958,5.035,11.254,2.665c0.296-2.369,0-12.439,0-12.439l18.955,3.554
			l0.296,11.847c0,0,1.481,1.777,7.108,2.369c5.627,0.592,11.254,3.554,13.327,7.996"/>
		<path style="fill:#FFFFFF;stroke:#263238;stroke-linecap:round;stroke-linejoin:round;stroke-miterlimit:10;" d="M252.395,287.343
			c5.208,0,8.795-4.241,10.47-6.762c-0.282-0.208-0.401-0.346-0.401-0.346l-0.296-11.847l-18.954-3.554c0,0,0.296,10.07,0,12.439
			c-0.079,0.633-0.569,0.771-1.328,0.635C243.334,281.092,246.876,287.343,252.395,287.343z"/>
		<g>
			<path style="fill:#FFFFFF;stroke:#263238;stroke-linecap:round;stroke-linejoin:round;stroke-miterlimit:10;" d="
				M271.143,215.044l-34.954,19.851c0,0-3.452,15.104-1.726,19.851c1.726,4.747,9.062,18.556,12.515,19.851
				c3.452,1.295,9.062,1.295,13.809-1.726c4.747-3.021,14.672-9.062,16.83-12.946c2.158-3.884-5.674-12.267-6.473-36.681
				C270.988,218.499,271.143,215.044,271.143,215.044z"/>
			<path style="fill:none;stroke:#263238;stroke-linecap:round;stroke-linejoin:round;stroke-miterlimit:10;" d="M251.211,233.737
				c0,0-0.296,1.481-2.073,4.146c-1.777,2.665-5.331,3.554-2.665,5.331c2.665,1.777,5.627,0.296,5.627,0.296"/>
			<path style="fill:#263238;stroke:#263238;stroke-linecap:round;stroke-linejoin:round;stroke-miterlimit:10;" d="M261.946,256.83
				c0.033-0.366-0.041-0.803-0.252-1.321c-1.171-2.875-6.413-5.403-9.302-5.902c-5.77-0.995-10.375,2.481-9.473,5.413
				c0.902,2.932,3.383,0.226,6.997,0.226c2.457,0.002,4.432,1.732,6.574,2.678C258.209,258.683,261.761,258.88,261.946,256.83z"/>
			<g>
				<path style="fill:#FFFFFF;stroke:#263238;stroke-linecap:round;stroke-linejoin:round;stroke-miterlimit:10;" d="
					M256.49,257.924c1.719,0.759,5.272,0.956,5.456-1.094c0.033-0.366-0.041-0.803-0.252-1.321
					c-0.018-0.043-0.045-0.086-0.064-0.129c-6.325,0.13-15.154-0.845-18.805-1.29c-0.021,0.312,0,0.624,0.094,0.931
					c0.902,2.932,3.383,0.226,6.997,0.226C252.373,255.248,254.348,256.978,256.49,257.924z"/>
				<path style="fill:#FFFFFF;stroke:#263238;stroke-linecap:round;stroke-linejoin:round;stroke-miterlimit:10;" d="
					M257.933,251.817c-1.879-1.13-4.031-1.949-5.542-2.21c-3.016-0.52-5.704,0.186-7.463,1.393
					C247.082,251.874,251.613,253.128,257.933,251.817z"/>
			</g>
			<path style="fill:#263238;" d="M262.169,235.366c0,1.227-0.597,2.221-1.333,2.221c-0.736,0-1.333-0.994-1.333-2.221
				c0-1.227,0.597-2.221,1.333-2.221C261.572,233.145,262.169,234.139,262.169,235.366z"/>
			<path style="fill:#263238;" d="M247.361,233.737c0,1.227-0.597,2.221-1.333,2.221c-0.736,0-1.333-0.995-1.333-2.221
				c0-1.227,0.597-2.221,1.333-2.221C246.764,231.516,247.361,232.51,247.361,233.737z"/>
			<path style="fill:none;stroke:#263238;stroke-linecap:round;stroke-linejoin:round;stroke-miterlimit:10;" d="M259.8,227.518
				c0,0,5.035-2.665,7.996,2.962"/>
		</g>
		<path style="fill:#92E3A9;stroke:#263238;stroke-linecap:round;stroke-linejoin:round;stroke-miterlimit:10;" d="M257.134,310.74
			c0,0-11.55-19.547-15.401-29.024c-3.85-9.477-9.477-13.327-18.066-9.773c-8.589,3.554-9.181,11.55-6.219,19.843
			c3.243,9.081,18.658,42.648,21.916,50.348c3.258,7.7,7.7,12.439,7.7,12.439s7.404-5.331,10.662-17.177
			C260.984,325.548,257.134,310.74,257.134,310.74z"/>
		<g>
			<path style="fill:#263238;stroke:#263238;stroke-linecap:round;stroke-linejoin:round;stroke-miterlimit:10;" d="
				M275.496,379.154c0,0,0.45,0.153,1.24,0.439c5.623,2.034,28.486,10.799,29.265,19.108c0.889,9.477-26.655,25.174-40.574,31.393
				c-13.92,6.22-64.268,17.77-64.268,17.77s0.889,7.996,2.369,13.624s8.293,13.327,6.812,15.104
				c-1.481,1.777-5.331-0.296-11.846-2.962c-6.516-2.665-9.477-11.254-14.512-16.585c-5.035-5.331-8.589-13.031-8.589-15.697
				s7.7-3.258,10.366-4.146s18.362-1.185,27.84-7.108c9.477-5.923,43.24-25.47,43.24-25.47s-27.247,4.739-40.871,3.554
				c-13.624-1.185-32.578-7.404-43.536-15.993c-10.958-8.589,0.296-23.397,4.146-26.655c3.85-3.258,39.982,2.665,58.641,4.146
				C253.876,371.158,275.496,379.154,275.496,379.154z"/>
			<path style="fill:#FFFFFF;stroke:#263238;stroke-linecap:round;stroke-linejoin:round;stroke-miterlimit:10;" d="
				M227.671,421.654c-5.871,3.463-11.138,6.606-14.073,8.441c-9.477,5.923-25.174,6.22-27.84,7.108s-10.366,1.481-10.366,4.146
				c0,2.665,3.554,10.366,8.589,15.697c5.035,5.331,7.996,13.92,14.512,16.585c6.516,2.665,10.366,4.739,11.847,2.962
				c1.481-1.777-5.331-9.477-6.812-15.104s-2.369-13.624-2.369-13.624s19.515-4.477,37.605-9.358L227.671,421.654z"/>
			<path style="fill:#92E3A9;stroke:#263238;stroke-linecap:round;stroke-linejoin:round;stroke-miterlimit:10;" d="
				M195.532,447.568c0,0-2.308-6.462-3.868-11.238c-2.877,0.365-5.056,0.589-5.906,0.872c-2.665,0.888-10.366,1.481-10.366,4.146
				c0,2.665,3.554,10.366,8.589,15.697c5.035,5.331,7.996,13.92,14.512,16.585c6.516,2.665,10.366,4.739,11.847,2.962
				c1.481-1.777-5.331-9.477-6.812-15.104s-2.369-13.624-2.369-13.624l-3.85-0.296H195.532z"/>
			<path style="fill:#FFFFFF;stroke:#263238;stroke-linecap:round;stroke-linejoin:round;stroke-miterlimit:10;" d="M210.34,476.592
				c0.223-0.267,0.24-0.682,0.134-1.191c-4.817-1.491-11.533-3.623-14.942-6.806c-4.442-4.146-6.516-10.07-10.07-14.808
				c-2.653-3.538-5.636-11.201-6.978-14.858c-1.751,0.562-3.092,1.31-3.092,2.419c0,2.665,3.554,10.366,8.589,15.697
				c5.035,5.331,7.996,13.92,14.512,16.585C205.009,476.296,208.859,478.369,210.34,476.592z"/>
		</g>
		<path style="fill:#263238;stroke:#263238;stroke-linecap:round;stroke-linejoin:round;stroke-miterlimit:10;" d="M178.354,332.36
			c0,0-12.143,4.739-18.955,18.658c-6.812,13.92-0.592,30.209,9.181,39.094c9.773,8.885,31.986,9.773,42.352,8.589
			c10.366-1.185,22.805-1.481,22.805-1.481s-40.871,42.648-42.055,43.536c-1.185,0.889-17.178,10.958-17.178,11.847
			c0,0.888,10.07,18.362,16.881,24.878c6.812,6.516,13.031,11.55,15.993,9.181s-0.592-2.665-0.888-6.516
			c-0.296-3.85-1.842-11.939-2.962-18.658c-1.185-7.108-0.889-11.847-0.889-11.847s68.71-48.275,77.299-61.602
			c8.589-13.327,2.073-20.732-5.035-24.878c-7.108-4.146-63.083-9.773-94.773-4.146"/>
		<g>
			<path style="fill:none;stroke:#959B9D;stroke-linecap:round;stroke-linejoin:round;stroke-miterlimit:10;" d="M226.215,405.095
				c0,0,22.034-26.829,29.734-32.457"/>
			<path style="fill:none;stroke:#959B9D;stroke-linecap:round;stroke-linejoin:round;stroke-miterlimit:10;" d="M184.185,356.278
				c8.546-0.262,22.415-0.593,32.907-0.383"/>
			<path style="fill:none;stroke:#959B9D;stroke-linecap:round;stroke-linejoin:round;stroke-miterlimit:10;" d="M176.363,356.547
				c0,0,1.072-0.043,2.917-0.108"/>
			<path style="fill:none;stroke:#959B9D;stroke-linecap:round;stroke-linejoin:round;stroke-miterlimit:10;" d="M190.411,397.961
				c10.168,1.284,24.839,2.767,43.624-2.967"/>
			<path style="fill:none;stroke:#959B9D;stroke-linecap:round;stroke-linejoin:round;stroke-miterlimit:10;" d="M179.947,395.972
				c0,0,1.568,0.468,4.404,1.023"/>
			<path style="fill:none;stroke:#959B9D;stroke-linecap:round;stroke-linejoin:round;stroke-miterlimit:10;" d="M247.465,418.412
				c10.553-7.31,25.379-19.209,34.467-33.518"/>
			<path style="fill:none;stroke:#959B9D;stroke-linecap:round;stroke-linejoin:round;stroke-miterlimit:10;" d="M235.012,426.274
				c0,0,2.409-1.316,6.219-3.729"/>
		</g>
		<path style="fill:#FFFFFF;stroke:#263238;stroke-linecap:round;stroke-linejoin:round;stroke-miterlimit:10;" d="M221.887,435.818
			l-12.596-13.152c-8.97,9.312-17.091,17.701-17.61,18.09c-1.185,0.889-17.178,10.958-17.178,11.847
			c0,0.888,10.07,18.362,16.881,24.878c6.812,6.516,13.031,11.55,15.993,9.181c2.962-2.369-0.592-2.665-0.888-6.516
			c-0.296-3.85-1.842-11.939-2.962-18.658c-1.185-7.108-0.889-11.847-0.889-11.847S210.82,443.894,221.887,435.818z"/>
		<g>
			<path style="fill:#92E3A9;stroke:#263238;stroke-linecap:round;stroke-linejoin:round;stroke-miterlimit:10;" d="
				M198.197,451.122c-2.073,0.592-3.258,1.185-3.258,1.185l-4.256-10.876c-3.755,2.473-16.18,10.389-16.18,11.172
				c0,0.888,10.07,18.362,16.881,24.878c6.812,6.516,13.031,11.55,15.993,9.181c2.962-2.369-0.592-2.665-0.888-6.516
				c-0.296-3.85-1.842-11.939-2.962-18.658c-1.185-7.108-0.889-11.847-0.889-11.847S200.271,450.53,198.197,451.122z"/>
			<path style="fill:#FFFFFF;stroke:#263238;stroke-linecap:round;stroke-linejoin:round;stroke-miterlimit:10;" d="
				M207.208,486.765c-7.031-3.379-15.522-10.658-20.265-19.354c-3.33-6.105-7.007-13.02-9.298-17.35
				c-1.86,1.304-3.141,2.29-3.141,2.541c0,0.888,10.07,18.362,16.881,24.878C198.075,483.879,204.186,488.832,207.208,486.765z"/>
		</g>
		<g>
			<g>
				<path style="fill:#FFFFFF;stroke:#263238;stroke-linecap:round;stroke-linejoin:round;stroke-miterlimit:10;" d="
					M255.357,286.454c0,0-6.516-7.7-8.589-8.885c-2.073-1.185-1.481-5.627-1.481-9.181c0-3.554-2.073-6.219,0.296-6.219
					c2.369,0,3.85,1.777,3.85,4.739c0,2.962-0.889,3.554,0.296,4.443c1.185,0.888,3.554,2.073,3.554,2.073v-13.92
					c0,0-3.258-3.258-2.073-3.258c1.185,0,3.258,0.296,5.627,0.592c2.369,0.296,9.477-0.296,11.254,1.481
					c1.777,1.777,1.481,5.627,1.481,5.627s2.665,0,2.962,1.777c0.296,1.777-0.296,4.146-1.185,10.366
					c-0.889,6.219-2.665,19.843-2.665,26.655s-0.889,31.986-3.85,39.982c-2.962,7.996-12.439,15.104-15.4,14.512
					c-2.962-0.592-7.7-7.404-6.516-15.4c1.185-7.997,7.996-26.063,11.254-34.948c3.258-8.885,3.258-18.954,3.258-18.954
					L255.357,286.454z"/>
				<path style="fill:none;stroke:#263238;stroke-linecap:round;stroke-linejoin:round;stroke-miterlimit:10;" d="M256.838,256.838
					c0,0,1.537,0.757,1.694,1.85c0.156,1.093,0.781,5.621,0.781,5.621"/>
				<path style="fill:#FFFFFF;stroke:#263238;stroke-linecap:round;stroke-linejoin:round;stroke-miterlimit:10;" d="
					M261.946,256.83c0,0,2.206,1.701,2.206,3.731c0,2.03,0,4.372,0,4.372"/>
				
					<line style="fill:#FFFFFF;stroke:#263238;stroke-linecap:round;stroke-linejoin:round;stroke-miterlimit:10;" x1="269.573" y1="263.946" x2="269.461" y2="267.119"/>
			</g>
			<path style="fill:#92E3A9;stroke:#263238;stroke-linecap:round;stroke-linejoin:round;stroke-miterlimit:10;" d="
				M267.818,322.982c-10.907,1.928-15.78-1.29-17.945-4.307c-3.014,8.443-6.181,17.945-6.954,23.162
				c-1.185,7.997,3.554,14.808,6.516,15.401c2.962,0.592,12.439-6.516,15.401-14.512
				C266.273,338.841,267.222,330.901,267.818,322.982z"/>
		</g>
	</g>
</g>
</svg>
